<svg width="52" height="52" viewBox="0 0 52 52" fill="none" xmlns="http://www.w3.org/2000/svg">
<circle cx="26.2377" cy="25.7622" r="24.2622" stroke="#407826" stroke-width="3"/>
<path d="M26.4674 18.8997C23.0991 18.8997 20.3082 21.6424 20.3082 25.0589C20.3082 28.4753 23.0509 31.2181 26.4674 31.2181C29.8838 31.2181 32.6266 28.4272 32.6266 25.0589C32.6266 21.6906 29.8357 18.8997 26.4674 18.8997ZM26.4674 29.0046C24.302 29.0046 22.5216 27.2242 22.5216 25.0589C22.5216 22.8935 24.302 21.1131 26.4674 21.1131C28.6327 21.1131 30.4131 22.8935 30.4131 25.0589C30.4131 27.2242 28.6327 29.0046 26.4674 29.0046Z" fill="#407826"/>
<path d="M32.8669 20.1507C33.6376 20.1507 34.2624 19.5259 34.2624 18.7553C34.2624 17.9846 33.6376 17.3598 32.8669 17.3598C32.0962 17.3598 31.4715 17.9846 31.4715 18.7553C31.4715 19.5259 32.0962 20.1507 32.8669 20.1507Z" fill="#407826"/>
<path d="M36.4761 15.1463C35.225 13.8471 33.4446 13.1734 31.4236 13.1734L21.5111 13.1734C17.3248 13.1734 14.5339 15.9643 14.5339 20.1507L14.5339 30.015C14.5339 32.0841 15.2076 33.8645 16.5549 35.1637C17.8541 36.4148 19.5864 37.0403 21.5592 37.0403L31.3755 37.0403C33.4446 37.0403 35.1768 36.3667 36.4279 35.1637C37.7271 33.9126 38.4008 32.1322 38.4008 30.0631L38.4008 20.1507C38.4008 18.1297 37.7271 16.3974 36.4761 15.1463ZM36.2836 30.0631C36.2836 31.5548 35.7543 32.7578 34.8881 33.5758C34.022 34.3938 32.819 34.8269 31.3755 34.8269L21.5592 34.8269C20.1157 34.8269 18.9127 34.3938 18.0466 33.5758C17.1804 32.7097 16.7474 31.5067 16.7474 30.015L16.7474 20.1507C16.7474 18.7071 17.1804 17.5041 18.0466 16.638C18.8646 15.82 20.1157 15.3869 21.5592 15.3869L31.4717 15.3869C32.9153 15.3869 34.1182 15.82 34.9844 16.6861C35.8024 17.5523 36.2836 18.7552 36.2836 20.1507L36.2836 30.0631Z" fill="#407826"/>
</svg>
