<svg width="39" height="39" viewBox="0 0 39 39" fill="none" xmlns="http://www.w3.org/2000/svg">
<circle cx="19.5" cy="19.5002" r="19.5" fill="#3BAE2B"/>
<path d="M19.3184 7.20312C22.5554 7.20312 25.1802 9.82793 25.1802 13.0649C25.1802 16.3019 22.5554 18.9267 19.3184 18.9267C16.0814 18.9267 13.4566 16.3019 13.4566 13.0649C13.4566 9.81954 16.0814 7.20312 19.3184 7.20312ZM19.3184 15.4801C20.6601 15.4801 21.7419 14.3983 21.7419 13.0565C21.7419 11.7148 20.6601 10.633 19.3184 10.633C17.9766 10.633 16.8949 11.7148 16.8949 13.0565C16.8949 14.3983 17.9766 15.4801 19.3184 15.4801Z" fill="white"/>
<path d="M17.2472 23.5808C14.8992 23.1028 13.4987 21.9959 13.4232 21.9288C12.7356 21.3753 12.6266 20.3774 13.18 19.6897C13.7335 19.0021 14.7314 18.8931 15.4191 19.4465C15.4359 19.4549 16.937 20.6122 19.4024 20.6122C21.8679 20.6122 23.4025 19.4633 23.4109 19.4465C24.0986 18.8931 25.0965 19.0105 25.65 19.6897C26.2034 20.3774 26.086 21.3753 25.4068 21.9288C25.3313 21.9875 23.8638 23.128 21.457 23.5976L24.8114 27.1113C25.4235 27.7486 25.4068 28.755 24.7694 29.3671C24.4592 29.669 24.065 29.8116 23.6625 29.8116C23.2432 29.8116 22.8239 29.6523 22.5136 29.3252L19.394 25.996L15.9558 29.342C15.3352 29.9625 14.3205 29.9625 13.7 29.342C13.0794 28.7214 13.0794 27.7067 13.7 27.0862L17.2472 23.5808Z" fill="white"/>
</svg>
