<svg width="52" height="52" viewBox="0 0 52 52" fill="none" xmlns="http://www.w3.org/2000/svg">
<circle cx="25.7619" cy="25.7622" r="24.2622" stroke="#407826" stroke-width="3"/>
<path d="M37.9719 18.5476L33.3589 18.5476C33.1707 18.5476 32.9859 18.6038 32.8243 18.7103C32.6627 18.8168 32.5304 18.9695 32.4414 19.1522C32.4414 19.1522 30.6015 22.8845 30.0105 24.1416C28.4207 27.5234 27.3911 26.4617 27.3911 24.8922L27.3911 19.4806C27.3911 19.0283 27.228 18.5946 26.9377 18.2749C26.6474 17.9551 26.2537 17.7755 25.8432 17.7755L22.3748 17.7755C21.9025 17.7368 21.429 17.8318 20.9994 18.0513C20.5697 18.2709 20.1982 18.6079 19.92 19.0302C19.92 19.0302 21.6812 18.7165 21.6812 21.3304C21.6812 21.9786 21.7115 23.8432 21.7391 25.4071C21.7443 25.6376 21.6852 25.8643 21.5698 26.0566C21.4543 26.2489 21.2881 26.3975 21.0935 26.4824C20.8989 26.5673 20.6854 26.5844 20.4817 26.5314C20.278 26.4784 20.094 26.3578 19.9545 26.1859C18.5348 24.011 17.3589 21.6552 16.4522 19.1696C16.3743 18.9837 16.2497 18.8262 16.093 18.716C15.9364 18.6057 15.7543 18.5473 15.5684 18.5476C14.568 18.5476 12.5661 18.5476 11.3772 18.5476C11.2619 18.5467 11.1482 18.5767 11.0457 18.6349C10.9433 18.6932 10.8552 18.778 10.7891 18.882C10.7229 18.986 10.6807 19.1061 10.666 19.2321C10.6513 19.358 10.6646 19.486 10.7047 19.6051C11.9774 23.4503 17.4596 35.534 23.7169 35.534L26.3506 35.534C26.6266 35.534 26.8912 35.4133 27.0864 35.1984C27.2815 34.9834 27.3911 34.6919 27.3911 34.3879L27.3911 32.6362C27.3911 32.4164 27.4495 32.2015 27.559 32.0178C27.6686 31.8342 27.8245 31.6898 28.0076 31.6026C28.1907 31.5153 28.393 31.489 28.5895 31.5268C28.7861 31.5646 28.9682 31.665 29.1136 31.8154L32.266 35.0779C32.5491 35.3709 32.923 35.534 33.3114 35.534L37.4511 35.534C39.4476 35.534 39.4476 34.008 38.3591 32.8271C37.593 31.9961 34.8286 28.7865 34.8286 28.7865C34.5918 28.5163 34.4506 28.1618 34.4305 27.787C34.4103 27.4122 34.5126 27.0418 34.7187 26.7428C35.6122 25.4475 37.0738 23.3273 37.6936 22.4191C38.5408 21.1776 40.0742 18.5476 37.9719 18.5476Z" fill="#407826"/>
</svg>
