<svg width="39" height="39" viewBox="0 0 39 39" fill="none" xmlns="http://www.w3.org/2000/svg">
<circle cx="19.5" cy="19.5" r="19.5" fill="#3BAE2B"/>
<path d="M28.7418 14.0391L25.2501 14.0391C25.1076 14.0391 24.9677 14.0817 24.8454 14.1623C24.7231 14.2429 24.6229 14.3585 24.5555 14.4968C24.5555 14.4968 23.1629 17.3218 22.7156 18.2734C21.5122 20.8331 20.7329 20.0295 20.7329 18.8415L20.7329 14.7453C20.7329 14.403 20.6094 14.0747 20.3897 13.8327C20.17 13.5907 19.872 13.4547 19.5612 13.4547L16.9359 13.4547C16.5784 13.4254 16.22 13.4973 15.8948 13.6635C15.5696 13.8297 15.2884 14.0848 15.0778 14.4044C15.0778 14.4044 16.4109 14.167 16.4109 16.1455C16.4109 16.6361 16.4339 18.0475 16.4548 19.2313C16.4587 19.4057 16.414 19.5773 16.3266 19.7228C16.2392 19.8684 16.1133 19.9809 15.9661 20.0452C15.8188 20.1094 15.6571 20.1224 15.503 20.0822C15.3488 20.0421 15.2095 19.9508 15.1039 19.8208C14.0294 18.1745 13.1393 16.3913 12.453 14.5099C12.394 14.3692 12.2997 14.25 12.1811 14.1666C12.0625 14.0831 11.9247 14.0389 11.784 14.0391C11.0268 14.0391 9.51147 14.0391 8.61158 14.0391C8.52432 14.0385 8.43822 14.0611 8.36067 14.1052C8.28313 14.1493 8.21646 14.2135 8.16639 14.2922C8.11633 14.3709 8.08436 14.4619 8.07324 14.5572C8.06212 14.6526 8.07218 14.7494 8.10256 14.8396C9.06586 17.7501 13.2155 26.8966 17.9518 26.8966L19.9453 26.8966C20.1542 26.8966 20.3545 26.8052 20.5022 26.6425C20.6499 26.4798 20.7329 26.2591 20.7329 26.0291L20.7329 24.7031C20.7329 24.5368 20.7771 24.3741 20.86 24.2351C20.9429 24.096 21.0609 23.9868 21.1995 23.9207C21.3381 23.8547 21.4912 23.8348 21.64 23.8634C21.7888 23.892 21.9267 23.968 22.0367 24.0819L24.4228 26.5513C24.6371 26.7731 24.9201 26.8966 25.2141 26.8966L28.3475 26.8966C29.8587 26.8966 29.8587 25.7415 29.0348 24.8476C28.4549 24.2186 26.3625 21.7892 26.3625 21.7892C26.1833 21.5847 26.0764 21.3163 26.0612 21.0326C26.0459 20.7489 26.1233 20.4686 26.2793 20.2423C26.9557 19.2619 28.0619 17.657 28.5311 16.9695C29.1724 16.0298 30.333 14.0391 28.7418 14.0391Z" fill="white"/>
</svg>
