<svg width="53" height="52" viewBox="0 0 53 52" fill="none" xmlns="http://www.w3.org/2000/svg">
<circle cx="26.4999" cy="25.7622" r="24.2622" stroke="#407826" stroke-width="3"/>
<g clip-path="url(#clip0)">
<path d="M26.4983 35.534H26.4931C25.6899 35.5288 18.5813 35.4653 16.563 34.9096C15.1548 34.5233 14.044 33.4013 13.6633 31.9725C13.1365 29.9615 13.173 26.0982 13.173 25.786C13.173 25.4791 13.1365 21.5841 13.6633 19.5572V19.5519C14.0388 18.1389 15.1757 16.98 16.5578 16.5936C16.563 16.5936 16.563 16.5936 16.5682 16.5883C18.5605 16.0591 25.6847 15.9956 26.4878 15.9903H26.5035C27.3119 15.9956 34.4413 16.0591 36.4335 16.6148C37.8365 16.9958 38.9473 18.1231 39.3281 19.5519C39.8757 21.5788 39.8235 25.4844 39.8183 25.8125C39.8235 26.1353 39.8548 29.9668 39.3281 31.9883V31.9936C38.9473 33.4225 37.8365 34.5497 36.4283 34.9307H36.4231C34.4308 35.46 27.3066 35.5288 26.5035 35.534H26.4983ZM15.6764 20.1023C15.2122 21.891 15.2592 25.7384 15.2592 25.7754V25.8019C15.2435 26.8709 15.2957 29.9615 15.6764 31.4221C15.8641 32.1206 16.4118 32.6763 17.1054 32.8668C18.5918 33.2743 24.3808 33.4013 26.4983 33.4172C28.6209 33.4013 34.4204 33.2796 35.8964 32.888C36.59 32.6975 37.1376 32.1418 37.3201 31.4433C37.7061 29.9562 37.753 26.8815 37.7374 25.8231C37.7374 25.8125 37.7374 25.8019 37.7374 25.7913C37.7582 24.7117 37.7165 21.5841 37.3201 20.1076V20.1023C37.1324 19.3985 36.5848 18.8428 35.8911 18.6523C34.4204 18.2448 28.6209 18.1178 26.4983 18.1019C24.3756 18.1178 18.5866 18.2395 17.1054 18.6311C16.4222 18.8269 15.8641 19.3985 15.6764 20.1023ZM23.8436 30.0409V21.4835L31.1295 25.7595L23.8436 30.0409Z" fill="#407826"/>
</g>
<defs>
<clipPath id="clip0">
<rect width="26.6505" height="19.5437" fill="white" transform="translate(13.1746 15.9903)"/>
</clipPath>
</defs>
</svg>
