<svg width="29" height="29" viewBox="0 0 29 29" fill="none" xmlns="http://www.w3.org/2000/svg">
<circle cx="14.5" cy="14.5" r="13.9" stroke="#407826" stroke-width="1.2"/>
<g clip-path="url(#clip0)">
<path d="M14.4994 20H14.4965C14.0444 19.997 10.0434 19.9613 8.90741 19.6485C8.11485 19.4311 7.4896 18.7996 7.27532 17.9954C6.97884 16.8635 6.99939 14.6891 6.99939 14.5134C6.99939 14.3406 6.97884 12.1484 7.27532 11.0076V11.0046C7.48667 10.2093 8.12659 9.557 8.90448 9.33956C8.90741 9.33956 8.90741 9.33956 8.91035 9.33658C10.0317 9.03872 14.0415 9.00298 14.4935 9H14.5023C14.9573 9.00298 18.97 9.03872 20.0914 9.35148C20.881 9.56594 21.5062 10.2004 21.7205 11.0046C22.0287 12.1454 21.9994 14.3436 21.9965 14.5283C21.9994 14.71 22.017 16.8665 21.7205 18.0043V18.0073C21.5062 18.8115 20.881 19.446 20.0884 19.6604H20.0855C18.9642 19.9583 14.9544 19.997 14.5023 20H14.4994ZM8.40839 11.3144C8.14714 12.3211 8.17356 14.4866 8.17356 14.5074V14.5223C8.16475 15.124 8.19411 16.8635 8.40839 17.6856C8.51407 18.0788 8.82229 18.3916 9.2127 18.4988C10.0493 18.7281 13.3076 18.7996 14.4994 18.8086C15.6941 18.7996 18.9583 18.7311 19.789 18.5107C20.1794 18.4035 20.4876 18.0907 20.5904 17.6975C20.8076 16.8605 20.834 15.13 20.8252 14.5343C20.8252 14.5283 20.8252 14.5223 20.8252 14.5164C20.837 13.9087 20.8135 12.1484 20.5904 11.3174V11.3144C20.4847 10.9182 20.1765 10.6055 19.7861 10.4982C18.9583 10.2689 15.6941 10.1974 14.4994 10.1885C13.3047 10.1974 10.0464 10.2659 9.2127 10.4863C8.82816 10.5965 8.51407 10.9182 8.40839 11.3144ZM13.0053 16.9082V12.0918L17.106 14.4985L13.0053 16.9082Z" fill="#407826"/>
</g>
<defs>
<clipPath id="clip0">
<rect width="15" height="11" fill="white" transform="translate(7 9)"/>
</clipPath>
</defs>
</svg>
