<svg width="375" height="335" viewBox="0 0 375 335" fill="none" xmlns="http://www.w3.org/2000/svg">
<path d="M566.014 161.5C564.515 159.5 565.015 157.5 565.515 155.5C565.515 155 566.514 155 567.014 155C567.014 154 566.514 153.5 565.515 153.5C564.016 153.5 563.016 154 563.016 155C563.016 155.5 562.517 156 562.017 156L561.517 155.5C561.517 153.5 561.018 151.5 561.018 149.5C561.018 149 559.019 148.5 558.019 149C557.52 149 557.52 149.5 557.52 150C556.52 149.5 555.521 149 554.522 148.5C551.523 148.5 551.523 147 551.523 145.5C551.523 145 551.523 144.5 551.523 144C551.523 143.5 551.024 143 550.524 143C550.024 143.5 549.525 144 549.525 144.5C549.025 146.5 548.026 145.5 547.026 145H546.527C546.527 145.5 546.027 146 546.027 146.5C546.027 147.5 546.527 148 548.026 148C548.525 148 550.524 148 549.025 149C546.527 151 544.528 151.5 543.029 149C542.029 147 539.531 146.5 538.532 145C537.032 143 534.034 142 533.535 139.5C533.535 139 532.535 139 532.036 139.5C531.036 140 530.037 140.5 530.037 141.5C528.038 141 526.539 140 526.039 138.5C525.54 136 522.541 128.5 521.042 126C520.543 125.5 520.043 124.5 520.043 124C520.043 123.5 520.043 123 520.043 122.5C520.543 121.5 521.042 121.5 522.042 122C522.541 122.5 523.041 122.5 523.541 122C523.541 121.5 524.041 121 523.541 120.5C523.041 120 522.042 119.5 521.042 119.5C519.543 119 520.043 118.5 520.543 118C521.042 117.5 521.042 117 520.543 117C520.043 117 519.044 117 518.544 117C517.045 117.5 516.046 119 514.047 118C512.548 117 511.049 116 511.049 114.5C511.049 113.5 511.548 112 510.049 111C509.05 110.5 509.05 109.5 507.051 110.5C505.052 111.5 503.054 112 501.055 112.5C500.056 112.5 499.556 112 499.056 111C497.057 110.5 496.558 109.5 497.557 108C498.057 107.5 498.057 107 498.556 106.5C496.558 106 495.059 104.5 493.56 105C490.062 106.5 486.564 105.5 482.566 106C481.567 106 481.067 105.5 481.067 104.5C481.067 103 480.568 102 478.069 101C476.07 100.5 475.071 99.4998 473.072 100.5C471.074 102 468.575 101 466.576 101C466.077 101 466.077 100.5 466.077 100.5C466.077 100.5 466.077 99.9998 466.576 99.9998C468.575 98.9998 470.574 98.4998 472.573 97.9998C473.572 97.4998 473.572 97.4998 472.573 96.9998C471.573 96.4998 470.074 95.9998 469.075 95.9998C467.576 95.4998 467.076 96.9998 466.077 97.4998C465.077 97.9998 464.578 97.9998 463.578 98.4998C463.578 97.9998 463.078 97.4998 463.078 97.4998C462.579 96.9998 462.079 95.9998 462.079 95.4998C462.079 94.4998 462.079 93.4998 461.08 92.4998C459.581 91.4998 458.581 90.9998 457.082 91.9998C456.583 91.4998 456.083 91.4998 456.083 90.9998C455.583 90.4998 456.083 88.9998 454.584 89.9998C452.085 91.4998 448.587 90.9998 448.088 93.9998C447.588 95.9998 446.589 94.9998 445.589 94.4998C445.09 94.4998 445.09 93.9998 444.59 93.9998C442.591 92.9998 442.591 92.9998 444.09 91.4998L444.59 90.9998C446.589 88.9998 446.589 88.4998 444.59 86.9998C443.591 86.4998 442.591 85.4998 441.592 84.9998C441.092 84.4998 440.592 84.4998 440.093 85.4998V85.9998C440.592 86.9998 441.592 87.9998 441.092 88.4998C440.093 89.9998 438.594 90.9998 437.095 91.4998C435.596 92.4998 434.096 90.9998 432.597 90.4998C431.598 89.9998 430.599 90.4998 429.599 89.9998C428.1 89.4998 426.601 88.9998 424.602 89.9998C422.604 90.9998 420.105 89.9998 418.606 88.4998C418.106 87.4998 417.107 86.9998 416.607 85.9998C415.108 86.9998 413.609 86.4998 412.61 85.9998C411.611 85.4998 410.111 85.9998 408.612 85.9998C406.614 85.9998 405.614 84.9998 405.614 83.4998L405.115 82.9998L404.615 83.4998C404.615 83.9998 404.615 84.9998 404.115 85.4998C404.115 85.9998 404.115 87.4998 402.616 86.4998C401.617 85.9998 400.617 84.9998 399.618 84.4998C398.619 83.4998 397.12 82.9998 395.62 82.4998C393.122 81.9998 396.62 80.4998 395.121 79.4998C393.622 78.4998 392.123 76.9998 390.624 76.4998C389.624 75.9998 387.625 77.4998 386.126 77.9998C385.627 77.9998 385.627 78.4998 385.127 78.4998C384.627 78.9998 384.128 78.9998 383.628 78.4998C381.629 76.4998 381.629 74.4998 384.128 73.4998C386.626 72.4998 387.126 72.4998 385.627 70.4998C384.627 69.4998 386.126 68.4998 387.126 68.4998C389.125 68.4998 391.123 68.9998 392.622 67.9998C395.121 65.9998 398.619 64.9998 401.617 63.9998C402.616 63.4998 402.616 63.4998 402.116 62.9998C401.617 62.9998 401.617 62.9998 401.117 62.4998C400.617 62.4998 400.118 61.9998 399.618 61.9998C400.118 61.4998 400.118 60.9998 400.617 60.9998C401.617 59.9998 403.116 59.4998 405.115 60.4998C408.113 61.9998 408.612 61.4998 410.611 59.4998C411.111 58.9998 411.111 58.4998 411.111 58.4998C412.61 58.4998 413.609 56.9998 414.609 56.4998C416.108 55.4998 417.607 54.9998 418.606 53.9998C418.606 52.9998 418.606 51.9998 417.607 50.4998C416.607 48.4998 414.109 46.9998 414.609 44.4998C412.11 44.4998 410.111 42.9998 407.613 42.4998L407.113 41.9998C407.613 41.9998 408.113 41.4998 408.612 41.4998C409.112 41.4998 409.612 40.9998 410.111 40.4998L409.612 39.9998C408.113 39.4998 407.113 38.4998 405.614 38.4998C404.115 37.9998 403.116 38.4998 403.116 39.9998C402.616 39.9998 402.116 39.9998 401.117 39.9998C400.617 39.9998 400.617 39.9998 400.118 39.9998C397.619 39.4998 397.12 39.4998 395.121 39.9998C395.121 40.4998 395.121 40.9998 395.121 41.4998C396.12 41.4998 397.12 41.4998 398.119 41.4998C398.619 41.4998 398.619 41.9998 399.118 41.9998C396.62 43.9998 394.621 46.4998 391.123 47.4998C390.624 47.4998 390.624 47.4998 390.124 47.4998C389.624 47.4998 389.624 46.9998 389.624 46.9998C388.625 43.4998 390.624 39.4998 387.625 35.9998C388.125 35.9998 388.625 35.4998 389.624 35.4998C390.624 34.9998 391.623 34.9998 390.124 33.9998C389.125 32.9998 390.124 31.4998 388.125 30.9998L387.625 31.4998C387.126 31.9998 387.625 33.4998 385.627 32.9998C382.629 31.9998 380.13 31.4998 377.132 32.9998C375.633 33.9998 374.134 33.4998 372.635 32.9998C372.135 32.9998 371.136 31.9998 371.136 32.4998C368.637 33.9998 364.64 33.4998 363.64 36.4998C362.141 36.4998 362.141 34.9998 361.642 34.4998C360.642 33.4998 359.143 33.4998 357.644 32.4998C356.645 31.9998 356.645 31.9998 356.145 32.4998C355.645 32.9998 355.645 33.9998 355.645 34.4998C355.146 36.4998 353.147 35.9998 351.648 35.9998C349.149 35.9998 350.648 34.9998 351.148 33.9998C351.648 32.9998 350.149 31.9998 349.149 31.9998C348.15 31.4998 348.15 32.4998 347.65 33.4998C347.65 34.9998 347.65 34.9998 344.152 34.9998C342.653 34.9998 340.655 34.9998 339.156 34.9998C338.156 34.9998 338.156 35.9998 338.656 36.4998C339.156 36.9998 339.156 37.4998 338.656 37.4998C338.156 37.4998 337.157 37.9998 336.657 37.4998C334.159 35.4998 332.66 37.9998 330.661 37.9998L330.161 38.4998C330.661 38.9998 331.161 38.9998 331.66 39.4998C332.66 39.4998 333.659 39.9998 333.659 40.4998C333.659 40.9998 333.159 41.4998 333.159 41.9998C331.66 41.4998 330.161 41.4998 328.662 40.9998C328.162 40.4998 328.163 39.4998 327.663 38.9998C327.663 38.4998 327.663 37.9998 327.163 37.4998C326.663 36.9998 326.164 36.4998 325.664 37.4998C324.665 38.4998 324.165 39.4998 323.166 40.4998C322.166 41.4998 320.167 41.4998 319.168 39.9998C318.668 39.4998 318.668 38.4998 317.669 38.4998C317.169 38.4998 316.67 38.4998 315.67 38.9998V39.4998C316.17 41.9998 315.67 42.4998 312.172 41.9998C310.673 41.4998 309.174 41.4998 307.675 41.9998C305.676 42.4998 304.177 41.9998 303.178 40.4998C303.178 39.9998 303.178 39.4998 303.178 38.9998C303.178 38.4998 303.678 38.4998 304.677 38.9998C306.676 39.9998 309.174 40.4998 311.173 38.9998C311.673 38.4998 312.172 37.9998 312.172 37.9998C311.673 37.9998 311.173 37.4998 310.673 37.4998C308.175 37.4998 306.176 37.4998 303.678 37.4998C301.679 36.9998 299.68 39.9998 297.182 37.9998C296.682 37.9998 296.182 38.9998 296.682 39.4998C298.181 40.4998 298.681 41.9998 298.181 43.4998C295.683 43.9998 294.184 42.4998 292.185 41.9998C289.686 41.4998 291.685 40.9998 291.685 39.9998C292.185 38.9998 290.686 37.9998 289.686 37.9998C288.687 37.4998 288.187 38.4998 288.187 39.4998C288.187 40.4998 288.187 41.4998 287.188 42.4998C285.689 43.4998 284.19 44.4998 284.19 45.9998C284.19 46.9998 282.691 46.4998 282.691 45.4998C282.191 44.9998 282.191 43.9998 281.192 43.9998C278.194 43.9998 278.693 41.9998 278.693 40.4998C278.693 39.9998 278.693 39.4998 278.693 38.9998C277.194 39.4998 276.195 39.9998 274.696 40.4998C274.696 41.9998 274.696 43.4998 274.696 44.9998C274.696 45.4998 274.196 45.9998 274.196 45.9998C274.196 45.9998 273.197 45.9998 272.697 45.4998C272.197 44.9998 271.198 44.4998 271.198 43.4998C269.699 39.9998 266.201 39.4998 262.703 39.9998C262.703 40.9998 262.204 41.4998 260.704 41.4998C260.205 41.4998 259.705 41.4998 258.706 40.9998C257.207 40.4998 255.208 39.4998 253.709 38.9998L252.709 39.4998C252.709 39.4998 252.709 39.9998 252.709 40.4998C253.209 42.4998 256.207 42.4998 256.707 44.4998V44.9998L256.207 45.4998C254.208 44.4998 251.21 44.4998 250.711 41.9998H250.211C249.711 41.9998 249.711 42.4998 249.711 42.4998C249.711 42.9998 249.711 43.9998 249.711 44.9998C250.711 48.4998 250.711 48.4998 247.713 49.4998C247.213 49.9998 244.215 49.9998 241.716 49.4998C240.217 49.4998 238.218 49.4998 237.219 50.4998C236.22 51.4998 235.72 50.4998 234.721 49.9998C233.721 49.4998 233.222 48.4998 233.721 47.4998C234.221 46.9998 234.221 46.9998 235.22 47.4998C235.72 47.9998 237.219 48.4998 237.219 47.4998C237.219 46.9998 236.719 45.9998 235.72 45.9998C234.221 45.9998 232.222 45.4998 231.223 46.4998C230.723 46.9998 229.724 47.9998 229.724 47.9998C232.222 49.4998 230.223 51.9998 232.222 53.4998C233.222 53.9998 232.722 54.4998 231.723 54.4998C231.223 54.4998 230.223 54.4998 229.724 54.4998C229.224 53.9998 228.724 52.9998 228.724 52.4998C228.225 51.9998 227.725 51.9998 227.225 52.4998C226.226 53.4998 224.727 53.4998 225.227 51.9998C225.726 49.9998 223.727 48.4998 221.729 47.9998C220.729 47.4998 219.23 47.9998 217.731 47.9998C217.232 47.9998 217.232 48.4998 216.732 48.9998C215.732 49.4998 213.734 50.4998 213.734 49.9998C211.735 48.9998 210.736 49.9998 209.236 50.4998C207.737 50.9998 205.739 50.4998 204.24 50.9998C202.741 50.9998 203.74 51.9998 203.74 52.4998C204.24 52.9998 204.24 53.4998 204.24 53.4998C202.741 53.4998 201.241 53.9998 200.242 51.9998C199.742 50.4998 196.744 48.4998 199.742 46.4998L199.243 45.4998C196.744 45.4998 194.746 45.4998 192.247 45.4998C191.747 44.4998 190.748 44.9998 190.748 45.4998C190.248 47.9998 187.75 47.4998 185.751 47.9998C185.251 47.9998 185.251 48.9998 184.752 48.9998C184.752 49.9998 185.751 50.4998 186.75 51.4998C187.75 52.4998 188.25 50.9998 189.249 50.9998C189.749 50.9998 190.748 50.9998 190.748 51.4998C190.748 52.4998 189.749 53.4998 189.249 54.9998C188.749 57.4998 189.249 57.4998 186.75 58.4998C186.251 57.4998 185.751 56.9998 184.252 56.9998C181.254 57.4998 178.755 56.4998 176.757 55.4998C177.256 53.9998 179.755 52.4998 178.755 50.4998C178.755 49.9998 178.256 49.9998 177.756 49.4998L177.256 49.9998C176.757 52.4998 171.76 52.4998 172.759 55.9998C172.759 56.4998 172.26 56.9998 171.76 56.4998C170.76 55.4998 168.762 54.9998 170.76 53.4998C171.26 52.9998 171.26 52.4998 170.261 52.4998C169.761 52.4998 168.762 52.4998 168.262 52.9998C167.762 53.4998 167.762 53.9998 167.263 54.4998C166.263 57.9998 164.764 57.9998 160.767 56.4998C160.267 56.4998 159.767 55.9998 159.268 55.9998C159.268 56.4998 158.768 56.9998 158.768 56.9998C156.269 57.4998 155.27 58.4998 155.27 60.4998C154.77 60.4998 153.771 60.4998 153.771 59.9998C153.271 58.9998 153.271 57.9998 153.271 56.9998C153.271 56.4998 152.272 55.9998 151.772 55.9998C150.273 55.4998 147.775 57.4998 148.274 58.4998C148.274 58.9998 148.774 59.4998 149.274 59.9998C146.276 60.4998 143.777 61.4998 141.279 61.9998C139.78 62.4998 138.281 59.9998 136.282 60.4998C133.783 60.9998 132.284 59.4998 130.286 58.9998V59.4998C128.287 61.9998 128.287 61.9998 131.285 63.4998C132.284 63.9998 132.284 63.9998 131.785 64.4998C129.786 66.4998 128.787 66.4998 126.788 65.4998C125.788 64.9998 125.289 64.9998 124.289 64.4998C123.79 64.4998 123.79 63.9998 123.29 63.4998C123.79 63.4998 124.289 62.9998 124.789 62.9998C125.289 62.9998 125.788 62.4998 126.288 61.9998C125.788 61.9998 125.788 61.4998 125.289 61.4998C123.29 61.4998 122.291 60.4998 122.291 58.9998C122.291 58.4998 121.291 57.9998 121.291 58.4998C120.792 58.9998 120.792 59.9998 120.292 60.4998C119.293 61.9998 118.293 61.9998 115.795 60.9998C114.795 60.9998 113.796 60.9998 112.797 60.9998C112.797 61.9998 112.797 63.4998 111.297 64.4998C110.798 64.9998 110.298 65.9998 108.799 64.9998C107.3 63.4998 104.302 62.4998 104.302 59.9998C104.302 59.4998 104.302 58.4998 103.302 57.9998C102.803 58.4998 102.803 59.4998 102.303 59.9998C102.303 60.4998 102.303 61.4998 102.303 62.4998C102.303 62.9998 101.803 63.4998 101.304 63.4998C100.304 63.4998 99.305 63.4998 98.8053 62.9998C98.3056 62.4998 98.3056 61.4998 97.3062 60.9998C95.8071 60.4998 94.8078 60.9998 93.8084 61.9998C92.3093 62.9998 91.3099 61.9998 90.3106 61.4998C87.8121 60.4998 87.8121 60.4998 86.313 62.4998C85.8134 62.9998 85.3137 63.9998 84.3143 63.4998C83.3149 62.9998 82.3155 62.4998 81.3162 61.9998C80.3168 60.9998 81.8159 60.4998 81.8159 59.9998C82.3156 58.9998 81.8159 57.9998 80.8165 57.4998C80.3168 56.9998 79.8171 56.9998 79.3174 56.4998C79.3174 56.4998 78.318 56.9998 78.318 57.4998C78.318 59.9998 76.819 61.4998 74.8202 62.4998C73.3211 63.4998 72.8214 63.4998 72.3217 61.4998C69.3236 59.9998 68.8239 59.9998 66.3255 59.9998C65.8258 59.9998 65.3261 60.4998 64.8264 60.4998C65.3261 60.9998 65.8258 60.9998 66.3255 61.4998C66.8252 61.4998 67.3249 61.9998 67.8246 61.9998C67.3249 62.4998 67.3249 62.4998 66.8252 62.9998C66.3255 62.9998 65.3261 62.9998 64.8264 63.4998C63.8271 64.4998 62.8277 64.4998 61.3286 63.4998C60.8289 62.9998 59.8296 61.9998 59.3299 61.9998C57.8308 62.4998 58.3305 63.4998 58.3305 64.4998C58.3305 65.4998 58.3305 65.9998 58.3305 66.9998C58.3305 67.4998 57.3311 67.9998 56.8314 67.4998C55.3323 66.4998 53.8333 65.4998 52.3342 64.4998C50.8351 62.9998 47.3373 63.9998 47.837 60.9998C47.837 60.4998 47.3373 60.4998 46.3379 60.9998C43.8395 63.4998 43.8395 63.4998 39.3423 63.4998C36.3442 63.4998 33.346 63.4998 30.3479 63.4998C28.8488 63.4998 27.8495 63.9998 26.8501 64.9998C26.3504 65.4998 26.3504 65.9998 26.3504 65.9998C26.8501 65.9998 27.8495 66.4998 28.3491 66.4998C29.8482 65.9998 31.3473 64.4998 33.346 66.4998C33.346 66.4998 35.3448 65.9998 35.8445 65.9998C36.8439 65.4998 37.3436 65.4998 37.8432 66.4998C37.8432 66.9998 37.8432 67.4998 37.3435 67.9998C36.3442 68.9998 33.8457 68.4998 33.8457 69.9998C32.3466 69.9998 29.8482 70.4998 29.3485 69.4998C27.3498 67.9998 25.8507 69.4998 24.3516 69.4998C23.3522 69.4998 22.3529 68.9998 21.8532 68.4998C20.8538 67.9998 20.3541 66.9998 19.8544 65.9998C19.3547 64.9998 17.356 64.4998 16.3566 63.9998C15.3572 63.4998 14.8575 61.9998 14.8575 61.4998C14.8575 61.4998 15.3572 60.9998 15.8569 60.9998C16.3566 60.9998 16.8563 60.9998 17.8557 61.4998C19.3548 61.9998 21.3535 61.4998 21.3535 60.4998C21.8532 59.9998 20.3541 58.4998 19.3548 58.4998C15.8569 57.9998 12.3591 57.9998 8.86127 58.4998C8.36157 58.4998 7.86189 59.9998 8.36159 60.4998C8.86127 60.9998 9.36096 60.9998 9.86064 60.4998C10.3603 59.9998 10.86 59.9998 11.3597 59.9998C11.8594 59.9998 12.3591 61.4998 11.8594 61.9998C11.3597 62.4998 10.3603 62.9998 9.86064 63.4998C8.86127 63.9998 7.3622 63.9998 6.36282 62.9998C6.36282 62.9998 6.36282 62.4998 5.86314 62.4998C5.36345 61.9998 5.36345 61.9998 4.86375 61.4998C4.36407 61.9998 4.36406 62.4998 3.86438 62.9998C3.86438 63.4998 3.86438 64.4998 3.3647 64.9998C1.86563 65.9998 1.36595 64.4998 0.366577 63.9998C-2.13188 62.4998 -5.13002 61.4998 -7.62846 59.9998C-10.6266 61.9998 -10.1269 59.9998 -10.6266 58.4998C-10.6266 57.4998 -10.1269 56.4998 -11.626 55.4998C-12.1257 54.9998 -12.6254 54.9998 -13.6247 54.9998C-14.1244 54.9998 -14.6241 55.4998 -14.6241 55.9998C-15.1238 57.4998 -13.125 57.9998 -13.125 59.4998C-13.125 59.9998 -13.6247 60.4998 -13.6247 60.9998C-13.6247 60.9998 -14.1244 60.9998 -14.6241 60.9998C-16.6228 60.4998 -17.1225 58.4998 -19.1213 58.4998C-19.1213 59.4998 -19.1213 60.4998 -18.6216 60.9998C-17.6223 62.4998 -16.1232 63.9998 -15.6235 65.4998C-15.1238 66.4998 -15.6235 67.4998 -17.6222 67.4998C-18.1219 65.4998 -20.6204 64.9998 -22.1194 63.4998C-22.6191 62.9998 -23.1188 62.9998 -23.6185 63.4998C-24.1182 63.9998 -25.1176 64.9998 -25.1176 64.9998C-24.1182 65.9998 -23.1188 66.9998 -23.6185 68.4998C-23.6185 68.9998 -24.1182 69.4998 -24.6179 69.9998C-26.1169 69.4998 -28.1157 68.9998 -29.6148 67.9998H-30.1145C-30.1145 67.9998 -29.6148 67.9998 -29.1151 67.4998C-28.6154 65.4998 -29.6148 64.4998 -31.6135 64.9998C-34.112 65.4998 -36.1107 63.9998 -38.6092 63.9998C-39.1089 63.9998 -39.6086 62.4998 -40.6079 61.4998C-41.1076 60.9998 -41.6073 60.9998 -42.107 60.4998C-42.6067 59.9998 -43.1064 59.9998 -43.6061 60.4998C-43.1064 59.9998 -44.1058 60.9998 -44.1058 62.4998C-44.6054 64.9998 -45.1051 64.9998 -48.1033 64.4998C-49.6023 64.4998 -51.1014 63.9998 -52.6005 63.4998C-53.1002 63.4998 -54.0995 63.9998 -54.5992 64.4998C-55.5986 64.9998 -55.0989 65.4998 -54.5992 65.9998C-53.5999 66.4998 -53.5999 67.4998 -54.0995 67.9998C-55.0989 69.4998 -55.5986 67.9998 -56.0983 67.9998C-58.097 66.9998 -60.5955 67.9998 -63.0939 67.4998C-65.0927 67.4998 -66.0921 68.4998 -66.0921 69.4998C-66.5918 70.4998 -66.5918 69.9998 -67.5911 69.4998C-70.0896 66.9998 -70.0896 66.9998 -72.0883 68.4998C-72.588 68.9998 -73.0877 68.9998 -73.5874 69.4998C-75.5862 70.4998 -75.5862 69.4998 -76.0858 68.4998C-76.5855 67.4998 -77.5849 67.4998 -78.5843 67.4998C-79.084 67.4998 -79.5837 67.9998 -80.0834 68.4998C-80.5831 68.9998 -80.0834 69.9998 -80.5831 70.9998L-81.0827 71.4998C-81.5824 71.4998 -82.0821 70.9998 -82.0821 70.9998C-82.0821 69.9998 -81.5824 67.9998 -83.5812 67.4998C-85.5799 66.9998 -87.5787 67.4998 -89.0778 68.9998L-89.5775 69.4998V69.9998C-89.5775 69.9998 -89.0778 70.4998 -88.5781 70.4998C-87.5787 70.4998 -86.5793 69.9998 -86.0796 69.9998C-84.5806 69.4998 -84.5806 69.9998 -84.0809 70.4998C-84.0809 70.9998 -84.0809 71.4998 -84.5806 71.9998C-85.0802 72.4998 -85.5799 72.4998 -86.5793 72.4998C-89.5775 72.9998 -90.5768 73.9998 -90.0771 75.9998C-90.0771 76.4998 -89.5775 76.9998 -89.0778 77.4998C-88.5781 77.9998 -88.5781 78.4998 -89.5775 78.4998C-90.0771 78.4998 -92.0759 78.4998 -92.0759 77.9998C-92.0759 77.9998 -92.5756 77.4998 -92.0759 77.4998C-91.5762 74.9998 -94.0747 74.4998 -96.0734 73.9998C-98.0722 73.4998 -98.0722 73.4998 -98.0722 74.9998C-98.0722 76.9998 -98.0722 78.9998 -98.0722 80.9998C-98.0722 81.4998 -99.0715 81.4998 -99.0715 81.9998L-99.5712 81.4998C-99.5712 79.9998 -100.571 78.9998 -102.07 78.4998C-102.569 78.4998 -102.569 77.9998 -103.069 77.9998C-103.569 78.4998 -103.569 78.9998 -104.068 79.4998C-104.568 80.4998 -101.57 81.4998 -103.569 82.4998C-105.567 83.9998 -108.066 84.9998 -105.068 87.4998C-105.068 87.4998 -105.068 88.4998 -105.567 88.4998C-107.566 89.4998 -110.065 90.4998 -112.063 91.4998C-115.062 92.4998 -116.561 93.4998 -116.061 95.9998C-116.061 96.9998 -117.06 97.4998 -118.06 97.4998C-119.059 97.4998 -120.558 97.4998 -121.058 97.9998C-123.057 99.4998 -124.556 98.4998 -126.055 97.4998C-126.554 96.9998 -127.554 95.9998 -128.553 96.9998C-129.053 97.4998 -131.052 97.9998 -130.052 99.4998C-129.053 100.5 -129.053 101.5 -129.053 102.5C-129.053 103.5 -129.553 104 -130.552 104C-131.551 104 -132.551 103.5 -132.551 103C-132.551 102.5 -133.05 101.5 -133.55 101.5C-134.549 101.5 -135.049 102 -135.049 103C-135.049 104 -135.049 105 -135.049 106C-135.049 106.5 -136.049 106.5 -136.049 107L-136.548 106.5C-136.548 104 -137.048 101.5 -137.048 98.9998L-137.548 98.4998L-138.047 98.9998C-137.548 101.5 -139.546 102.5 -142.045 103.5C-142.544 103.5 -142.544 105 -141.545 105.5C-140.546 106 -138.047 105.5 -140.046 107.5C-142.045 110 -143.544 113 -142.544 116C-142.544 117 -142.544 118.5 -142.544 120C-143.044 121 -144.044 120.5 -144.543 120C-145.043 120 -145.543 119.5 -146.042 119.5C-146.042 120.5 -145.543 122 -147.042 122C-151.039 122.5 -154.537 123 -158.535 121.5C-159.534 121 -160.533 121.5 -161.533 122.5C-162.032 123 -162.032 123 -161.533 123.5C-161.033 124 -159.034 125 -158.535 124.5C-157.035 123.5 -154.537 123.5 -153.038 123.5C-151.039 123.5 -150.539 124 -150.539 126C-150.539 126.5 -150.539 127 -151.039 127.5C-151.539 128 -152.039 128 -152.538 127.5C-154.037 126 -155.536 125 -158.035 126.5C-159.534 127.5 -162.032 126.5 -163.531 125.5C-166.03 127 -166.53 126 -166.53 124C-166.53 123 -166.53 122.5 -166.53 121.5C-166.53 121 -167.029 121 -167.529 120.5L-168.029 121C-168.029 125.5 -168.029 129.5 -168.029 134C-169.528 134 -170.027 133 -170.027 132L-171.027 131.5C-171.526 133.5 -174.025 134 -175.524 135C-176.024 135.5 -175.524 136.5 -174.525 137C-173.525 137.5 -172.526 137.5 -172.026 138C-171.526 138 -172.026 139 -172.026 139.5C-172.526 140 -173.025 140 -174.025 139.5C-174.525 139 -175.024 139 -175.524 138.5C-176.523 138 -178.022 139 -177.523 139C-175.524 140.5 -176.523 143 -176.024 145C-176.024 145.5 -175.024 146 -174.525 145.5C-173.025 144.5 -172.526 145 -172.026 146.5C-172.026 147.5 -171.027 147.5 -170.027 148C-170.027 149 -171.027 149.5 -172.526 149.5C-174.025 149.5 -175.524 149 -177.023 148.5C-180.021 150 -184.019 150 -186.017 152.5C-187.017 152.5 -188.016 152 -188.016 151.5C-188.016 150.5 -188.516 150 -189.515 150C-190.515 150 -191.514 149.5 -192.513 150C-194.512 151 -192.513 151.5 -192.014 152.5C-190.515 154.5 -194.512 156.5 -192.014 158.5C-194.012 159.5 -195.511 160.5 -198.51 160C-198.51 160.5 -199.009 161 -200.009 161C-200.508 161 -200.508 160.5 -200.508 160C-201.508 160 -202.507 160.5 -202.507 161C-202.507 162.5 -202.507 164.5 -202.507 166C-202.507 166.5 -203.507 167.5 -204.506 167C-206.005 167 -207.004 167 -208.503 167C-210.002 167 -210.502 168 -210.502 169C-210.502 169.5 -210.502 170.5 -210.002 171C-209.503 172 -208.004 171.5 -207.004 171.5C-207.504 173 -209.003 173 -210.502 173C-211.002 173 -212.001 173.5 -212.001 173.5C-212.001 174.5 -211.002 174.5 -210.002 174.5C-209.003 175 -208.503 175 -209.503 176C-210.002 176.5 -210.502 177.5 -210.502 178C-209.003 180 -209.003 181 -210.002 182.5C-211.502 184 -212.501 186 -209.503 187.5C-208.503 188 -209.003 188.5 -209.503 189.5C-210.002 191.5 -212.001 193 -213.5 194.5C-214 194.5 -214 195 -213.001 195C-212.501 195 -212.501 195 -212.001 195C-211.502 195 -211.002 195 -210.002 195C-210.002 194.5 -209.503 194 -208.503 194C-208.004 194 -208.004 194.5 -208.004 195C-207.504 195 -206.505 195.5 -206.505 195.5C-206.005 197.5 -204.506 199 -201.508 199.5C-200.009 200 -201.008 200.5 -201.508 201C-202.007 201.5 -201.508 202 -201.008 202C-198.01 202 -196.011 203 -195.012 205C-192.014 205.5 -191.014 206 -195.012 207C-196.511 207.5 -196.511 209 -195.511 209.5C-194.512 210 -193.013 210 -193.013 210.5C-192.014 212.5 -190.515 213 -188.016 213C-188.016 213 -187.516 213.5 -187.017 214L-187.516 214.5C-188.016 214.5 -189.016 214.5 -189.515 215C-190.515 215.5 -190.015 216.5 -189.515 217C-189.016 217.5 -188.516 217.5 -188.016 217.5C-187.516 217.5 -187.516 217.5 -187.017 217.5C-186.517 217 -186.017 217 -185.518 216.5C-183.019 215 -183.019 215 -181.021 216.5C-180.021 217 -179.022 218 -177.523 217.5C-177.023 217.5 -176.523 216.5 -176.024 216C-175.524 215 -174.525 215.5 -174.025 216C-173.525 216.5 -173.025 217.5 -172.526 217.5C-172.026 217.5 -171.526 217.5 -170.527 217.5C-170.027 217.5 -170.027 217 -170.527 216.5C-171.027 216 -171.027 215.5 -171.027 215.5C-170.527 215.5 -169.528 215 -169.028 215.5C-167.529 216 -168.029 217 -167.029 218C-166.03 219 -163.531 218.5 -163.531 220C-162.532 220 -162.032 220.5 -161.533 221.5C-159.534 221.5 -157.535 221.5 -157.535 224C-157.535 224.5 -157.035 226 -156.536 226C-153.538 226.5 -153.038 228 -153.038 230L-152.538 230.5C-152.039 230.5 -151.539 230 -151.539 230V229.5C-151.539 228.5 -151.039 227 -151.039 226C-148.541 225.5 -148.041 227.5 -147.042 228.5C-146.042 229 -146.042 230 -145.043 231C-144.044 232 -142.544 231.5 -141.545 231.5C-140.046 229.5 -139.047 229.5 -137.548 231.5C-135.049 231.5 -136.049 235.5 -132.551 233.5C-132.051 234 -132.051 234.5 -131.551 235C-131.052 235.5 -130.552 236 -130.552 236C-127.554 234.5 -128.053 236 -127.054 237.5C-126.055 240 -124.556 243 -123.556 245.5C-124.556 246 -125.555 246.5 -126.554 247C-127.554 247.5 -129.053 247.5 -130.052 247C-130.552 247 -131.052 246 -131.551 245.5C-133.05 245.5 -133.55 244.5 -133.55 243.5C-134.05 241.5 -136.049 242.5 -137.548 242.5C-138.047 242.5 -138.547 243 -138.547 243.5C-138.047 244.5 -137.048 245 -139.047 245.5C-140.046 245.5 -141.045 245.5 -142.045 246C-143.044 246 -143.044 246.5 -142.544 247C-141.045 248.5 -140.546 248.5 -137.548 248C-137.048 248 -136.049 247.5 -136.049 247.5C-133.55 250.5 -128.553 251.5 -127.054 255.5C-126.554 256.5 -125.055 256.5 -123.556 256C-123.057 255.5 -122.557 255.5 -122.057 255.5C-122.057 256 -121.558 257 -121.558 257.5C-121.558 258 -121.558 259 -122.557 259C-123.057 259 -123.556 258.5 -124.056 258.5C-125.055 258.5 -125.555 261.5 -125.055 261.5C-123.057 262.5 -121.058 263 -119.059 263.5C-118.06 263.5 -117.56 263 -117.06 262C-116.561 260.5 -117.56 259.5 -118.559 258.5C-119.059 258 -118.559 257.5 -118.06 257.5C-117.56 257.5 -116.561 257.5 -116.061 258C-115.561 258 -115.561 258.5 -115.561 258.5C-115.561 262.5 -112.063 265.5 -108.566 268C-108.066 268.5 -108.066 268.5 -107.566 269C-107.067 270 -107.067 269 -108.566 269.5C-110.564 270 -111.064 270.5 -111.064 272C-111.564 275 -109.065 276 -106.567 277C-106.067 277 -105.567 277.5 -104.568 277.5C-103.569 277.5 -103.069 277 -102.569 276C-102.07 276 -101.57 275.5 -101.07 275.5C-100.071 274.5 -99.0715 274.5 -98.5719 276C-98.0722 277.5 -96.0734 278.5 -96.5731 280.5C-94.5743 280.5 -91.5762 280 -90.0771 281C-87.5787 282 -84.5806 281.5 -83.0815 283C-82.0821 284 -82.5818 286 -83.0815 287.5C-83.5812 289 -81.0827 290 -80.5831 291.5C-76.5855 291.5 -76.5855 291.5 -73.5874 294.5C-73.0877 295 -71.5887 295.5 -70.5893 296C-70.5893 297 -69.5899 297.5 -68.5905 297.5C-67.0914 297.5 -65.5924 297.5 -65.0927 297C-63.5936 296.5 -62.5943 296.5 -62.0946 297.5C-61.5949 298.5 -60.5955 299 -60.0958 300C-59.5961 301 -58.0971 300.5 -57.5974 300.5C-56.0983 300 -54.5992 299 -55.0989 301.5C-55.0989 303.5 -54.0995 306 -55.0989 307.5C-56.0983 309.5 -57.5974 311 -55.0989 312.5C-54.5992 313 -54.5992 314 -55.5986 314.5C-57.5974 315.5 -57.0977 317 -56.0983 318.5C-56.0983 319 -55.0989 319 -54.5992 319C-53.5999 319 -53.1002 318.5 -53.5999 317.5C-54.0995 317 -54.0995 316.5 -54.0995 316.5C-53.1002 315.5 -51.1014 314.5 -50.6017 313C-49.6023 313 -49.1026 313.5 -48.603 314C-48.603 315 -48.603 316 -48.603 317.5C-45.6048 316.5 -43.1064 315 -39.6085 317C-38.6092 318 -36.6104 317.5 -35.1114 317C-33.6123 316 -32.1132 315.5 -30.6142 317C-29.6148 318 -29.1151 317 -28.1157 316.5C-25.6173 315.5 -23.6185 315.5 -22.1194 317.5C-21.6197 318 -20.6204 319 -20.1207 319C-19.621 319 -18.6216 318 -17.6222 318C-17.1226 317.5 -15.6235 317 -15.6235 317C-14.6241 318 -15.1238 319 -16.1232 319.5C-16.6229 320 -16.6229 320 -16.1232 320.5C-14.6241 322 -13.125 322.5 -11.1263 321.5C-10.1269 321.5 -9.62723 320.5 -8.62785 321C-7.12878 322 -5.13002 321.5 -4.13065 322C-2.13188 323 -1.13251 323 0.866257 322C1.36594 321.5 2.36531 322.5 3.3647 323C5.36345 325.5 5.86314 325.5 7.86191 323C8.36159 322.5 8.36157 322 8.86127 322C9.36096 322.5 9.86064 323 9.86064 323.5C9.86064 324.5 10.3603 325 11.3597 325C12.8588 325 14.8575 325 15.8569 326C16.8563 327 18.3554 326.5 19.3548 326C20.3541 325.5 20.8538 325 21.3535 324.5C23.3522 323.5 23.3522 325 23.3522 325.5L23.8519 326C24.3516 325.5 24.8513 325.5 24.8513 325C24.8513 324 24.8513 323 24.8513 322C24.8513 321 25.351 320.5 26.3504 320.5C26.8501 320.5 27.8495 320.5 28.3491 321C29.3485 322 30.8476 322.5 31.3473 324C31.847 325.5 34.3454 325.5 34.8451 324C35.3448 322.5 36.8439 322 38.3429 321.5C39.842 321 42.3404 320 39.842 318C40.3417 318 40.8414 317.5 41.341 317.5C43.3398 318 45.3386 318.5 47.3373 317.5C48.8364 317 50.3354 317 51.8345 318.5L56.8314 317C56.3317 316.5 56.3317 316.5 55.832 316C55.3323 316 54.3329 316 53.8333 316C52.8339 316 51.3348 316 52.3342 315C52.8339 314.5 53.8333 314 54.333 313.5C55.832 315 57.8308 313.5 59.3299 314C60.8289 314.5 61.8283 315.5 60.3293 317C59.8296 317.5 59.8296 318 60.3293 318.5C60.8289 319.5 61.8283 319 62.328 318.5C62.8277 318.5 63.3274 318 64.3268 318C65.8258 318 67.8246 318 68.3242 319.5C71.8221 319 71.8221 319 72.3217 317.5C72.3217 317 72.3217 316.5 72.3217 316L72.8215 315.5C73.3211 316 73.8208 316 73.8208 316.5C74.8202 318 75.3199 318 75.8196 317C76.819 314 79.8171 313 83.3149 313.5C85.3137 313.5 86.8127 311.5 89.3112 313C91.3099 311.5 91.8096 312 92.3093 314L92.809 314.5C93.3087 314 93.8084 314 93.8084 313.5C93.8084 312.5 93.8084 311.5 93.8084 310.5C93.8084 310 94.3081 309.5 94.3081 309C94.8078 309 95.3075 309.5 95.8071 309.5C96.8065 310.5 97.3062 312 98.3056 312.5C100.304 314 101.803 311.5 103.802 311.5C104.302 311.5 104.302 311.5 104.802 311.5C108.299 311 108.799 311.5 109.798 314.5C110.298 315.5 110.798 316 111.297 316C113.296 316 115.295 316.5 116.794 315.5C119.292 313.5 120.292 316.5 122.79 316.5C123.29 316.5 123.29 317.5 122.291 317.5C120.292 318 119.292 318.5 119.292 320C119.292 321.5 119.293 323 119.792 324.5L120.292 325C120.792 324.5 121.291 324.5 121.291 324C121.791 323 120.792 322 122.291 321C123.29 320.5 124.789 320.5 125.788 320.5C127.787 320.5 128.787 321 130.286 321.5C131.285 322 132.284 322 133.284 322C134.783 322 135.782 321 136.282 320.5C137.281 319.5 136.282 319 135.782 318.5C135.283 318 135.782 317.5 136.282 317.5C136.782 317.5 137.781 317.5 138.281 317.5C139.28 319 141.279 320.5 139.28 322.5C138.78 323 139.28 324 139.28 324.5C140.779 324.5 142.278 322.5 144.277 324.5L144.777 325C145.776 325.5 146.775 326.5 147.775 327C149.774 327.5 150.273 325.5 151.273 325C152.772 324.5 153.771 323.5 155.27 323C155.27 322.5 155.27 322 155.77 321.5C156.269 320.5 157.769 319.5 158.768 320C160.767 321.5 163.765 322.5 164.264 325C164.264 325 165.264 325.5 165.764 325.5C166.763 325.5 167.762 325 167.762 324C167.762 323.5 167.762 323 167.762 322.5C167.762 321.5 168.762 321 169.761 321.5C170.261 321.5 171.26 322 171.26 322C171.76 324.5 173.759 325.5 175.757 327C176.757 327.5 178.755 327.5 179.255 326.5C180.255 325 180.754 323.5 181.754 322.5C182.253 321.5 183.752 321 185.251 322C186.251 322.5 186.751 323 187.75 323C189.249 323 190.748 323.5 191.248 322.5C192.247 321.5 191.747 320.5 190.748 320C190.248 319.5 189.749 319 190.748 319C191.248 319 192.247 319 192.747 319C193.246 319 193.246 319.5 193.246 319.5C193.246 322 194.246 324 198.243 323.5C199.742 323.5 198.743 324.5 198.243 325C197.744 326 198.743 327 199.742 327.5C201.241 328 201.241 327 201.241 326.5C201.241 325 201.241 324 203.24 323C203.74 323 204.24 322.5 204.739 322.5L205.239 323C205.239 323.5 205.239 324 205.239 324.5C205.239 325.5 205.239 326 205.239 327L205.739 327.5C206.238 327.5 206.738 327 206.738 327C206.738 325 206.738 323 210.236 323.5C212.734 324 214.733 324.5 217.232 323.5C218.231 323 220.23 323 221.229 323.5C224.727 325.5 226.226 325 227.725 322C227.725 321.5 228.724 321.5 229.224 321C229.724 320.5 230.223 320.5 230.723 321.5C230.723 322 230.723 322.5 230.723 323C230.723 324.5 231.223 325 233.721 324C234.221 323.5 235.72 324.5 236.719 325C236.719 325.5 236.22 326 236.22 326C235.22 326.5 233.721 326.5 232.222 326.5C231.723 326.5 231.723 327 231.723 327V327.5C234.721 328 237.219 331 240.717 329C241.716 328.5 242.216 328.5 243.215 329C244.714 329.5 246.214 330.5 247.713 331C249.212 331.5 248.712 330.5 249.212 330C249.711 329.5 250.211 329 250.211 329C251.21 329.5 252.21 330.5 253.209 331C254.208 331.5 255.208 332 256.207 332.5C256.707 332 256.707 331 257.207 330.5C258.706 329 260.704 328 262.204 326.5C262.703 326 262.703 325.5 262.703 325C262.703 325 262.703 324.5 262.204 324.5C261.704 324.5 261.704 324 261.704 324C261.204 324 261.204 324.5 260.704 324.5C259.205 325.5 257.706 326.5 256.207 327.5C256.207 327.5 255.708 328 255.208 328C254.708 327.5 254.208 327 254.208 326.5C254.208 324.5 253.209 322.5 257.207 321.5C258.206 321.5 258.206 320 257.706 319C257.207 318.5 257.207 318 257.207 318C257.706 318 258.706 317.5 259.205 317.5C260.704 318 261.704 319 263.203 318C264.702 317 267.2 317.5 268.699 318.5C269.699 319 270.199 319.5 270.698 320L276.195 319.5C276.195 318 278.194 318 279.693 317C281.691 315.5 282.191 316.5 282.691 318L283.19 318.5C283.69 318 284.19 318 284.19 317.5C285.689 313.5 285.689 313.5 289.686 316C290.686 317 292.185 318 293.184 318.5C294.184 319 295.183 319 295.683 318.5C296.682 318 297.681 317 299.181 317.5C300.68 318 302.179 319.5 303.678 318.5C305.177 317 306.676 318.5 307.675 318.5C311.173 318 312.172 318.5 314.171 321C314.671 321.5 314.671 321.5 316.17 320.5C316.67 320 317.169 319.5 317.669 320C319.168 321.5 320.667 320 322.166 319.5C323.665 319.5 325.664 319.5 327.163 319.5C327.663 319.5 328.662 319.5 329.162 319.5C329.662 319.5 330.161 319 330.661 318.5C332.16 317 332.16 317 334.658 318C335.158 318.5 335.158 319 335.658 319.5C336.158 320 337.157 320.5 337.657 321C338.156 320.5 338.656 319.5 338.656 319C338.656 318 338.656 317 339.156 316C340.155 314.5 342.154 315 343.653 315C345.152 315 346.151 314.5 347.151 314C348.15 313.5 349.149 312.5 350.149 312C353.147 311.5 352.647 310 352.647 308.5C352.647 308 353.147 308 353.647 308L354.146 308.5C354.146 308.5 354.146 309 354.146 309.5C354.646 312 355.645 312.5 358.643 312C359.143 312 359.643 311.5 359.643 311L359.143 310.5C358.144 310 357.144 310 356.645 309.5C356.145 309.5 356.645 308.5 356.645 308C358.144 306.5 361.142 307.5 363.141 306.5C364.14 306 365.639 308 366.639 308.5C367.138 308.5 367.638 309 368.138 309C368.138 308.5 368.637 307.5 369.637 307.5C371.136 307.5 371.635 308.5 372.135 309.5C372.135 310 372.635 311.5 373.134 311.5C374.134 311.5 374.134 310.5 374.134 310C374.634 309 376.133 309 377.132 309C378.131 309 380.13 309 378.631 307.5L378.131 307C376.632 301 378.131 302 383.628 301.5C385.627 301.5 387.625 302 389.124 302.5C390.124 303 392.123 302 391.623 301C391.623 300 391.123 299 390.624 298C390.624 297.5 390.124 297 390.124 297C391.123 296.5 391.623 296.5 392.622 297C393.122 297.5 393.622 298.5 395.121 297.5C396.62 296.5 399.618 296.5 400.118 294C400.118 293.5 401.117 293.5 401.117 294.5C401.617 295 401.617 296 402.616 296.5C403.116 296.5 403.616 296.5 404.615 296.5C405.614 296.5 405.614 296 404.615 295.5C404.115 295 403.616 294 404.615 294C407.613 294 409.612 293.5 409.112 290.5C409.112 290.5 409.612 290 410.111 289.5C412.11 291.5 413.11 289 414.609 289C415.108 288 415.608 287.5 417.107 287.5C419.606 288 421.105 288 422.604 287.5V287C423.103 286.5 423.103 285.5 423.603 285C424.103 285.5 424.602 285.5 425.102 286C425.602 287 426.102 287.5 427.101 288.5L427.601 289L428.1 288.5C428.1 287.5 428.6 286.5 428.6 285.5C428.6 285 429.1 285 430.099 285.5C434.096 286.5 434.097 286.5 434.596 284C434.596 283 434.596 282.5 434.596 281.5C434.596 280 436.095 280 437.594 280C439.093 280 440.093 280 440.592 281.5C440.592 282 440.592 283 440.592 284C440.592 284.5 441.592 285 442.092 284.5C445.09 283 444.09 285 444.59 286V286.5C448.088 286.5 448.588 286.5 448.588 284.5C448.588 281.5 451.586 281 453.584 279.5C453.584 279.5 454.584 279.5 455.083 280C456.582 281 456.582 279.5 456.582 279C457.082 277.5 456.582 276.5 455.083 275.5C454.584 275 454.584 274.5 455.583 274.5C456.083 274.5 457.082 274.5 457.582 274.5C459.081 276.5 461.579 278 464.578 278.5C464.578 277.5 465.077 276 466.077 275C467.576 273 469.574 271 469.075 268.5L469.574 268C469.574 268 470.074 268 470.074 268.5C471.073 269.5 471.573 270.5 472.573 271.5C473.072 272 473.572 272 474.072 271.5C474.571 271 474.571 270.5 474.571 270C474.072 269 473.072 268.5 472.573 267.5C471.073 266 471.074 265 473.072 263C475.071 261 476.57 259 480.568 259.5C481.567 259.5 483.066 259.5 484.565 259.5C485.065 259.5 486.064 259 486.064 259C486.564 257 489.562 256 490.561 254C490.561 253.5 490.062 253 490.062 252.5H489.562C487.563 254 486.064 252 484.565 251.5C483.066 251.5 483.066 250 484.065 249C484.565 248.5 485.065 248 485.564 247C487.064 247 488.063 247 489.062 247.5C489.562 248 490.561 248 491.561 248.5C491.561 248.5 492.06 248.5 492.56 248.5C493.06 248.5 493.559 248 492.56 247.5C490.561 246.5 488.063 245.5 486.564 244C485.065 242.5 484.065 240.5 483.066 239L482.566 238.5L482.067 239C482.566 241 481.067 242.5 480.068 244.5C481.567 244.5 482.067 245.5 481.567 246.5C481.067 247 480.568 247.5 479.069 247.5C478.069 247.5 477.07 247.5 476.07 247.5C474.571 247.5 473.572 247 473.572 246C473.572 243 473.572 240 473.572 237C474.072 237 474.571 237 475.071 237C479.069 237 479.069 237 479.069 234C478.069 233.5 476.57 232.5 476.07 233C474.072 233.5 473.072 234 473.072 232C473.072 230 472.073 229 470.574 228.5H470.074L469.574 229C469.075 230 470.574 231 471.074 231.5C471.573 232 471.573 233 470.574 233.5C469.075 234 467.576 234.5 466.576 235.5C466.077 236 465.077 236 464.078 236.5C464.078 235.5 463.079 234.5 463.578 233.5C464.078 232.5 465.577 231.5 466.576 230.5C467.076 230 467.076 229.5 466.077 229.5C465.577 229.5 464.578 229.5 464.078 229.5C463.578 229.5 463.078 230 462.579 230.5C462.079 231 461.579 231 461.579 231.5C461.08 232 461.579 234 459.581 233C457.582 232 457.082 234.5 455.083 233.5C454.584 233.5 453.584 233 453.584 232.5C453.584 231.5 453.584 230 453.085 228.5C453.085 228 452.085 227.5 451.086 227C451.086 225.5 454.084 224 450.586 223C450.087 223 449.587 222.5 449.087 222C448.587 221 449.087 220 450.087 219.5C452.085 219.5 454.084 219 456.083 219C457.082 219 457.582 218 458.581 218C460.58 218 460.58 219 461.08 220L461.579 220.5C462.079 220.5 463.079 221 463.578 220.5C464.578 220.5 464.578 220 464.078 219.5C463.578 218.5 463.078 217.5 463.078 216.5C463.078 216 463.078 215 464.078 215C464.078 215 464.577 216 465.077 216C465.577 216.5 465.577 216.5 466.077 217L466.576 216.5C467.076 215 469.574 213 466.077 211.5C465.077 211 465.077 210.5 466.077 210C467.076 209 467.576 209 469.075 210.5C469.574 211 470.574 212 471.573 211.5C473.572 210.5 477.07 211 477.569 208C477.569 208 478.069 207.5 478.569 207.5L479.069 208C479.069 209.5 479.069 211 479.069 212.5C479.069 214.5 479.069 214.5 483.066 214.5C483.066 214 483.566 213 483.066 212.5C482.067 211.5 481.067 210.5 482.566 209.5C483.566 208.5 484.065 207.5 484.565 206C484.565 205.5 484.565 205 484.565 204.5C484.065 204 483.566 204 483.066 204.5C481.567 205.5 480.068 205.5 478.569 204.5C477.07 203.5 476.07 202 474.072 202C473.072 202 473.572 201.5 474.072 201C475.571 199.5 476.57 199 479.069 200C480.068 200.5 480.568 200.5 481.567 201C481.567 201 482.067 201 482.566 200.5L483.066 200C482.067 199.5 481.567 198.5 480.068 198C478.569 197.5 476.57 198 475.071 197.5C474.072 197.5 474.072 197 474.571 196C475.571 194 475.571 194 473.072 193C472.073 192.5 472.073 192 473.072 191.5C475.071 190.5 475.071 190.5 474.072 190C472.573 189.5 471.074 188.5 469.574 188.5C466.077 188 469.075 187 469.075 186C469.574 185 468.575 184 467.076 184C465.577 184 464.578 184 463.078 184C463.578 181.5 462.079 179.5 461.08 177.5C460.58 177 462.079 176 463.078 176.5C464.078 176.5 464.578 177 465.577 177.5C467.576 178 468.575 178 469.075 176.5C469.075 176 469.075 175.5 469.075 175C470.574 175 471.074 176 472.073 176.5C473.072 176.5 474.072 176.5 474.571 176C475.071 175.5 474.571 174.5 475.071 174C475.571 172.5 476.07 172.5 477.569 173.5C479.568 174.5 481.567 174.5 483.066 173.5C484.565 172.5 485.065 173.5 486.064 174C487.064 174.5 488.063 174.5 488.563 174C489.562 173 489.562 172 489.062 171C489.062 170.5 488.063 169.5 487.064 169.5C485.564 169.5 484.565 169.5 483.066 169.5C483.066 170 482.566 170.5 482.566 170.5C482.566 170.5 482.067 171 482.067 170.5C481.567 170 481.067 170 481.567 169.5C482.067 169.5 482.566 169 483.066 169C483.066 168.5 483.566 168 483.566 167.5C484.065 167 484.565 166.5 485.065 166C485.564 166 486.564 166 487.064 166C490.062 167.5 493.06 168 496.558 167.5C497.557 167.5 498.556 168 499.056 168C501.055 169 501.055 167.5 501.055 166.5C502.054 164 504.053 163.5 506.551 164.5C507.051 164.5 507.051 165 507.051 165C508.55 167 511.548 167 514.047 167C515.546 167 520.043 165.5 517.045 169.5C517.045 169.5 518.044 170.5 518.544 170C522.042 169.5 525.54 173 529.537 170.5C529.537 170.5 530.536 171 530.536 171.5C530.536 171.5 530.536 172 530.536 172.5C530.536 173 531.036 174.5 531.536 174.5C532.535 175 532.535 174 533.035 173C534.034 171.5 535.533 170.5 533.035 169C532.535 169 533.035 168 533.035 167.5C533.535 167 534.034 167 534.534 167.5C535.034 168 535.533 168 536.033 168.5C538.532 169 540.031 168.5 540.53 166C540.53 165 541.03 164 542.529 164C542.529 163 542.529 162 542.529 161C544.528 161 546.527 161 548.525 161C548.525 159.5 549.025 158 550.524 157C551.024 156.5 551.523 156.5 552.023 157C554.022 158 555.021 159.5 554.522 161.5C554.522 162 553.522 162.5 552.523 162.5C552.523 163.5 552.523 164.5 552.523 165.5C552.523 166 553.022 166.5 553.522 167C554.022 167 554.022 167 554.522 166.5C556.021 165.5 557.52 164.5 559.019 163.5C559.019 163.5 559.518 163 560.018 163C560.518 163 561.018 163.5 561.018 164C561.517 164.5 561.017 165.5 562.517 165C566.014 163.5 567.014 162.5 566.014 161.5ZM414.109 50.9998C414.109 50.9998 414.609 51.4998 414.109 50.9998C414.109 51.4998 414.109 51.9998 413.609 51.9998C413.609 51.4998 413.609 51.4998 413.11 50.9998C413.609 50.9998 414.109 50.9998 414.109 50.9998ZM408.612 56.9998C410.111 56.9998 410.611 57.4998 411.111 58.4998C411.111 58.4998 411.111 58.4998 411.611 58.4998C410.611 58.4998 410.111 58.4998 409.112 58.4998L408.612 57.9998C407.613 57.4998 408.113 56.9998 408.612 56.9998ZM403.116 39.9998C403.616 40.4998 404.115 40.4998 404.615 40.4998C405.115 40.9998 404.615 41.4998 403.616 40.9998C403.116 40.9998 403.116 40.4998 403.116 39.9998ZM-201.508 176.5C-202.007 177 -203.007 177 -203.507 176.5C-204.006 176.5 -204.506 176 -204.506 175.5C-204.506 175 -204.006 174 -204.506 173.5C-205.006 173 -205.505 173 -206.505 172.5C-206.505 172 -206.505 171.5 -206.505 171C-206.505 170 -206.005 169.5 -205.006 169.5C-203.507 169.5 -203.007 170 -203.007 170.5C-202.507 172.5 -203.507 174.5 -201.508 176C-201.008 176.5 -201.008 176.5 -201.508 176.5ZM-185.518 153.5C-185.518 153 -186.017 153 -186.017 152.5C-185.518 152.5 -184.518 152.5 -185.018 153.5H-185.518ZM-177.523 152L-178.022 151.5V151H-177.523C-176.523 151.5 -176.523 152 -177.523 152ZM-164.531 129C-163.531 129 -162.532 129.5 -162.532 130V130.5V131C-162.532 131 -163.032 131 -163.531 131H-164.031C-164.531 130.5 -165.03 130.5 -165.53 130L-166.03 129.5C-165.53 129.5 -165.03 129.5 -164.531 129ZM-168.029 133.5C-168.029 134 -168.029 134 -168.029 133.5C-167.529 134 -167.029 134 -166.53 134V134.5C-168.029 135 -168.029 134.5 -168.029 133.5C-168.029 134 -168.528 134 -168.029 133.5ZM-166.53 153C-167.029 153.5 -167.529 153.5 -168.029 153C-168.528 152.5 -169.028 152.5 -169.528 152C-170.027 151.5 -170.027 151 -169.028 151C-167.529 150.5 -166.53 151.5 -166.53 152.5C-166.53 152.5 -166.53 153 -166.53 153ZM-165.03 144.5C-166.03 144.5 -166.03 145.5 -165.53 146C-164.531 147 -164.031 147.5 -165.53 148.5C-166.53 149 -168.029 149 -169.028 148C-169.528 147.5 -170.027 147.5 -170.527 147.5C-170.527 146.5 -170.527 145.5 -170.527 144.5C-170.527 143.5 -171.027 142.5 -169.528 141.5C-168.528 141 -167.529 141.5 -166.53 141C-165.53 141 -164.531 140.5 -164.031 140C-162.532 139 -162.532 140.5 -162.532 141C-162.532 143 -161.533 144.5 -165.03 144.5ZM-159.534 144.5C-159.534 144.5 -159.534 144 -159.534 144.5C-160.034 144 -160.034 143.5 -159.534 143.5H-159.034C-158.535 143.5 -158.535 144 -159.534 144.5ZM-155.037 134L-154.537 134.5L-155.037 135L-155.536 134.5C-156.036 134.5 -155.536 134 -155.037 134ZM-157.035 130.5L-157.535 130C-157.535 130 -157.535 129.5 -157.035 129.5H-156.536C-156.036 130 -156.536 130.5 -157.035 130.5ZM-155.037 149C-155.536 149 -155.536 148.5 -156.036 148.5L-155.536 148L-155.037 148.5C-154.537 148.5 -155.037 148.5 -155.037 149ZM-151.039 133.5C-152.039 133.5 -152.039 133 -151.039 132.5C-151.039 133 -150.539 133 -151.039 133.5C-150.539 133 -151.039 133 -151.039 133.5ZM-147.541 139.5L-148.041 139L-147.541 138.5L-147.042 139C-147.042 139.5 -147.042 139.5 -147.541 139.5ZM-146.542 129.5C-146.542 130 -147.042 130 -147.042 130.5C-147.042 130.5 -147.042 130.5 -147.541 131C-147.541 130.5 -148.041 130.5 -148.041 130C-148.041 129.5 -148.541 129.5 -148.541 129C-148.541 129 -148.041 128.5 -147.541 128.5C-146.542 128.5 -146.542 129 -146.542 129.5ZM-142.544 125.5C-143.044 126 -143.544 126 -144.044 125.5C-145.043 124.5 -146.042 125.5 -147.042 125.5C-147.042 125.5 -147.541 125 -148.041 124.5C-148.041 123.5 -147.541 123 -147.042 122.5C-146.042 122.5 -144.543 122.5 -143.044 123C-142.045 123.5 -142.045 124.5 -142.544 125.5ZM-137.048 130.5L-137.548 130L-137.048 129.5L-136.548 130L-137.048 130.5ZM-137.548 119.5C-137.548 119 -137.548 119 -137.548 119.5C-137.048 119 -137.048 119 -136.548 119C-136.548 119.5 -136.548 119.5 -137.048 120C-137.548 119.5 -137.548 119.5 -137.548 119.5ZM-137.548 111.5C-137.548 111 -138.047 110.5 -138.047 110C-138.047 109.5 -137.548 109.5 -137.048 109C-137.048 109.5 -136.548 110 -136.548 110.5C-136.548 111 -137.048 111.5 -137.548 111.5ZM-135.049 115L-135.549 114.5L-135.049 114L-134.549 114.5L-135.049 115ZM-129.553 110.5C-130.552 110.5 -131.052 110 -132.051 110C-131.551 110 -131.052 109.5 -130.552 109.5C-130.052 109.5 -129.553 110 -129.053 110L-129.553 110.5ZM-127.054 250.5L-127.554 250C-127.554 250 -127.554 249.5 -127.054 249.5H-126.554C-126.055 250 -126.554 250 -127.054 250.5ZM-121.058 99.9998L-120.558 100.5H-121.058C-121.058 100.5 -121.558 100.5 -121.558 99.9998C-121.558 100.5 -121.058 100.5 -121.058 99.9998ZM-125.055 104C-125.555 104 -125.555 104 -126.055 103.5L-125.555 103C-125.055 103.5 -125.055 103.5 -125.055 104C-125.055 103.5 -125.055 104 -125.055 104ZM-124.056 244.5C-123.556 244.5 -123.057 245 -122.557 245V245.5C-124.056 245.5 -124.056 245 -124.056 244.5ZM-120.058 247.5C-120.558 249 -121.558 249 -123.057 249L-123.556 248.5C-123.556 248 -123.057 247.5 -123.057 247.5C-122.057 247.5 -121.058 247.5 -120.058 247.5C-120.058 247 -120.058 247 -120.058 246.5C-120.058 246 -120.058 246 -120.058 245.5L-119.059 245L-118.559 245.5C-118.06 246.5 -118.559 247.5 -120.058 247.5ZM-104.068 275.5C-104.068 275.5 -104.068 275 -104.068 275.5C-104.568 275 -105.567 275 -106.067 274.5C-106.567 274 -107.566 273.5 -107.067 273C-107.067 273 -106.567 272.5 -106.067 272.5C-104.568 272.5 -103.569 273 -103.569 274C-104.068 274.5 -104.068 275 -104.068 275.5C-104.068 275 -104.068 275 -104.068 275.5ZM-95.074 75.4998L-94.5743 75.9998C-94.5743 75.9998 -94.5743 76.4998 -95.074 76.4998C-95.5737 76.4998 -95.5737 75.9998 -96.0734 75.9998C-95.5737 75.9998 -95.074 75.4998 -95.074 75.4998ZM-95.074 79.9998L-94.5743 80.4998C-94.5743 80.4998 -94.5743 80.9998 -95.074 80.9998C-95.5737 80.9998 -95.5737 80.4998 -96.0734 80.4998C-95.5737 80.4998 -95.5737 79.9998 -95.074 79.9998ZM-95.074 87.4998C-96.0734 86.9998 -96.0734 86.9998 -95.074 86.4998L-94.5743 86.9998L-95.074 87.4998ZM-91.0765 85.9998L-91.5762 85.4998L-91.0765 84.9998L-90.5768 85.4998C-90.5768 85.4998 -91.0765 85.4998 -91.0765 85.9998ZM-81.0827 76.4998C-81.5824 76.4998 -81.5824 75.9998 -82.0821 75.9998L-81.5824 75.4998C-81.0827 75.4998 -80.5831 75.9998 -81.0827 76.4998C-80.5831 75.9998 -80.5831 76.4998 -81.0827 76.4998ZM-72.0883 295C-72.0883 295.5 -72.0883 295.5 -72.0883 295C-72.0883 295.5 -72.0883 295 -72.0883 295C-72.0883 294.5 -72.0883 293.5 -72.0883 293L-71.089 292.5L-70.5893 293C-70.0896 294.5 -70.5893 295 -72.0883 295ZM-67.0914 293.5L-67.5911 293C-67.5911 293 -67.5911 292.5 -67.0914 292.5H-66.5918C-66.0921 293 -66.0921 293.5 -67.0914 293.5ZM-59.0964 292L-59.5961 291.5L-59.0964 291L-58.5967 291.5L-59.0964 292ZM-52.1008 312.5C-52.1008 312.5 -52.1008 312 -52.1008 312.5C-52.6004 312 -53.1002 312 -53.5999 312C-54.0995 311.5 -53.5998 311 -53.1001 311.5C-52.6005 311.5 -52.1008 312 -52.1008 312.5C-52.1008 312 -52.1008 312 -52.1008 312.5ZM-49.6023 309C-51.1014 309.5 -51.6011 308.5 -51.6011 307.5C-52.6005 307.5 -53.1001 307 -53.1001 306.5C-53.1001 305.5 -52.6005 304.5 -52.6005 304H-52.1008C-51.6011 304 -51.6011 304.5 -51.6011 304.5C-51.6011 305.5 -51.6011 307 -51.6011 308C-50.6017 308 -49.6023 308 -49.1026 308L-48.603 308.5C-49.1026 308.5 -49.1026 309 -49.6023 309ZM-48.603 293C-49.1026 293.5 -49.6023 293.5 -49.6023 292.5L-49.1026 292C-49.1026 292.5 -48.603 292.5 -48.603 293ZM-41.6073 63.4998C-41.1076 63.4998 -41.1076 63.4998 -41.6073 63.4998C-41.1076 63.4998 -41.1076 63.4998 -41.1076 63.4998C-41.1076 63.4998 -41.1076 63.4998 -40.6079 63.9998L-41.1076 64.4998C-41.1076 63.9998 -41.6073 63.9998 -41.6073 63.4998ZM-41.1076 309C-42.107 308.5 -42.107 308.5 -41.1076 308L-40.6079 308.5L-41.1076 309ZM-40.1082 293.5C-40.6079 293.5 -41.1076 293 -41.6073 293C-41.1076 292.5 -40.6079 292.5 -40.6079 292.5C-40.1082 292.5 -39.6086 293 -39.1089 293C-39.1089 293 -39.6086 293.5 -40.1082 293.5ZM-28.6154 313.5C-29.1151 313.5 -29.1151 313 -29.6148 313L-29.1151 312.5C-28.6154 312.5 -28.6154 313 -28.6154 313.5C-28.6154 313 -28.6154 313.5 -28.6154 313.5ZM-28.6154 70.4998C-29.1151 69.9998 -29.1151 69.9998 -29.6148 69.9998L-29.1151 69.4998C-28.6154 69.4998 -28.6154 69.4998 -28.6154 70.4998C-28.6154 69.9998 -28.6154 69.9998 -28.6154 70.4998ZM-17.1225 76.4998C-18.1219 75.9998 -18.1219 75.9998 -17.1225 75.4998L-16.6229 75.9998C-16.6229 75.9998 -16.6228 76.4998 -17.1225 76.4998ZM-16.1232 65.9998C-16.1232 66.9998 -17.1226 67.4998 -18.6216 67.4998C-19.1213 67.4998 -19.1213 66.9998 -19.1213 66.9998C-19.1213 66.4998 -18.6216 65.9998 -18.6216 65.9998C-17.6223 65.9998 -17.1226 65.9998 -16.1232 65.9998ZM9.36096 68.4998C8.86128 68.9998 8.36159 68.9998 8.36159 67.9998L8.86127 67.4998C9.36096 67.9998 9.36096 67.9998 9.36096 68.4998ZM10.3604 317.5L10.86 317L11.3597 317.5C11.3597 318.5 10.86 318.5 10.3604 317.5ZM13.8582 67.4998C12.8588 66.9998 11.8594 66.4998 10.86 65.9998C9.86066 64.9998 11.3597 64.9998 11.8594 64.4998C12.3591 63.9998 12.8588 63.9998 13.3585 63.9998C14.3578 64.9998 14.8575 66.4998 15.8569 67.4998C14.8575 66.9998 14.3578 67.4998 13.8582 67.4998ZM26.3504 71.9998C25.8507 71.9998 25.351 71.4998 24.8513 71.4998C25.351 70.9998 25.351 70.9998 25.8507 70.4998C26.3504 70.4998 26.8501 70.9998 27.3498 70.9998C27.3498 71.4998 26.8501 71.9998 26.3504 71.9998ZM34.8451 79.4998L34.3454 78.9998L34.8451 78.4998L35.3448 78.9998C35.3448 79.4998 35.3448 79.4998 34.8451 79.4998ZM36.8439 71.9998C36.3442 71.9998 36.3442 71.4998 36.3442 70.9998C35.8445 70.9998 35.3448 70.9998 34.8451 70.4998C34.3454 70.4998 34.3454 69.9998 34.3454 69.4998C35.3448 69.4998 36.3442 69.9998 36.3442 70.9998C36.8438 70.9998 37.3436 70.9998 37.8432 71.4998C37.8432 71.4998 37.3436 71.9998 36.8439 71.9998ZM41.341 76.4998C40.8414 76.4998 40.8414 75.9998 40.3417 75.9998L40.8414 75.4998C41.341 75.4998 41.341 75.9998 41.341 76.4998C41.8407 75.9998 41.341 76.4998 41.341 76.4998ZM43.3398 67.4998C42.8401 67.9998 41.8407 68.4998 41.341 68.9998C40.8414 68.4998 40.8414 68.4998 40.8414 68.4998C40.3417 67.4998 40.8414 66.4998 42.3404 66.4998C42.8401 66.4998 43.3398 66.4998 44.3392 66.9998C43.3398 66.9998 43.3398 67.4998 43.3398 67.4998ZM44.8389 315C44.8389 314.5 44.3392 314 44.3392 313.5C44.3392 313 44.8389 313 45.3386 312.5C45.3386 313 45.8383 313.5 45.8383 314C45.8383 314.5 45.3386 314.5 44.8389 315ZM50.3354 68.4998C50.3354 68.4998 49.8358 68.9998 49.3361 68.9998C47.837 68.9998 45.8383 66.4998 46.3379 65.4998L46.8376 64.9998C46.8376 64.9998 47.3373 64.9998 47.837 64.4998C48.3367 64.4998 49.8358 64.9998 50.8351 65.4998C51.3348 65.9998 51.8345 65.9998 51.8345 66.4998C51.3348 67.4998 50.8351 67.9998 50.3354 68.4998ZM53.3336 71.9998C52.8339 71.9998 52.8339 71.4998 52.3342 71.4998L52.8339 70.9998C53.3336 70.9998 53.3336 70.9998 53.3336 71.9998C53.8333 71.4998 53.3336 71.4998 53.3336 71.9998ZM75.3199 65.9998L74.8202 65.4998L75.3199 64.9998L75.8196 65.4998C75.8196 65.4998 75.3199 65.4998 75.3199 65.9998ZM79.3174 306H78.8177L79.3174 305.5L79.8171 306C79.8171 305.5 79.8171 305.5 79.3174 306ZM81.3162 68.9998C81.3162 68.9998 80.8165 68.9998 81.3162 68.9998C80.8165 68.4998 80.8165 68.4998 80.8165 68.4998L81.3162 67.9998L81.8159 68.4998L81.3162 68.9998ZM96.8065 305.5L97.3062 305L97.8059 305.5C97.3062 306 96.8065 306 96.8065 305.5ZM103.302 68.9998C103.302 68.9998 102.803 68.9998 102.803 68.4998L103.302 67.9998L103.802 68.4998C103.802 68.4998 103.802 68.4998 103.302 68.9998ZM111.797 307C111.297 307.5 110.798 307.5 110.798 306.5L111.297 306C111.297 306.5 111.797 306.5 111.797 307ZM141.279 62.9998L141.779 63.4998L141.279 63.9998L140.779 63.4998C140.779 63.4998 141.279 63.4998 141.279 62.9998ZM134.283 64.4998C134.783 64.4998 135.283 64.9998 135.782 64.9998C135.283 64.9998 134.783 65.4998 134.283 65.4998C133.783 65.4998 133.284 64.9998 132.784 64.9998C133.284 64.9998 133.783 64.4998 134.283 64.4998ZM136.282 302L135.782 302.5H135.283L135.782 302C135.782 302 135.782 302 136.282 302ZM129.286 301.5C129.286 302 129.786 302.5 129.786 303C129.286 303.5 129.286 304 128.787 304C128.287 303.5 128.287 303 128.287 303C128.787 302.5 129.286 302 129.286 301.5ZM125.289 73.9998L125.788 74.4998L125.289 74.9998C125.289 74.9998 125.289 74.9998 124.789 74.4998C124.789 74.4998 124.789 74.4998 124.789 73.9998C124.789 74.4998 125.289 73.9998 125.289 73.9998ZM124.289 303C124.289 303.5 123.79 303.5 123.29 304C122.79 303.5 122.79 303 122.291 302C122.291 302 122.79 302 122.79 301.5H123.29L123.79 302C124.289 303 124.289 303 124.289 303ZM121.791 67.4998C122.291 67.9998 122.79 68.4998 123.29 69.4998L123.79 69.9998C123.29 69.9998 122.79 70.4998 122.291 70.4998C120.792 70.4998 120.292 69.9998 120.292 68.4998C120.292 68.4998 121.291 67.9998 121.791 67.4998ZM116.794 69.9998L117.294 69.4998L117.793 69.9998C117.294 70.4998 116.794 70.4998 116.794 69.9998ZM123.29 312C123.29 311.5 122.79 311.5 122.79 311C122.79 311 122.79 311 122.291 311C122.291 311 122.291 311 122.291 310.5C121.791 310.5 121.291 310.5 120.792 310V309.5C121.791 309.5 121.791 310 121.791 310.5C121.791 310.5 121.791 310.5 122.291 310.5C122.79 310.5 123.79 310.5 123.29 311.5C123.79 312 123.29 312 123.29 312ZM125.788 308.5C125.788 308.5 124.789 308.5 124.289 308.5C123.79 308.5 123.79 308 122.79 307.5C121.291 307.5 119.792 307.5 117.793 307.5C117.294 307.5 117.294 307 117.294 307C117.294 306.5 117.793 306 118.293 306C120.792 306 122.79 306 125.289 306C125.788 306 126.288 306.5 126.788 307C126.288 307.5 126.288 308 125.788 308.5ZM131.785 316.5C130.785 317.5 129.786 318.5 128.287 318.5C127.787 318.5 126.788 318 126.788 318C126.788 317 129.786 315.5 131.285 315.5C131.785 315.5 131.785 316 131.785 316C131.785 316 131.785 316 131.785 316.5ZM137.281 312C137.281 312 136.782 312.5 136.282 312.5C134.783 312.5 133.784 312.5 132.284 312.5C131.785 312.5 131.785 312.5 131.285 312.5C128.287 312.5 127.288 312 127.787 309.5C127.787 309 128.287 308.5 128.787 308.5C129.286 309 129.786 309 129.786 309.5C130.286 310.5 130.286 311.5 132.284 311.5C133.284 311.5 133.783 311 134.283 310C134.783 308.5 135.782 308.5 136.782 309.5C137.281 310 137.781 310.5 138.281 311.5C138.281 311 137.781 311.5 137.281 312ZM140.279 69.4998C139.78 69.9998 139.78 70.4998 139.28 70.4998C138.78 69.9998 138.281 69.4998 138.281 68.4998L139.28 67.9998C139.78 68.4998 139.78 68.9998 140.279 69.4998ZM141.779 314.5L141.279 315C140.779 314.5 140.279 314 140.279 314C140.279 313.5 140.779 313 140.779 313C140.779 313 140.779 313 141.279 313C141.279 313 141.279 313 141.779 313C142.778 313 142.278 314 141.779 314.5ZM145.776 291.5L145.276 292L144.777 291.5C145.276 291 145.776 291 145.776 291.5ZM143.278 306.5C143.777 306.5 143.777 307 143.777 307C143.278 307 143.278 307.5 142.778 307.5L142.278 307C142.778 306.5 143.278 306.5 143.278 306.5ZM143.278 318C142.278 317.5 142.278 317.5 143.278 317L143.777 317.5C143.777 318 143.777 318 143.278 318ZM147.775 313C147.775 313 146.775 313 146.276 313C145.776 313 145.276 312.5 145.276 312L144.777 311.5C145.276 311.5 145.776 311 146.276 311C147.275 311 148.274 311.5 148.274 312C148.274 312.5 148.274 313 147.775 313ZM154.271 59.9998C154.271 59.9998 154.77 59.9998 154.271 59.9998C156.769 59.9998 158.768 59.9998 160.767 59.9998C160.767 59.9998 161.266 60.4998 161.266 60.9998L160.767 61.4998C158.768 61.4998 156.769 61.4998 154.77 60.9998C154.77 60.9998 154.77 60.4998 154.271 59.9998ZM157.269 303L156.769 303.5C156.269 303.5 155.77 304 155.27 304C154.77 304 154.271 302.5 155.27 302C155.27 302 155.77 302 156.269 301.5C156.769 301.5 156.769 301.5 157.269 301.5C157.769 301.5 157.769 301.5 158.268 301.5C157.769 302 157.769 302.5 157.269 303ZM159.268 310.5C158.268 310 158.268 309.5 159.268 309.5L159.767 310C159.767 310 159.767 310.5 159.268 310.5ZM161.766 313.5C161.766 313.5 161.266 313.5 161.266 313L161.766 312.5L162.266 313C161.766 313 161.766 313.5 161.766 313.5ZM162.765 65.9998C161.766 65.9998 160.767 65.9998 159.767 65.9998C159.268 65.9998 159.268 65.4998 159.268 65.4998V64.9998C160.267 64.4998 162.765 64.4998 163.765 64.9998C163.265 65.4998 163.265 65.9998 162.765 65.9998ZM167.263 60.9998C166.263 60.9998 165.764 60.4998 164.764 60.4998C165.264 60.4998 165.764 59.9998 166.263 59.9998C166.763 59.9998 167.263 60.4998 167.762 60.4998C167.263 60.4998 167.263 61.4998 167.263 60.9998ZM171.76 60.9998C171.26 61.4998 170.76 61.4998 170.76 60.4998L171.26 59.9998C171.76 59.9998 171.76 60.4998 171.76 60.9998C171.76 60.4998 171.76 60.9998 171.76 60.9998ZM175.757 315C175.258 315.5 174.758 315.5 174.258 314.5L174.758 314H175.258C175.757 314.5 176.257 314.5 175.757 315ZM175.757 56.4998H175.258C175.258 55.4998 175.757 55.4998 176.257 55.4998C176.257 55.4998 176.257 55.4998 175.757 55.4998C176.257 55.4998 175.757 55.9998 175.757 56.4998ZM179.755 319.5C179.255 319.5 178.755 319 178.755 319C178.256 318.5 178.755 317.5 179.755 317.5L180.255 318C180.255 318 180.754 319 179.755 319.5ZM185.751 60.9998C184.752 61.4998 182.253 61.4998 181.254 60.9998L180.754 60.4998C181.754 59.9998 182.253 58.9998 183.253 58.4998C183.752 57.9998 184.752 58.4998 185.751 58.4998C186.251 59.4998 186.751 60.4998 185.751 60.9998ZM197.744 319.5C197.244 320 196.744 320 196.744 319L197.244 318.5H197.744C198.243 319 198.243 319.5 197.744 319.5ZM197.244 51.9998C196.245 51.9998 194.746 51.9998 193.746 51.4998C193.246 51.4998 193.246 50.4998 193.246 49.4998C193.246 48.9998 193.746 48.9998 194.746 49.4998C195.745 49.9998 196.744 49.9998 198.243 50.4998C198.743 50.4998 198.743 50.9998 198.743 50.9998C197.744 51.4998 197.244 51.9998 197.244 51.9998ZM205.739 54.4998C205.239 54.4998 204.739 54.4998 204.739 53.9998C204.739 53.4998 204.739 52.4998 204.739 51.9998C206.238 51.9998 206.738 52.9998 206.738 53.9998C206.238 54.4998 206.238 54.4998 205.739 54.4998ZM215.732 57.4998H215.233C214.733 56.4998 213.734 54.9998 213.234 53.9998C213.234 53.9998 213.234 53.9998 213.734 53.9998H214.233C214.733 53.9998 215.233 53.9998 215.732 54.4998C216.232 55.4998 216.232 56.4998 216.232 57.4998C216.232 57.4998 216.232 57.4998 215.732 57.4998ZM216.732 47.4998C217.731 47.4998 218.231 47.9998 218.231 48.4998H217.731C217.232 48.4998 216.732 47.9998 216.732 47.4998ZM216.732 51.4998L217.232 50.9998L217.731 51.4998C217.731 51.9998 217.232 51.9998 216.732 51.4998ZM224.227 321C223.727 321.5 223.228 321.5 223.228 320.5L223.727 320C223.727 320 223.727 320.5 224.227 321C224.227 320.5 224.227 321 224.227 321ZM239.218 325.5C238.718 325.5 238.718 325 238.718 324.5C238.718 324.5 238.718 324.5 238.218 324.5C237.719 324.5 237.219 324.5 236.719 324.5C236.719 324.5 236.719 324.5 237.219 324.5C237.219 324 237.719 323.5 237.719 323.5C238.718 323.5 238.718 324 238.718 324.5C239.218 324.5 239.718 324.5 240.217 325C240.217 325.5 239.718 326 239.218 325.5ZM246.713 325.5L247.213 325L247.713 325.5C247.713 326 247.213 326 246.713 325.5ZM265.202 45.4998C265.202 44.9998 264.702 44.9998 264.702 44.4998C264.702 44.4998 264.702 44.4998 264.202 44.4998C262.703 44.4998 261.204 44.4998 259.705 44.4998C259.205 44.4998 259.205 43.9998 259.205 43.9998V43.4998C260.205 43.4998 260.704 42.9998 261.704 42.9998C263.203 42.9998 263.703 43.4998 264.202 44.4998C264.202 44.4998 264.202 44.4998 264.702 44.4998C265.202 44.4998 266.201 44.4998 265.701 45.4998C266.201 45.4998 265.202 45.4998 265.202 45.4998ZM269.699 59.4998C268.699 58.9998 267.7 58.4998 267.7 57.4998L268.2 56.9998C269.699 56.9998 270.698 57.4998 270.698 58.4998C270.199 58.9998 269.699 59.4998 269.699 59.4998ZM291.685 45.4998L290.686 44.9998C290.686 44.4998 291.185 43.9998 291.685 42.9998L292.185 43.4998C292.685 44.4998 292.685 44.9998 291.685 45.4998ZM300.18 43.9998C299.181 43.9998 299.181 43.4998 298.681 42.9998C299.181 42.9998 299.68 43.4998 300.18 43.4998V43.9998ZM304.677 315C303.678 315 303.178 314.5 302.678 314C302.678 313 303.178 312.5 304.177 312.5C305.676 312.5 306.176 313 306.176 313.5C306.676 314.5 306.176 315 304.677 315ZM328.162 315H327.663L328.162 314.5L328.662 315C328.162 314.5 328.162 315 328.162 315ZM333.659 309.5C334.658 309.5 335.158 309 336.158 310L335.658 311C334.658 311 334.159 310.5 333.159 310.5C333.159 310 333.659 309.5 333.659 309.5ZM336.158 316.5C336.158 317 335.158 317 334.658 317C334.658 316.5 335.158 316 335.158 316C336.158 315.5 336.657 316 336.158 316.5ZM340.155 311.5C340.155 311.5 339.655 311.5 339.655 312C339.655 312 339.655 311.5 339.156 311.5V311C339.156 310.5 339.655 310.5 340.155 310C340.155 310 340.655 310.5 340.155 311.5C340.655 311 340.155 311.5 340.155 311.5ZM344.152 312H343.653L344.152 311.5L344.652 312C344.153 311.5 344.152 312 344.152 312ZM354.146 301C353.647 301 353.647 300.5 353.147 300.5L353.647 300C354.146 300.5 354.146 300.5 354.146 301ZM354.146 46.9998C354.146 46.9998 353.647 47.4998 354.146 46.9998C353.147 46.9998 353.147 46.4998 354.146 45.9998C354.146 46.4998 354.146 46.4998 354.146 46.9998ZM362.641 36.9998C362.641 36.9998 363.141 36.9998 362.641 36.9998C363.141 37.4998 363.64 37.4998 364.14 37.4998V37.9998C363.141 37.9998 363.141 37.4998 362.641 36.9998ZM364.64 302L364.14 302.5C363.64 302.5 363.141 302.5 363.141 302C363.141 301.5 363.141 300.5 363.141 300C362.641 300 362.141 300 362.141 299.5C361.642 299 362.141 298.5 362.641 299C363.141 299 363.141 299.5 363.141 300C363.64 300 363.64 300 364.14 300C364.64 300.5 364.64 301 364.64 302ZM366.139 298C365.639 298 365.139 297.5 365.139 297.5C365.139 297 365.639 296.5 366.139 295.5C366.639 296 366.639 296.5 367.138 296.5C366.639 297 366.139 297.5 366.139 298ZM373.634 47.4998C373.634 47.4998 373.634 46.9998 373.634 47.4998C373.134 46.9998 373.134 46.9998 373.134 46.9998C373.134 46.9998 373.134 46.9998 373.134 46.4998C373.134 46.4998 373.634 46.4998 373.634 45.9998L374.134 46.4998C374.134 46.9998 374.134 46.9998 373.634 47.4998ZM374.634 38.4998V38.9998C374.134 39.4998 373.634 39.4998 373.134 38.9998C372.635 38.4998 372.135 38.4998 371.635 37.9998V37.4998C372.135 37.4998 372.635 36.9998 373.134 36.9998C374.134 36.9998 374.634 37.4998 374.634 38.4998ZM375.633 298L375.133 297.5C375.133 297.5 375.133 297 375.633 297H376.133C376.133 297.5 376.133 298 375.633 298ZM377.632 70.4998L377.132 69.9998L377.632 69.4998L378.131 69.9998C378.131 69.9998 378.131 70.4998 377.632 70.4998ZM377.632 42.4998C378.131 41.9998 378.131 41.9998 378.631 41.4998C379.131 40.9998 380.13 41.4998 380.13 41.9998C379.63 41.9998 379.63 42.4998 379.131 42.4998C378.631 42.9998 378.131 42.4998 377.632 42.4998ZM380.13 293.5C379.63 293.5 379.131 293 379.131 293C379.131 292.5 379.63 291.5 380.13 291C380.63 291.5 380.63 292 381.129 292C380.63 292.5 380.13 293 380.13 293.5ZM381.629 66.9998C381.629 66.9998 381.629 66.4998 381.129 66.4998V65.9998C381.129 65.4998 381.629 65.4998 382.129 64.9998C382.129 65.4998 382.629 65.9998 382.629 66.4998C382.129 66.4998 382.129 66.9998 381.629 66.9998ZM388.125 292C387.625 292 387.625 292 387.126 291.5L387.625 291C388.125 291 388.125 291 388.125 292C388.125 291.5 388.125 291.5 388.125 292ZM420.105 94.9998H419.606L420.105 94.4998L420.605 94.9998C420.605 94.4998 420.105 94.9998 420.105 94.9998ZM429.1 94.9998C428.6 94.9998 428.1 94.4998 427.601 94.4998L428.1 93.9998L428.6 93.4998C429.1 93.4998 429.599 93.9998 430.099 93.9998C430.099 94.4998 429.599 94.9998 429.1 94.9998ZM438.594 95.4998C438.094 95.9998 438.094 96.4998 437.594 96.4998C437.594 96.4998 437.594 96.4998 437.095 96.4998C436.595 96.4998 437.095 96.4998 436.595 96.4998C436.095 95.9998 435.596 94.9998 436.595 94.4998H437.095C438.594 94.4998 438.594 94.9998 438.594 95.4998ZM442.092 275C441.592 275 441.592 274.5 441.092 274.5L441.592 274C442.092 274 442.591 274.5 442.092 275C442.591 274.5 442.591 274.5 442.092 275ZM446.089 166.5L446.589 167L446.089 167.5L445.589 167C445.589 166.5 445.589 166.5 446.089 166.5ZM446.089 278L445.589 277.5L446.089 277L446.589 277.5C446.089 278 446.089 278 446.089 278ZM445.09 214.5L445.589 214L446.089 214.5C446.089 215 445.589 215 445.09 214.5ZM486.064 245C486.064 245.5 486.564 245.5 486.564 246C486.564 246 486.564 246 487.064 246C486.564 246 485.564 246 486.064 245C485.564 245 486.064 245 486.064 245ZM480.568 250L480.068 250.5L479.568 250C480.068 249 480.568 249 480.568 250ZM473.572 234C474.571 234 474.571 234.5 475.071 235C474.571 235 474.072 235 473.572 234C473.572 234.5 473.572 234 473.572 234ZM471.573 259H472.073C472.073 259.5 472.573 260 472.573 260C472.073 260.5 472.073 260.5 471.573 261L471.074 260.5C471.074 260 470.574 259.5 471.573 259ZM463.578 263.5C464.078 263 465.077 263 465.577 263C467.076 263 468.075 263 468.575 264C468.575 264.5 468.575 265 468.075 265.5C466.576 265 465.077 264.5 463.578 263.5C463.578 264 463.578 263.5 463.578 263.5ZM464.078 268C464.578 268.5 465.077 269 465.077 269.5C465.077 269.5 465.077 270 464.578 270L464.078 270.5L463.578 270L463.078 269.5C463.078 268.5 463.578 268.5 464.078 268ZM451.586 226.5C451.586 226 452.585 226 453.085 226C453.085 226.5 452.585 227 452.585 227C451.586 227.5 451.086 227 451.586 226.5ZM473.572 203.5C473.572 203.5 474.072 203.5 473.572 203.5C474.072 203.5 474.571 203.5 474.571 204L474.072 204.5C474.072 204.5 473.572 204.5 473.572 204C473.572 204 473.572 204 473.572 203.5ZM472.073 195.5L472.573 196C472.573 196 472.573 196.5 472.073 196.5C471.573 196.5 471.573 196 471.074 196C471.573 196 472.073 195.5 472.073 195.5ZM469.574 200.5H470.074C470.074 201 470.074 201 469.574 201.5C469.574 201 469.574 201 469.574 200.5ZM456.083 215C455.583 215 455.583 214.5 455.083 214.5L455.583 214C456.083 214 456.083 214.5 456.083 215C456.583 214.5 456.083 215 456.083 215ZM456.582 182.5C456.083 183 455.083 183 455.083 182C455.083 181.5 455.583 180.5 456.083 180C457.082 179.5 458.581 180 459.581 180C460.08 180 460.08 180.5 460.08 180.5L459.581 181C459.081 181.5 457.582 182 456.582 182.5ZM460.08 186.5H460.58V187C460.08 187.5 459.581 187.5 459.581 186.5C459.581 187 459.581 186.5 460.08 186.5ZM460.08 190.5L459.581 190L460.08 189.5L460.58 190L460.08 190.5ZM463.078 99.9998C463.078 101.5 462.079 101.5 460.58 101.5C460.08 101.5 459.581 101 459.081 100.5C458.581 99.9998 459.581 98.9998 461.08 98.4998C461.579 98.4998 462.079 98.4998 462.579 98.4998C463.078 98.9998 463.078 99.4998 463.078 99.9998ZM467.576 191C467.576 191 468.075 191.5 468.075 192C467.576 192 467.076 192.5 466.576 192.5C466.077 192.5 465.577 192 465.077 191.5C466.077 191 467.076 191 467.576 191ZM465.077 183V183.5C465.077 184 464.578 185 464.578 185.5C464.078 185.5 463.578 185 463.578 185C463.079 184 463.578 183 465.077 183ZM471.074 174C471.074 174 471.074 173.5 471.074 174C470.574 174 470.074 174 469.075 174C468.075 174 467.076 173.5 467.076 172.5C467.076 172 467.576 171.5 467.576 171C468.075 171.5 468.575 171.5 469.075 172C470.074 172.5 470.574 173 471.074 174C471.074 173.5 471.074 173.5 471.074 174ZM487.064 164.5C485.564 164.5 485.065 163.5 485.065 162.5C485.065 162 485.564 162 486.064 162L486.564 162.5C487.064 163 487.064 163.5 487.064 164.5ZM529.037 141.5C529.537 142 530.037 142 530.037 142V142.5C529.537 142.5 529.537 142 529.037 141.5ZM531.036 163C530.537 163 530.037 163 529.537 162.5C528.538 162 528.038 162 527.538 161.5C527.538 161.5 527.538 161.5 527.039 161.5C527.039 162 526.539 162 526.539 162.5C525.54 161.5 526.539 161.5 527.039 161.5C527.039 161.5 527.039 161.5 527.039 161C527.039 160 527.538 159.5 528.538 159.5C530.537 159.5 531.536 160.5 532.036 161.5C532.036 162.5 531.536 163 531.036 163ZM545.027 160C544.028 160 543.029 159.5 543.029 159C543.029 158.5 543.029 157.5 542.029 157.5L541.53 158.5C541.53 160.5 540.031 162 537.532 163C537.532 163 537.532 163 537.032 163C537.032 163.5 537.032 164 536.033 164V163.5C536.533 163.5 537.032 163 537.032 163C537.032 163 537.032 163 537.032 162.5C536.533 160 539.531 158 539.531 155.5C539.531 154.5 542.029 155 543.029 155C544.028 155 544.528 155.5 544.528 156.5C545.027 158 545.027 159 545.027 160ZM547.526 156L548.026 155.5L548.525 156C548.525 157 548.026 157 547.526 156ZM558.019 152C557.52 152 557.52 151.5 557.52 151C557.52 151 557.52 151 557.02 151C557.52 151 558.019 151 558.519 151.5C559.019 151.5 558.519 152 558.019 152Z" fill="white"/>
<path d="M261.704 323.5C262.203 323 261.704 323 261.704 323.5V323.5Z" fill="white"/>
<path d="M129.786 56.9998C132.284 57.4998 134.283 56.4998 135.782 54.9998C136.782 53.9998 137.781 54.4998 139.28 54.9998C142.278 52.9998 145.276 53.9998 148.774 53.4998C149.274 53.4998 149.773 52.9998 149.773 52.4998C149.274 52.4998 149.274 51.9998 148.774 51.9998C146.276 51.4998 143.278 52.4998 141.279 50.4998C139.28 52.4998 136.282 50.9998 134.283 52.4998C133.284 52.9998 132.784 52.9998 131.785 52.4998C128.287 51.4998 125.289 49.9998 125.788 46.4998L125.289 45.9998C124.789 46.4998 124.289 46.4998 124.289 46.9998C124.289 47.4998 124.289 48.4998 124.289 49.4998C124.289 51.9998 123.29 52.4998 119.792 50.9998C118.793 50.4998 118.293 50.4998 118.293 50.9998C118.293 52.4998 118.293 53.9998 118.293 55.4998L118.793 55.9998C119.292 55.4998 119.292 55.4998 119.792 54.9998V54.4998L120.292 53.9998C120.792 53.9998 121.791 54.4998 121.791 54.4998C121.791 55.4998 121.291 57.4998 123.29 57.9998C124.789 58.4998 126.288 57.9998 127.787 57.9998C128.287 57.4998 129.286 56.9998 129.786 56.9998Z" fill="white"/>
<path d="M158.268 51.9999C157.269 51.9999 156.769 51.4999 156.269 50.4999C156.269 49.4999 156.769 48.9999 157.769 48.9999C158.768 48.9999 159.767 48.4999 159.767 47.4999C159.767 45.9999 158.768 45.9999 157.269 45.4999C155.77 45.4999 155.77 44.9999 153.771 46.9999L153.271 47.4999C152.772 47.4999 152.772 46.9999 152.772 46.9999C152.272 45.4999 152.272 44.4999 153.271 43.4999C154.77 41.9999 153.271 41.9999 151.772 41.9999C150.773 41.9999 150.773 41.4999 150.773 40.9999C152.772 39.4999 150.773 38.9999 149.774 37.9999C149.274 37.4999 148.774 37.4999 148.274 38.4999C147.775 39.9999 148.274 41.9999 144.777 42.4999C143.278 42.4999 143.278 43.9999 143.777 44.9999C144.277 45.9999 145.276 46.9999 145.776 47.9999C147.275 47.9999 148.774 48.4999 150.273 48.9999C152.772 49.9999 153.271 49.9999 152.272 52.9999C152.272 53.4999 152.272 53.4999 152.772 53.9999C154.271 55.4999 155.77 55.4999 157.769 55.4999C157.769 54.9999 158.268 54.4999 158.268 54.4999C160.267 52.9999 160.267 52.4999 158.268 51.9999Z" fill="white"/>
<path d="M108.299 319C111.298 318 111.797 318.5 112.297 320.5C112.297 321.5 112.297 322.5 112.297 323.5C112.297 324 113.296 324.5 114.296 324.5C115.295 324.5 115.795 324 115.795 323C115.795 322 115.795 321.5 115.795 320.5C115.795 320 115.795 319.5 115.795 319C115.795 317 114.795 316.5 112.297 316.5C110.298 316.5 108.299 317 106.8 317C106.301 317 106.301 318 106.301 318C106.301 318.5 106.8 318.5 107.3 319C107.8 319.5 107.8 319 108.299 319Z" fill="white"/>
<path d="M237.719 334C238.718 333.5 238.218 332.5 237.219 332.5C234.721 332.5 233.721 330 231.722 329.5C229.724 331 229.224 330 228.724 328.5L228.225 328L227.725 328.5C226.726 330 227.225 331.5 228.225 332C230.723 333 233.222 334 236.22 335C235.72 335 236.719 334.5 237.719 334Z" fill="white"/>
<path d="M293.684 12.5001C292.684 12.5001 291.685 13.0001 291.185 13.5001C290.686 14.5001 291.185 15.5001 292.185 16.0001C292.684 16.5001 293.684 17.0001 294.683 16.5001C295.683 15.5001 297.182 14.5001 298.181 13.5001C298.681 13.0001 298.681 12.5001 297.681 12.5001C297.182 12.5001 296.182 12.5001 295.683 12.5001C294.683 12.5001 294.184 12.0001 293.684 12.5001Z" fill="white"/>
<path d="M180.255 53.4998C180.255 54.9998 180.754 55.4998 183.752 55.4998C184.252 55.4998 185.251 55.4998 185.751 54.9998C186.75 53.9998 185.751 53.4998 185.251 53.4998C183.253 52.4998 182.253 50.9998 182.753 48.9998L182.253 48.4998C181.754 48.4998 181.254 48.9998 181.254 48.9998C180.255 50.4998 180.255 51.9998 180.255 53.4998Z" fill="white"/>
<path d="M1.86561 58.9999C3.36468 56.4999 1.86561 55.4999 -1.63221 55.4999C-2.63159 55.4999 -3.63097 55.9999 -3.63097 56.4999C-4.13066 57.9999 -1.6322 59.9999 0.366552 59.9999C0.86624 59.4999 1.36592 59.4999 1.86561 58.9999Z" fill="white"/>
<path d="M86.313 50.5001C85.8133 50.5001 83.8146 50.5001 84.8139 52.0001C85.3136 52.5001 86.8127 53.5001 87.8121 53.0001C88.8115 52.5001 90.3105 52.5001 91.3099 52.0001C91.8096 52.0001 91.8096 51.0001 92.3093 51.0001C92.3093 50.5001 91.3099 49.5001 90.8102 49.5001C89.3111 49.5001 87.8121 50.0001 86.313 50.5001Z" fill="white"/>
<path d="M233.222 28.0001C231.722 27.5001 229.224 28.0001 228.724 28.5001C228.225 29.5001 228.724 31.5001 229.224 32.0001C229.224 32.0001 229.724 32.0001 230.223 32.0001C230.723 32.0001 230.723 32.0001 230.723 32.5001C230.723 32.5001 230.723 32.5001 230.723 32.0001C231.722 31.0001 232.722 29.5001 233.222 28.0001C233.721 28.0001 234.221 28.0001 233.222 28.0001Z" fill="white"/>
<path d="M107.3 21.5002C106.8 22.0002 106.301 22.5002 106.8 23.0002C107.8 25.5002 108.799 25.5002 112.297 24.5002C112.797 24.5002 113.296 24.0002 113.796 24.0002V23.5002C111.297 22.5002 108.799 23.5002 107.3 21.5002Z" fill="white"/>
<path d="M131.285 328.5C131.285 328.5 131.785 329 132.284 329C133.284 329 134.283 328.5 134.283 328C134.783 326 133.783 324.5 131.785 323.5H131.285L130.785 324C130.286 325.5 132.784 326 131.785 327.5C131.285 328 131.285 328.5 131.285 328.5Z" fill="white"/>
<path d="M180.754 39C182.253 40 183.752 40.5 185.751 41L186.251 40.5V40C185.251 38 183.253 36.5 181.254 37C181.254 37.5 180.255 39 180.754 39Z" fill="white"/>
<path d="M307.675 30.0002L308.674 29.5002C308.674 28.0002 306.676 26.5002 305.676 26.5002C305.177 27.0002 304.177 27.5002 303.678 28.0002C303.178 29.0002 304.677 29.0002 305.177 29.0002C305.676 29.5002 306.676 30.0002 307.675 30.0002Z" fill="white"/>
<path d="M112.297 44C111.797 45 112.297 46.5 114.296 47C114.795 45.5 116.794 44.5 116.294 42.5C115.795 42.5 115.795 42.5 115.295 42.5C114.296 43 112.796 43 112.297 44Z" fill="white"/>
<path d="M241.217 45.5001C242.216 46.5001 243.215 47.5001 244.714 47.5001C245.214 47.0001 246.213 47.0001 246.213 46.5001C246.213 46.0001 246.213 45.0001 245.714 45.0001C244.714 44.5001 243.215 44.5001 242.216 44.5001C241.716 44.5001 241.217 45.5001 241.217 45.5001Z" fill="white"/>
<path d="M237.719 34.9998C238.718 35.4998 240.217 34.9998 240.717 33.9998C240.717 33.4998 241.217 32.4998 240.717 31.9998C240.217 31.4998 239.717 30.9998 238.718 30.9998C238.218 30.9998 237.719 31.4998 237.719 31.4998C237.719 31.9998 238.218 32.4998 238.218 33.4998C238.218 33.9998 236.22 34.4998 237.719 34.9998Z" fill="white"/>
<path d="M356.645 316C356.645 315.5 356.645 315 356.645 314.5C355.146 313.5 353.647 313 352.147 312.5L351.648 313C351.648 313.5 351.148 314 351.648 314.5C353.147 315 354.646 315.5 355.645 316.5C355.645 316.5 356.145 316.5 356.645 316Z" fill="white"/>
<path d="M112.796 52.9999C111.297 54.4999 112.796 56.9999 115.295 57.9999H115.795L116.294 57.4999C115.295 55.9999 114.795 54.4999 113.796 52.9999C113.296 52.4999 112.796 52.9999 112.796 52.9999Z" fill="white"/>
<path d="M168.262 26.9998C168.262 26.4998 167.263 25.9998 167.263 26.4998C165.764 26.9998 164.265 27.9998 164.764 29.4998C164.764 30.4998 165.264 30.9998 166.763 30.9998C167.263 30.9998 168.262 30.9998 168.262 30.4998C168.762 29.9998 168.762 29.4998 168.762 28.9998C168.262 27.9998 168.762 27.4998 168.262 26.9998Z" fill="white"/>
<path d="M80.3167 48.9998C80.8164 48.9998 81.3161 48.4998 81.8158 47.9998C80.8164 47.4998 80.3167 46.9998 79.3174 46.4998C78.318 45.9998 77.8183 46.9998 77.3186 47.4998C76.8189 47.9998 76.8189 48.4998 76.8189 48.4998C77.3186 48.4998 77.8183 48.9998 78.318 48.9998C79.3173 48.9998 79.817 48.9998 80.3167 48.9998Z" fill="white"/>
<path d="M310.673 321.5C310.673 320.5 310.673 320 309.674 320C308.175 319.5 307.176 320.5 307.176 321.5C307.176 322.5 307.675 323 308.675 323C309.674 323 310.174 322.5 310.673 321.5Z" fill="white"/>
<path d="M225.726 17.0001C225.227 17.0001 224.727 17.5001 224.727 18.5001C224.727 19.5001 225.227 20.0001 226.226 20.0001C227.225 20.0001 228.225 19.5001 228.225 19.0001C228.225 17.5001 227.725 17.0001 225.726 17.0001Z" fill="white"/>
<path d="M158.268 326C158.768 326 159.268 326 159.767 325.5C159.767 325 159.767 324.5 159.268 324.5C158.268 323 156.269 323 154.271 323C154.77 324.5 156.269 325.5 158.268 326Z" fill="white"/>
<path d="M186.251 325.5C185.751 325 184.752 324.5 184.252 325C183.253 325 182.753 325.5 182.753 326.5C182.753 327.5 183.752 327.5 184.752 328C185.751 327.5 186.75 326.5 186.251 325.5Z" fill="white"/>
<path d="M212.734 22.9999C211.735 22.9999 210.736 23.4999 210.736 23.9999C210.236 24.9999 211.235 25.9999 212.734 25.9999C213.734 25.9999 214.233 25.4999 214.233 24.4999C214.233 23.4999 213.734 23.4999 212.734 22.9999Z" fill="white"/>
<path d="M300.68 29.4998C300.68 28.4998 299.18 27.4998 298.181 27.9998C297.681 27.9998 297.182 28.4998 297.182 28.9998C297.182 29.9998 297.182 30.9998 299.18 30.9998C299.68 30.9998 300.18 30.9998 300.68 30.9998C300.68 29.9998 300.68 29.4998 300.68 29.4998Z" fill="white"/>
<path d="M263.703 37.5001C263.203 37.5001 262.203 37.0001 261.704 37.0001C260.704 37.0001 260.205 38.0001 260.205 38.5001C260.704 39.5001 261.704 40.0001 262.703 40.0001C263.203 39.5001 263.702 38.5001 264.202 38.0001C263.702 38.0001 264.202 37.5001 263.703 37.5001Z" fill="white"/>
<path d="M149.274 17.5002H149.773C149.773 17.0002 150.273 16.5002 150.273 16.0002C150.273 15.5002 149.773 15.0002 149.773 14.0002H149.274C148.274 15.0002 148.274 17.0002 149.274 17.5002Z" fill="white"/>
<path d="M146.276 23C145.276 22.5 144.777 23.5 144.277 24C144.277 24.5 144.277 25.5 145.276 25.5C146.276 25.5 147.275 24.5 147.775 23.5C147.275 23.5 146.775 23 146.276 23Z" fill="white"/>
<path d="M291.185 23.5C291.185 23.5 291.185 24.5 291.685 24.5C292.185 25 292.684 25 293.184 25.5H293.684C294.184 25 294.184 24.5 294.683 24.5C294.683 24 294.184 23.5 293.684 23.5C293.184 23 292.185 23 291.185 23.5Z" fill="white"/>
<path d="M193.246 27.5001C193.746 27.5001 194.246 27.0001 193.746 27.0001C193.246 26.0001 192.247 25.5001 191.747 24.5001C191.248 25.0001 190.748 25.5001 190.748 26.0001C190.748 27.0001 191.747 27.5001 193.246 27.5001Z" fill="white"/>
<path d="M278.194 0C277.194 0 276.694 0.5 276.694 1.5C276.694 2 276.694 2.5 277.194 2.5C278.194 2.5 280.192 1 279.693 0.5C279.693 0.5 278.693 0 278.194 0Z" fill="white"/>
<path d="M98.8052 40.4999C98.3055 40.4999 97.8058 41.9999 98.8052 42.4999C99.3049 42.9999 99.8046 42.9999 100.804 42.9999C101.304 42.9999 101.803 42.4999 101.803 41.9999C101.304 41.4999 100.804 40.9999 100.304 40.9999C99.8046 40.4999 99.3049 40.4999 98.8052 40.4999Z" fill="white"/>
<path d="M210.736 32.4999L211.235 32.9999C212.235 32.4999 213.234 31.9999 214.233 31.4999C213.734 30.9999 213.234 30.4999 212.734 30.4999C211.235 30.9999 210.236 31.4999 210.736 32.4999Z" fill="white"/>
<path d="M298.181 32.5001C297.182 32.5001 297.182 33.5001 297.182 34.5001C297.182 35.0001 298.181 35.5001 298.181 35.0001C299.18 34.5001 300.68 34.0001 300.68 32.5001C299.68 32.5001 298.681 32.0001 298.181 32.5001Z" fill="white"/>
<path d="M193.246 326.5C193.746 326 193.746 325.5 193.746 325.5C193.746 325 191.747 325 191.248 325.5C190.748 325.5 190.748 326 190.748 326.5C190.748 327 191.248 327 191.747 327.5C192.247 327 192.747 326.5 193.246 326.5Z" fill="white"/>
<path d="M239.218 42.0002C239.218 42.0002 239.218 42.5002 239.218 42.0002C239.717 43.0002 240.717 43.0002 241.716 42.5002L242.216 42.0002L241.716 41.5002C240.717 41.5002 239.717 41.5002 239.218 42.0002Z" fill="white"/>
<path d="M141.279 48.4998C141.778 47.9998 142.278 47.9998 142.278 47.4998C142.278 46.9998 141.778 46.4998 141.778 45.9998C141.279 46.9998 140.779 46.9998 140.779 47.4998C140.779 47.4998 140.779 47.9998 141.279 48.4998Z" fill="white"/>
<path d="M100.304 52.4999C100.304 52.9999 100.804 52.9999 101.304 52.9999C102.303 52.4999 102.303 51.9999 101.803 50.9999L101.304 50.4999C100.304 51.4999 100.304 51.9999 100.304 52.4999Z" fill="white"/>
<path d="M109.299 50.9998C108.799 51.4998 108.799 51.9998 108.799 51.9998C108.799 52.4998 109.299 52.9998 109.299 52.9998C109.798 52.4998 110.298 52.4998 110.298 51.9998C110.298 51.4998 109.299 50.9998 109.299 50.9998Z" fill="white"/>
<path d="M86.313 57.4998C86.313 57.4998 86.8127 57.9998 87.3124 57.9998C87.3124 57.4998 87.8121 56.9998 87.8121 56.9998C87.3124 56.4998 87.3124 55.9998 86.8127 55.9998C86.8127 55.9998 86.8127 56.9998 86.313 57.4998Z" fill="white"/>
<path d="M256.207 3.49988L255.708 2.99988C255.208 3.49988 255.208 3.99988 254.708 4.99988C254.708 4.99988 255.208 5.49988 255.708 5.49988C256.707 4.99988 256.707 4.49988 256.207 3.49988Z" fill="white"/>
<path d="M288.687 8.99988C288.687 8.49988 288.187 8.49988 287.688 7.99988C287.188 8.49988 286.688 8.49988 286.688 8.99988C286.688 9.49988 287.188 9.99988 287.188 9.99988C287.688 10.4999 288.687 9.49988 288.687 8.99988Z" fill="white"/>
<path d="M143.777 328.5C143.278 328.5 142.778 328 142.278 328C141.778 328 141.279 328.5 140.779 328.5C141.279 328.5 141.778 329 142.278 329C142.778 329 143.278 328.5 143.777 328.5Z" fill="white"/>
<path d="M358.643 15.4999C358.144 15.4999 357.644 15.9999 357.644 15.9999C358.144 15.9999 358.643 16.4999 359.143 16.4999C359.643 16.4999 360.143 15.9999 360.143 15.9999C359.643 15.9999 359.143 15.4999 358.643 15.4999Z" fill="white"/>
<path d="M84.814 18.9998C85.3137 19.4998 85.3137 19.4998 85.8133 19.9998C86.313 19.9998 86.8127 19.4998 87.3124 19.4998C87.3124 18.9998 86.8127 18.4998 86.8127 18.4998C86.313 18.4998 85.3137 18.9998 84.814 18.9998Z" fill="white"/>
<path d="M258.206 23.9998C258.206 23.9998 257.706 23.4998 257.207 23.4998L256.707 23.9998C256.707 24.9998 257.207 25.9998 258.206 25.9998C258.706 25.4998 258.706 24.4998 258.206 23.9998Z" fill="white"/>
<path d="M246.713 25.9998C246.213 25.9998 245.214 25.9998 245.214 26.9998C245.214 26.9998 246.213 27.4998 246.713 27.4998C247.213 27.4998 247.712 26.9998 248.212 26.9998C247.712 26.4998 247.213 26.4998 246.713 25.9998Z" fill="white"/>
<path d="M260.205 27.4998C260.704 27.4998 261.704 27.4998 261.704 26.9998C262.203 25.9998 261.204 25.9998 260.205 25.9998C259.705 25.9998 259.205 25.9998 258.706 25.9998C258.706 26.9998 259.205 27.4998 260.205 27.4998Z" fill="white"/>
<path d="M124.289 326C124.289 325.5 123.79 325.5 123.29 325C122.79 325.5 122.291 325.5 122.291 326C122.291 326.5 122.291 327 122.79 327C123.79 327.5 124.289 327 124.289 326Z" fill="white"/>
<path d="M265.202 33.5002C265.701 33.5002 266.201 33.0002 266.201 33.0002C266.201 32.5002 265.701 32.0002 265.701 31.5002C265.202 32.0002 264.702 32.0002 264.702 32.5002C264.702 32.5002 265.202 33.0002 265.202 33.5002Z" fill="white"/>
<path d="M181.754 35C181.754 34.5 182.253 34 182.253 33.5C182.253 33 181.754 33 181.254 32.5C181.254 33 180.754 33.5 180.754 34C180.754 34 181.254 34.5 181.754 35Z" fill="white"/>
<path d="M231.223 34.0002C231.223 34.5002 230.723 35.0002 230.723 35.5002C230.723 36.0002 231.223 36.0002 231.722 36.5002C231.722 36.0002 232.222 35.5002 232.222 35.0002C232.222 35.0002 231.722 34.5002 231.223 34.0002Z" fill="white"/>
<path d="M271.198 35.9998L270.698 36.4998C270.698 37.4998 271.198 37.9998 272.197 38.4998C272.197 37.9998 272.197 36.9998 272.197 36.4998C272.197 35.9998 271.698 35.9998 271.198 35.9998Z" fill="white"/>
<path d="M280.192 36.4998C280.192 35.9998 279.693 35.9998 279.193 35.9998L278.693 36.4998C278.693 36.9998 278.693 37.9998 278.693 38.4998C280.192 37.9998 280.692 37.4998 280.192 36.4998Z" fill="white"/>
<path d="M244.215 38.0002C244.714 38.0002 245.214 37.5002 246.213 37.5002C245.714 37.0002 245.714 36.5002 245.214 36.5002C244.714 36.5002 244.215 36.5002 243.215 37.0002C243.215 38.0002 243.715 38.0002 244.215 38.0002Z" fill="white"/>
<path d="M368.637 313L367.638 312.5C366.139 313 367.138 313.5 367.138 314.5L367.638 315C368.137 314.5 368.637 314 368.637 313Z" fill="white"/>
<path d="M64.3267 320.5C64.3267 321 64.8264 321 65.3261 321.5L65.8258 321C65.8258 320.5 65.8258 319.5 65.8258 319C64.8264 318.5 63.827 319 64.3267 320.5Z" fill="white"/>
<path d="M120.292 39.5002L119.792 39.0002C119.293 39.0002 118.793 39.0002 118.793 39.5002C118.793 40.0002 118.793 41.0002 118.793 41.5002C119.792 41.0002 120.292 40.5002 120.292 39.5002Z" fill="white"/>
<path d="M255.208 8C255.708 8 255.708 8.5 256.207 8.5C256.207 8.5 256.207 8 256.707 8L256.207 7.5C255.208 8 255.208 8 255.208 8Z" fill="white"/>
<path d="M260.205 8.49988L259.705 7.99988L259.205 8.49988C259.205 8.99988 259.705 8.99988 260.205 8.49988Z" fill="white"/>
<path d="M149.774 10.0001L149.274 9.50012L148.774 10.0001L149.274 10.5001C149.774 10.5001 149.774 10.0001 149.774 10.0001Z" fill="white"/>
<path d="M279.693 10.5001C279.693 10.0001 279.693 10.0001 280.192 9.50012H279.693L279.193 10.0001L279.693 10.5001Z" fill="white"/>
<path d="M186.251 11.4998L185.751 10.9998L185.251 11.4998C185.251 11.9998 185.751 11.9998 186.251 11.4998Z" fill="white"/>
<path d="M243.715 15.4999L243.215 15.9999C243.715 15.9999 243.715 16.4999 244.215 16.4999C244.215 16.4999 244.215 15.9999 244.714 15.9999C244.215 15.4999 243.715 15.4999 243.715 15.4999Z" fill="white"/>
<path d="M182.253 17.5001L181.754 17.0001L181.254 17.5001C181.254 18.5001 181.754 18.5001 182.253 17.5001Z" fill="white"/>
<path d="M316.17 17.5001L315.67 17.0001L315.17 17.5001L315.67 18.0001C315.67 18.0001 316.17 18.0001 316.17 17.5001Z" fill="white"/>
<path d="M240.217 22.0002L239.717 21.5002L239.218 22.0002C239.218 22.5002 239.717 22.5002 240.217 22.0002C239.717 22.5002 240.217 22.5002 240.217 22.0002Z" fill="white"/>
<path d="M266.201 22.5002C265.701 22.0002 265.202 22.0002 264.702 22.5002L265.202 23.0002C265.701 22.5002 266.201 22.5002 266.201 22.5002Z" fill="white"/>
<path d="M262.204 23.9998C262.204 23.9998 262.204 23.4998 262.204 23.9998C262.204 23.4998 261.704 23.4998 261.704 23.4998L261.204 23.9998C261.204 24.4998 261.704 24.4998 262.204 23.9998Z" fill="white"/>
<path d="M270.198 27.0002L269.699 26.5002L269.199 27.0002C269.199 27.5002 269.699 27.5002 270.198 27.0002Z" fill="white"/>
<path d="M246.713 30.0001L247.213 30.5001L247.713 30.0001L247.213 29.5001C247.213 29.5001 247.213 29.5001 246.713 30.0001Z" fill="white"/>
<path d="M253.209 30.0001C253.209 30.5001 254.208 30.5001 254.708 30.5001C254.708 30.0001 254.208 29.5001 254.208 29.5001C253.209 29.5001 252.709 29.5001 253.209 30.0001Z" fill="white"/>
<path d="M177.256 31.9998C178.256 31.4998 178.256 31.4998 177.756 30.9998H177.256L176.757 31.4998L177.256 31.9998Z" fill="white"/>
<path d="M222.228 31.4998L221.729 30.9998L221.229 31.4998C221.229 31.4998 221.729 31.4998 221.729 31.9998L222.228 31.4998Z" fill="white"/>
<path d="M255.208 31.9998C255.708 32.4998 256.207 31.9998 255.708 31.4998C255.708 30.9998 254.708 30.9998 254.208 30.9998C254.708 30.9998 255.208 31.4998 255.208 31.9998Z" fill="white"/>
<path d="M302.179 31.4999C302.678 30.4999 301.679 30.4999 301.179 30.4999C301.179 30.9999 301.179 31.4999 301.179 31.9999C301.179 31.9999 302.179 31.9999 302.179 31.4999Z" fill="white"/>
<path d="M336.157 32.9999C336.157 32.9999 335.658 32.4999 335.658 32.9999C335.158 32.9999 335.158 33.4999 335.158 33.4999C335.158 33.4999 335.658 33.4999 336.157 32.9999Z" fill="white"/>
<path d="M146.775 34.5002L147.275 35.0002L147.775 34.5002L147.275 34.0002C147.275 34.0002 146.775 34.5002 146.775 34.5002Z" fill="white"/>
<path d="M221.729 35.0002L222.228 34.5002L221.729 34.0002L221.229 34.5002C220.729 34.5002 221.229 35.0002 221.729 35.0002Z" fill="white"/>
<path d="M323.665 34.0002L323.166 34.5002C323.665 34.5002 323.665 35.0002 324.165 35.0002C324.165 35.0002 324.165 34.5002 324.665 34.5002C324.165 34.0002 324.165 34.0002 323.665 34.0002Z" fill="white"/>
<path d="M209.237 36.4999L209.736 35.9999L209.237 35.4999L208.737 35.9999C208.737 35.9999 209.237 36.4999 209.237 36.4999Z" fill="white"/>
<path d="M250.211 35.9999L249.711 35.4999L249.212 35.9999L249.711 36.4999L250.211 35.9999Z" fill="white"/>
<path d="M330.161 35.9999L329.662 35.4999L329.162 35.9999L329.662 36.4999C330.161 36.4999 330.161 36.4999 330.161 35.9999Z" fill="white"/>
<path d="M141.778 39.0002H141.279L140.779 39.5002L141.279 40.0002C141.279 39.5002 141.778 39.0002 141.778 39.0002Z" fill="white"/>
<path d="M272.697 38.4998C272.697 39.4998 273.197 39.9998 274.696 39.9998C274.696 38.9998 273.696 38.4998 272.697 38.4998Z" fill="white"/>
<path d="M227.725 41L228.225 40.5L227.725 40C226.726 40.5 226.726 41 227.725 41Z" fill="white"/>
<path d="M230.723 40.5C231.223 40.5 231.223 41 231.722 41C231.722 41 231.722 40.5 232.222 40.5L231.722 40C231.223 40 231.223 40.5 230.723 40.5Z" fill="white"/>
<path d="M91.8096 42.5001L91.3099 42.0001L90.8102 42.5001L91.3099 43.0001C91.3099 42.5001 91.8096 42.5001 91.8096 42.5001Z" fill="white"/>
<path d="M118.293 41.5002C117.294 41.5002 116.794 42.0002 116.294 43.0002C117.793 43.0002 118.293 42.5002 118.293 41.5002Z" fill="white"/>
<path d="M163.265 44.4998L163.765 43.9998L163.265 43.4998C162.765 43.4998 162.765 43.9998 163.265 44.4998Z" fill="white"/>
<path d="M85.8134 45.5C85.3137 45 85.3137 45 85.3137 45C85.3137 45 84.814 45 84.814 45.5C84.814 45.5 85.3137 45.5 85.8134 45.5Z" fill="white"/>
<path d="M91.8096 45.5L91.3099 45H90.8102C90.8102 46 91.3099 46 91.8096 45.5Z" fill="white"/>
<path d="M225.726 46C225.726 45.5 225.726 45.5 225.726 45H225.227L224.727 45.5C225.227 45.5 225.227 45.5 225.726 46Z" fill="white"/>
<path d="M115.795 48.5C115.795 47.5 115.295 47.5 114.795 47.5C114.795 48 115.295 48 115.295 48.5H115.795Z" fill="white"/>
<path d="M144.777 48.5H145.276C145.276 48 145.776 48 145.776 47.5C145.276 48 144.777 48 144.777 48.5Z" fill="white"/>
<path d="M163.265 47.9999L162.765 48.4999L163.265 48.9999L163.765 48.4999C163.765 47.9999 163.765 47.9999 163.265 47.9999Z" fill="white"/>
<path d="M167.263 47.9999L166.763 48.4999C167.263 49.4999 167.762 49.4999 168.262 48.4999C168.262 48.4999 167.762 47.9999 167.263 47.9999Z" fill="white"/>
<path d="M162.765 53C163.265 53.5 163.765 54 163.765 53L163.265 52.5L162.765 53Z" fill="white"/>
<path d="M95.8071 55.9999L95.3074 55.4999L94.8077 55.9999C94.8077 56.9999 95.3074 56.9999 95.8071 55.9999Z" fill="white"/>
<path d="M69.8233 57.5H69.3236L68.8239 58L69.3236 58.5C69.8233 58 70.323 57.5 69.8233 57.5Z" fill="white"/>
<path d="M105.801 58.9998L105.301 58.4998L104.802 58.9998C104.802 59.9998 105.301 59.9998 105.801 58.9998Z" fill="white"/>
<path d="M108.799 61.0001C108.799 61.5001 109.798 61.5001 110.298 61.5001C110.298 61.0001 109.798 60.5001 109.798 60.5001C108.799 60.0001 108.299 60.5001 108.799 61.0001Z" fill="white"/>
<path d="M22.8526 62.0001C22.8526 62.0001 22.3529 62.0001 22.8526 62.0001C22.8526 62.5001 22.8526 63.0001 22.8526 63.0001C22.8526 62.5001 22.8526 62.5001 23.3522 62.0001H22.8526Z" fill="white"/>
<path d="M362.141 314.5C362.141 314 361.142 314 360.642 314C360.642 314.5 360.642 315 361.142 315C362.141 315 362.641 314.5 362.141 314.5Z" fill="white"/>
<path d="M359.643 312.5V313C360.143 313 360.642 313.5 361.142 313.5C360.642 313 360.642 312.5 359.643 312.5Z" fill="white"/>
<path d="M366.139 309.5H365.639L365.139 310L365.639 310.5C366.638 310.5 366.638 310 366.139 309.5Z" fill="white"/>
<path d="M370.136 308C370.136 308 369.137 307.5 368.637 307.5C368.637 308 369.137 308.5 369.137 308.5C370.136 309 370.636 308.5 370.136 308Z" fill="white"/>
<path d="M221.229 329.5C221.229 330 220.729 330 221.229 329.5C221.229 330 221.229 330 221.229 330.5C221.229 330 221.229 330 221.729 329.5H221.229Z" fill="white"/>
<path d="M214.233 330L213.734 329.5L213.234 330L213.734 330.5C213.734 330.5 213.734 330 214.233 330Z" fill="white"/>
<path d="M136.782 325.5C137.781 325.5 137.781 325 138.281 324.5C137.781 324.5 137.281 325 136.782 325V325.5Z" fill="white"/>
<path d="M127.787 323.5H127.288L126.788 324L127.288 324.5C128.287 324 128.287 323.5 127.787 323.5Z" fill="white"/>
<path d="M95.8071 324L95.3074 323.5L94.8077 324L95.3074 324.5C95.3074 324 95.8071 324 95.8071 324Z" fill="white"/>
<path d="M57.8307 321L57.3311 320.5C56.3317 320.5 56.3317 321 57.3311 321.5C57.3311 321 57.8307 321 57.8307 321Z" fill="white"/>
<path d="M51.3348 320L50.8351 320.5L51.3348 321C51.8344 321 51.8345 320.5 52.3341 320.5C51.3348 320.5 51.3348 320 51.3348 320Z" fill="white"/>
<path d="M348.15 317.5H347.65L347.151 318L347.65 318.5C348.65 318 348.65 317.5 348.15 317.5Z" fill="white"/>
</svg>
