<svg width="134" height="35" viewBox="0 0 134 35" fill="none" xmlns="http://www.w3.org/2000/svg">
<path d="M12.5943 6.5607C11.9911 7.53299 8.45839 6.8848 8.80304 7.85708C8.88921 8.18117 9.06154 8.50527 9.32004 8.74834C9.14771 9.15345 10.2678 9.55857 11.6465 9.80164C11.4741 10.0447 11.5603 10.2878 12.4219 10.5309C13.0251 10.5309 13.3698 10.4498 13.6283 10.3688C13.8868 10.2878 14.0591 10.2068 14.1452 10.1257C14.7484 10.2068 15.2654 10.2068 15.61 10.2068C15.0069 11.179 11.5603 10.6929 11.905 11.5842C12.0773 11.9893 12.2496 12.3944 12.5943 12.6375L14.3176 12.0703C18.712 12.3944 12.5081 13.2857 15.4377 14.1769C16.0409 14.0959 16.3855 14.0959 16.644 13.9338C18.1088 13.4477 17.678 13.2046 16.8163 12.7185C20.8661 12.5564 19.5736 15.0682 21.4692 15.2302C21.4692 15.3112 21.2107 15.3112 20.9522 15.3112C21.0384 15.3923 20.6937 15.3923 20.6076 15.3923C20.6076 15.4733 20.5214 15.4733 20.3491 15.4733C20.1768 15.3923 20.4352 15.3923 20.4352 15.3112C20.2629 15.3112 20.0044 15.3112 20.0044 15.3923C20.2629 15.3923 19.7459 15.4733 20.0044 15.5543C20.0906 15.5543 20.0044 15.4733 20.1768 15.4733C20.1768 15.5543 20.0906 15.5543 20.0044 15.6353C19.8321 15.6353 19.8321 15.4733 19.7459 15.4733C19.6598 15.4733 19.4013 15.4733 19.229 15.5543C19.4874 15.4733 19.8321 15.5543 19.6598 15.6353C19.4874 15.6353 19.5736 15.5543 19.4874 15.5543C19.4013 15.5543 19.0566 15.6353 19.1428 15.4733C18.9705 15.5543 18.9705 15.5543 19.0566 15.6353C18.7981 15.6353 18.8843 15.5543 18.9705 15.5543C18.7981 15.5543 18.8843 15.5543 18.7981 15.5543C18.712 15.6353 18.8843 15.7164 18.7981 15.7164C18.712 15.7164 18.712 15.6353 18.6258 15.6353C18.4535 15.6353 18.3673 15.7164 18.1088 15.7164C18.0227 15.5543 17.7642 15.7164 17.5918 15.6353C17.5918 15.7164 17.678 15.7164 17.5918 15.7164C17.5057 15.7164 17.5057 15.6353 17.4195 15.6353C17.4195 15.7164 17.4195 15.7164 17.3333 15.7164C17.3333 15.7164 17.3333 15.7164 17.2472 15.7164C17.2472 15.7164 17.3333 15.7164 17.3333 15.6353C16.7302 15.7164 16.644 15.7164 16.2132 15.5543C16.127 15.6353 15.8685 15.6353 15.6962 15.6353C15.7824 15.7164 15.61 15.7164 15.61 15.7164C15.8685 15.7164 15.6962 15.7974 15.6962 15.7974C15.8685 15.7974 15.9547 15.7974 16.127 15.7974C16.127 15.7164 16.2994 15.7164 16.3855 15.7164C16.3855 15.7974 16.5579 15.7974 16.644 15.7974C16.644 15.7164 16.9887 15.7164 16.9887 15.7164C16.9887 15.7974 16.644 15.7164 16.7302 15.7974C16.9887 15.7164 16.9025 15.7974 16.8163 15.8784C17.4195 15.8784 17.4195 15.8784 17.9365 15.7974C17.9365 15.8784 17.8503 15.8784 17.9365 15.9594C18.0227 15.7974 18.3673 15.9594 18.6258 15.9594C18.5396 15.9594 18.4535 15.9594 18.4535 15.9594C18.5396 16.0405 18.6258 15.9594 18.6258 16.0405C18.5396 16.0405 18.6258 16.0405 18.712 16.1215C18.7981 16.0405 18.712 16.0405 18.7981 15.9594C19.229 15.9594 19.9183 15.9594 20.0906 16.2025C19.8321 16.1215 19.6598 16.2835 19.4013 16.2025C19.4013 16.2835 19.3151 16.2835 19.4013 16.2835C19.7459 16.2835 19.9183 16.2835 20.2629 16.3645C20.1768 16.3645 20.2629 16.4456 20.3491 16.4456C20.3491 16.4456 20.3491 16.3645 20.4352 16.3645C20.3491 16.3645 20.3491 16.4456 20.5214 16.4456C20.5214 16.3645 20.6938 16.3645 20.7799 16.4456C20.5214 16.4456 20.7799 16.6076 20.6076 16.6076C20.3491 16.6076 20.4353 16.4456 20.3491 16.5266C20.4353 16.5266 20.3491 16.6076 20.4352 16.6076C20.3491 16.6076 20.1768 16.6886 20.0906 16.6076C20.1768 16.5266 20.0906 16.4456 20.0044 16.4456C20.0906 16.5266 20.0906 16.6076 20.0044 16.6076C19.7459 16.6076 19.4874 16.6886 19.4874 16.5266C19.5736 16.5266 19.5736 16.4456 19.5736 16.4456C19.4013 16.4456 19.5736 16.5266 19.4013 16.5266C19.3151 16.5266 19.229 16.5266 19.229 16.5266C19.3151 16.6076 19.4013 16.4456 19.4874 16.5266C19.3151 16.5266 19.3151 16.6076 19.1428 16.5266C19.1428 16.4456 19.0566 16.4456 19.0566 16.3645C19.229 16.3645 19.0566 16.2835 19.0566 16.2835C19.0566 16.2835 18.712 16.2835 18.8843 16.3645L18.9705 16.3645C18.8843 16.3645 18.9704 16.4456 18.8843 16.4456C18.7981 16.4456 18.712 16.4456 18.6258 16.3645C18.6258 16.3645 18.7981 16.3645 18.7981 16.2835C18.6258 16.2025 18.3673 16.4456 18.2811 16.2835C18.3673 16.2835 18.5396 16.2835 18.5396 16.2835C18.3673 16.2025 18.195 16.2835 18.0226 16.2025C18.0226 16.2835 18.0227 16.2835 17.9365 16.2835C17.9365 16.2025 17.7642 16.2025 17.5918 16.2835C17.5057 16.2025 17.5918 16.2025 17.5057 16.2025C17.5057 16.2835 17.2472 16.2835 17.2472 16.2835C17.3333 16.2835 17.3333 16.2835 17.3333 16.3645C17.2472 16.4456 17.2472 16.3645 17.0748 16.3645C17.0748 16.4456 17.3333 16.3645 17.3333 16.4456C17.0748 16.4456 17.3333 16.5266 17.3333 16.5266C17.2472 16.6076 17.0748 16.5266 16.9887 16.4456C17.0748 16.5266 16.9025 16.6076 17.0748 16.6076C17.161 16.5266 17.2472 16.6076 17.4195 16.5266C17.4195 16.6076 17.4195 16.6076 17.5057 16.6076C17.5918 16.5266 17.4195 16.5266 17.5918 16.5266C18.0226 16.5266 17.7642 16.7697 17.4195 16.7697C17.5918 16.8507 17.5057 16.7697 17.678 16.7697C17.5057 16.8507 17.7642 16.8507 17.8503 16.8507C17.7642 16.9317 17.3333 16.8507 17.3333 16.9317C17.678 16.9317 17.9365 16.9317 18.1088 16.9317C18.0227 16.9317 18.0227 17.0127 17.9365 17.0127C17.5057 17.0127 16.9887 17.0127 16.3855 17.0127C16.2994 17.0127 16.2994 17.0127 16.2994 17.0127C16.2132 17.0127 16.0409 17.0938 16.0409 17.0127C16.2994 17.0127 15.9547 17.0127 16.0409 16.9317C15.9547 16.9317 15.8685 16.9317 15.8685 16.9317C16.2132 16.9317 15.61 17.0127 15.8685 17.0127C15.8685 16.9317 16.0409 17.0127 16.0409 17.0127C15.7824 17.0127 15.6962 16.9317 15.4377 16.9317C15.4377 17.0127 15.4377 17.0127 15.3516 17.0127C15.0931 17.0127 14.7484 17.0127 14.4899 16.9317C14.4899 16.9317 14.4899 16.9317 14.4037 16.9317C13.9729 16.9317 13.4559 16.8507 13.0251 16.8507C13.1113 16.8507 13.1974 16.8507 13.1113 16.7697C13.0251 16.7697 12.9389 16.7697 12.8528 16.8507C12.6804 16.8507 12.5081 16.8507 12.4219 16.7697C12.1635 16.7697 11.905 16.8507 11.6465 16.8507C11.6465 16.7697 11.6465 16.7697 11.5603 16.7697C11.4741 16.7697 11.388 16.7697 11.388 16.7697C11.4742 16.7697 11.4741 16.8507 11.5603 16.8507C11.2157 16.9317 10.871 16.9317 10.6125 17.0127C10.5263 17.0127 10.5263 17.0127 10.4402 17.0127C9.83703 17.1748 9.57854 17.3368 9.49237 17.4989C9.4062 17.4989 9.4062 17.4989 9.32004 17.4989L9.23387 17.5799C9.32004 17.5799 9.4062 17.5799 9.4062 17.5799C9.32004 17.7419 9.49236 17.904 9.83702 18.066C9.4062 18.066 8.97538 18.066 8.63072 18.066C8.63072 17.985 8.54456 17.985 8.63072 17.985C8.4584 18.066 8.1999 18.066 8.02757 18.066C8.02757 18.1471 7.9414 18.1471 7.76908 18.1471C7.76908 18.1471 7.85525 18.1471 7.76908 18.066C7.68291 18.066 7.68291 18.066 7.59675 18.066C7.59675 18.066 7.59675 18.066 7.59675 17.985C7.42442 17.985 7.33826 17.904 7.33826 17.985C7.42442 17.985 7.42441 17.985 7.51058 17.985C7.42441 17.985 7.42442 17.985 7.33826 17.985C7.42442 17.904 7.16592 17.985 7.25209 17.904C7.07976 17.985 6.9936 17.985 6.73511 17.985C6.73511 18.066 6.73511 18.066 6.64894 18.066C6.73511 17.985 6.30428 17.985 6.21812 18.066L6.21812 17.985C5.87346 17.985 5.61496 17.985 5.35647 17.985C5.44264 18.066 5.09798 18.066 4.92564 18.066C4.92564 18.066 4.92566 17.985 5.01182 17.985C4.92566 18.066 5.27031 18.066 5.18414 17.985C4.92566 17.985 5.01181 17.904 4.92564 17.904C4.83949 18.066 4.75333 17.985 4.83949 18.1471C5.01182 18.1471 5.44264 18.066 5.35647 18.1471C5.35647 18.066 5.27031 18.1471 5.18414 18.1471C5.01181 18.1471 5.01181 18.1471 4.75333 18.1471C4.75333 18.2281 4.66716 18.2281 4.66716 18.2281C4.75331 18.2281 4.75333 18.3091 4.83949 18.3091C4.83949 18.1471 5.27031 18.3091 5.52879 18.2281C5.52879 18.1471 6.21812 18.066 6.47661 18.1471C6.30428 18.1471 6.13196 18.1471 6.04579 18.1471C6.13196 18.1471 6.0458 18.2281 6.13196 18.2281C6.21812 18.2281 6.47661 18.2281 6.39044 18.1471C6.47661 18.2281 6.64894 18.1471 6.73511 18.1471C6.64894 18.066 6.90743 17.985 6.90743 18.066L6.82126 18.066C7.33825 18.2281 7.94141 17.985 8.4584 18.1471C8.54456 18.1471 8.37223 18.066 8.4584 18.066C8.71689 18.1471 9.14771 17.985 9.49237 18.1471L9.49237 18.066C9.49237 18.066 9.66469 18.066 9.83702 18.066C9.92319 18.1471 10.0094 18.1471 10.0955 18.2281C9.92319 18.2281 9.75086 18.1471 9.66469 18.2281C9.66469 18.3091 10.0094 18.3091 10.0955 18.2281C11.4742 18.7952 14.1452 19.3624 15.5239 19.4434L15.4377 19.5245C15.3515 19.5245 15.2654 19.5245 15.1792 19.5245C15.1792 19.6055 15.3516 19.5245 15.3516 19.6055C15.3516 19.6055 15.3515 19.6055 15.2654 19.6865C15.1792 19.6865 15.0931 19.6865 15.0069 19.6865C15.0069 19.6055 15.0069 19.6055 14.9207 19.6055C15.0069 19.8486 14.0591 19.6865 13.8006 19.8486L13.8868 19.7675C13.8006 19.7675 13.8006 19.7675 13.7144 19.7675C13.6283 19.7675 13.8006 19.8486 13.7144 19.8486C13.5421 19.8486 13.6283 19.8486 13.6283 19.7675C13.4559 19.7675 13.5421 19.8486 13.3698 19.8486C13.3698 19.6865 13.1113 19.8486 13.0251 19.7675C12.9389 19.8486 12.7666 19.7675 12.5943 19.7675C12.5081 19.8486 12.8528 19.7675 12.8528 19.8486C12.7666 19.8486 12.8528 19.9296 12.7666 19.9296C12.8528 20.0106 12.8528 20.0916 13.0251 20.0916C13.0251 19.9296 13.1974 20.0916 13.2836 20.0106C13.2836 20.0106 13.2836 20.0106 13.2836 20.0916C12.3358 20.0916 11.4741 20.0916 11.5603 20.6588C11.5603 20.6588 11.5603 20.6588 11.5603 20.7398C11.4741 20.7398 11.4742 20.7398 11.388 20.7398C11.388 20.8208 11.4742 20.8208 11.388 20.8208C11.4742 20.8208 11.4741 20.8208 11.5603 20.8208L11.5603 20.9019C11.4741 20.9019 11.388 20.9019 11.388 20.9829C11.4742 20.9829 11.4741 20.9829 11.5603 20.9829C11.6465 21.1449 11.7326 21.307 11.8188 21.469C11.8188 21.469 11.7326 21.469 11.7326 21.388C11.6465 21.388 11.5603 21.388 11.4742 21.469C11.6465 21.469 11.6465 21.55 11.8188 21.55C11.905 21.6311 11.9911 21.7121 12.0773 21.7931C11.6465 21.7931 11.1295 21.8741 10.6987 21.7931C10.7848 21.7931 10.6987 21.8741 10.7848 21.8741C10.9572 21.7931 11.2157 21.7931 11.388 21.8741C11.7326 21.7931 12.2496 21.7931 12.5943 21.7931C12.5943 21.9552 13.1113 21.9552 13.0251 22.0362C13.1974 22.0362 13.3698 21.9552 13.4559 22.0362C13.2836 22.0362 13.3698 22.1172 13.1974 22.1172C13.2836 22.1172 13.4559 22.1982 13.6283 22.1172C13.6283 22.1982 13.5421 22.1982 13.7144 22.1982C14.0591 22.1982 14.5761 22.1172 14.9207 22.2793C14.8346 22.2793 14.7484 22.3603 14.7484 22.3603C14.6622 22.3603 14.4899 22.3603 14.4037 22.3603C14.5761 22.3603 14.1452 22.3603 14.2314 22.4413C14.4037 22.4413 14.4037 22.6034 14.2314 22.6034C14.1452 22.6034 14.0591 22.5223 14.0591 22.4413C13.9729 22.4413 13.8006 22.4413 13.8006 22.5223C14.0591 22.4413 13.8868 22.6034 13.9729 22.6034C13.9729 22.6034 14.0591 22.5223 14.1452 22.5223C14.1452 22.6034 14.2314 22.6034 14.2314 22.6034C14.1452 22.6844 14.0591 22.6844 14.0591 22.7654C13.9729 22.8464 13.8006 22.8464 13.7144 22.8464C13.7144 22.8464 13.7144 22.9274 13.8006 22.9274C13.3698 23.0085 12.9389 23.0895 12.6804 23.0085C12.5081 23.0085 12.2496 23.0085 12.1635 23.0895C12.3358 23.0895 12.3358 23.1705 12.5081 23.1705C12.3358 23.1705 12.2496 23.2515 12.1635 23.3326C12.0773 23.2515 11.8188 23.3326 11.7326 23.2515C11.6465 23.1705 11.9911 23.2515 11.905 23.1705C11.388 23.0085 10.5263 23.1705 9.92319 23.0895C10.0094 23.0085 10.354 23.1705 10.4402 23.0085C10.2679 22.9274 10.0094 23.0085 9.75086 22.9274C9.6647 22.8464 9.83703 22.8464 10.0094 22.8464C10.0094 23.0085 10.6987 22.8464 10.5263 23.0895C10.7848 23.0085 11.0433 23.0085 11.2157 23.0895C11.3018 23.0895 11.2157 23.0085 11.388 23.0085C11.388 23.0895 11.3018 23.0895 11.3018 23.0895C11.5603 23.0085 12.5081 23.0085 12.7666 22.9274C12.7666 23.0085 12.8528 23.0085 12.8528 23.0085C12.8528 22.9274 13.0251 22.9274 13.0251 22.9274C12.8528 22.9274 12.8528 22.8464 12.7666 22.8464C12.7666 22.8464 12.5081 22.9274 12.5081 22.8464C12.5081 22.7654 12.6804 22.8464 12.6804 22.7654L12.5943 22.7654L12.6804 22.7654C12.422 22.7654 12.1635 22.9274 12.0773 22.8464C12.2496 22.8464 12.1635 22.7654 12.2496 22.7654C12.5081 22.8464 12.8528 22.6844 12.9389 22.6844C12.5943 22.6844 12.6804 22.6034 12.5081 22.5223C12.6804 22.5223 12.5943 22.6034 12.7666 22.5223C12.7666 22.3603 12.5943 22.3603 12.5081 22.2793C12.6804 22.2793 12.5943 22.1982 12.6804 22.1982C12.5081 22.1982 12.2496 22.1982 12.422 22.1172C12.2496 22.1172 12.0773 22.1982 11.9911 22.1172C12.0773 22.0362 12.422 22.1172 12.3358 22.0362C11.5603 22.3603 11.0433 21.7121 10.2678 21.9552C10.354 21.8741 10.1817 21.8741 10.0094 21.7931C10.0955 21.7121 10.1817 21.6311 10.354 21.55C10.4402 21.55 10.4402 21.55 10.6125 21.55C10.7848 21.55 10.6125 21.6311 10.7848 21.6311C10.7848 21.6311 10.7848 21.55 10.6987 21.55C10.9572 21.55 10.9572 21.55 11.388 21.55C11.4742 21.469 11.5603 21.469 11.4742 21.388C11.1295 21.469 10.9572 21.388 10.6987 21.469C10.7848 21.388 10.5263 21.226 10.4402 21.388C10.5263 21.388 10.6125 21.388 10.6125 21.388L10.6125 21.469C10.4402 21.469 10.2678 21.55 10.2678 21.469C10.354 21.469 10.4402 21.469 10.4402 21.469C10.2679 21.469 10.4402 21.388 10.2678 21.388C10.1817 21.469 9.75086 21.469 9.66469 21.388L9.66469 21.307C9.92319 21.307 10.0094 21.1449 9.92319 21.226C9.57854 21.1449 9.4062 21.388 9.4062 21.469C9.23387 21.469 9.32004 21.388 9.23387 21.388C9.23387 21.469 8.97539 21.469 8.88922 21.55C8.97539 21.55 9.06154 21.6311 8.97538 21.6311C8.63072 21.6311 8.11375 21.6311 7.85525 21.55C7.85525 21.469 8.02758 21.469 7.85525 21.469C7.85525 21.6311 7.42442 21.469 7.33826 21.55C7.33826 21.6311 7.51058 21.55 7.51058 21.6311C7.25209 21.6311 7.33826 21.7121 7.16593 21.7931C6.90744 21.7121 6.30429 21.7931 6.13196 21.7931C6.21812 21.8741 6.39045 21.7931 6.47661 21.8741C6.39045 21.9552 6.47661 22.0362 6.39044 22.0362C6.30427 22.0362 6.04578 22.0362 5.95962 22.1172C6.13195 22.1172 6.21812 22.1982 6.04579 22.1982C6.47661 22.1982 6.64894 22.1172 7.16593 22.1172C7.16593 22.0362 7.16592 22.0362 7.25209 22.0362L7.51058 22.0362C7.51058 22.1172 7.25209 22.0362 7.25209 22.1982C7.42441 22.1982 7.85525 22.1172 7.76908 22.1982C7.85525 22.1982 7.94141 22.1982 8.02757 22.1982C7.94141 22.0362 8.63073 22.1172 8.4584 22.1982C8.71689 22.1982 9.06155 22.1982 9.06155 22.2793C8.71689 22.2793 8.54456 22.2793 8.28607 22.3603C8.37224 22.3603 8.37222 22.4413 8.54455 22.3603C8.45839 22.2793 8.63073 22.2793 8.7169 22.2793C8.7169 22.3603 8.97538 22.2793 8.97538 22.3603C8.97538 22.4413 9.06155 22.4413 9.06155 22.4413C8.80305 22.5223 8.54455 22.4413 8.37223 22.4413C8.37223 22.5223 8.63073 22.4413 8.7169 22.5223C8.7169 22.5223 8.54455 22.5223 8.54455 22.6034C8.63072 22.6844 8.88921 22.6034 8.97538 22.6034C8.88921 22.6034 8.63072 22.6034 8.63072 22.6844C8.4584 22.6844 8.28606 22.6034 8.1999 22.6034C8.28606 22.6844 7.94141 22.6844 7.94141 22.8464C8.1999 22.7654 8.4584 22.6034 8.7169 22.7654C8.97539 22.7654 9.32004 22.6844 9.49237 22.7654C9.4062 22.7654 9.23387 22.8464 9.23387 22.9274C9.32004 23.0085 9.57854 22.8464 9.75086 22.9274C9.6647 22.9274 9.66469 22.9274 9.66469 23.0085C9.83702 23.0085 9.83703 22.9274 9.92319 22.9274C10.0094 22.9274 10.1817 23.0085 10.0094 23.0895C9.40621 23.0085 8.88922 23.0895 8.1999 23.0085C8.54456 22.9274 9.06155 23.0895 9.14771 22.9274C8.88922 23.0085 8.80305 22.8464 8.7169 23.0085C8.54456 23.0085 8.4584 22.8464 8.28607 22.9274C8.4584 22.9274 8.37224 23.0085 8.28607 23.0085C8.11375 23.0085 8.11373 23.0085 7.94141 23.0085C7.94141 23.0895 7.51058 23.0895 7.51058 23.1705C7.94141 23.0085 8.54456 23.1705 8.88922 23.2515C9.06155 23.2515 8.80305 23.1705 8.88922 23.1705C8.97539 23.1705 8.97538 23.1705 9.06155 23.2515C8.97538 23.3326 9.1477 23.3326 9.23387 23.4136C8.97538 23.4946 9.06155 23.3326 8.88922 23.3326C8.80305 23.3326 8.63072 23.4136 8.54455 23.4136C8.54455 23.4136 8.63072 23.4136 8.63072 23.3326C8.54456 23.3326 8.4584 23.3326 8.4584 23.3326C8.4584 23.4136 8.45839 23.4136 8.37223 23.4136C8.28606 23.3326 8.1999 23.2515 7.94141 23.2515C7.94141 23.2515 8.02757 23.3326 7.94141 23.3326C7.76907 23.2515 7.51059 23.3326 7.33826 23.2515C7.25209 23.3326 7.07977 23.2515 6.99361 23.3326C6.99361 23.2515 6.56278 23.3326 6.56278 23.2515C6.56278 23.2515 6.56277 23.2515 6.47661 23.2515C6.47661 23.4946 7.16593 23.3326 7.33826 23.4136C7.07976 23.4136 7.16593 23.4946 7.33826 23.4946C6.9936 23.6567 6.47661 23.3326 6.47661 23.4946C6.39045 23.4946 6.04579 23.4136 6.04579 23.4136C6.30428 23.4136 6.13196 23.4136 6.13196 23.4946C6.21812 23.5756 6.39046 23.4136 6.56278 23.4946C6.56278 23.4946 6.21812 23.4946 6.39044 23.5756C6.56277 23.5756 6.56278 23.5756 6.73511 23.4946C6.82127 23.4946 6.82127 23.5756 6.90743 23.5756C6.9936 23.5756 6.90743 23.4946 7.07976 23.4946C7.16592 23.7377 7.76907 23.5756 8.11373 23.6567C7.42441 23.7377 6.73511 23.7377 6.30428 23.7377C6.39045 23.7377 6.39045 23.7377 6.30428 23.8187C6.21812 23.8187 6.21812 23.8187 6.13196 23.8187C6.13196 23.7377 6.13196 23.7377 6.04579 23.7377C5.87346 23.8187 5.78729 23.6567 5.61497 23.6567C5.27031 23.7377 4.32251 23.7377 3.97784 23.6567C3.71936 23.6567 2.85771 23.7377 2.59921 23.5756L2.59921 23.6567C2.34071 23.6567 1.56525 23.5756 1.56525 23.5756C1.56525 23.5756 1.65141 23.6567 1.56525 23.6567C1.47908 23.6567 1.47908 23.5756 1.30675 23.5756C1.04825 23.7377 0.703597 23.4946 0.445098 23.5756C0.531264 23.6567 0.703597 23.5756 0.617431 23.5756C0.703597 23.5756 0.789763 23.5756 0.87593 23.5756C0.703597 23.5756 0.87593 23.5756 0.87593 23.6567C0.789763 23.6567 0.789763 23.6567 0.703597 23.6567C0.703597 23.8187 1.22058 23.6567 1.47906 23.6567C1.73756 23.6567 1.6514 23.8187 1.9099 23.8187C1.9099 23.7377 1.82373 23.7377 1.82373 23.7377C1.99606 23.7377 2.34073 23.6567 2.42688 23.7377C2.25456 23.7377 2.42688 23.8187 2.51305 23.8187C2.59921 23.7377 2.68538 23.8187 2.85771 23.7377C2.77154 23.8187 3.11619 23.7377 2.94386 23.8997C3.20236 23.8997 3.03003 23.8187 3.20236 23.8187C3.37469 23.8997 3.20236 23.8187 3.37469 23.8187C3.37469 23.8997 3.54703 23.8187 3.46086 23.8997C3.71934 23.8997 3.89168 23.8187 4.06401 23.8997C4.15018 23.8997 4.15016 23.8187 4.23633 23.8187C4.40866 23.8187 4.66716 23.8997 4.92564 23.8187C4.92564 23.9808 5.70114 23.9808 5.87346 24.0618L5.87346 23.9808C6.04579 23.9808 5.95962 24.1428 6.13196 24.0618C6.13196 23.9808 5.95962 24.0618 5.95962 23.9808C6.21812 23.9808 6.64894 23.8997 6.90743 23.8997C6.73511 23.8997 6.64894 23.9808 6.73511 23.9808C6.82127 23.9808 6.90743 23.8997 7.07976 23.8997C6.9936 23.8997 7.07977 23.9808 6.99361 23.9808C7.2521 23.9808 7.51059 23.8997 7.76908 23.9808C7.76908 23.9808 7.68291 23.9808 7.68291 24.0618C7.33825 24.0618 6.73511 23.9808 6.64894 24.1428C6.9936 24.0618 7.42443 24.2238 7.85525 24.1428C7.85525 24.3048 8.54456 24.0618 8.63072 24.2238C9.14771 24.1428 10.0094 24.1428 10.4402 24.2238C10.4402 24.2238 10.354 24.2238 10.4402 24.3048C10.5263 24.3048 10.6987 24.3048 10.6987 24.2238C10.6125 24.2238 10.6125 24.2238 10.6125 24.1428C10.9572 24.1428 11.0433 24.1428 11.2157 24.1428L11.1295 24.2238C11.388 24.1428 11.4742 24.3048 11.7326 24.2238C11.7326 24.1428 11.5603 24.1428 11.7326 24.1428C11.7326 24.2238 11.905 24.2238 11.905 24.2238C11.9911 24.2238 11.8188 24.1428 11.9911 24.1428C12.3358 24.1428 12.3358 24.1428 12.5943 24.0618C12.5943 24.1428 12.9389 24.1428 12.7666 24.2238C13.1113 24.2238 13.1113 24.3048 13.2836 24.1428C13.1974 24.2238 13.3698 24.2238 13.2836 24.3048C13.3698 24.3048 13.3698 24.3048 13.4559 24.3048C13.4559 24.2238 13.2836 24.2238 13.4559 24.1428C13.9729 24.1428 14.6622 24.2238 15.0069 24.0618L15.0069 24.1428C15.0931 24.1428 15.1792 24.1428 15.2654 24.1428C15.2654 24.0618 15.2654 24.0618 15.4377 24.0618C15.3515 24.1428 15.5239 24.0618 15.5239 24.2238C15.3516 24.3048 15.0931 24.2238 14.8346 24.2238C14.7484 24.3859 14.0591 24.3048 13.9729 24.2238C14.2314 24.3859 14.9207 24.3048 15.0931 24.3048C15.4377 24.3859 15.6962 24.3859 16.0409 24.3859C15.9547 24.3048 16.127 24.3048 16.2132 24.3048C16.2132 24.2238 16.127 24.2238 16.127 24.1428C15.9547 24.1428 16.0409 24.2238 15.8685 24.2238C15.9547 24.1428 15.61 24.1428 15.6962 24.0618C15.9547 24.0618 16.2994 24.1428 16.2994 24.0618C16.3855 24.0618 16.4717 24.0618 16.5579 24.0618C16.4717 24.0618 16.5579 24.1428 16.4717 24.1428C16.7302 24.1428 16.3855 24.0618 16.7302 23.9808C16.8163 23.9808 16.8164 24.0618 16.9025 23.9808C17.0748 24.0618 16.8164 24.1428 16.9025 24.1428C16.9025 24.1428 17.2472 24.0618 17.2472 24.1428C17.2472 24.2238 17.2472 24.2238 17.161 24.2238C17.2472 24.1428 16.9025 24.2238 16.7302 24.2238C16.644 24.2238 16.644 24.1428 16.5579 24.1428C16.5579 24.2238 16.2994 24.1428 16.2132 24.1428C16.2994 24.3048 16.5579 24.2238 16.644 24.2238C16.644 24.3048 16.4717 24.2238 16.3855 24.3048C16.5579 24.3048 16.8164 24.2238 16.9025 24.3048C16.9025 24.2238 17.2472 24.3048 17.161 24.2238C16.9887 24.2238 16.9025 24.3048 16.9025 24.2238C17.0748 24.1428 17.2472 24.2238 17.4195 24.2238C17.5057 24.1428 17.2472 24.2238 17.3333 24.1428C17.4195 24.1428 17.4195 24.1428 17.4195 24.1428C17.678 24.1428 17.7642 24.1428 17.9365 24.2238C18.1088 24.2238 17.8503 24.2238 17.8503 24.1428C17.9365 24.1428 17.9365 24.1428 18.0226 24.1428C18.1088 24.1428 18.195 24.1428 18.195 24.2238C18.195 24.3048 18.0226 24.2238 18.0226 24.3048C18.195 24.3048 18.2811 24.3048 18.4535 24.3048C18.5396 24.3048 18.5396 24.2238 18.712 24.2238C18.7981 24.2238 18.7981 24.3048 18.8843 24.3048C18.9705 24.3048 19.229 24.2238 19.4874 24.3048C19.5736 24.2238 19.6598 24.2238 19.7459 24.2238C19.4874 24.2238 19.4013 24.3048 19.3151 24.2238C19.4013 24.2238 19.4013 24.2238 19.4874 24.1428C19.4013 24.1428 19.3151 24.2238 19.229 24.2238C19.229 24.0618 18.8843 24.2238 18.8843 24.1428C18.8843 24.1428 18.9705 24.0618 18.8843 24.0618C18.6258 24.1428 18.195 24.1428 18.0226 24.0618C18.1088 24.2238 17.5057 24.1428 17.678 23.9808C17.4195 23.9808 17.5918 24.0618 17.4195 24.0618C17.4195 23.9808 17.3333 23.9808 17.3333 23.9808C17.7642 23.8187 18.0226 23.8997 18.4535 24.0618C18.7981 23.9808 18.8843 24.0618 19.0566 23.9808L19.0566 24.0618C19.0566 23.9808 19.5736 23.9808 19.4013 23.9808C19.3151 24.0618 18.9705 23.9808 18.9705 23.9808C19.3151 23.9808 19.4874 23.9808 19.7459 23.9808C19.6598 24.0618 19.7459 24.0618 19.8321 24.0618C19.8321 23.9808 19.9183 23.9808 20.0044 23.9808C20.2629 24.5479 20.5214 25.0341 21.4692 25.0341C22.934 24.953 23.3649 24.5479 23.3649 24.0618C23.6233 24.0618 23.8818 24.0618 23.968 24.0618C24.0542 24.0618 24.485 23.9808 24.7435 23.9808C26.6391 25.0341 30.4303 25.9253 33.6184 26.1684C35.4279 26.0063 37.3235 26.1684 39.3053 26.4115C39.1329 26.4115 38.9606 26.4925 38.8744 26.5735C38.7883 26.7356 38.5298 26.7356 38.3575 26.7356C38.2713 26.7356 38.099 26.7356 38.0128 26.7356C37.4958 26.6545 37.3235 26.6545 37.2373 26.8166C37.065 27.0596 36.8065 26.8976 36.548 26.9786C36.2033 27.0596 35.514 27.0596 35.6864 27.3837C35.6864 27.4648 35.514 27.5458 35.4279 27.6268C35.3417 27.7078 35.3417 27.7889 35.4279 27.8699C35.6864 28.0319 36.031 28.275 36.3757 28.437C36.4618 28.5181 36.6342 28.5181 36.8065 28.5181C37.1512 28.5181 37.4958 28.5181 37.8405 28.5991C38.099 28.8422 38.616 28.5181 38.8744 28.7611C39.4776 28.6801 40.0807 28.8422 40.6839 28.9232C41.0286 28.9232 41.2871 29.0852 41.6317 29.0852C41.9764 29.0852 42.321 29.1663 42.6657 29.0852C43.0103 29.0852 43.2688 29.2473 43.6135 29.2473C43.7858 29.2473 43.872 29.1663 43.9582 29.2473C44.0443 29.3283 43.7858 29.4903 43.5273 29.4903C43.0965 29.4903 42.6657 29.4903 42.321 29.4903C42.2349 29.4903 42.0625 29.4903 41.9764 29.5714C41.804 29.6524 42.0625 29.7334 42.0625 29.8144C42.1487 29.9765 42.1487 30.1385 42.2349 30.2196C42.4072 30.3816 42.4934 30.4626 42.2349 30.6247C42.0625 30.7057 42.0625 30.9488 41.7179 30.9488C41.5455 30.9488 41.2009 30.9488 41.1147 30.8677C41.0286 30.7867 41.287 30.7867 41.3732 30.7867C41.4594 30.7867 41.4594 30.7057 41.5455 30.7057C41.2009 30.6247 40.8562 30.4626 40.5116 30.4626C40.0807 30.3816 39.5638 30.3816 39.1329 30.3816C39.0468 30.3816 39.0468 30.3816 38.9606 30.3006C39.0468 30.3006 39.1329 30.2196 39.1329 30.2196C39.4776 30.2196 39.8223 30.2196 40.1669 30.2196C40.3392 30.2196 40.5116 30.1385 40.5977 30.0575C40.6839 29.9765 40.7701 29.7334 40.5116 29.7334C40.1669 29.6524 39.9084 29.4093 39.4776 29.4903C38.9606 29.4903 38.616 29.3283 38.1851 29.3283C37.6681 29.2473 37.1512 29.3283 36.6342 29.1663L36.548 29.1663C36.548 29.2473 36.4618 29.3283 36.4618 29.3283C36.548 29.4093 36.6342 29.4903 36.8065 29.5714C37.065 29.6524 38.2713 29.7334 38.7021 29.7334C38.7883 29.7334 38.8744 29.8144 38.8744 29.8144L38.8744 29.8955C38.7883 30.0575 38.616 30.1385 38.4436 30.3006C38.3575 30.3816 38.1851 30.3816 38.1851 30.3006C38.099 30.0575 37.9266 29.9765 37.4958 29.9765C36.8927 29.9765 36.3757 29.8955 36.2033 29.5714C35.514 29.3283 34.9109 29.0852 34.1354 29.0042C34.0492 29.0042 33.8769 29.0042 33.7907 29.0042C33.7046 29.0042 33.7046 29.0852 33.6184 29.1663C33.6184 29.2473 33.6184 29.3283 33.7046 29.3283C33.9631 29.4093 34.2216 29.5714 34.5662 29.6524C34.5662 29.8955 34.997 29.8955 35.2555 29.9765C35.4279 30.0575 35.7725 30.1385 35.9449 30.2196C36.031 30.3006 36.031 30.4626 36.3757 30.3816C36.7203 30.2196 37.1512 30.3816 37.582 30.2196C37.7543 30.1385 37.7543 30.3006 37.8405 30.3816C37.8405 30.3816 37.8405 30.4626 37.9266 30.4626C38.1851 30.5437 38.4436 30.5437 38.7021 30.6247C38.9606 30.7057 38.7883 30.9488 39.2191 30.9488C39.3914 30.9488 39.5638 30.9488 39.7361 31.0298C39.8223 31.0298 39.8223 31.0298 39.9084 31.1108C39.8223 31.1108 39.8223 31.1918 39.7361 31.1918C39.1329 31.1918 38.4436 31.2729 37.8405 31.1108C37.582 31.0298 37.3235 31.0298 36.9788 31.0298C36.2895 31.0298 35.6002 31.0298 34.9109 30.8677C34.5662 30.7867 34.1354 30.8677 33.7046 30.8677C33.6184 30.8677 33.5322 30.9488 33.5322 31.0298C33.5322 31.1108 33.6184 31.1918 33.6184 31.1918C34.0492 31.1918 34.4801 31.3539 34.8247 31.4349C34.9109 31.3539 34.997 31.2729 35.2555 31.2729C35.4279 31.2729 35.514 31.3539 35.514 31.4349C35.514 31.5159 35.514 31.5159 35.514 31.597C35.7725 31.597 35.9449 31.597 36.2033 31.597L36.2033 31.678C36.8065 31.84 37.1512 31.84 37.582 31.597C37.6681 31.5159 37.7543 31.5159 37.8405 31.5159C38.1851 31.678 38.616 31.84 39.2191 31.84C39.3053 31.84 39.5638 31.9211 39.5638 32.0021C39.7361 32.2451 40.0807 32.3262 40.5977 32.3262C41.0286 32.3262 41.5455 32.3262 41.9764 32.3262C42.2349 32.3262 42.4072 32.2451 42.4934 32.1641C42.838 31.84 42.838 31.9211 43.6135 32.0021C44.1305 32.0831 44.4751 32.2451 44.9921 32.3262C45.2506 32.4072 45.4229 32.4072 45.5953 32.3262C45.7676 32.2451 45.8538 32.2451 46.0261 32.3262C46.1984 32.4072 46.3708 32.5692 46.6292 32.5692C46.7154 32.4072 46.6292 32.2451 47.0601 32.2451C47.9217 31.84 47.9217 31.759 48.0079 31.759C48.1802 31.759 48.1802 31.84 48.2664 31.9211C48.4387 31.9211 48.611 31.84 48.611 31.759C48.6972 31.678 48.5249 31.597 48.3525 31.5159C48.094 31.5159 47.7494 31.5159 47.4909 31.5159C47.4047 31.5159 47.3186 31.4349 47.3186 31.4349C47.4047 31.4349 47.4047 31.3539 47.4909 31.3539C48.094 31.3539 48.7834 31.3539 49.3865 31.3539C50.0758 31.3539 50.7651 31.3539 51.3683 31.1918C51.5406 31.1918 51.6268 31.0298 51.7991 31.1108C52.1438 31.2729 52.4023 31.1918 52.7469 31.1108C53.0054 31.2729 53.4362 31.2729 53.8671 31.2729C54.6425 31.2729 55.418 31.2729 56.1935 31.3539C56.452 31.3539 56.7966 31.3539 57.0551 31.4349C57.3998 31.597 57.8306 31.597 58.2614 31.597C60.3294 31.597 62.4835 31.678 64.7238 31.759C65.1546 31.759 65.1546 31.759 65.2408 32.0831C65.2408 32.1641 65.3269 32.1641 65.3269 32.2451C65.4131 32.2451 65.4993 32.1641 65.5854 32.1641C65.9301 32.0021 66.5332 31.9211 66.8779 32.0021L66.8779 32.0831C66.8779 32.0831 66.7917 32.1641 66.7056 32.1641C66.1886 32.1641 65.7578 32.1641 65.8439 32.5692C65.8439 32.7313 65.5854 32.8123 65.4993 32.9744C65.4131 33.0554 65.2408 33.0554 65.0684 32.9744C64.9823 32.8933 64.8099 32.8933 64.8099 32.9744C64.8099 33.0554 64.8099 33.1364 64.7238 33.2174C65.5854 33.2174 66.4471 33.3795 67.2225 33.1364C67.3949 33.0554 67.8257 33.1364 68.0842 33.2174C68.4289 33.3795 68.8597 33.3795 69.2043 33.4605C69.2905 33.2985 69.3767 33.3795 69.3767 33.4605C69.6352 33.4605 69.8075 33.5415 70.066 33.4605C70.3245 33.2985 70.7553 33.2174 70.8415 32.9744C70.8415 32.8933 70.9276 32.8933 71.0138 32.8123C71.1 32.8933 71.0999 32.9744 71.1861 33.0554C71.3584 33.1364 71.5308 33.2174 71.7893 33.1364C71.8754 33.1364 72.0478 33.0554 72.0478 33.0554C72.3063 33.1364 72.7371 33.2174 72.8232 33.3795C72.9956 33.6225 73.0817 33.5415 73.3402 33.4605C73.5987 33.3795 73.5126 33.1364 73.9434 33.0554C73.9434 33.0554 73.9434 32.9744 74.0295 32.9744C74.3742 32.7313 74.805 33.2174 75.2358 32.9744C75.322 32.9744 75.4082 33.0554 75.4082 33.0554C75.4943 33.1364 75.4943 33.2174 75.4943 33.2174C76.1837 33.2985 76.7868 33.5415 77.4761 33.7036C77.4761 33.7036 77.5623 33.7036 77.6484 33.7036C77.7346 33.7036 77.7346 33.6225 77.6484 33.5415C77.5623 33.5415 77.5623 33.3795 77.5623 33.3795C78.0793 33.2985 78.5963 33.2985 79.1132 33.3795C79.3717 33.3795 79.1994 33.3795 79.1132 33.4605C78.8548 33.6225 78.9409 33.7036 79.3717 33.7036C79.6302 33.7036 79.8887 33.7036 80.0611 33.7036C80.3195 33.7036 80.578 33.4605 80.8365 33.6225C81.1812 33.8656 81.4397 33.6225 81.7843 33.6225C82.0428 33.6225 82.2152 33.7036 82.4737 33.7036C82.5598 33.7036 82.7322 33.7846 82.7322 33.7036C83.0768 33.5415 83.3353 33.6225 83.68 33.7036C83.7661 33.7846 84.0246 33.7846 84.1969 33.7846C84.8863 33.7846 85.5756 33.9466 86.2649 33.7036C86.3511 33.7036 86.5234 33.7036 86.6096 33.7036C86.7819 33.7846 87.0404 33.7846 87.2127 33.8656C87.8159 34.1087 88.3328 34.1087 89.0222 33.9466C89.1083 33.9466 89.2807 33.8656 89.3668 33.8656C90.2285 33.9466 91.0901 33.7846 91.9517 33.7036C92.4687 33.7036 92.9857 33.6225 93.2442 33.3795C93.5027 33.3795 93.9335 33.3795 94.1059 33.4605C94.4505 33.6225 94.7952 33.4605 95.0537 33.5415C95.3983 33.7036 95.743 33.6225 96.0876 33.6225C96.5185 33.6225 96.777 33.7846 97.2078 33.8656C97.2939 33.8656 97.4663 33.8656 97.5524 33.8656C97.8971 33.8656 98.1556 33.7036 98.5002 33.8656C98.8449 33.7036 99.2757 33.7846 99.6204 33.7036C100.137 33.5415 100.913 33.6225 101.344 33.2984C101.258 33.2174 101.43 33.4605 101.688 33.3795C101.861 33.2984 102.033 33.0554 102.378 33.2174C102.722 33.3795 102.895 33.1364 103.153 33.1364C103.239 33.1364 103.412 33.1364 103.412 33.2174C103.412 33.2984 103.412 33.3795 103.412 33.3795C103.325 33.4605 103.239 33.4605 103.153 33.4605C103.067 33.4605 102.981 33.5415 102.808 33.5415C102.895 33.5415 102.981 33.6225 103.067 33.6225C103.325 33.6225 103.67 33.6225 103.929 33.6225C104.273 33.6225 104.618 33.6225 104.963 33.6225C105.221 33.6225 105.48 33.4605 105.738 33.4605C106.083 33.4605 106.427 33.4605 106.772 33.4605C106.858 33.4605 106.944 33.3795 107.031 33.3795C107.203 33.3795 107.289 33.2984 107.289 33.2984C107.289 33.2984 107.203 33.2984 107.117 33.2174C106.255 33.0554 105.48 33.2984 104.704 33.2984C104.532 33.2984 104.359 33.5415 104.187 33.3795C104.101 33.2984 104.359 33.2174 104.704 33.1364C105.049 33.0554 105.393 32.9744 105.738 32.9744C106.514 33.0554 107.203 32.8933 107.978 32.8123C108.064 32.8123 108.151 32.7313 108.151 32.6503C108.151 32.6503 108.064 32.5692 107.978 32.5692C107.978 32.5692 107.892 32.5692 107.806 32.5692C107.72 32.5692 107.634 32.4882 107.548 32.4882C107.634 32.4882 107.72 32.4072 107.806 32.4072C108.065 32.4072 108.323 32.4072 108.495 32.4072C108.926 32.4072 109.529 32.4882 109.788 32.6503C109.96 32.8123 110.219 32.8123 110.563 32.8123C111.339 32.8933 112.028 32.6503 112.717 32.5692C113.493 32.4882 114.182 32.2451 115.044 32.3262C115.905 32.4072 116.681 32.2451 117.284 32.0021C117.456 31.921 117.629 31.84 117.887 31.84C118.06 31.84 118.318 31.84 118.318 31.921C118.318 32.0021 118.146 32.0021 117.973 32.0021C117.887 32.0021 117.887 32.0831 117.801 32.0831C117.801 32.0831 119.007 32.2451 119.094 32.2451C119.18 32.1641 119.352 32.0831 119.438 32.0831C119.352 32.0831 119.266 32.0021 119.18 32.0021C119.094 32.0021 119.007 31.921 118.921 31.921C119.007 31.84 119.094 31.84 119.18 31.759C119.438 31.597 119.697 31.678 119.955 31.678C120.731 31.678 121.334 31.3539 122.023 31.2729C122.195 30.9488 122.799 30.7867 123.229 30.6247C123.488 30.4626 123.66 30.3006 123.66 30.0575C123.574 29.8144 123.66 29.5714 124.35 29.5714C125.039 29.3283 125.814 29.2473 126.418 28.9232C126.504 28.9232 126.504 28.8422 126.504 28.7611C126.504 28.7611 126.418 28.6801 126.331 28.6801C126.073 28.6801 125.728 28.6801 125.47 28.6801C125.211 28.5991 124.953 28.5181 124.867 28.356C124.78 28.275 125.125 28.1129 125.384 28.0319C125.642 27.9509 125.814 28.0319 125.987 28.1129C126.159 28.194 126.418 28.275 126.59 28.1129C126.762 28.0319 126.935 27.9509 127.107 27.9509C127.71 27.8699 127.624 27.7078 127.452 27.5458C127.365 27.4648 127.796 27.3027 127.71 27.2217C127.365 26.9786 127.538 26.7355 127.538 26.4114C127.538 26.2494 127.538 26.0874 127.365 26.0063C127.107 25.7633 127.107 25.6012 127.796 25.5202C127.882 25.5202 127.968 25.4392 127.968 25.3581C127.968 25.1961 127.968 25.034 128.055 24.872C128.055 24.71 127.882 24.6289 127.538 24.5479C127.365 24.5479 127.365 24.4669 127.452 24.3859C127.538 24.3048 127.71 24.2238 127.624 24.1428C127.365 23.9807 127.624 23.8187 127.71 23.5756C127.796 23.5756 127.968 23.4136 127.968 23.3326C127.968 23.1705 127.796 23.0085 127.624 22.8464C127.365 22.6844 127.452 22.4413 127.538 22.1982L127.71 22.1172C128.055 22.2793 128.141 22.1982 128.227 22.0362C128.313 21.7121 128.141 21.469 128.485 21.1449C128.572 21.0639 128.227 20.7398 127.968 20.6588C127.452 20.5778 127.624 20.4157 127.796 20.2537L127.882 20.1726C127.624 20.0106 127.624 19.8485 127.624 19.7675C127.796 19.7675 127.882 19.7675 128.055 19.8485C128.227 19.9296 128.399 20.0916 128.572 20.0916C128.916 20.1726 128.916 19.7675 129.002 19.6055C129.175 19.3624 129.433 19.1193 129.606 18.8763C129.864 18.6332 130.036 18.6332 130.381 18.7952C130.898 18.9573 131.329 18.4711 131.932 18.6332C132.018 18.6332 132.104 18.5522 132.191 18.4711L132.191 18.3091C132.191 18.2281 132.104 17.985 132.018 17.985C131.415 17.904 130.812 17.7419 130.295 18.1471C130.036 18.3091 129.864 18.2281 129.606 18.066C129.433 17.985 129.175 17.904 129.089 17.904C128.916 18.1471 128.658 18.1471 128.399 18.2281C128.399 18.1471 128.399 18.066 128.227 17.985C127.71 17.7419 127.624 17.4178 127.796 17.1748C128.227 17.1748 128.658 17.1748 129.175 17.1748C129.433 17.1748 129.606 16.9317 129.778 16.7697C129.864 16.6886 129.95 16.5266 129.778 16.4456C129.606 16.2835 129.433 16.1215 129.175 16.0404C128.916 15.9594 128.658 16.0404 128.485 16.0404C128.313 16.0404 128.055 16.0404 127.968 15.9594C127.796 15.7974 127.538 15.6353 127.452 15.4733C127.452 15.3112 127.71 14.9871 127.882 14.9871C128.399 14.9061 128.83 14.9061 129.347 14.9061C129.692 14.9061 129.864 14.7441 129.95 14.3389C130.123 13.8528 130.64 13.6908 130.726 13.1236C130.812 12.7185 130.812 12.4754 130.467 12.3134C130.209 12.2323 129.95 12.1513 129.606 12.0703C129.692 11.3411 129.261 11.5031 128.83 11.4221C128.485 11.4221 128.313 11.6652 127.968 11.7462C127.71 11.9082 127.451 11.5031 127.193 11.5031C127.107 11.5031 126.935 11.5031 126.848 11.5841C126.59 11.7462 126.331 11.8272 125.987 11.8272C124.694 11.8272 123.402 11.6652 122.195 12.1513C122.109 12.1513 122.109 12.1513 122.023 12.1513C122.023 12.0703 122.109 12.0703 122.195 11.9893C122.195 11.9893 122.282 11.9893 122.282 11.9082C122.799 11.8272 123.229 11.7462 123.746 11.6652C123.833 11.6652 123.919 11.6652 124.091 11.5841L124.005 11.5841C124.35 11.5031 124.608 11.3411 124.867 11.179C124.78 10.8549 124.694 10.6119 124.522 10.4498C125.297 10.3688 125.987 10.1257 126.676 9.80163C126.762 9.80163 126.762 9.80163 126.848 9.80163C127.107 9.72061 127.279 9.55856 127.538 9.55856C127.796 9.47754 127.968 9.96368 128.313 9.63959C128.485 9.47754 128.658 9.88265 128.916 9.88265C129.089 9.88265 129.261 9.88265 129.433 9.88265C129.519 9.88265 129.519 9.80163 129.606 9.80163C129.95 9.55856 130.209 9.15344 130.64 9.07242C130.726 9.07242 130.726 8.91037 130.553 8.82935C130.381 8.74833 130.123 8.82935 130.209 8.58628C130.209 8.42423 130.553 8.18116 130.553 8.18116C130.984 8.42423 131.415 7.93809 131.674 8.10014C132.191 8.50526 132.449 8.18116 132.621 7.77605C132.708 7.37093 132.966 7.2899 133.311 7.2899C133.483 7.2899 133.655 7.2899 133.828 7.2899C133.914 7.2899 134 7.12786 134 7.04683L133.914 6.88479C133.655 6.72274 133.397 6.56069 133.138 6.39865C132.621 6.07455 131.932 5.99353 131.846 5.18329C131.846 5.10227 131.587 5.02125 131.415 4.94022C131.243 4.8592 130.984 4.8592 130.898 4.77818C130.812 4.61613 130.726 4.29203 130.812 4.04896C130.812 3.80589 130.984 3.64385 131.07 3.40078C130.726 3.31975 130.553 2.91464 130.295 2.75259C129.95 2.50952 129.433 2.67157 129.089 2.34747C128.916 2.18543 128.572 2.26645 128.572 2.59054C128.485 2.91464 128.313 2.99566 128.055 2.99566C127.538 2.99566 127.107 3.56282 126.504 3.4818C126.504 3.4818 126.331 3.64385 126.331 3.8059C126.331 3.88692 126.418 4.04897 126.504 4.12999C126.676 4.29204 126.935 4.37306 127.107 4.45408C127.279 4.61613 127.365 4.8592 127.451 5.10227C127.451 5.34534 127.365 5.66943 127.107 5.66943C126.762 5.66943 126.331 5.66943 125.987 5.66943C125.642 5.66943 125.47 5.42637 125.642 5.02125C125.901 4.45408 125.814 4.45409 125.384 4.12999C125.211 4.04897 125.125 3.88692 124.953 3.72487C124.78 3.56283 124.694 3.40078 124.35 3.64385C123.833 3.96794 123.229 3.96794 122.799 3.72487C122.195 3.31975 121.42 3.64385 120.903 3.31975C120.214 2.91464 119.611 3.23873 118.921 3.07668C118.749 3.07668 118.577 3.07668 118.404 3.07668C118.232 3.07668 117.973 2.99566 117.887 2.91464C117.456 2.4285 116.853 2.26645 116.25 2.34747C115.561 1.78031 114.785 1.78031 114.01 2.18543C113.924 2.18543 113.751 2.02338 113.579 1.94236C113.407 1.78031 113.493 1.61826 113.665 1.61826C114.01 1.53724 114.355 1.13212 114.785 1.61826L114.958 1.61826C115.302 1.29417 115.561 1.29417 115.905 1.61826C115.992 1.69929 116.164 1.61826 116.25 1.53724C116.25 1.53724 116.25 1.45621 116.25 1.37519C115.992 0.483934 115.819 0.402906 114.958 0.645979C114.182 0.889047 113.407 0.970072 112.287 0.645979C112.028 0.564955 111.77 0.970072 111.511 0.645979C111.339 0.483931 111.166 0.727003 111.08 0.808027C110.908 0.889052 110.736 0.889052 110.563 0.727003C110.305 0.483935 110.046 0.483935 109.788 0.727003C109.529 0.970076 109.185 0.970076 108.926 0.889052C108.237 0.727003 107.634 0.240862 106.944 0.889052C106.858 0.970076 106.6 0.808028 106.427 0.727004C106.083 0.483935 105.652 0.483931 105.393 0.64598C104.704 1.0511 104.015 0.889052 103.239 0.970076C102.033 0.970076 100.827 1.0511 99.5342 0.970077C99.1896 0.970077 98.8449 1.0511 98.5002 1.21315C98.0694 0.808029 97.7248 0.970077 97.3801 1.29417C96.6046 1.0511 96.0015 1.78031 95.226 1.69929C94.7952 1.69929 94.3644 1.78031 93.9335 1.69929C93.4165 1.61826 93.0719 2.10441 92.5549 2.10441C92.2964 2.10441 91.9517 2.1044 91.6933 2.26645C91.0901 2.59054 90.487 2.59055 89.97 2.34748C89.5391 2.1044 89.1945 2.1044 88.7637 2.26645C88.1605 2.50952 87.6435 2.91464 86.9542 2.50952C86.868 2.50952 86.6957 2.59055 86.6095 2.59055C86.1787 2.91464 85.8341 2.91464 85.4032 2.59055C85.1448 2.34748 84.8001 2.26645 84.5416 2.4285C84.0246 2.83362 83.5076 2.75259 82.9906 2.75259C82.4737 2.75259 82.0428 2.75259 81.612 2.99566C81.095 3.23873 80.4057 3.23874 79.8887 2.91464C79.4579 2.67157 78.9409 2.67157 78.5101 2.91464C78.2516 3.07669 78.0793 3.07669 77.8208 3.07669C77.4761 3.15771 77.39 2.59055 77.0453 2.91464C76.7006 3.15771 76.356 3.07669 76.0113 3.07669C74.8912 3.07669 73.771 3.07669 72.7371 3.07669C68.7735 3.07669 64.8961 3.07669 60.9325 3.07669C60.5879 3.07669 60.1571 2.99567 59.8986 3.23874C59.5539 3.48181 59.1231 2.91464 58.7784 3.40078C58.3476 3.40078 57.9168 3.40078 57.486 3.40078C56.5382 3.40078 55.5042 3.40078 54.5564 3.40078C54.2117 3.40078 53.8671 3.31976 53.6947 3.48181C53.2639 3.8059 52.7469 3.72488 52.3161 3.72488C51.9714 3.72488 51.5406 3.64385 51.196 3.8059C50.5928 4.13 49.9897 4.04897 49.3865 4.04897C48.7834 4.04897 48.094 4.04897 47.4909 4.04897C46.8877 3.88692 46.2846 3.64385 45.6814 3.23874L46.2846 3.56283C46.3707 3.72488 45.9399 3.8059 45.5953 3.88692C45.6814 3.88692 45.6814 3.96795 45.7676 3.96795C44.389 3.96795 43.0965 3.96795 41.7179 3.96795C41.2009 3.96795 40.6839 3.96795 40.0807 4.21102C39.5638 4.45409 38.8744 4.29204 38.2713 4.29204C37.2373 3.64385 36.1172 4.04897 34.997 4.04897C34.3077 4.53511 33.6184 4.37307 32.8429 4.37307C32.3259 4.37307 31.6366 4.29205 31.2058 4.53512C31.1196 4.61614 31.0335 4.61614 30.8612 4.69716C30.1718 4.53511 29.1379 4.29205 27.4146 4.13C24.3127 4.53512 20.6076 5.10228 16.9025 4.94023C15.61 4.85921 14.4037 4.29205 14.5761 3.96795C12.9389 4.04898 10.6987 4.04898 9.06154 3.96795C1.99606 5.26433 9.92319 6.39866 12.5943 6.5607ZM16.4717 15.6353C16.4717 15.7164 16.2994 15.6353 16.2994 15.6353C16.2994 15.6353 16.4717 15.6353 16.2994 15.5543C16.2994 15.5543 16.4717 15.5543 16.5579 15.4733C16.7302 15.5543 16.2994 15.5543 16.4717 15.6353ZM17.678 15.7164C17.5918 15.7164 17.5057 15.7164 17.4195 15.7164C17.5057 15.6353 17.5918 15.6353 17.678 15.5543C17.8503 15.6353 17.678 15.7164 17.678 15.7164ZM18.195 15.7164C18.2811 15.6353 18.0227 15.7164 17.9365 15.7164C17.8503 15.7164 18.0226 15.6353 17.8503 15.6353C17.8503 15.5543 18.1088 15.6353 18.1088 15.5543C18.2811 15.5543 18.195 15.6353 18.2811 15.5543C18.3673 15.5543 18.195 15.5543 18.2811 15.4733C18.2811 15.4733 18.3673 15.4733 18.4535 15.4733C18.4535 15.4733 18.3673 15.5543 18.4535 15.5543C18.6258 15.4733 18.5396 15.4733 18.7981 15.5543C18.7981 15.6353 18.6258 15.6353 18.5396 15.6353C18.5396 15.6353 18.6258 15.6353 18.712 15.6353C18.5396 15.7974 18.4535 15.7164 18.195 15.7164ZM18.9705 15.7974C18.8843 15.7974 18.7981 15.7974 18.7981 15.7974C18.7981 15.7164 18.8843 15.7164 18.9705 15.7974C18.9705 15.7164 18.8843 15.6353 19.0566 15.7164L19.0566 15.7974C19.0566 15.7164 18.9705 15.7164 18.9705 15.7974ZM18.1088 16.6886C17.9365 16.6076 17.7642 16.6886 17.678 16.6076C17.9365 16.6076 18.1088 16.5266 18.195 16.6076C18.195 16.6076 18.0227 16.6076 18.1088 16.6886ZM13.1113 22.5223C13.3698 22.6034 12.9389 22.5223 13.1113 22.5223C13.0251 22.6034 12.8528 22.5223 12.6804 22.5223C12.6804 22.5223 12.7666 22.5223 12.8528 22.5223C12.9389 22.5223 12.8528 22.4413 12.9389 22.4413C13.0251 22.4413 12.9389 22.5223 13.1113 22.5223ZM12.8528 22.2793C12.9389 22.2793 12.8528 22.2793 12.8528 22.2793C13.0251 22.1982 12.8528 22.3603 12.5943 22.2793C12.5943 22.2793 12.8528 22.3603 12.8528 22.2793ZM12.422 22.1982C12.5081 22.1982 12.5081 22.1172 12.422 22.1982C12.5943 22.1172 12.5081 22.1982 12.5943 22.1982C12.5081 22.1982 12.3358 22.1982 12.2496 22.1982C12.3358 22.1982 12.422 22.1982 12.422 22.1982ZM12.2496 22.5223C12.2496 22.6034 12.0773 22.5223 11.8188 22.5223C11.8188 22.4413 12.1635 22.5223 12.2496 22.5223ZM12.0773 22.6034C12.3358 22.6034 12.3358 22.6034 12.5081 22.6844C12.5081 22.7654 12.3358 22.6844 12.2496 22.6844C11.9911 22.8464 11.7326 22.6844 11.388 22.7654C11.3018 22.6844 11.2157 22.7654 11.0433 22.6844C11.3018 22.6034 11.905 22.6844 12.0773 22.6034ZM10.9572 22.6844C10.9572 22.7654 10.871 22.7654 10.7848 22.7654C10.6987 22.7654 10.6987 22.6844 10.6987 22.6844C10.871 22.6844 10.9572 22.6844 10.9572 22.6844ZM7.59676 23.3326C7.51059 23.2515 7.59676 23.2515 7.59676 23.1705C7.85525 23.1705 7.76908 23.2515 8.02757 23.1705C8.11374 23.2515 7.85525 23.1705 7.85525 23.2515C7.85525 23.3326 8.1999 23.2515 8.11373 23.3326C7.85524 23.3326 7.76908 23.3326 7.59676 23.3326ZM3.63318 23.8187C3.63318 23.7377 3.80551 23.7377 3.89168 23.7377C3.97784 23.8187 3.80551 23.8187 3.63318 23.8187ZM5.52879 23.8187C5.70113 23.7377 5.78729 23.8187 5.95962 23.8187L5.95962 23.8997C5.78729 23.8997 5.61496 23.8997 5.52879 23.8187ZM8.1999 23.2515C8.28606 23.2515 8.37223 23.2515 8.4584 23.2515C8.54456 23.3326 8.1999 23.4136 8.1999 23.2515ZM8.63072 23.7377C8.54456 23.6567 8.97539 23.6567 8.88922 23.6567C8.97539 23.7377 8.71689 23.6567 8.63072 23.7377ZM9.49237 23.8997C9.57854 23.8187 9.83703 23.8997 9.92319 23.8997C9.92319 23.9808 9.57854 23.8997 9.49237 23.8997ZM9.4062 22.6844C9.49236 22.6844 9.75085 22.6844 9.83702 22.7654C9.66469 22.6844 9.49236 22.7654 9.4062 22.6844ZM9.83702 21.7121C9.92319 21.6311 9.92319 21.6311 9.83702 21.55C10.0955 21.55 10.1817 21.6311 10.2678 21.55C10.4402 21.55 10.6987 21.7931 10.354 21.7931C10.4402 21.6311 9.92319 21.7931 9.83702 21.7121ZM10.0955 21.8741C10.0955 21.7931 10.354 21.8741 10.2678 21.7931C10.354 21.7931 10.4402 21.7931 10.5263 21.7931C10.5263 21.9552 10.1817 21.9552 10.0955 21.8741ZM10.2678 22.6844C10.2678 22.6034 10.5263 22.6844 10.6125 22.6844C10.6125 22.7654 10.354 22.7654 10.2678 22.6844ZM11.7326 23.2515C11.4742 23.2515 11.3018 23.2515 11.0433 23.2515C11.0433 23.1705 10.871 23.1705 10.6987 23.1705C10.6125 23.1705 10.9572 23.1705 10.7848 23.0895C10.9572 23.0895 11.0433 23.1705 11.2157 23.0895L11.2157 23.1705C11.388 23.2515 11.4742 23.2515 11.7326 23.2515C11.7326 23.1705 11.7326 23.1705 11.7326 23.1705C11.8188 23.1705 11.6465 23.2515 11.7326 23.2515ZM11.9911 23.2515C11.905 23.3326 11.905 23.1705 11.8188 23.2515C11.8188 23.1705 12.0773 23.1705 12.1635 23.1705C12.3358 23.2515 11.8188 23.1705 11.9911 23.2515ZM13.1974 23.3326C13.1113 23.2515 13.1974 23.2515 13.2836 23.1705C13.4559 23.1705 13.5421 23.1705 13.5421 23.3326C13.3698 23.2515 13.2836 23.3326 13.1974 23.3326ZM13.6283 23.2515C13.7144 23.1705 13.4559 23.1705 13.4559 23.0895C13.8006 23.1705 14.1452 23.2515 14.4899 23.2515C14.3176 23.3326 13.8868 23.1705 13.6283 23.2515ZM37.4097 31.1108C37.2373 31.1108 37.065 31.1108 36.9788 31.1108L36.9788 31.0298C37.065 30.9488 37.1512 30.9488 37.3235 30.9488C37.4097 30.9488 37.4097 30.9488 37.4097 31.0298C37.4958 31.0298 37.4097 31.1108 37.4097 31.1108ZM41.2871 30.9488C41.5455 30.9488 41.7179 30.8677 41.804 30.8677C42.2349 30.8677 42.4072 30.8677 42.5795 31.0298L42.5795 31.1108C42.4934 31.1918 42.4072 31.1918 42.4072 31.1918C42.2349 31.1918 42.1487 31.1108 41.9764 31.0298C41.7179 30.9488 41.3732 31.1108 41.2871 30.9488ZM42.838 31.5159C42.838 31.5159 42.6657 31.5159 42.5795 31.597C42.5795 31.678 42.4934 31.678 42.4934 31.678C42.4072 31.678 42.321 31.678 42.4072 31.597C42.4933 31.597 42.5795 31.597 42.6657 31.5159C42.6657 31.5159 42.6657 31.5159 42.6657 31.4349C42.6657 31.4349 42.6657 31.3539 42.7518 31.3539C42.7518 31.4349 42.838 31.5159 42.838 31.5159ZM128.055 5.02125C128.055 5.02125 128.141 5.10227 128.141 5.18329C128.141 5.18329 128.141 5.18329 128.141 5.26432L128.141 5.34534C128.141 5.34534 128.141 5.34534 128.055 5.34534C128.055 5.34534 128.055 5.34534 127.968 5.34534C127.882 5.18329 127.882 5.10227 128.055 5.02125ZM21.8139 15.2302C21.7277 15.2302 21.7277 15.1492 21.8139 15.2302C21.8139 15.1492 21.8139 15.1492 21.8139 15.2302C23.1925 15.0682 23.6233 14.663 23.7095 14.2579C23.968 14.2579 24.3127 14.2579 24.485 14.339C24.6573 14.339 24.9158 14.1769 25.002 14.339C25.1743 14.339 25.0881 14.2579 25.2605 14.2579C25.3466 14.2579 25.2605 14.42 25.3466 14.42C25.3466 14.339 25.5189 14.42 25.6051 14.339C25.6913 14.42 25.9498 14.42 26.0359 14.501C25.8636 14.501 25.519 14.582 25.6913 14.663C25.8636 14.501 26.1221 14.501 26.4668 14.501C26.5529 14.501 26.7253 14.582 26.8114 14.582C26.8114 14.582 26.8976 14.582 26.8976 14.663C26.9837 14.663 26.9838 14.663 26.9838 14.663C27.0699 14.663 27.1561 14.7441 27.2422 14.7441C27.2422 14.7441 27.2422 14.7441 27.2422 14.8251C27.1561 14.8251 27.0699 14.8251 27.0699 14.8251C27.0699 14.9871 27.3284 14.9871 27.5869 14.9871C27.5007 14.9871 27.5007 15.0682 27.4146 15.0682C27.2422 15.0682 26.9838 15.0682 26.6391 15.0682C26.5529 15.1492 26.6391 15.1492 26.7253 15.1492C26.6391 15.2302 26.4668 15.2302 26.2944 15.1492C26.2944 15.0682 26.2944 15.0682 26.3806 14.9871C26.4668 14.9871 26.5529 14.9871 26.5529 14.9871C26.5529 14.9871 26.5529 14.9061 26.4668 14.9061L26.3806 14.9061C26.3806 14.9871 26.3806 14.9871 26.2944 14.9871C26.2944 14.9061 26.2944 14.9061 26.3806 14.8251L26.4668 14.8251C26.6391 14.8251 26.7253 14.7441 26.8976 14.7441C26.9837 14.6631 26.8114 14.663 26.9838 14.663C26.8114 14.663 26.6391 14.6631 26.8114 14.7441C26.7253 14.7441 26.5529 14.7441 26.3806 14.7441C26.3806 14.7441 26.2083 14.663 26.1221 14.582C26.1221 14.663 26.1221 14.6631 26.0359 14.7441C25.8636 14.7441 25.6913 14.7441 25.6051 14.8251C25.6913 14.8251 25.6913 14.8251 25.7774 14.8251C25.7774 14.8251 25.8636 14.7441 26.0359 14.7441C26.0359 14.8251 26.0359 14.8251 25.9498 14.9061L25.8636 14.9061L25.9498 14.9061C25.8636 14.9061 25.7774 14.9061 25.7774 14.9061C25.8636 14.9061 25.9498 14.9061 25.9498 14.9061L26.0359 14.9871C25.7774 14.9871 25.6051 14.9871 25.4328 15.0682C25.519 15.0682 25.6913 15.0682 25.8636 15.1492C25.002 15.1492 24.5711 15.1492 23.7095 15.1492L23.7957 15.0682C23.6233 15.0682 23.5372 15.1492 23.2787 15.1492C23.2787 15.1492 23.2787 15.0682 23.1925 15.0682C23.1925 15.0682 23.1063 15.0682 23.0202 15.0682C23.0202 15.1492 23.1925 15.0682 23.1925 15.1492C22.934 15.2302 22.5032 15.1492 22.1585 15.2302C22.0724 15.1492 21.8139 15.1492 21.7277 15.1492C21.6416 15.2302 21.8139 15.3112 21.6416 15.3112C21.7277 15.3923 21.4692 15.3112 21.8139 15.2302ZM18.6258 17.4989C18.6258 17.4178 18.7981 17.4989 18.7981 17.4989C18.7981 17.4989 18.6258 17.5799 18.6258 17.4989C18.5396 17.4989 18.6258 17.4989 18.6258 17.4989C18.712 17.4989 18.6258 17.4989 18.6258 17.4989ZM18.712 17.5799C18.8843 17.6609 19.2289 17.5799 19.4013 17.4989C19.4874 17.5799 19.5736 17.5799 19.7459 17.6609C19.7459 17.6609 19.6598 17.5799 19.7459 17.5799C19.9183 17.5799 19.9183 17.6609 20.0906 17.6609C20.0906 17.5799 20.0906 17.5799 20.1768 17.5799C20.3491 17.823 20.5214 17.904 20.6937 18.066C20.4353 18.1471 20.1768 18.066 20.0044 18.066C19.8321 18.066 20.0906 18.1471 20.0044 18.1471C19.4874 18.066 18.9705 17.904 18.6258 17.6609L18.712 17.5799ZM25.519 17.904L25.4328 17.904C25.4328 17.904 25.4328 17.904 25.519 17.904ZM24.9158 17.0938C24.7435 17.0938 24.7435 17.0938 24.6573 17.0938C24.6573 17.0938 24.6573 17.0938 24.6573 17.0127C24.7435 17.0127 24.9158 17.0127 24.9158 17.0938ZM21.4692 15.3923C21.5554 15.3923 21.5554 15.4733 21.6416 15.4733C21.6416 15.4733 21.3831 15.3923 21.4692 15.3923ZM20.7799 15.5543C20.7799 15.4733 20.8661 15.4733 20.7799 15.3923C20.9522 15.3923 21.2107 15.3923 21.2107 15.4733C20.8661 15.3923 20.9522 15.4733 20.7799 15.5543ZM19.1428 16.6886C19.2289 16.6886 19.3151 16.6076 19.4013 16.6886C19.4013 16.7697 19.229 16.6886 19.229 16.7697C19.4013 16.7697 19.4013 16.8507 19.5736 16.7697C19.6598 16.6076 20.3491 16.6076 20.2629 16.7697C20.4353 16.6886 20.6076 16.6886 20.3491 16.6886C20.5214 16.6886 20.8661 16.6886 20.7799 16.6076C20.7799 16.6886 20.9522 16.6076 20.9522 16.6886C20.9522 16.7697 20.6937 16.6886 20.6937 16.7697C20.6937 16.8507 21.0384 16.7697 21.0384 16.7697C20.8661 16.7697 21.0384 16.8507 20.8661 16.8507C20.9522 16.7697 20.7799 16.7697 20.6937 16.8507C20.7799 16.7697 20.6937 16.7697 20.5214 16.7697C20.6937 16.8507 20.6076 16.8507 20.4352 16.9317C20.6937 16.9317 21.0384 16.9317 21.2969 16.9317C21.2107 16.9317 21.4692 16.8507 21.4692 16.8507C21.8139 16.7697 21.9862 16.9317 22.3309 16.8507C22.2447 16.8507 22.3309 16.9317 22.3309 16.9317L22.2447 16.9317C22.1585 16.9317 21.9 16.9317 21.9 16.9317C21.9862 16.9317 21.9 16.9317 21.9 17.0127C21.9862 17.0127 22.0724 17.0127 22.1585 17.0127C22.1585 17.0127 22.0724 17.0938 22.0724 17.1748C22.0724 17.1748 22.0724 17.1748 21.9862 17.1748C21.9862 17.1748 21.9862 17.0938 21.9 17.0938C21.8139 17.0938 21.5554 17.0938 21.6416 17.1748C21.9862 17.0938 21.8139 17.2558 21.9862 17.3368L21.9862 17.4178C21.9 17.4178 21.7277 17.4178 21.6416 17.4178C21.7277 17.4178 21.7277 17.4178 21.6416 17.4178C21.4692 17.4178 21.3831 17.4179 21.2969 17.3368C21.2969 17.4179 21.2969 17.4178 21.1246 17.4178C21.1246 17.4989 21.2107 17.4989 21.2107 17.4989C21.0384 17.4989 20.8661 17.4989 20.7799 17.4989C20.6938 17.4989 20.6076 17.4179 20.6076 17.3368C20.6076 17.3368 20.6076 17.3368 20.5214 17.2558C20.8661 17.1748 21.2969 17.2558 21.4692 17.2558C21.3831 17.1748 21.1246 17.2558 21.0384 17.1748C21.3831 17.1748 21.5554 17.2558 21.7277 17.2558C21.7277 17.1748 21.4692 17.0938 21.2969 17.0938C21.2107 16.9317 21.7277 17.0127 21.8139 16.9317C21.5554 16.9317 21.2969 17.0127 21.1246 17.0938C20.9522 17.0127 20.7799 17.0127 20.4352 17.0127C20.6076 17.0938 20.5214 17.0127 20.5214 17.1748C20.6076 17.1748 20.6937 17.0938 20.6937 17.1748C20.6937 17.2558 20.4352 17.2558 20.4352 17.2558C20.3491 17.2558 20.2629 17.1748 20.1768 17.2558L20.0906 17.2558C20.0044 17.2558 20.0044 17.1748 20.0044 17.1748C20.1768 17.1748 20.2629 17.1748 20.4352 17.1748C20.3491 17.0938 20.4353 17.0127 20.2629 17.0127C20.2629 17.0938 20.3491 17.0938 20.3491 17.0938C20.1768 17.0938 19.9183 17.0938 19.9183 17.0127C19.9183 17.0938 19.3151 17.0127 19.5736 17.0938C19.4874 17.0938 19.4013 17.0938 19.4013 17.0938C19.4013 17.0127 19.4013 17.0127 19.4013 16.9317C19.2289 16.8507 19.1428 16.7697 19.1428 16.6886C19.1428 16.7697 19.0566 16.6886 19.1428 16.6886ZM19.1428 16.7697C19.0566 16.8507 18.9705 16.7697 18.9705 16.8507C18.712 16.8507 18.712 16.8507 18.5396 16.8507C18.6258 16.7697 18.8843 16.7697 19.1428 16.7697ZM18.7981 16.7697C18.5396 16.7697 18.8843 16.6886 18.9705 16.6886C18.9705 16.7697 18.8843 16.7697 18.7981 16.7697C18.712 16.7697 18.5396 16.7697 18.4535 16.7697C18.4535 16.6886 18.6258 16.7697 18.7981 16.7697ZM19.1428 17.1748C19.1428 17.0938 19.0566 17.0938 19.1428 17.1748C19.2289 17.1748 19.4013 17.0938 19.5736 17.0938C19.5736 17.1748 19.5736 17.1748 19.7459 17.1748C19.6598 17.0938 20.0044 17.0938 20.0044 17.1748L20.0044 17.0938C20.0906 17.1748 19.7459 17.1748 19.9183 17.1748C19.9183 17.1748 20.0044 17.1748 20.0906 17.1748C20.0044 17.2558 20.0044 17.2558 20.0044 17.2558C19.9183 17.2558 20.0044 17.1748 19.8321 17.1748C19.8321 17.2558 19.5736 17.3368 19.4874 17.2558C19.4874 17.1748 19.6598 17.2558 19.4874 17.1748C19.4013 17.2558 19.1428 17.1748 19.1428 17.3368C18.8843 17.2558 18.8843 17.3368 18.6258 17.3368C18.5396 17.4179 18.6258 17.4178 18.6258 17.4178C18.5396 17.4178 18.4535 17.4178 18.4535 17.4178C18.3673 17.3368 18.2811 17.2558 18.195 17.1748C18.3673 17.0938 18.8843 17.0938 19.1428 17.1748ZM15.3516 19.8486C15.3516 20.0106 15.0931 19.9296 14.8346 19.9296C14.9207 19.8486 15.2654 19.8486 15.3516 19.8486ZM13.8868 19.9296C13.8868 19.9296 13.8006 19.9296 13.7144 19.9296L13.7144 19.8486L13.6283 19.8486C13.7144 19.7675 13.9729 19.8486 13.8868 19.9296C14.2314 19.8486 14.5761 19.9296 14.9207 20.0106C14.6622 20.0106 14.3176 20.0916 13.9729 20.0916C13.9729 20.0916 14.1452 20.0916 14.0591 20.0106C13.9729 20.0106 13.8868 20.0106 13.8868 19.9296ZM13.1974 21.6311C13.1113 21.6311 13.0251 21.6311 12.9389 21.6311L13.1974 21.6311C13.2836 21.6311 13.2836 21.6311 13.1974 21.6311ZM13.2836 21.55L13.5421 21.469C13.6283 21.469 13.6283 21.469 13.6283 21.55C13.5421 21.55 13.3698 21.6311 13.2836 21.55ZM15.3516 21.8741C15.2654 21.7931 15.1792 21.7931 15.2654 21.8741C15.0931 21.7931 14.6622 21.8741 14.5761 21.7931C14.5761 21.7121 14.6622 21.7121 14.5761 21.6311C14.8346 21.55 15.2654 21.55 15.61 21.55C15.61 21.469 15.5239 21.469 15.5239 21.469C15.5239 21.55 15.5239 21.55 15.3516 21.55C15.2654 21.469 15.2654 21.469 15.3516 21.469C15.2654 21.469 15.0931 21.469 15.0931 21.469C15.1792 21.469 15.2654 21.469 15.2654 21.469C15.2654 21.388 14.8346 21.307 14.7484 21.388C14.8346 21.388 14.8346 21.388 14.9207 21.469C14.8346 21.469 14.8346 21.469 14.7484 21.55C14.5761 21.55 14.6622 21.469 14.5761 21.469C14.4899 21.55 14.4899 21.388 14.4899 21.388C14.4899 21.388 14.4037 21.469 14.3176 21.469C14.3176 21.469 14.3176 21.469 14.3176 21.388L14.6622 21.307C14.6622 21.307 14.6622 21.388 14.7484 21.307C15.2654 21.388 15.61 21.469 15.8685 21.55C15.7824 21.55 15.6962 21.6311 15.61 21.6311C15.7824 21.6311 16.0409 21.7121 16.2132 21.7931C16.2132 21.8741 16.2132 21.8741 16.2132 21.9552C16.2132 21.9552 16.2132 21.9552 16.127 21.9552C16.127 21.9552 16.2132 21.9552 16.127 21.8741C15.6962 21.8741 15.9547 21.7121 15.5239 21.7121C15.4377 21.7121 15.4377 21.7931 15.2654 21.8741C15.5239 21.7931 15.4377 21.8741 15.3516 21.8741ZM14.8346 22.8464C14.8346 22.8464 14.8346 22.9274 14.8346 22.8464C14.7484 22.9274 14.7484 22.9274 14.6622 22.9274C14.6622 22.8464 14.7484 22.8464 14.8346 22.8464ZM14.6622 23.1705C14.8346 23.1705 14.7484 23.2515 14.9207 23.1705C15.0069 23.2515 14.5761 23.2515 14.6622 23.1705ZM17.5918 23.9808C17.5057 24.0618 17.3333 23.9808 17.3333 23.8997C17.5918 23.8997 17.5057 23.9808 17.5918 23.9808ZM23.7957 22.6844C23.7957 22.6034 23.8818 22.6034 23.968 22.5223C23.968 22.6034 23.968 22.6034 23.968 22.6844C23.8818 22.6844 23.8818 22.6844 23.7957 22.6844ZM58.4338 28.1129C58.4338 28.194 58.4338 28.194 58.4338 28.1129C58.4338 28.0319 58.6061 27.9509 58.6923 27.9509C59.0369 27.9509 59.3816 27.9509 59.7262 28.0319C59.8124 28.0319 59.8124 28.1129 59.8124 28.194C59.8986 28.194 59.9847 28.194 59.9847 28.275C60.0709 28.356 59.9847 28.356 59.8986 28.356C59.8986 28.275 59.8986 28.275 59.8986 28.194C59.8124 28.194 59.7262 28.194 59.6401 28.275C59.2954 28.437 59.0369 28.437 58.7784 28.275C58.6923 28.194 58.6061 28.194 58.4338 28.1129C58.4338 28.194 58.4338 28.194 58.4338 28.1129C58.4338 28.194 58.4338 28.194 58.4338 28.1129C58.4338 28.194 58.4338 28.194 58.4338 28.1129C58.3476 28.194 58.3476 28.194 58.2614 28.275C58.1753 28.275 58.0891 28.275 58.1753 28.194C58.2614 28.194 58.3476 28.194 58.4338 28.1129C58.4338 28.194 58.4338 28.194 58.4338 28.1129ZM60.2432 29.8955L60.3294 29.8955C60.4156 29.8955 60.5017 29.9765 60.5879 29.9765C60.6741 29.9765 60.6741 30.0575 60.6741 30.1385C60.5879 30.1385 60.5017 30.1385 60.4156 30.1385C60.2432 30.1385 60.0709 30.0575 60.1571 29.9765C60.1571 29.9765 60.1571 29.8955 60.2432 29.8955ZM39.8222 26.3304C39.9946 26.3304 40.0807 26.3304 40.2531 26.4115L40.2531 26.4925C40.1669 26.4925 40.0807 26.4925 39.9946 26.4115C39.9084 26.3304 39.8222 26.3304 39.8222 26.3304ZM44.3028 31.2729C43.872 31.3539 43.6135 31.1108 43.1827 31.0298C43.0965 31.0298 43.0965 30.9488 43.0965 30.9488C43.1827 30.9488 43.2688 30.9488 43.4412 30.8677C43.6135 30.8677 43.6997 30.7867 43.6997 30.7057C43.5273 30.7057 43.4412 30.7057 43.2688 30.7057C43.1827 30.7057 43.1827 30.7057 43.1827 30.6247C43.1827 30.6247 43.2688 30.5437 43.355 30.5437C43.5273 30.5437 43.6997 30.5437 43.7858 30.5437C43.6997 30.4626 43.6135 30.3816 43.6135 30.3006C43.5273 30.2196 43.5273 30.1385 43.5273 30.1385C43.7858 29.8955 44.1305 29.7334 44.6475 29.6524C44.7336 29.6524 44.8198 29.7334 44.906 29.7334C44.6475 29.8955 44.4751 29.9765 44.7336 30.2196C44.9921 30.3816 45.2506 30.4626 45.6814 30.4626C45.7676 30.4626 45.7676 30.4626 45.8538 30.5437C45.8538 30.5437 45.8538 30.5437 45.9399 30.5437L45.8538 30.5437L45.7676 30.5437C45.1645 30.5437 44.4751 30.5437 43.872 30.5437C43.872 30.6247 43.872 30.6247 43.872 30.7057C44.3028 30.7867 44.4751 30.9488 44.7336 31.1108L44.8198 31.1918C44.5613 31.1918 44.389 31.2729 44.3028 31.2729ZM46.8016 31.3539L46.7154 31.4349L46.6292 31.4349C46.4569 31.2729 46.3708 31.1918 46.1984 31.1108C45.9399 30.9488 45.8538 31.1108 45.8538 31.1918L45.6814 31.2729C45.6814 31.1918 45.5953 31.1918 45.5953 31.1108C45.5953 30.7867 45.6814 30.7867 46.4569 30.7867C46.8877 30.7867 46.9739 30.8677 46.9739 31.0298C46.8877 31.1108 46.8016 31.2729 46.8016 31.3539ZM49.5588 31.1918L49.4727 31.1918C49.3865 31.1108 49.3865 31.1108 49.5588 31.1918C49.5588 31.1108 49.645 31.1108 49.645 31.1108L49.5588 31.1918ZM50.162 30.1385C50.0758 30.2196 49.9897 30.3006 49.7312 30.3006C49.4727 30.3006 49.2142 30.3006 49.0419 30.3006C48.4387 30.1385 47.8355 30.1385 47.2324 30.0575C47.1462 30.0575 47.0601 29.9765 47.0601 29.9765C47.0601 29.8955 47.0601 29.8144 47.3186 29.7334C47.5771 29.7334 47.7494 29.6524 47.7494 29.5714C47.4047 29.4903 47.0601 29.2473 46.5431 29.4903C46.2846 29.5714 45.8538 29.4903 45.5091 29.4903C45.423 29.4903 45.3368 29.4093 45.3368 29.3283C45.2506 29.2473 45.4229 29.1663 45.5953 29.1663C46.8877 29.1663 48.1802 29.2473 49.4727 29.2473C49.7312 29.2473 49.9035 29.3283 49.9035 29.4903C49.9035 29.5714 50.0758 29.6524 50.162 29.7334C50.2482 29.7334 50.4205 29.8144 50.4205 29.8955C50.4205 29.9765 50.2482 30.0575 50.162 30.1385ZM61.5357 31.1108C61.3634 31.1108 61.1049 31.0298 60.9325 30.9488C60.674 30.8677 60.4156 30.8677 60.0709 30.9488C59.9847 30.9488 59.8124 31.0298 59.8124 31.0298C59.0369 30.7057 58.0891 30.9488 57.2275 30.8677C56.7105 30.7867 56.1073 30.8677 55.5042 30.7057C55.1595 30.6247 54.5564 30.6247 54.1256 30.6247C53.1777 30.6247 52.2299 30.6247 51.4545 30.3816C51.196 30.3006 50.7651 30.4626 50.5928 30.2196C50.9375 30.0575 51.2821 30.2196 51.6268 30.1385C51.8853 30.1385 52.2299 30.1385 52.4884 30.1385C52.9193 30.1385 53.4362 30.1385 53.8671 30.1385C54.2117 30.1385 54.5564 30.1385 54.901 30.0575C55.1595 29.9765 55.5042 29.9765 55.6765 30.0575C55.935 30.2196 56.1935 30.0575 56.3658 30.0575C56.6243 30.1385 56.8828 30.2196 57.1413 30.3006C57.3998 30.3816 57.6583 30.3816 58.003 30.3816C58.3476 30.4626 58.6923 30.2196 58.9508 30.3006C59.2954 30.4626 59.7262 30.3816 60.1571 30.3816C60.5017 30.3816 60.8464 30.3816 61.191 30.3816C61.5357 30.3816 61.7942 30.4626 61.9665 30.5437C62.0527 30.6247 62.1388 30.7057 62.1388 30.7867C62.1388 31.1108 61.7942 31.1108 61.5357 31.1108ZM67.5672 32.6503C67.3949 32.7313 67.2225 32.8933 66.9641 32.7313C66.7917 32.6503 66.7056 32.8123 66.5332 32.7313C66.4471 32.7313 66.2747 32.6503 66.3609 32.6503C66.3609 32.5692 66.4471 32.4882 66.5332 32.4072C66.6194 32.4072 66.8779 32.4072 66.9641 32.4072C67.1364 32.4072 67.3087 32.4072 67.481 32.4072C67.6534 32.5692 67.6534 32.5692 67.5672 32.6503ZM69.3767 32.1641L69.2905 32.1641C69.2043 32.1641 69.2043 32.0831 69.3767 32.0831C69.3767 32.0021 69.3767 32.0831 69.3767 32.1641C69.4628 32.0831 69.3767 32.0831 69.3767 32.1641ZM70.3245 32.7313L70.2383 32.6503L70.3245 32.5692C70.4968 32.6503 70.4968 32.7313 70.3245 32.7313ZM71.4446 32.2451L71.3584 32.1641L71.4446 32.0831C71.6169 32.1641 71.6169 32.1641 71.4446 32.2451ZM71.7031 32.5692L71.6169 32.4882C71.6169 32.4882 71.7031 32.4882 71.7031 32.4072L71.7893 32.4072C71.7893 32.4882 71.7893 32.5692 71.7031 32.5692ZM73.5987 32.0831C73.5987 32.0831 73.5126 32.0831 73.5126 32.0021C73.5126 32.0021 73.5987 32.0021 73.5987 31.9211L73.6849 31.9211C73.5987 32.0021 73.5987 32.0021 73.5987 32.0831ZM80.6642 32.7313C80.578 32.8123 80.4057 32.8123 80.2334 32.8123C80.0611 32.7313 79.9749 32.7313 79.8026 32.6503C79.8887 32.6503 79.9749 32.5692 80.0611 32.5692C80.1472 32.5692 80.2334 32.5692 80.4057 32.4882C80.4919 32.4882 80.4919 32.4882 80.578 32.4882C80.6642 32.4882 80.7504 32.4882 80.8365 32.5692C80.8365 32.6503 80.7504 32.7313 80.6642 32.7313ZM82.2152 31.678C82.2152 31.678 82.129 31.678 82.2152 31.678C82.129 31.678 82.129 31.678 82.0428 31.678C82.0428 31.678 82.0428 31.678 82.0428 31.597C82.129 31.678 82.2152 31.678 82.2152 31.678ZM84.4554 33.5415C84.4554 33.5415 84.3693 33.5415 84.3693 33.4605C84.3693 33.4605 84.4554 33.4605 84.4554 33.3795L84.5416 33.3795C84.5416 33.5415 84.4554 33.5415 84.4554 33.5415ZM85.9202 32.8933L85.8341 32.8123L85.9202 32.7313C86.0926 32.8123 86.0926 32.8933 85.9202 32.8933ZM88.6775 32.5692C88.6775 32.5692 88.6775 32.6503 88.6775 32.5692C88.5913 32.6503 88.5913 32.6503 88.6775 32.5692C88.5913 32.7313 88.419 32.7313 88.1605 32.7313C88.0743 32.7313 88.0743 32.7313 88.0743 32.6503C87.9882 32.6503 88.0743 32.5692 88.1605 32.5692C88.3328 32.5692 88.419 32.6503 88.6775 32.5692C88.5913 32.6503 88.5913 32.5692 88.6775 32.5692C88.5913 32.5692 88.6775 32.5692 88.6775 32.5692L88.7637 32.4882L88.8498 32.4882C88.936 32.5692 88.7637 32.5692 88.6775 32.5692ZM93.1581 33.4605C92.8134 33.4605 92.3826 33.3795 92.2102 33.5415C91.8656 33.7036 91.6071 33.3795 91.3486 33.5415C91.0901 33.6225 90.6593 33.6225 90.4008 33.7036C90.0561 33.7846 89.7115 33.7846 89.3668 33.7846C89.1945 33.7846 89.0222 33.7036 89.0222 33.6225C88.936 33.4605 89.0222 33.3795 89.1945 33.3795C89.453 33.3795 89.7976 33.3795 90.0561 33.3795C90.1423 33.3795 90.1423 33.2984 90.1423 33.2984L90.0561 33.2174C89.8838 33.2174 89.7115 33.2174 89.5391 33.2174C89.453 33.2174 89.453 33.2174 89.3668 33.1364C89.2807 33.1364 89.3668 33.0554 89.5391 33.0554C89.97 33.0554 90.487 33.0554 90.9178 32.8933C91.1763 32.8123 91.6933 32.8123 91.9517 32.8933C92.3826 33.0554 93.0719 33.0554 93.1581 33.4605ZM127.452 25.034C127.452 25.034 127.538 25.034 127.538 25.1151C127.452 25.1151 127.452 25.1151 127.365 25.1961L127.279 25.1151C127.365 25.034 127.452 25.034 127.452 25.034ZM127.882 21.7121C127.882 21.7931 127.796 21.7931 127.796 21.8741C127.71 21.8741 127.624 21.8741 127.452 21.8741L127.365 21.7931L127.279 21.7931C127.452 21.7121 127.624 21.6311 127.796 21.55C127.796 21.6311 127.882 21.7121 127.882 21.7121ZM128.916 18.7952C128.83 18.8763 128.744 19.0383 128.658 19.0383C128.572 19.1193 128.399 19.2814 128.227 19.2814C128.055 19.3624 127.968 19.2814 127.882 19.2004C127.968 19.0383 128.055 18.9573 128.141 18.7952C128.141 18.7142 128.227 18.6332 128.313 18.5522C128.399 18.5522 128.485 18.5522 128.485 18.5522C128.658 18.7142 128.83 18.7142 128.916 18.7952ZM125.125 13.3667C125.211 13.3667 125.211 13.4477 125.211 13.4477C125.125 13.4477 125.125 13.5287 125.039 13.5287C124.953 13.5287 124.953 13.4477 124.867 13.4477C124.953 13.4477 125.039 13.3667 125.125 13.3667ZM123.057 8.01912C123.143 8.10014 123.229 8.10014 123.316 8.18116C123.229 8.26219 123.143 8.34321 122.971 8.34321C122.885 8.34321 122.799 8.26219 122.712 8.18116C122.885 8.10014 122.971 8.10014 123.057 8.01912ZM122.195 8.42423L122.282 8.50526C122.195 8.50526 122.109 8.50526 122.109 8.50526C122.023 8.50526 122.109 8.50526 122.195 8.42423ZM112.545 3.07668L112.631 3.15771C112.631 3.15771 112.631 3.23873 112.545 3.23873L112.459 3.23873C112.373 3.23873 112.459 3.15771 112.545 3.07668ZM111.77 1.69929C111.856 1.61826 111.942 1.61826 112.028 1.78031L111.942 1.86133C111.942 1.86133 111.856 1.86133 111.856 1.78031C111.683 1.78031 111.683 1.69929 111.77 1.69929ZM110.132 9.96368C110.219 9.96368 110.305 9.96368 110.391 10.0447C110.219 10.0447 110.132 9.96368 109.96 9.96368C110.046 9.96368 110.046 9.96368 110.132 9.96368ZM109.529 1.29417C109.615 1.29417 109.615 1.37519 109.702 1.37519L109.615 1.45621L109.529 1.37519L109.529 1.29417ZM106.686 8.42423L106.772 8.50526L106.686 8.58628C106.6 8.58628 106.6 8.50526 106.6 8.50526C106.6 8.50526 106.6 8.50526 106.686 8.42423ZM102.55 8.50526C102.636 8.50526 102.636 8.42424 102.722 8.42424C103.153 8.34321 103.584 8.42423 103.756 8.91037C103.756 8.91037 103.756 8.9914 103.756 9.07242C103.756 9.15345 103.67 9.15345 103.584 9.15345C103.325 9.07242 103.067 8.91038 102.895 8.82935C102.895 8.74833 102.808 8.66731 102.808 8.58628C102.722 8.58628 102.636 8.66731 102.55 8.66731C102.55 8.66731 102.55 8.66731 102.464 8.66731C102.55 8.58628 102.55 8.58628 102.55 8.50526ZM101.516 8.42424L101.602 8.50526C101.602 8.50526 101.602 8.58628 101.516 8.58628L101.43 8.58628C101.344 8.58628 101.344 8.50526 101.516 8.42424ZM24.2265 13.2857L24.3127 13.3667C24.3127 13.4477 24.3127 13.5287 24.3127 13.6097C24.1403 13.6097 23.968 13.6097 23.7957 13.6097L23.7957 13.5287C23.8818 13.4477 24.0542 13.3667 24.2265 13.2857Z" fill="#155B11"/>
</svg>
