<svg width="174" height="35" viewBox="0 0 174 35" fill="none" xmlns="http://www.w3.org/2000/svg">
<path d="M12.8646 6.56071C12.2614 7.53299 8.72865 6.8848 9.07332 7.85708C9.15948 8.18118 9.33182 8.50527 9.59031 8.74834C9.41798 9.15346 10.5381 9.55858 11.9167 9.80165C11.7444 10.0447 11.8306 10.2878 12.6922 10.5309C13.2954 10.5309 13.64 10.4498 13.8985 10.3688C14.157 10.2878 14.3294 10.2068 14.4155 10.1257C15.0187 10.2068 15.5357 10.2068 15.8803 10.2068C15.2772 11.179 11.8306 10.6929 12.1752 11.5842C12.3476 11.9893 12.5199 12.3944 12.8646 12.6375L14.5878 12.0703C18.9822 12.3944 12.7784 13.2857 15.708 14.1769C16.3111 14.0959 16.6558 14.0959 16.9143 13.9338C18.3791 13.4477 17.9483 13.2046 17.0866 12.7185C21.1364 12.5564 19.8439 15.0682 21.7395 15.2302C21.7395 15.3112 21.481 15.3112 21.2225 15.3112C21.3087 15.3923 20.964 15.3923 20.8779 15.3923C20.8779 15.4733 20.7917 15.4733 20.6194 15.4733C20.447 15.3923 20.7055 15.3923 20.7055 15.3112C20.5332 15.3112 20.2747 15.3112 20.2747 15.3923C20.5332 15.3923 20.0162 15.4733 20.2747 15.5543C20.3609 15.5543 20.2747 15.4733 20.447 15.4733C20.447 15.5543 20.3609 15.5543 20.2747 15.6353C20.1024 15.6353 20.1024 15.4733 20.0162 15.4733C19.9301 15.4733 19.6716 15.4733 19.4992 15.5543C19.7577 15.4733 20.1024 15.5543 19.9301 15.6353C19.7577 15.6353 19.8439 15.5543 19.7577 15.5543C19.6716 15.5543 19.3269 15.6353 19.4131 15.4733C19.2407 15.5543 19.2407 15.5543 19.3269 15.6353C19.0684 15.6353 19.1546 15.5543 19.2407 15.5543C19.0684 15.5543 19.1546 15.5543 19.0684 15.5543C18.9822 15.6353 19.1546 15.7164 19.0684 15.7164C18.9822 15.7164 18.9822 15.6353 18.8961 15.6353C18.7238 15.6353 18.6376 15.7164 18.3791 15.7164C18.2929 15.5543 18.0344 15.7164 17.8621 15.6353C17.8621 15.7164 17.9483 15.7164 17.8621 15.7164C17.7759 15.7164 17.7759 15.6353 17.6898 15.6353C17.6898 15.7164 17.6898 15.7164 17.6036 15.7164C17.6036 15.7164 17.6036 15.7164 17.5174 15.7164C17.5174 15.7164 17.6036 15.7164 17.6036 15.6353C17.0005 15.7164 16.9143 15.7164 16.4835 15.5543C16.3973 15.6353 16.1388 15.6353 15.9665 15.6353C16.0526 15.7164 15.8803 15.7164 15.8803 15.7164C16.1388 15.7164 15.9665 15.7974 15.9665 15.7974C16.1388 15.7974 16.225 15.7974 16.3973 15.7974C16.3973 15.7164 16.5696 15.7164 16.6558 15.7164C16.6558 15.7974 16.8281 15.7974 16.9143 15.7974C16.9143 15.7164 17.2589 15.7164 17.2589 15.7164C17.2589 15.7974 16.9143 15.7164 17.0004 15.7974C17.2589 15.7164 17.1728 15.7974 17.0866 15.8784C17.6898 15.8784 17.6898 15.8784 18.2068 15.7974C18.2068 15.8784 18.1206 15.8784 18.2068 15.9594C18.2929 15.7974 18.6376 15.9594 18.8961 15.9594C18.8099 15.9594 18.7237 15.9594 18.7237 15.9594C18.8099 16.0405 18.8961 15.9594 18.8961 16.0405C18.8099 16.0405 18.8961 16.0405 18.9822 16.1215C19.0684 16.0405 18.9822 16.0405 19.0684 15.9594C19.4992 15.9594 20.1885 15.9594 20.3609 16.2025C20.1024 16.1215 19.9301 16.2835 19.6716 16.2025C19.6716 16.2835 19.5854 16.2835 19.6716 16.2835C20.0162 16.2835 20.1885 16.2835 20.5332 16.3645C20.447 16.3645 20.5332 16.4456 20.6194 16.4456C20.6194 16.4456 20.6194 16.3645 20.7055 16.3645C20.6194 16.3645 20.6194 16.4456 20.7917 16.4456C20.7917 16.3645 20.964 16.3645 21.0502 16.4456C20.7917 16.4456 21.0502 16.6076 20.8779 16.6076C20.6194 16.6076 20.7055 16.4456 20.6194 16.5266C20.7055 16.5266 20.6194 16.6076 20.7055 16.6076C20.6194 16.6076 20.447 16.6886 20.3609 16.6076C20.447 16.5266 20.3609 16.4456 20.2747 16.4456C20.3609 16.5266 20.3609 16.6076 20.2747 16.6076C20.0162 16.6076 19.7577 16.6886 19.7577 16.5266C19.8439 16.5266 19.8439 16.4456 19.8439 16.4456C19.6716 16.4456 19.8439 16.5266 19.6716 16.5266C19.5854 16.5266 19.4992 16.5266 19.4992 16.5266C19.5854 16.6076 19.6716 16.4456 19.7577 16.5266C19.5854 16.5266 19.5854 16.6076 19.4131 16.5266C19.4131 16.4456 19.3269 16.4456 19.3269 16.3645C19.4992 16.3645 19.3269 16.2835 19.3269 16.2835C19.3269 16.2835 18.9822 16.2835 19.1546 16.3645L19.2407 16.3645C19.1546 16.3645 19.2407 16.4456 19.1546 16.4456C19.0684 16.4456 18.9822 16.4456 18.8961 16.3645C18.8961 16.3645 19.0684 16.3645 19.0684 16.2835C18.8961 16.2025 18.6376 16.4456 18.5514 16.2835C18.6376 16.2835 18.8099 16.2835 18.8099 16.2835C18.6376 16.2025 18.4652 16.2835 18.2929 16.2025C18.2929 16.2835 18.2929 16.2835 18.2068 16.2835C18.2068 16.2025 18.0344 16.2025 17.8621 16.2835C17.7759 16.2025 17.8621 16.2025 17.7759 16.2025C17.7759 16.2835 17.5174 16.2835 17.5174 16.2835C17.6036 16.2835 17.6036 16.2835 17.6036 16.3645C17.5175 16.4456 17.5174 16.3645 17.3451 16.3645C17.3451 16.4456 17.6036 16.3645 17.6036 16.4456C17.3451 16.4456 17.6036 16.5266 17.6036 16.5266C17.5175 16.6076 17.3451 16.5266 17.2589 16.4456C17.3451 16.5266 17.1728 16.6076 17.3451 16.6076C17.4313 16.5266 17.5174 16.6076 17.6898 16.5266C17.6898 16.6076 17.6898 16.6076 17.7759 16.6076C17.8621 16.5266 17.6898 16.5266 17.8621 16.5266C18.2929 16.5266 18.0344 16.7697 17.6898 16.7697C17.8621 16.8507 17.7759 16.7697 17.9483 16.7697C17.7759 16.8507 18.0344 16.8507 18.1206 16.8507C18.0344 16.9317 17.6036 16.8507 17.6036 16.9317C17.9483 16.9317 18.2068 16.9317 18.3791 16.9317C18.2929 16.9317 18.2929 17.0127 18.2068 17.0127C17.7759 17.0127 17.2589 17.0127 16.6558 17.0127C16.5696 17.0127 16.5696 17.0127 16.5696 17.0127C16.4835 17.0127 16.3112 17.0938 16.3112 17.0127C16.5696 17.0127 16.225 17.0127 16.3112 16.9317C16.225 16.9317 16.1388 16.9317 16.1388 16.9317C16.4835 16.9317 15.8803 17.0127 16.1388 17.0127C16.1388 16.9317 16.3112 17.0127 16.3112 17.0127C16.0527 17.0127 15.9665 16.9317 15.708 16.9317C15.708 17.0127 15.708 17.0127 15.6218 17.0127C15.3633 17.0127 15.0187 17.0127 14.7602 16.9317C14.7602 16.9317 14.7602 16.9317 14.674 16.9317C14.2432 16.9317 13.7262 16.8507 13.2954 16.8507C13.3815 16.8507 13.4677 16.8507 13.3815 16.7697C13.2954 16.7697 13.2092 16.7697 13.123 16.8507C12.9507 16.8507 12.7784 16.8507 12.6922 16.7697C12.4337 16.7697 12.1752 16.8507 11.9167 16.8507C11.9167 16.7697 11.9167 16.7697 11.8306 16.7697C11.7444 16.7697 11.6583 16.7697 11.6583 16.7697C11.7444 16.7697 11.7444 16.8507 11.8306 16.8507C11.4859 16.9317 11.1413 16.9317 10.8828 17.0127C10.7966 17.0127 10.7966 17.0127 10.7104 17.0127C10.1073 17.1748 9.8488 17.3368 9.76263 17.4989C9.67648 17.4989 9.67648 17.4989 9.59032 17.4989L9.50413 17.5799C9.5903 17.5799 9.67647 17.5799 9.67647 17.5799C9.5903 17.7419 9.76263 17.904 10.1073 18.066C9.67647 18.066 9.24565 18.066 8.90098 18.066C8.90098 17.985 8.81482 17.985 8.90098 17.985C8.72867 18.066 8.47018 18.066 8.29785 18.066C8.29785 18.1471 8.21168 18.1471 8.03935 18.1471C8.03935 18.1471 8.12552 18.1471 8.03935 18.066C7.95318 18.066 7.95318 18.066 7.86702 18.066C7.86702 18.066 7.86702 18.066 7.86702 17.985C7.6947 17.985 7.60852 17.904 7.60852 17.985C7.69469 17.904 7.43619 17.985 7.52235 17.904C7.35002 17.985 7.26388 17.985 7.00538 17.985C7.00538 18.066 7.00538 18.066 6.91922 18.066C7.00538 17.985 6.57455 17.985 6.48839 18.066L6.48839 17.985C6.14374 17.985 5.88524 17.985 5.62674 17.985C5.7129 18.066 5.36825 18.066 5.19592 18.066C5.19592 18.066 5.19592 17.985 5.28209 17.985C5.19592 18.066 5.54057 18.066 5.45441 17.985C5.19592 17.985 5.28209 17.904 5.19592 17.904C5.10977 18.066 5.0236 17.985 5.10977 18.1471C5.2821 18.1471 5.7129 18.066 5.62674 18.1471C5.62674 18.066 5.54057 18.1471 5.45441 18.1471C5.28209 18.1471 5.28209 18.1471 5.0236 18.1471C5.0236 18.2281 4.93742 18.2281 4.93742 18.2281C5.02359 18.2281 5.0236 18.3091 5.10977 18.3091C5.10977 18.1471 5.54057 18.3091 5.79907 18.2281C5.79907 18.1471 6.4884 18.066 6.74689 18.1471C6.57455 18.1471 6.40222 18.1471 6.31607 18.1471C6.40222 18.1471 6.31607 18.2281 6.40224 18.2281C6.4884 18.2281 6.74689 18.2281 6.66072 18.1471C6.74689 18.2281 6.91922 18.1471 7.00538 18.1471C6.91922 18.066 7.1777 17.985 7.1777 18.066L7.09154 18.066C7.60853 18.2281 8.21168 17.985 8.72868 18.1471C8.81483 18.1471 8.64252 18.066 8.72868 18.066C8.98717 18.1471 9.41798 17.985 9.76263 18.1471L9.76263 18.066C9.76263 18.066 9.93497 18.066 10.1073 18.066C10.1935 18.1471 10.2796 18.1471 10.3658 18.2281C10.1935 18.2281 10.0211 18.1471 9.93497 18.2281C9.93497 18.3091 10.2796 18.3091 10.3658 18.2281C11.7444 18.7952 14.4155 19.3624 15.7942 19.4434L15.708 19.5245C15.6218 19.5245 15.5357 19.5245 15.4495 19.5245C15.4495 19.6055 15.6218 19.5245 15.6218 19.6055C15.6218 19.6055 15.6218 19.6055 15.5357 19.6865C15.4495 19.6865 15.3633 19.6865 15.2772 19.6865C15.2772 19.6055 15.2772 19.6055 15.191 19.6055C15.2772 19.8486 14.3294 19.6865 14.0709 19.8486L14.157 19.7675C14.0709 19.7675 14.0709 19.7675 13.9847 19.7675C13.8985 19.7675 14.0709 19.8486 13.9847 19.8486C13.8124 19.8486 13.8985 19.8486 13.8985 19.7675C13.7262 19.7675 13.8124 19.8486 13.64 19.8486C13.64 19.6865 13.3815 19.8486 13.2954 19.7675C13.2092 19.8486 13.0369 19.7675 12.8646 19.7675C12.7784 19.8486 13.123 19.7675 13.123 19.8486C13.0369 19.8486 13.1231 19.9296 13.0369 19.9296C13.1231 20.0106 13.1231 20.0916 13.2954 20.0916C13.2954 19.9296 13.4677 20.0916 13.5539 20.0106C13.5539 20.0106 13.5539 20.0106 13.5539 20.0916C12.6061 20.0916 11.7444 20.0916 11.8306 20.6588C11.8306 20.6588 11.8306 20.6588 11.8306 20.7398C11.7444 20.7398 11.7444 20.7398 11.6583 20.7398C11.6583 20.8208 11.7444 20.8208 11.6583 20.8208C11.7444 20.8208 11.7444 20.8208 11.8306 20.8208L11.8306 20.9019C11.7444 20.9019 11.6583 20.9019 11.6583 20.9829C11.7444 20.9829 11.7444 20.9829 11.8306 20.9829C11.9167 21.1449 12.0029 21.307 12.0891 21.469C12.0891 21.469 12.0029 21.469 12.0029 21.388C11.9168 21.388 11.8306 21.388 11.7444 21.469C11.9168 21.469 11.9167 21.55 12.0891 21.55C12.1752 21.6311 12.2614 21.7121 12.3476 21.7931C11.9168 21.7931 11.3997 21.8741 10.9689 21.7931C11.0551 21.7931 10.9689 21.8741 11.0551 21.8741C11.2274 21.7931 11.4859 21.7931 11.6583 21.8741C12.0029 21.7931 12.5199 21.7931 12.8646 21.7931C12.8646 21.9552 13.3815 21.9552 13.2954 22.0362C13.4677 22.0362 13.64 21.9552 13.7262 22.0362C13.5539 22.0362 13.64 22.1172 13.4677 22.1172C13.5539 22.1172 13.7262 22.1982 13.8985 22.1172C13.8985 22.1982 13.8124 22.1982 13.9847 22.1982C14.3294 22.1982 14.8463 22.1172 15.191 22.2793C15.1048 22.2793 15.0187 22.3603 15.0187 22.3603C14.9325 22.3603 14.7602 22.3603 14.674 22.3603C14.8463 22.3603 14.4155 22.3603 14.5017 22.4413C14.674 22.4413 14.674 22.6034 14.5017 22.6034C14.4155 22.6034 14.3294 22.5223 14.3294 22.4413C14.2432 22.4413 14.0709 22.4413 14.0709 22.5223C14.3294 22.4413 14.157 22.6034 14.2432 22.6034C14.2432 22.6034 14.3294 22.5223 14.4155 22.5223C14.4155 22.6034 14.5017 22.6034 14.5017 22.6034C14.4155 22.6844 14.3294 22.6844 14.3294 22.7654C14.2432 22.8464 14.0709 22.8464 13.9847 22.8464C13.9847 22.8464 13.9847 22.9274 14.0709 22.9274C13.64 23.0085 13.2092 23.0895 12.9507 23.0085C12.7784 23.0085 12.5199 23.0085 12.4337 23.0895C12.6061 23.0895 12.6061 23.1705 12.7784 23.1705C12.6061 23.1705 12.5199 23.2515 12.4337 23.3326C12.3476 23.2515 12.0891 23.3326 12.0029 23.2515C11.9168 23.1705 12.2614 23.2515 12.1752 23.1705C11.6583 23.0085 10.7966 23.1705 10.1935 23.0895C10.2796 23.0085 10.6243 23.1705 10.7104 23.0085C10.5381 22.9274 10.2796 23.0085 10.0211 22.9274C9.93498 22.8464 10.1073 22.8464 10.2796 22.8464C10.2796 23.0085 10.9689 22.8464 10.7966 23.0895C11.0551 23.0085 11.3136 23.0085 11.4859 23.0895C11.5721 23.0895 11.4859 23.0085 11.6583 23.0085C11.6583 23.0895 11.5721 23.0895 11.5721 23.0895C11.8306 23.0085 12.7784 23.0085 13.0369 22.9274C13.0369 23.0085 13.123 23.0085 13.123 23.0085C13.123 22.9274 13.2954 22.9274 13.2954 22.9274C13.1231 22.9274 13.1231 22.8464 13.0369 22.8464C13.0369 22.8464 12.7784 22.9274 12.7784 22.8464C12.7784 22.7654 12.9507 22.8464 12.9507 22.7654C12.6922 22.7654 12.4337 22.9274 12.3476 22.8464C12.5199 22.8464 12.4337 22.7654 12.5199 22.7654C12.7784 22.8464 13.123 22.6844 13.2092 22.6844C12.8646 22.6844 12.9507 22.6034 12.7784 22.5223C12.9507 22.5223 12.8646 22.6034 13.0369 22.5223C13.0369 22.3603 12.8646 22.3603 12.7784 22.2793C12.9507 22.2793 12.8645 22.1982 12.9507 22.1982C12.7784 22.1982 12.5199 22.1982 12.6922 22.1172C12.5199 22.1172 12.3476 22.1982 12.2614 22.1172C12.3476 22.0362 12.6922 22.1172 12.6061 22.0362C11.8306 22.3603 11.3136 21.7121 10.5381 21.9552C10.6243 21.8741 10.452 21.8741 10.2796 21.7931C10.3658 21.7121 10.452 21.6311 10.6243 21.55C10.7105 21.55 10.7104 21.55 10.8828 21.55C11.0551 21.55 10.8828 21.6311 11.0551 21.6311C11.0551 21.6311 11.0551 21.55 10.9689 21.55C11.2274 21.55 11.2274 21.55 11.6583 21.55C11.7444 21.469 11.8306 21.469 11.7444 21.388C11.3998 21.469 11.2274 21.388 10.9689 21.469C11.0551 21.388 10.7966 21.226 10.7104 21.388C10.7966 21.388 10.8828 21.388 10.8828 21.388L10.8828 21.469C10.7104 21.469 10.5381 21.55 10.5381 21.469C10.6243 21.469 10.7104 21.469 10.7104 21.469C10.5381 21.469 10.7104 21.388 10.5381 21.388C10.4519 21.469 10.0211 21.469 9.93497 21.388L9.93497 21.307C10.1935 21.307 10.2796 21.1449 10.1935 21.226C9.84881 21.1449 9.67647 21.388 9.67647 21.469C9.50413 21.469 9.5903 21.388 9.50413 21.388C9.50413 21.469 9.24565 21.469 9.15948 21.55C9.24565 21.55 9.3318 21.6311 9.24565 21.6311C8.90098 21.6311 8.38402 21.6311 8.12552 21.55C8.12552 21.469 8.29785 21.469 8.12552 21.469C8.12552 21.6311 7.69469 21.469 7.60852 21.55C7.60852 21.6311 7.78085 21.55 7.78085 21.6311C7.52235 21.6311 7.60853 21.7121 7.4362 21.7931C7.1777 21.7121 6.57457 21.7931 6.40224 21.7931C6.4884 21.8741 6.66072 21.7931 6.74689 21.8741C6.66072 21.9552 6.74689 22.0362 6.66072 22.0362C6.57455 22.0362 6.31605 22.0362 6.22989 22.1172C6.40222 22.1172 6.48839 22.1982 6.31607 22.1982C6.74689 22.1982 6.91922 22.1172 7.4362 22.1172C7.4362 22.0362 7.43619 22.0362 7.52235 22.0362L7.78085 22.0362C7.78085 22.1172 7.52235 22.0362 7.52235 22.1982C7.69469 22.1982 8.12552 22.1172 8.03935 22.1982C8.12552 22.1982 8.21168 22.1982 8.29785 22.1982C8.21168 22.0362 8.901 22.1172 8.72868 22.1982C8.98717 22.1982 9.33182 22.1982 9.33182 22.2793C8.98715 22.2793 8.81485 22.2793 8.55635 22.3603C8.64252 22.3603 8.6425 22.4413 8.81483 22.3603C8.72867 22.2793 8.901 22.2793 8.98717 22.2793C8.98717 22.3603 9.24565 22.2793 9.24565 22.3603C9.24565 22.4413 9.33182 22.4413 9.33182 22.4413C9.07332 22.5223 8.81483 22.4413 8.6425 22.4413C8.6425 22.5223 8.901 22.4413 8.98717 22.5223C8.98717 22.5223 8.81483 22.5223 8.81483 22.6034C8.901 22.6844 9.15948 22.6034 9.24565 22.6034C9.15948 22.6034 8.90098 22.6034 8.90098 22.6844C8.72867 22.6844 8.55633 22.6034 8.47018 22.6034C8.55633 22.6844 8.21168 22.6844 8.21168 22.8464C8.47017 22.7654 8.72867 22.6034 8.98717 22.7654C9.24565 22.7654 9.59032 22.6844 9.76263 22.7654C9.67648 22.7654 9.50413 22.8464 9.50413 22.9274C9.5903 23.0085 9.84881 22.8464 10.0211 22.9274C9.93498 22.9274 9.93497 22.9274 9.93497 23.0085C10.1073 23.0085 10.1073 22.9274 10.1935 22.9274C10.2796 22.9274 10.452 23.0085 10.2796 23.0895C9.67648 23.0085 9.1595 23.0895 8.47018 23.0085C8.81483 22.9274 9.33182 23.0895 9.41798 22.9274C9.1595 23.0085 9.07332 22.8464 8.98717 23.0085C8.81483 23.0085 8.72868 22.8464 8.55635 22.9274C8.72868 22.9274 8.64252 23.0085 8.55635 23.0085C8.38402 23.0085 8.384 23.0085 8.21168 23.0085C8.21168 23.0895 7.78085 23.0895 7.78085 23.1705C8.21167 23.0085 8.81483 23.1705 9.15948 23.2515C9.33182 23.2515 9.07332 23.1705 9.15948 23.1705C9.24565 23.1705 9.24565 23.1705 9.33182 23.2515C9.24565 23.3326 9.41798 23.3326 9.50413 23.4136C9.24565 23.4946 9.33182 23.3326 9.15948 23.3326C9.07332 23.3326 8.901 23.4136 8.81483 23.4136C8.81483 23.4136 8.90098 23.4136 8.90098 23.3326C8.81482 23.3326 8.72868 23.3326 8.72868 23.3326C8.72868 23.4136 8.72867 23.4136 8.6425 23.4136C8.55633 23.3326 8.47017 23.2515 8.21168 23.2515C8.21168 23.2515 8.29785 23.3326 8.21168 23.3326C8.03935 23.2515 7.78085 23.3326 7.60852 23.2515C7.52237 23.3326 7.35004 23.2515 7.26387 23.3326C7.26387 23.2515 6.83305 23.3326 6.83305 23.2515C6.83305 23.2515 6.83305 23.2515 6.74689 23.2515C6.74689 23.4946 7.4362 23.3326 7.60852 23.4136C7.35004 23.4136 7.4362 23.4946 7.60852 23.4946C7.26387 23.6567 6.74689 23.3326 6.74689 23.4946C6.66072 23.4946 6.31607 23.4136 6.31607 23.4136C6.57455 23.4136 6.40224 23.4136 6.40224 23.4946C6.4884 23.5756 6.66074 23.4136 6.83305 23.4946C6.83305 23.4946 6.48839 23.4946 6.66072 23.5756C6.83305 23.5756 6.83305 23.5756 7.00539 23.4946C7.09155 23.4946 7.09154 23.5756 7.1777 23.5756C7.26387 23.5756 7.1777 23.4946 7.35002 23.4946C7.43619 23.7377 8.03935 23.5756 8.384 23.6567C7.69469 23.7377 7.00539 23.7377 6.57457 23.7377C6.66072 23.7377 6.66072 23.7377 6.57457 23.8187C6.4884 23.8187 6.4884 23.8187 6.40224 23.8187C6.40224 23.7377 6.40222 23.7377 6.31607 23.7377C6.14374 23.8187 6.05757 23.6567 5.88524 23.6567C5.54057 23.7377 4.59277 23.7377 4.24812 23.6567C3.98962 23.6567 3.12797 23.7377 2.86949 23.5756L2.86949 23.6567C2.61099 23.6567 1.83551 23.5756 1.83551 23.5756C1.83551 23.5756 1.92168 23.6567 1.83551 23.6567C1.74934 23.6567 1.74936 23.5756 1.57703 23.5756C1.31853 23.7377 0.973861 23.4946 0.715377 23.5756C0.801543 23.6567 0.973861 23.5756 0.887694 23.5756C0.973861 23.5756 1.06003 23.5756 1.14619 23.5756C0.973876 23.5756 1.14619 23.5756 1.14619 23.6567C1.06003 23.6567 1.06003 23.6567 0.973876 23.6567C0.973876 23.8187 1.49086 23.6567 1.74936 23.6567C2.00784 23.6567 1.92168 23.8187 2.18016 23.8187C2.18016 23.7377 2.09401 23.7377 2.09401 23.7377C2.26634 23.7377 2.61099 23.6567 2.69716 23.7377C2.52483 23.7377 2.69716 23.8187 2.78331 23.8187C2.86948 23.7377 2.95566 23.8187 3.12799 23.7377C3.04182 23.8187 3.38647 23.7377 3.21414 23.8997C3.47264 23.8997 3.30031 23.8187 3.47264 23.8187C3.64497 23.8997 3.47262 23.8187 3.64496 23.8187C3.64496 23.8997 3.81729 23.8187 3.73112 23.8997C3.98962 23.8997 4.16194 23.8187 4.33427 23.8997C4.42044 23.8997 4.42044 23.8187 4.50661 23.8187C4.67894 23.8187 4.93744 23.8997 5.19592 23.8187C5.19592 23.9808 5.9714 23.9808 6.14374 24.0618L6.14374 23.9808C6.31607 23.9808 6.2299 24.1428 6.40224 24.0618C6.40224 23.9808 6.22989 24.0618 6.22989 23.9808C6.48839 23.9808 6.9192 23.8997 7.1777 23.8997C7.00537 23.8997 6.91922 23.9808 7.00539 23.9808C7.09155 23.9808 7.1777 23.8997 7.35002 23.8997C7.26387 23.8997 7.35004 23.9808 7.26387 23.9808C7.52237 23.9808 7.78085 23.8997 8.03935 23.9808C8.03935 23.9808 7.95319 23.9808 7.95319 24.0618C7.60852 24.0618 7.00539 23.9808 6.91922 24.1428C7.26387 24.0618 7.6947 24.2238 8.12552 24.1428C8.12552 24.3048 8.81482 24.0618 8.90098 24.2238C9.41797 24.1428 10.2796 24.1428 10.7104 24.2238C10.7104 24.2238 10.6243 24.2238 10.7104 24.3048C10.7966 24.3048 10.9689 24.3048 10.9689 24.2238C10.8828 24.2238 10.8828 24.2238 10.8828 24.1428C11.2274 24.1428 11.3136 24.1428 11.4859 24.1428L11.3998 24.2238C11.6582 24.1428 11.7444 24.3048 12.0029 24.2238C12.0029 24.1428 11.8306 24.1428 12.0029 24.1428C12.0029 24.2238 12.1752 24.2238 12.1752 24.2238C12.2614 24.2238 12.0891 24.1428 12.2614 24.1428C12.6061 24.1428 12.6061 24.1428 12.8646 24.0618C12.8646 24.1428 13.2092 24.1428 13.0369 24.2238C13.3815 24.2238 13.3815 24.3048 13.5539 24.1428C13.4677 24.2238 13.64 24.2238 13.5539 24.3048C13.64 24.3048 13.64 24.3048 13.7262 24.3048C13.7262 24.2238 13.5539 24.2238 13.7262 24.1428C14.2432 24.1428 14.9325 24.2238 15.2772 24.0618L15.2772 24.1428C15.3633 24.1428 15.4495 24.1428 15.5357 24.1428C15.5357 24.0618 15.5357 24.0618 15.708 24.0618C15.6218 24.1428 15.7942 24.0618 15.7942 24.2238C15.6218 24.3048 15.3633 24.2238 15.1048 24.2238C15.0187 24.3859 14.3294 24.3048 14.2432 24.2238C14.5017 24.3859 15.191 24.3048 15.3633 24.3048C15.708 24.3859 15.9665 24.3859 16.3112 24.3859C16.225 24.3048 16.3973 24.3048 16.4835 24.3048C16.4835 24.2238 16.3973 24.2238 16.3973 24.1428C16.225 24.1428 16.3111 24.2238 16.1388 24.2238C16.225 24.1428 15.8803 24.1428 15.9665 24.0618C16.225 24.0618 16.5696 24.1428 16.5696 24.0618C16.6558 24.0618 16.742 24.0618 16.8281 24.0618C16.742 24.0618 16.8281 24.1428 16.742 24.1428C17.0005 24.1428 16.6558 24.0618 17.0004 23.9808C17.0866 23.9808 17.0866 24.0618 17.1728 23.9808C17.3451 24.0618 17.0866 24.1428 17.1728 24.1428C17.1728 24.1428 17.5174 24.0618 17.5174 24.1428C17.5174 24.2238 17.5174 24.2238 17.4313 24.2238C17.5174 24.1428 17.1728 24.2238 17.0004 24.2238C16.9143 24.2238 16.9143 24.1428 16.8281 24.1428C16.8281 24.2238 16.5696 24.1428 16.4835 24.1428C16.5696 24.3048 16.8281 24.2238 16.9143 24.2238C16.9143 24.3048 16.742 24.2238 16.6558 24.3048C16.8281 24.3048 17.0866 24.2238 17.1728 24.3048C17.1728 24.2238 17.5174 24.3048 17.4313 24.2238C17.2589 24.2238 17.1728 24.3048 17.1728 24.2238C17.3451 24.1428 17.5174 24.2238 17.6898 24.2238C17.7759 24.1428 17.5175 24.2238 17.6036 24.1428C17.6898 24.1428 17.6898 24.1428 17.6898 24.1428C17.9483 24.1428 18.0344 24.1428 18.2068 24.2238C18.3791 24.2238 18.1206 24.2238 18.1206 24.1428C18.2068 24.1428 18.2067 24.1428 18.2929 24.1428C18.3791 24.1428 18.4653 24.1428 18.4653 24.2238C18.4653 24.3048 18.2929 24.2238 18.2929 24.3048C18.4652 24.3048 18.5514 24.3048 18.7237 24.3048C18.8099 24.3048 18.8099 24.2238 18.9822 24.2238C19.0684 24.2238 19.0684 24.3048 19.1546 24.3048C19.2407 24.3048 19.4992 24.2238 19.7577 24.3048C19.8439 24.2238 19.9301 24.2238 20.0162 24.2238C19.7577 24.2238 19.6716 24.3048 19.5854 24.2238C19.6716 24.2238 19.6716 24.2238 19.7577 24.1428C19.6716 24.1428 19.5854 24.2238 19.4992 24.2238C19.4992 24.0618 19.1546 24.2238 19.1546 24.1428C19.1546 24.1428 19.2407 24.0618 19.1546 24.0618C18.8961 24.1428 18.4652 24.1428 18.2929 24.0618C18.3791 24.2238 17.7759 24.1428 17.9483 23.9808C17.6898 23.9808 17.8621 24.0618 17.6898 24.0618C17.6898 23.9808 17.6036 23.9808 17.6036 23.9808C18.0344 23.8187 18.2929 23.8997 18.7237 24.0618C19.0684 23.9808 19.1546 24.0618 19.3269 23.9808L19.3269 24.0618C19.3269 23.9808 19.8439 23.9808 19.6716 23.9808C19.5854 24.0618 19.2407 23.9808 19.2407 23.9808C19.5854 23.9808 19.7577 23.9808 20.0162 23.9808C19.9301 24.0618 20.0162 24.0618 20.1024 24.0618C20.1024 23.9808 20.1885 23.9808 20.2747 23.9808C20.5332 24.5479 20.7917 25.0341 21.7395 25.0341C23.2043 24.953 23.6351 24.5479 23.6351 24.0618C23.8936 24.0618 24.1521 24.0618 24.2383 24.0618C24.3244 24.0618 24.7553 23.9808 25.0137 23.9808C26.9094 25.0341 30.7006 25.9253 33.8887 26.1684C35.6981 26.0063 37.5938 26.1684 39.5755 26.4115C39.4032 26.4115 39.2309 26.4925 39.1447 26.5735C39.0585 26.7356 38.8001 26.7356 38.6277 26.7356C38.5416 26.7356 38.3692 26.7356 38.2831 26.7356C37.7661 26.6545 37.5938 26.6545 37.5076 26.8166C37.3353 27.0596 37.0768 26.8976 36.8183 26.9786C36.4736 27.0596 35.7843 27.0596 35.9566 27.3837C35.9566 27.4648 35.7843 27.5458 35.6981 27.6268C35.612 27.7078 35.612 27.7889 35.6981 27.8699C35.9566 28.0319 36.3013 28.275 36.6459 28.437C36.7321 28.5181 36.9044 28.5181 37.0768 28.5181C37.4214 28.5181 37.7661 28.5181 38.1107 28.5991C38.3692 28.8422 38.8862 28.5181 39.1447 28.7611C39.7479 28.6801 40.351 28.8422 40.9542 28.9232C41.2988 28.9232 41.5573 29.0852 41.902 29.0852C42.2466 29.0852 42.5913 29.1663 42.936 29.0852C43.2806 29.0852 43.5391 29.2473 43.8838 29.2473C44.0561 29.2473 44.1423 29.1663 44.2284 29.2473C44.3146 29.3283 44.0561 29.4903 43.7976 29.4903C43.3668 29.4903 42.936 29.4903 42.5913 29.4903C42.5051 29.4903 42.3328 29.4903 42.2466 29.5714C42.0743 29.6524 42.3328 29.7334 42.3328 29.8144C42.419 29.9765 42.419 30.1385 42.5051 30.2196C42.6775 30.3816 42.7636 30.4626 42.5051 30.6247C42.3328 30.7057 42.3328 30.9488 41.9882 30.9488C41.8158 30.9488 41.4711 30.9488 41.385 30.8677C41.2988 30.7867 41.5573 30.7867 41.6435 30.7867C41.7296 30.7867 41.7296 30.7057 41.8158 30.7057C41.4712 30.6247 41.1265 30.4626 40.7818 30.4626C40.351 30.3816 39.834 30.3816 39.4032 30.3816C39.317 30.3816 39.317 30.3816 39.2309 30.3006C39.317 30.3006 39.4032 30.2196 39.4032 30.2196C39.7479 30.2196 40.0925 30.2196 40.4372 30.2196C40.6095 30.2196 40.7818 30.1385 40.868 30.0575C40.9542 29.9765 41.0403 29.7334 40.7818 29.7334C40.4372 29.6524 40.1787 29.4093 39.7479 29.4903C39.2309 29.4903 38.8862 29.3283 38.4554 29.3283C37.9384 29.2473 37.4214 29.3283 36.9044 29.1663L36.8183 29.1663C36.8183 29.2473 36.7321 29.3283 36.7321 29.3283C36.8183 29.4093 36.9044 29.4903 37.0768 29.5714C37.3353 29.6524 38.5416 29.7334 38.9724 29.7334C39.0585 29.7334 39.1447 29.8144 39.1447 29.8144L39.1447 29.8955C39.0585 30.0575 38.8862 30.1385 38.7139 30.3006C38.6277 30.3816 38.4554 30.3816 38.4554 30.3006C38.3692 30.0575 38.1969 29.9765 37.7661 29.9765C37.1629 29.9765 36.6459 29.8955 36.4736 29.5714C35.7843 29.3283 35.1812 29.0852 34.4057 29.0042C34.3195 29.0042 34.1472 29.0042 34.061 29.0042C33.9749 29.0042 33.9749 29.0852 33.8887 29.1663C33.8887 29.2473 33.8887 29.3283 33.9749 29.3283C34.2333 29.4093 34.4919 29.5714 34.8365 29.6524C34.8365 29.8955 35.2673 29.8955 35.5258 29.9765C35.6981 30.0575 36.0428 30.1385 36.2151 30.2196C36.3013 30.3006 36.3013 30.4626 36.6459 30.3816C36.9906 30.2196 37.4214 30.3816 37.8522 30.2196C38.0246 30.1385 38.0246 30.3006 38.1107 30.3816C38.1107 30.3816 38.1107 30.4626 38.1969 30.4626C38.4554 30.5437 38.7139 30.5437 38.9724 30.6247C39.2309 30.7057 39.0586 30.9488 39.4894 30.9488C39.6617 30.9488 39.834 30.9488 40.0064 31.0298C40.0925 31.0298 40.0925 31.0298 40.1787 31.1108C40.0925 31.1108 40.0925 31.1918 40.0064 31.1918C39.4032 31.1918 38.7139 31.2729 38.1107 31.1108C37.8523 31.0298 37.5938 31.0298 37.2491 31.0298C36.5598 31.0298 35.8705 31.0298 35.1812 30.8677C34.8365 30.7867 34.4057 30.8677 33.9749 30.8677C33.8887 30.8677 33.8025 30.9488 33.8025 31.0298C33.8025 31.1108 33.8887 31.1918 33.8887 31.1918C34.3195 31.1918 34.7503 31.3539 35.095 31.4349C35.1812 31.3539 35.2673 31.2729 35.5258 31.2729C35.6981 31.2729 35.7843 31.3539 35.7843 31.4349C35.7843 31.5159 35.7843 31.5159 35.7843 31.597C36.0428 31.597 36.2151 31.597 36.4736 31.597L36.4736 31.678C37.0768 31.84 37.4214 31.84 37.8522 31.597C37.9384 31.5159 38.0246 31.5159 38.1107 31.5159C38.4554 31.678 38.8862 31.84 39.4894 31.84C39.5755 31.84 39.834 31.9211 39.834 32.0021C40.0064 32.2451 40.351 32.3262 40.868 32.3262C41.2988 32.3262 41.8158 32.3262 42.2466 32.3262C42.5051 32.3262 42.6775 32.2451 42.7636 32.1641C43.1083 31.84 43.1083 31.9211 43.8838 32.0021C44.4008 32.0831 44.7454 32.2451 45.2624 32.3262C45.5209 32.4072 45.6932 32.4072 45.8655 32.3262C46.0379 32.2451 46.124 32.2451 46.2964 32.3262C46.4687 32.4072 46.641 32.5692 46.8995 32.5692C46.9857 32.4072 46.8995 32.2451 47.3303 32.2451C48.192 31.84 48.192 31.759 48.2782 31.759C48.4505 31.759 48.4505 31.84 48.5366 31.9211C48.709 31.9211 48.8813 31.84 48.8813 31.759C48.9675 31.678 48.7951 31.597 48.6228 31.5159C48.3643 31.5159 48.0197 31.5159 47.7612 31.5159C47.675 31.5159 47.5888 31.4349 47.5888 31.4349C47.675 31.4349 47.675 31.3539 47.7612 31.3539C48.3643 31.3539 49.0536 31.3539 49.6568 31.3539C50.3461 31.3539 51.0354 31.3539 51.6386 31.1918C51.8109 31.1918 51.8971 31.0298 52.0694 31.1108C52.414 31.2729 52.6725 31.1918 53.0172 31.1108C53.2757 31.2729 53.7065 31.2729 54.1373 31.2729C54.9128 31.2729 95.418 31.2729 96.1935 31.3539C96.452 31.3539 96.7967 31.3539 97.0551 31.4349C97.3998 31.597 97.8306 31.597 98.2614 31.597C100.329 31.597 102.484 31.678 104.724 31.759C105.155 31.759 105.155 31.759 105.241 32.0831C105.241 32.1641 105.327 32.1641 105.327 32.2451C105.413 32.2451 105.499 32.1641 105.585 32.1641C105.93 32.0021 106.533 31.9211 106.878 32.0021L106.878 32.0831C106.878 32.0831 106.792 32.1641 106.706 32.1641C106.189 32.1641 105.758 32.1641 105.844 32.5692C105.844 32.7313 105.585 32.8123 105.499 32.9744C105.413 33.0554 105.241 33.0554 105.068 32.9744C104.982 32.8933 104.81 32.8933 104.81 32.9744C104.81 33.0554 104.81 33.1364 104.724 33.2174C105.585 33.2174 106.447 33.3795 107.223 33.1364C107.395 33.0554 107.826 33.1364 108.084 33.2174C108.429 33.3795 108.86 33.3795 109.204 33.4605C109.291 33.2985 109.377 33.3795 109.377 33.4605C109.635 33.4605 109.807 33.5415 110.066 33.4605C110.324 33.2985 110.755 33.2174 110.841 32.9744C110.841 32.8933 110.928 32.8933 111.014 32.8123C111.1 32.8933 111.1 32.9744 111.186 33.0554C111.358 33.1364 111.531 33.2174 111.789 33.1364C111.875 33.1364 112.048 33.0554 112.048 33.0554C112.306 33.1364 112.737 33.2174 112.823 33.3795C112.996 33.6225 113.082 33.5415 113.34 33.4605C113.599 33.3795 113.513 33.1364 113.943 33.0554C113.943 33.0554 113.943 32.9744 114.03 32.9744C114.374 32.7313 114.805 33.2174 115.236 32.9744C115.322 32.9744 115.408 33.0554 115.408 33.0554C115.494 33.1364 115.494 33.2174 115.494 33.2174C116.184 33.2985 116.787 33.5415 117.476 33.7036C117.476 33.7036 117.562 33.7036 117.648 33.7036C117.735 33.7036 117.735 33.6225 117.648 33.5415C117.562 33.5415 117.562 33.3795 117.562 33.3795C118.079 33.2985 118.596 33.2985 119.113 33.3795C119.372 33.3795 119.199 33.3795 119.113 33.4605C118.855 33.6225 118.941 33.7036 119.372 33.7036C119.63 33.7036 119.889 33.7036 120.061 33.7036C120.32 33.7036 120.578 33.4605 120.837 33.6225C121.181 33.8656 121.44 33.6225 121.784 33.6225C122.043 33.6225 122.215 33.7036 122.474 33.7036C122.56 33.7036 122.732 33.7846 122.732 33.7036C123.077 33.5415 123.335 33.6225 123.68 33.7036C123.766 33.7846 124.025 33.7846 124.197 33.7846C124.886 33.7846 125.576 33.9466 126.265 33.7036C126.351 33.7036 126.523 33.7036 126.61 33.7036C126.782 33.7846 127.04 33.7846 127.213 33.8656C127.816 34.1087 128.333 34.1087 129.022 33.9466C129.108 33.9466 129.281 33.8656 129.367 33.8656C130.228 33.9466 131.09 33.7846 131.952 33.7036C132.469 33.7036 132.986 33.6225 133.244 33.3795C133.503 33.3795 133.934 33.3795 134.106 33.4605C134.451 33.6225 134.795 33.4605 135.054 33.5415C135.398 33.7036 135.743 33.6225 136.088 33.6225C136.518 33.6225 136.777 33.7846 137.208 33.8656C137.294 33.8656 137.466 33.8656 137.552 33.8656C137.897 33.8656 138.156 33.7036 138.5 33.8656C138.845 33.7036 139.276 33.7846 139.62 33.7036C140.137 33.5415 140.913 33.6225 141.344 33.2984C141.258 33.2174 141.43 33.4605 141.688 33.3795C141.861 33.2984 142.033 33.0554 142.378 33.2174C142.722 33.3795 142.895 33.1364 143.153 33.1364C143.239 33.1364 143.412 33.1364 143.412 33.2174C143.412 33.2984 143.412 33.3795 143.412 33.3795C143.325 33.4605 143.239 33.4605 143.153 33.4605C143.067 33.4605 142.981 33.5415 142.808 33.5415C142.895 33.5415 142.981 33.6225 143.067 33.6225C143.325 33.6225 143.67 33.6225 143.929 33.6225C144.273 33.6225 144.618 33.6225 144.963 33.6225C145.221 33.6225 145.48 33.4605 145.738 33.4605C146.083 33.4605 146.427 33.4605 146.772 33.4605C146.858 33.4605 146.944 33.3795 147.031 33.3795C147.203 33.3795 147.289 33.2984 147.289 33.2984C147.289 33.2984 147.203 33.2984 147.117 33.2174C146.255 33.0554 145.48 33.2984 144.704 33.2984C144.532 33.2984 144.359 33.5415 144.187 33.3795C144.101 33.2984 144.359 33.2174 144.704 33.1364C145.049 33.0554 145.393 32.9744 145.738 32.9744C146.514 33.0554 147.203 32.8933 147.978 32.8123C148.065 32.8123 148.151 32.7313 148.151 32.6503C148.151 32.6503 148.065 32.5692 147.978 32.5692C147.978 32.5692 147.892 32.5692 147.806 32.5692C147.72 32.5692 147.634 32.4882 147.548 32.4882C147.634 32.4882 147.72 32.4072 147.806 32.4072C148.065 32.4072 148.323 32.4072 148.495 32.4072C148.926 32.4072 149.529 32.4882 149.788 32.6503C149.96 32.8123 150.219 32.8123 150.563 32.8123C151.339 32.8933 152.028 32.6503 152.717 32.5692C153.493 32.4882 154.182 32.2451 155.044 32.3262C155.905 32.4072 156.681 32.2451 157.284 32.0021C157.456 31.921 157.629 31.84 157.887 31.84C158.06 31.84 158.318 31.84 158.318 31.921C158.318 32.0021 158.146 32.0021 157.973 32.0021C157.887 32.0021 157.887 32.0831 157.801 32.0831C157.801 32.0831 159.007 32.2451 159.094 32.2451C159.18 32.1641 159.352 32.0831 159.438 32.0831C159.352 32.0831 159.266 32.0021 159.18 32.0021C159.094 32.0021 159.007 31.921 158.921 31.921C159.007 31.84 159.094 31.84 159.18 31.759C159.438 31.597 159.697 31.678 159.955 31.678C160.731 31.678 161.334 31.3539 162.023 31.2729C162.195 30.9488 162.799 30.7867 163.229 30.6247C163.488 30.4626 163.66 30.3006 163.66 30.0575C163.574 29.8144 163.66 29.5714 164.35 29.5714C165.039 29.3283 165.814 29.2473 166.418 28.9232C166.504 28.9232 166.504 28.8422 166.504 28.7611C166.504 28.7611 166.418 28.6801 166.331 28.6801C166.073 28.6801 165.728 28.6801 165.47 28.6801C165.211 28.5991 164.953 28.5181 164.867 28.356C164.78 28.275 165.125 28.1129 165.384 28.0319C165.642 27.9509 165.814 28.0319 165.987 28.1129C166.159 28.194 166.418 28.275 166.59 28.1129C166.762 28.0319 166.935 27.9509 167.107 27.9509C167.71 27.8699 167.624 27.7078 167.452 27.5458C167.365 27.4648 167.796 27.3027 167.71 27.2217C167.365 26.9786 167.538 26.7355 167.538 26.4114C167.538 26.2494 167.538 26.0874 167.365 26.0063C167.107 25.7633 167.107 25.6012 167.796 25.5202C167.882 25.5202 167.968 25.4392 167.968 25.3581C167.968 25.1961 167.968 25.034 168.055 24.872C168.055 24.71 167.882 24.6289 167.538 24.5479C167.365 24.5479 167.365 24.4669 167.452 24.3859C167.538 24.3048 167.71 24.2238 167.624 24.1428C167.365 23.9807 167.624 23.8187 167.71 23.5756C167.796 23.5756 167.968 23.4136 167.968 23.3326C167.968 23.1705 167.796 23.0085 167.624 22.8464C167.365 22.6844 167.452 22.4413 167.538 22.1982L167.71 22.1172C168.055 22.2793 168.141 22.1982 168.227 22.0362C168.313 21.7121 168.141 21.469 168.485 21.1449C168.572 21.0639 168.227 20.7398 167.968 20.6588C167.452 20.5778 167.624 20.4157 167.796 20.2537L167.882 20.1726C167.624 20.0106 167.624 19.8485 167.624 19.7675C167.796 19.7675 167.882 19.7675 168.055 19.8485C168.227 19.9296 168.399 20.0916 168.572 20.0916C168.916 20.1726 168.916 19.7675 169.002 19.6055C169.175 19.3624 169.433 19.1193 169.606 18.8763C169.864 18.6332 170.036 18.6332 170.381 18.7952C170.898 18.9573 171.329 18.4711 171.932 18.6332C172.018 18.6332 172.104 18.5522 172.191 18.4711L172.191 18.3091C172.191 18.2281 172.104 17.985 172.018 17.985C171.415 17.904 170.812 17.7419 170.295 18.1471C170.036 18.3091 169.864 18.2281 169.606 18.066C169.433 17.985 169.175 17.904 169.089 17.904C168.916 18.1471 168.658 18.1471 168.399 18.2281C168.399 18.1471 168.399 18.066 168.227 17.985C167.71 17.7419 167.624 17.4178 167.796 17.1748C168.227 17.1748 168.658 17.1748 169.175 17.1748C169.433 17.1748 169.606 16.9317 169.778 16.7697C169.864 16.6886 169.95 16.5266 169.778 16.4456C169.606 16.2835 169.433 16.1215 169.175 16.0404C168.916 15.9594 168.658 16.0404 168.485 16.0404C168.313 16.0404 168.055 16.0404 167.968 15.9594C167.796 15.7974 167.538 15.6353 167.452 15.4733C167.452 15.3112 167.71 14.9871 167.882 14.9871C168.399 14.9061 168.83 14.9061 169.347 14.9061C169.692 14.9061 169.864 14.7441 169.95 14.3389C170.123 13.8528 170.64 13.6908 170.726 13.1236C170.812 12.7185 170.812 12.4754 170.467 12.3134C170.209 12.2323 169.95 12.1513 169.606 12.0703C169.692 11.3411 169.261 11.5031 168.83 11.4221C168.485 11.4221 168.313 11.6652 167.968 11.7462C167.71 11.9082 167.451 11.5031 167.193 11.5031C167.107 11.5031 166.935 11.5031 166.848 11.5841C166.59 11.7462 166.331 11.8272 165.987 11.8272C164.694 11.8272 163.402 11.6652 162.195 12.1513C162.109 12.1513 162.109 12.1513 162.023 12.1513C162.023 12.0703 162.109 12.0703 162.195 11.9893C162.195 11.9893 162.282 11.9893 162.282 11.9082C162.799 11.8272 163.229 11.7462 163.746 11.6652C163.833 11.6652 163.919 11.6652 164.091 11.5841L164.005 11.5841C164.35 11.5031 164.608 11.3411 164.867 11.179C164.78 10.8549 164.694 10.6119 164.522 10.4498C165.297 10.3688 165.987 10.1257 166.676 9.80163C166.762 9.80163 166.762 9.80163 166.848 9.80163C167.107 9.72061 167.279 9.55856 167.538 9.55856C167.796 9.47754 167.968 9.96368 168.313 9.63959C168.485 9.47754 168.658 9.88265 168.916 9.88265C169.089 9.88265 169.261 9.88265 169.433 9.88265C169.519 9.88265 169.519 9.80163 169.606 9.80163C169.95 9.55856 170.209 9.15344 170.64 9.07242C170.726 9.07242 170.726 8.91037 170.553 8.82935C170.381 8.74833 170.123 8.82935 170.209 8.58628C170.209 8.42423 170.553 8.18116 170.553 8.18116C170.984 8.42423 171.415 7.93809 171.674 8.10014C172.191 8.50526 172.449 8.18116 172.621 7.77605C172.708 7.37093 172.966 7.2899 173.311 7.2899C173.483 7.2899 173.655 7.2899 173.828 7.2899C173.914 7.2899 174 7.12786 174 7.04683L173.914 6.88479C173.655 6.72274 173.397 6.56069 173.138 6.39865C172.621 6.07455 171.932 5.99353 171.846 5.18329C171.846 5.10227 171.587 5.02125 171.415 4.94022C171.243 4.8592 170.984 4.8592 170.898 4.77818C170.812 4.61613 170.726 4.29203 170.812 4.04896C170.812 3.80589 170.984 3.64385 171.07 3.40078C170.726 3.31975 170.553 2.91464 170.295 2.75259C169.95 2.50952 169.433 2.67157 169.089 2.34747C168.916 2.18543 168.572 2.26645 168.572 2.59054C168.485 2.91464 168.313 2.99566 168.055 2.99566C167.538 2.99566 167.107 3.56282 166.504 3.4818C166.504 3.4818 166.331 3.64385 166.331 3.8059C166.331 3.88692 166.418 4.04897 166.504 4.12999C166.676 4.29204 166.935 4.37306 167.107 4.45408C167.279 4.61613 167.365 4.8592 167.451 5.10227C167.451 5.34534 167.365 5.66943 167.107 5.66943C166.762 5.66943 166.331 5.66943 165.987 5.66943C165.642 5.66943 165.47 5.42636 165.642 5.02125C165.901 4.45408 165.814 4.45409 165.384 4.12999C165.211 4.04897 165.125 3.88692 164.953 3.72487C164.78 3.56283 164.694 3.40078 164.35 3.64385C163.833 3.96794 163.229 3.96794 162.799 3.72487C162.195 3.31976 161.42 3.64385 160.903 3.31975C160.214 2.91464 159.611 3.23873 158.921 3.07668C158.749 3.07668 158.577 3.07668 158.404 3.07668C158.232 3.07668 157.973 2.99566 157.887 2.91464C157.456 2.4285 156.853 2.26645 156.25 2.34747C155.561 1.78031 154.785 1.78031 154.01 2.18543C153.924 2.18543 153.751 2.02338 153.579 1.94236C153.407 1.78031 153.493 1.61826 153.665 1.61826C154.01 1.53724 154.355 1.13212 154.785 1.61826L154.958 1.61826C155.302 1.29417 155.561 1.29417 155.905 1.61826C155.992 1.69929 156.164 1.61826 156.25 1.53724C156.25 1.53724 156.25 1.45622 156.25 1.37519C155.992 0.483934 155.819 0.40291 154.958 0.645979C154.182 0.889047 153.407 0.970072 152.287 0.645979C152.028 0.564955 151.77 0.970072 151.511 0.645979C151.339 0.483931 151.166 0.727003 151.08 0.808027C150.908 0.889052 150.736 0.889052 150.563 0.727003C150.305 0.483935 150.046 0.483935 149.788 0.727003C149.529 0.970072 149.185 0.970076 148.926 0.889052C148.237 0.727003 147.634 0.240862 146.944 0.889052C146.858 0.970076 146.6 0.808028 146.427 0.727004C146.083 0.483935 145.652 0.483931 145.393 0.64598C144.704 1.0511 144.015 0.889052 143.239 0.970076C142.033 0.970076 140.827 1.0511 139.534 0.970077C139.19 0.970077 138.845 1.0511 138.5 1.21315C138.069 0.808029 137.725 0.970077 137.38 1.29417C136.605 1.0511 136.001 1.78031 135.226 1.69929C134.795 1.69929 134.364 1.78031 133.934 1.69929C133.417 1.61826 133.072 2.10441 132.555 2.10441C132.296 2.10441 131.952 2.1044 131.693 2.26645C131.09 2.59055 130.487 2.59055 129.97 2.34748C129.539 2.1044 129.194 2.1044 128.764 2.26645C128.161 2.50952 127.644 2.91464 126.954 2.50952C126.868 2.50952 126.696 2.59055 126.61 2.59055C126.179 2.91464 125.834 2.91464 125.403 2.59055C125.145 2.34748 124.8 2.26645 124.542 2.4285C124.025 2.83361 123.508 2.75259 122.991 2.75259C122.474 2.75259 122.043 2.75259 121.612 2.99566C121.095 3.23873 120.406 3.23874 119.889 2.91464C119.458 2.67157 118.941 2.67157 118.51 2.91464C118.252 3.07669 118.079 3.07669 117.821 3.07669C117.476 3.15771 117.39 2.59055 117.045 2.91464C116.701 3.15771 116.356 3.07669 116.011 3.07669C114.891 3.07669 113.771 3.07669 112.737 3.07669C108.774 3.07669 104.896 3.07669 100.933 3.07669C100.588 3.07669 100.157 2.99567 99.8986 3.23874C99.5539 3.48181 99.1231 2.91464 98.7784 3.40078C98.3476 3.40078 97.9168 3.40078 97.486 3.40078C96.5382 3.40078 95.5042 3.40078 94.5564 3.40078C94.2117 3.40078 54.1373 3.31976 53.965 3.48181C53.5342 3.8059 53.0172 3.72488 52.5864 3.72488C52.2417 3.72488 51.8109 3.64386 51.4662 3.80591C50.8631 4.13 50.2599 4.04897 49.6568 4.04897C49.0536 4.04897 48.3643 4.04897 47.7612 4.04897C47.158 3.88693 46.5549 3.64386 45.9517 3.23874L46.5549 3.56284C46.641 3.72488 46.2102 3.8059 45.8655 3.88693C45.9517 3.88693 45.9517 3.96795 46.0379 3.96795C44.6592 3.96795 43.3668 3.96795 41.9882 3.96795C41.4712 3.96795 40.9542 3.96795 40.351 4.21102C39.834 4.45409 39.1447 4.29205 38.5416 4.29205C37.5076 3.64386 36.3874 4.04898 35.2673 4.04898C34.578 4.53512 33.8887 4.37307 33.1132 4.37307C32.5962 4.37307 31.9069 4.29205 31.4761 4.53512C31.3899 4.61614 31.3038 4.61614 31.1314 4.69716C30.4421 4.53512 29.4081 4.29205 27.6848 4.13C24.5829 4.53512 20.8779 5.10228 17.1728 4.94024C15.8803 4.85921 14.674 4.29205 14.8463 3.96796C13.2092 4.04898 10.9689 4.04898 9.33181 3.96796C2.26632 5.26433 10.1935 6.39866 12.8646 6.56071ZM16.742 15.6353C16.742 15.7164 16.5696 15.6353 16.5696 15.6353C16.5696 15.6353 16.742 15.6353 16.5696 15.5543C16.5696 15.5543 16.742 15.5543 16.8281 15.4733C17.0005 15.5543 16.5696 15.5543 16.742 15.6353ZM17.9483 15.7164C17.8621 15.7164 17.7759 15.7164 17.6898 15.7164C17.7759 15.6353 17.8621 15.6353 17.9483 15.5543C18.1206 15.6353 17.9483 15.7164 17.9483 15.7164ZM18.4653 15.7164C18.5514 15.6353 18.2929 15.7164 18.2068 15.7164C18.1206 15.7164 18.2929 15.6353 18.1206 15.6353C18.1206 15.5543 18.3791 15.6353 18.3791 15.5543C18.5514 15.5543 18.4652 15.6353 18.5514 15.5543C18.6376 15.5543 18.4652 15.5543 18.5514 15.4733C18.5514 15.4733 18.6376 15.4733 18.7237 15.4733C18.7237 15.4733 18.6376 15.5543 18.7237 15.5543C18.8961 15.4733 18.8099 15.4733 19.0684 15.5543C19.0684 15.6353 18.8961 15.6353 18.8099 15.6353C18.8099 15.6353 18.8961 15.6353 18.9822 15.6353C18.8099 15.7974 18.7238 15.7164 18.4653 15.7164ZM19.2407 15.7974C19.1546 15.7974 19.0684 15.7974 19.0684 15.7974C19.0684 15.7164 19.1546 15.7164 19.2407 15.7974C19.2407 15.7164 19.1546 15.6353 19.3269 15.7164L19.3269 15.7974C19.3269 15.7164 19.2407 15.7164 19.2407 15.7974ZM18.3791 16.6886C18.2068 16.6076 18.0344 16.6886 17.9483 16.6076C18.2068 16.6076 18.3791 16.5266 18.4653 16.6076C18.4653 16.6076 18.2929 16.6076 18.3791 16.6886ZM13.3815 22.5223C13.2092 22.5223 13.64 22.6034 13.3815 22.5223C13.2954 22.6034 13.123 22.5223 12.9507 22.5223C12.9507 22.5223 13.0369 22.5223 13.123 22.5223C13.2092 22.5223 13.123 22.4413 13.2092 22.4413C13.2954 22.4413 13.2092 22.5223 13.3815 22.5223ZM13.123 22.2793C13.2954 22.1982 13.1231 22.3603 12.8646 22.2793C12.8646 22.2793 13.123 22.3603 13.123 22.2793ZM12.6922 22.1982C12.7784 22.1172 12.7784 22.1982 12.6922 22.1982C12.8645 22.1172 12.7784 22.1982 12.8646 22.1982C12.7784 22.1982 12.6061 22.1982 12.5199 22.1982C12.6061 22.1982 12.6922 22.1982 12.6922 22.1982ZM12.5199 22.5223C12.5199 22.6034 12.3476 22.5223 12.0891 22.5223C12.0891 22.4413 12.4337 22.5223 12.5199 22.5223ZM12.3476 22.6034C12.6061 22.6034 12.6061 22.6034 12.7784 22.6844C12.7784 22.7654 12.6061 22.6844 12.5199 22.6844C12.2614 22.8464 12.0029 22.6844 11.6583 22.7654C11.5721 22.6844 11.4859 22.7654 11.3136 22.6844C11.5721 22.6034 12.1752 22.6844 12.3476 22.6034ZM11.2274 22.6844C11.2274 22.7654 11.1413 22.7654 11.0551 22.7654C10.9689 22.7654 10.9689 22.6844 10.9689 22.6844C11.1413 22.6844 11.2274 22.6844 11.2274 22.6844ZM7.86702 23.3326C7.78085 23.2515 7.86702 23.2515 7.86702 23.1705C8.12552 23.1705 8.03935 23.2515 8.29785 23.1705C8.38402 23.2515 8.12552 23.1705 8.12552 23.2515C8.12552 23.3326 8.47017 23.2515 8.384 23.3326C8.12552 23.3326 8.03935 23.3326 7.86702 23.3326ZM3.90346 23.8187C3.90346 23.7377 4.07579 23.7377 4.16196 23.7377C4.24811 23.8187 4.07577 23.8187 3.90346 23.8187ZM5.79907 23.8187C5.97139 23.7377 6.05757 23.8187 6.22989 23.8187L6.22989 23.8997C6.05757 23.8997 5.88524 23.8997 5.79907 23.8187ZM8.47018 23.2515C8.55633 23.2515 8.64252 23.2515 8.72868 23.2515C8.81483 23.3326 8.47018 23.4136 8.47018 23.2515ZM8.90098 23.7377C8.81482 23.6567 9.24565 23.6567 9.15948 23.6567C9.24565 23.7377 8.98715 23.6567 8.90098 23.7377ZM9.76263 23.8997C9.8488 23.8187 10.1073 23.8997 10.1935 23.8997C10.1935 23.9808 9.8488 23.8997 9.76263 23.8997ZM9.67647 22.6844C9.76263 22.6844 10.0211 22.6844 10.1073 22.7654C9.93497 22.6844 9.76263 22.7654 9.67647 22.6844ZM10.1073 21.7121C10.1935 21.6311 10.1935 21.6311 10.1073 21.55C10.3658 21.55 10.4519 21.6311 10.5381 21.55C10.7104 21.55 10.9689 21.7931 10.6243 21.7931C10.7105 21.6311 10.1935 21.7931 10.1073 21.7121ZM10.3658 21.8741C10.3658 21.7931 10.6243 21.8741 10.5381 21.7931C10.6243 21.7931 10.7104 21.7931 10.7966 21.7931C10.7966 21.9552 10.452 21.9552 10.3658 21.8741ZM10.5381 22.6844C10.5381 22.6034 10.7966 22.6844 10.8828 22.6844C10.8828 22.7654 10.6243 22.7654 10.5381 22.6844ZM12.0029 23.2515C11.7444 23.2515 11.5721 23.2515 11.3136 23.2515C11.3136 23.1705 11.1413 23.1705 10.9689 23.1705C10.8828 23.1705 11.2274 23.1705 11.0551 23.0895C11.2274 23.0895 11.3136 23.1705 11.4859 23.0895L11.4859 23.1705C11.6583 23.2515 11.7444 23.2515 12.0029 23.2515C12.0029 23.1705 12.0029 23.1705 12.0029 23.1705C12.0891 23.1705 11.9168 23.2515 12.0029 23.2515ZM12.2614 23.2515C12.1752 23.3326 12.1752 23.1705 12.0891 23.2515C12.0891 23.1705 12.3476 23.1705 12.4337 23.1705C12.6061 23.2515 12.0891 23.1705 12.2614 23.2515ZM13.4677 23.3326C13.3815 23.2515 13.4677 23.2515 13.5539 23.1705C13.7262 23.1705 13.8124 23.1705 13.8124 23.3326C13.64 23.2515 13.5539 23.3326 13.4677 23.3326ZM13.8985 23.2515C13.9847 23.1705 13.7262 23.1705 13.7262 23.0895C14.0709 23.1705 14.4155 23.2515 14.7602 23.2515C14.5878 23.3326 14.157 23.1705 13.8985 23.2515ZM37.6799 31.1108C37.5076 31.1108 37.3353 31.1108 37.2491 31.1108L37.2491 31.0298C37.3353 30.9488 37.4214 30.9488 37.5938 30.9488C37.6799 30.9488 37.6799 30.9488 37.6799 31.0298C37.7661 31.0298 37.6799 31.1108 37.6799 31.1108ZM41.5573 30.9488C41.8158 30.9488 41.9881 30.8677 42.0743 30.8677C42.5051 30.8677 42.6775 30.8677 42.8498 31.0298L42.8498 31.1108C42.7636 31.1918 42.6775 31.1918 42.6775 31.1918C42.5051 31.1918 42.419 31.1108 42.2466 31.0298C41.9881 30.9488 41.6435 31.1108 41.5573 30.9488ZM43.1083 31.5159C43.1083 31.5159 42.936 31.5159 42.8498 31.597C42.8498 31.678 42.7636 31.678 42.7636 31.678C42.6775 31.678 42.5913 31.678 42.6775 31.597C42.7636 31.597 42.8498 31.597 42.936 31.5159C42.936 31.5159 42.936 31.5159 42.936 31.4349C42.936 31.4349 42.936 31.3539 43.0221 31.3539C43.0221 31.4349 43.1083 31.5159 43.1083 31.5159ZM168.055 5.02125C168.055 5.02125 168.141 5.10227 168.141 5.18329C168.141 5.18329 168.141 5.18329 168.141 5.26432L168.141 5.34534C168.141 5.34534 168.141 5.34534 168.055 5.34534C168.055 5.34534 168.055 5.34534 167.968 5.34534C167.882 5.1833 167.882 5.10227 168.055 5.02125ZM22.0842 15.2302C21.998 15.1492 21.998 15.2302 22.0842 15.2302C22.0842 15.1492 22.0842 15.1492 22.0842 15.2302C23.4628 15.0682 23.8936 14.6631 23.9798 14.2579C24.2383 14.2579 24.5829 14.2579 24.7552 14.339C24.9276 14.339 25.1861 14.1769 25.2722 14.339C25.4446 14.339 25.3584 14.2579 25.5307 14.2579C25.6169 14.2579 25.5307 14.42 25.6169 14.42C25.6169 14.339 25.7892 14.42 25.8754 14.339C25.9615 14.42 26.22 14.42 26.3062 14.501C26.1339 14.501 25.7892 14.582 25.9616 14.6631C26.1339 14.501 26.3924 14.501 26.737 14.501C26.8232 14.501 26.9955 14.582 27.0817 14.582C27.0817 14.582 27.1678 14.582 27.1678 14.6631C27.254 14.6631 27.254 14.6631 27.254 14.6631C27.3402 14.6631 27.4264 14.7441 27.5125 14.7441C27.5125 14.7441 27.5125 14.7441 27.5125 14.8251C27.4264 14.8251 27.3402 14.8251 27.3402 14.8251C27.3402 14.9871 27.5987 14.9871 27.8572 14.9871C27.771 14.9871 27.771 15.0682 27.6848 15.0682C27.5125 15.0682 27.254 15.0682 26.9094 15.0682C26.8232 15.1492 26.9094 15.1492 26.9955 15.1492C26.9094 15.2302 26.737 15.2302 26.5647 15.1492C26.5647 15.0682 26.5647 15.0682 26.6509 14.9871C26.737 14.9871 26.8232 14.9871 26.8232 14.9871C26.8232 14.9871 26.8232 14.9061 26.737 14.9061L26.6509 14.9061C26.6509 14.9871 26.6509 14.9871 26.5647 14.9871C26.5647 14.9061 26.5647 14.9061 26.6509 14.8251L26.737 14.8251C26.9094 14.8251 26.9955 14.7441 27.1678 14.7441C27.254 14.6631 27.0817 14.6631 27.254 14.6631C27.0817 14.6631 26.9094 14.6631 27.0817 14.7441C26.9955 14.7441 26.8232 14.7441 26.6509 14.7441C26.6509 14.7441 26.4785 14.6631 26.3924 14.582C26.3924 14.6631 26.3924 14.6631 26.3062 14.7441C26.1339 14.7441 25.9615 14.7441 25.8754 14.8251C25.9615 14.8251 25.9616 14.8251 26.0477 14.8251C26.0477 14.8251 26.1339 14.7441 26.3062 14.7441C26.3062 14.8251 26.3062 14.8251 26.22 14.9061C26.1339 14.9061 26.0477 14.9061 26.0477 14.9061C26.1339 14.9061 26.22 14.9061 26.22 14.9061L26.3062 14.9871C26.0477 14.9871 25.8754 14.9871 25.7031 15.0682C25.7892 15.0682 25.9616 15.0682 26.1339 15.1492C25.2722 15.1492 24.8414 15.1492 23.9798 15.1492L24.0659 15.0682C23.8936 15.0682 23.8074 15.1492 23.5489 15.1492C23.5489 15.1492 23.5489 15.0682 23.4628 15.0682C23.4628 15.0682 23.3766 15.0682 23.2905 15.0682C23.2905 15.1492 23.4628 15.0682 23.4628 15.1492C23.2043 15.2302 22.7735 15.1492 22.4288 15.2302C22.3426 15.1492 22.0842 15.1492 21.998 15.1492C21.9118 15.2302 22.0842 15.3112 21.9118 15.3112C21.998 15.3923 21.7395 15.3112 22.0842 15.2302ZM18.8961 17.4989C18.8961 17.4179 19.0684 17.4989 19.0684 17.4989C19.0684 17.4989 18.8961 17.5799 18.8961 17.4989ZM18.9822 17.5799C19.1546 17.6609 19.4992 17.5799 19.6716 17.4989C19.7577 17.5799 19.8439 17.5799 20.0162 17.6609C20.0162 17.6609 19.9301 17.5799 20.0162 17.5799C20.1885 17.5799 20.1885 17.6609 20.3609 17.6609C20.3609 17.5799 20.3609 17.5799 20.447 17.5799C20.6194 17.823 20.7917 17.904 20.964 18.066C20.7055 18.1471 20.447 18.066 20.2747 18.066C20.1024 18.066 20.3609 18.1471 20.2747 18.1471C19.7577 18.066 19.2407 17.904 18.8961 17.6609L18.9822 17.5799ZM25.7892 17.904L25.7031 17.904C25.7031 17.904 25.7031 17.904 25.7892 17.904ZM25.1861 17.0938C25.0137 17.0938 25.0137 17.0938 24.9276 17.0938C24.9276 17.0938 24.9276 17.0938 24.9276 17.0127C25.0137 17.0127 25.1861 17.0127 25.1861 17.0938ZM21.7395 15.3923C21.8257 15.3923 21.8257 15.4733 21.9118 15.4733C21.9118 15.4733 21.6533 15.3923 21.7395 15.3923ZM21.0502 15.5543C21.0502 15.4733 21.1364 15.4733 21.0502 15.3923C21.2225 15.3923 21.481 15.3923 21.481 15.4733C21.1364 15.3923 21.2225 15.4733 21.0502 15.5543ZM19.4131 16.6886C19.4992 16.6886 19.5854 16.6076 19.6716 16.6886C19.6716 16.7697 19.4992 16.6886 19.4992 16.7697C19.6716 16.7697 19.6716 16.8507 19.8439 16.7697C19.9301 16.6076 20.6194 16.6076 20.5332 16.7697C20.7055 16.6886 20.8779 16.6886 20.6194 16.6886C20.7917 16.6886 21.1364 16.6886 21.0502 16.6076C21.0502 16.6886 21.2225 16.6076 21.2225 16.6886C21.2225 16.7697 20.964 16.6886 20.964 16.7697C20.964 16.8507 21.3087 16.7697 21.3087 16.7697C21.1364 16.7697 21.3087 16.8507 21.1364 16.8507C21.2225 16.7697 21.0502 16.7697 20.964 16.8507C21.0502 16.7697 20.964 16.7697 20.7917 16.7697C20.964 16.8507 20.8779 16.8507 20.7055 16.9317C20.964 16.9317 21.3087 16.9317 21.5672 16.9317C21.481 16.9317 21.7395 16.8507 21.7395 16.8507C22.0842 16.7697 22.2565 16.9317 22.6011 16.8507C22.515 16.8507 22.6011 16.9317 22.6011 16.9317L22.515 16.9317C22.4288 16.9317 22.1703 16.9317 22.1703 16.9317C22.2565 16.9317 22.1703 16.9317 22.1703 17.0127C22.2565 17.0127 22.3426 17.0127 22.4288 17.0127C22.4288 17.0127 22.3426 17.0938 22.3426 17.1748C22.3426 17.1748 22.3426 17.1748 22.2565 17.1748C22.2565 17.1748 22.2565 17.0938 22.1703 17.0938C22.0842 17.0938 21.8257 17.0938 21.9118 17.1748C22.2565 17.0938 22.0842 17.2558 22.2565 17.3368L22.2565 17.4179C22.1703 17.4179 21.998 17.4179 21.9118 17.4179C21.998 17.4179 21.998 17.4179 21.9118 17.4179C21.7395 17.4179 21.6533 17.4179 21.5672 17.3368C21.5672 17.4179 21.5672 17.4179 21.3949 17.4179C21.3949 17.4989 21.481 17.4989 21.481 17.4989C21.3087 17.4989 21.1364 17.4989 21.0502 17.4989C20.964 17.4989 20.8779 17.4179 20.8779 17.3368C20.8779 17.3368 20.8779 17.3368 20.7917 17.2558C21.1364 17.1748 21.5672 17.2558 21.7395 17.2558C21.6533 17.1748 21.3948 17.2558 21.3087 17.1748C21.6533 17.1748 21.8257 17.2558 21.998 17.2558C21.998 17.1748 21.7395 17.0938 21.5672 17.0938C21.481 16.9317 21.998 17.0127 22.0842 16.9317C21.8257 16.9317 21.5672 17.0127 21.3949 17.0938C21.2225 17.0127 21.0502 17.0127 20.7055 17.0127C20.8779 17.0938 20.7917 17.0127 20.7917 17.1748C20.8779 17.1748 20.964 17.0938 20.964 17.1748C20.964 17.2558 20.7055 17.2558 20.7055 17.2558C20.6194 17.2558 20.5332 17.1748 20.447 17.2558L20.3609 17.2558C20.2747 17.2558 20.2747 17.1748 20.2747 17.1748C20.447 17.1748 20.5332 17.1748 20.7055 17.1748C20.6194 17.0938 20.7055 17.0127 20.5332 17.0127C20.5332 17.0938 20.6194 17.0938 20.6194 17.0938C20.447 17.0938 20.1885 17.0938 20.1885 17.0127C20.1885 17.0938 19.5854 17.0127 19.8439 17.0938C19.7577 17.0938 19.6716 17.0938 19.6716 17.0938C19.6716 17.0127 19.6716 17.0127 19.6716 16.9317C19.4992 16.8507 19.4131 16.7697 19.4131 16.6886C19.4131 16.7697 19.3269 16.6886 19.4131 16.6886ZM19.4131 16.7697C19.3269 16.8507 19.2407 16.7697 19.2407 16.8507C18.9822 16.8507 18.9822 16.8507 18.8099 16.8507C18.8961 16.7697 19.1546 16.7697 19.4131 16.7697ZM19.0684 16.7697C18.8099 16.7697 19.1546 16.6886 19.2407 16.6886C19.2407 16.7697 19.1546 16.7697 19.0684 16.7697C18.9822 16.7697 18.8099 16.7697 18.7237 16.7697C18.7237 16.6886 18.8961 16.7697 19.0684 16.7697ZM19.4131 17.1748C19.3269 17.0938 19.4131 17.0938 19.4131 17.1748C19.4992 17.1748 19.6716 17.0938 19.8439 17.0938C19.8439 17.1748 19.8439 17.1748 20.0162 17.1748C19.9301 17.0938 20.2747 17.0938 20.2747 17.1748L20.2747 17.0938C20.3609 17.1748 20.0162 17.1748 20.1885 17.1748C20.1885 17.1748 20.2747 17.1748 20.3609 17.1748C20.2747 17.2558 20.2747 17.2558 20.2747 17.2558C20.1885 17.2558 20.2747 17.1748 20.1024 17.1748C20.1024 17.2558 19.8439 17.3368 19.7577 17.2558C19.7577 17.1748 19.9301 17.2558 19.7577 17.1748C19.6716 17.2558 19.4131 17.1748 19.4131 17.3368C19.1546 17.2558 19.1546 17.3368 18.8961 17.3368C18.8099 17.4179 18.8961 17.4179 18.8961 17.4179C18.8099 17.4179 18.7237 17.4179 18.7237 17.4179C18.6376 17.3368 18.5514 17.2558 18.4653 17.1748C18.6376 17.0938 19.1546 17.0938 19.4131 17.1748ZM15.6218 19.8486C15.6218 20.0106 15.3633 19.9296 15.1048 19.9296C15.191 19.8486 15.5357 19.8486 15.6218 19.8486ZM14.157 19.9296C14.157 19.9296 14.0709 19.9296 13.9847 19.9296L13.9847 19.8486L13.8985 19.8486C13.9847 19.7675 14.2432 19.8486 14.157 19.9296C14.5017 19.8486 14.8463 19.9296 15.191 20.0106C14.9325 20.0106 14.5879 20.0916 14.2432 20.0916C14.2432 20.0916 14.4155 20.0916 14.3294 20.0106C14.2432 20.0106 14.157 20.0106 14.157 19.9296ZM13.4677 21.6311C13.3815 21.6311 13.2954 21.6311 13.2092 21.6311L13.4677 21.6311C13.5539 21.6311 13.5539 21.6311 13.4677 21.6311ZM13.5539 21.55L13.8124 21.469C13.8985 21.469 13.8985 21.469 13.8985 21.55C13.8124 21.55 13.64 21.6311 13.5539 21.55ZM15.6218 21.8741C15.5357 21.7931 15.4495 21.7931 15.5357 21.8741C15.3633 21.7931 14.9325 21.8741 14.8463 21.7931C14.8463 21.7121 14.9325 21.7121 14.8463 21.6311C15.1048 21.55 15.5357 21.55 15.8803 21.55C15.8803 21.469 15.7942 21.469 15.7942 21.469C15.7942 21.55 15.7942 21.55 15.6218 21.55C15.5357 21.469 15.5357 21.469 15.6218 21.469C15.5357 21.469 15.3633 21.469 15.3633 21.469C15.4495 21.469 15.5357 21.469 15.5357 21.469C15.5357 21.388 15.1048 21.307 15.0187 21.388C15.1048 21.388 15.1048 21.388 15.191 21.469C15.1048 21.469 15.1048 21.469 15.0187 21.55C14.8463 21.55 14.9325 21.469 14.8463 21.469C14.7602 21.55 14.7602 21.388 14.7602 21.388C14.7602 21.388 14.674 21.469 14.5878 21.469C14.5878 21.469 14.5878 21.469 14.5878 21.388L14.9325 21.307C14.9325 21.307 14.9325 21.388 15.0187 21.307C15.5357 21.388 15.8803 21.469 16.1388 21.55C16.0526 21.55 15.9665 21.6311 15.8803 21.6311C16.0527 21.6311 16.3111 21.7121 16.4835 21.7931C16.4835 21.8741 16.4835 21.8741 16.4835 21.9552C16.4835 21.9552 16.4835 21.9552 16.3973 21.9552C16.3973 21.9552 16.4835 21.9552 16.3973 21.8741C15.9665 21.8741 16.225 21.7121 15.7942 21.7121C15.708 21.7121 15.708 21.7931 15.5357 21.8741C15.7942 21.7931 15.708 21.8741 15.6218 21.8741ZM15.1048 22.8464C15.0187 22.9274 15.0187 22.9274 14.9325 22.9274C14.9325 22.8464 15.0187 22.8464 15.1048 22.8464ZM14.9325 23.1705C15.1048 23.1705 15.0187 23.2515 15.191 23.1705C15.2772 23.2515 14.8463 23.2515 14.9325 23.1705ZM17.8621 23.9808C17.7759 24.0618 17.6036 23.9808 17.6036 23.8997C17.8621 23.8997 17.7759 23.9808 17.8621 23.9808ZM24.0659 22.6844C24.0659 22.6034 24.1521 22.6034 24.2383 22.5223C24.2383 22.6034 24.2383 22.6034 24.2383 22.6844C24.1521 22.6844 24.1521 22.6844 24.0659 22.6844ZM98.4338 28.1129C98.4338 28.0319 98.6061 27.9509 98.6923 27.9509C99.0369 27.9509 99.3816 27.9509 99.7262 28.0319C99.8124 28.0319 99.8124 28.1129 99.8124 28.194C99.8986 28.194 99.9847 28.194 99.9847 28.275C100.071 28.356 99.9847 28.356 99.8986 28.356C99.8986 28.275 99.8986 28.275 99.8986 28.194C99.8124 28.194 99.7262 28.194 99.6401 28.275C99.2954 28.437 99.0369 28.437 98.7784 28.275C98.6923 28.194 98.6061 28.194 98.4338 28.1129C98.4338 28.194 98.4338 28.194 98.4338 28.1129C98.3476 28.194 98.3476 28.194 98.2614 28.275C98.1753 28.275 98.0891 28.275 98.1753 28.194C98.2615 28.194 98.3476 28.194 98.4338 28.1129ZM100.243 29.8955L100.329 29.8955C100.416 29.8955 100.502 29.9765 100.588 29.9765C100.674 29.9765 100.674 30.0575 100.674 30.1385C100.588 30.1385 100.502 30.1385 100.416 30.1385C100.243 30.1385 100.071 30.0575 100.157 29.9765C100.157 29.9765 100.157 29.8955 100.243 29.8955ZM40.0925 26.3304C40.2648 26.3304 40.351 26.3304 40.5233 26.4115L40.5233 26.4925C40.4372 26.4925 40.351 26.4925 40.2649 26.4115C40.1787 26.3304 40.0925 26.3304 40.0925 26.3304ZM44.5731 31.2729C44.1423 31.3539 43.8838 31.1108 43.4529 31.0298C43.3668 31.0298 43.3668 30.9488 43.3668 30.9488C43.4529 30.9488 43.5391 30.9488 43.7114 30.8677C43.8838 30.8677 43.9699 30.7867 43.9699 30.7057C43.7976 30.7057 43.7114 30.7057 43.5391 30.7057C43.4529 30.7057 43.4529 30.7057 43.4529 30.6247C43.4529 30.6247 43.5391 30.5437 43.6253 30.5437C43.7976 30.5437 43.9699 30.5437 44.0561 30.5437C43.9699 30.4626 43.8838 30.3816 43.8838 30.3006C43.7976 30.2196 43.7976 30.1385 43.7976 30.1385C44.0561 29.8955 44.4007 29.7334 44.9177 29.6524C45.0039 29.6524 45.0901 29.7334 45.1762 29.7334C44.9177 29.8955 44.7454 29.9765 45.0039 30.2196C45.2624 30.3816 45.5209 30.4626 45.9517 30.4626C46.0379 30.4626 46.0379 30.4626 46.124 30.5437C46.124 30.5437 46.124 30.5437 46.2102 30.5437L46.124 30.5437L46.0379 30.5437C45.4347 30.5437 44.7454 30.5437 44.1423 30.5437C44.1423 30.6247 44.1423 30.6247 44.1423 30.7057C44.5731 30.7867 44.7454 30.9488 45.0039 31.1108L45.0901 31.1918C44.8316 31.1918 44.6592 31.2729 44.5731 31.2729ZM47.0718 31.3539L46.9857 31.4349L46.8995 31.4349C46.7272 31.2729 46.641 31.1918 46.4687 31.1108C46.2102 30.9488 46.124 31.1108 46.124 31.1918L45.9517 31.2729C45.9517 31.1918 45.8655 31.1918 45.8655 31.1108C45.8655 30.7867 45.9517 30.7867 46.7272 30.7867C47.158 30.7867 47.2442 30.8677 47.2442 31.0298C47.158 31.1108 47.0718 31.2729 47.0718 31.3539ZM49.8291 31.1918L49.7429 31.1918C49.6568 31.1108 49.6568 31.1108 49.8291 31.1918C49.8291 31.1108 49.9153 31.1108 49.9153 31.1108L49.8291 31.1918ZM50.4323 30.1385C50.3461 30.2196 50.2599 30.3006 50.0014 30.3006C49.743 30.3006 49.4845 30.3006 49.3121 30.3006C48.709 30.1385 48.1058 30.1385 47.5027 30.0575C47.4165 30.0575 47.3303 29.9765 47.3303 29.9765C47.3303 29.8955 47.3303 29.8144 47.5888 29.7334C47.8473 29.7334 48.0197 29.6524 48.0197 29.5714C47.675 29.4903 47.3303 29.2473 46.8134 29.4903C46.5549 29.5714 46.124 29.4903 45.7794 29.4903C45.6932 29.4903 45.6071 29.4093 45.6071 29.3283C45.5209 29.2473 45.6932 29.1663 45.8655 29.1663C47.158 29.1663 48.4505 29.2473 49.7429 29.2473C50.0014 29.2473 50.1738 29.3283 50.1738 29.4903C50.1738 29.5714 50.3461 29.6524 50.4323 29.7334C50.5184 29.7334 50.6908 29.8144 50.6908 29.8955C50.6908 29.9765 50.5184 30.0575 50.4323 30.1385ZM101.536 31.1108C101.363 31.1108 101.105 31.0298 100.933 30.9488C100.674 30.8677 100.416 30.8677 100.071 30.9488C99.9847 30.9488 99.8124 31.0298 99.8124 31.0298C99.0369 30.7057 98.0891 30.9488 97.2275 30.8677C96.7105 30.7867 96.1073 30.8677 95.5042 30.7057C95.1595 30.6247 94.5564 30.6247 94.1256 30.6247C93.1777 30.6247 52.5002 30.6247 51.7247 30.3816C51.4662 30.3006 51.0354 30.4626 50.8631 30.2196C51.2077 30.0575 51.5524 30.2196 51.8971 30.1385C52.1556 30.1385 52.5002 30.1385 52.7587 30.1385C53.1895 30.1385 53.7065 30.1385 54.1373 30.1385C54.482 30.1385 94.5564 30.1385 94.901 30.0575C95.1595 29.9765 95.5042 29.9765 95.6765 30.0575C95.935 30.2196 96.1935 30.0575 96.3658 30.0575C96.6243 30.1385 96.8828 30.2196 97.1413 30.3006C97.3998 30.3816 97.6583 30.3816 98.003 30.3816C98.3476 30.4626 98.6923 30.2196 98.9508 30.3006C99.2954 30.4626 99.7262 30.3816 100.157 30.3816C100.502 30.3816 100.846 30.3816 101.191 30.3816C101.536 30.3816 101.794 30.4626 101.967 30.5437C102.053 30.6247 102.139 30.7057 102.139 30.7867C102.139 31.1108 101.794 31.1108 101.536 31.1108ZM107.567 32.6503C107.395 32.7313 107.223 32.8933 106.964 32.7313C106.792 32.6503 106.706 32.8123 106.533 32.7313C106.447 32.7313 106.275 32.6503 106.361 32.6503C106.361 32.5692 106.447 32.4882 106.533 32.4072C106.619 32.4072 106.878 32.4072 106.964 32.4072C107.136 32.4072 107.309 32.4072 107.481 32.4072C107.653 32.5692 107.653 32.5692 107.567 32.6503ZM109.377 32.1641L109.291 32.1641C109.204 32.1641 109.204 32.0831 109.377 32.0831C109.377 32.0021 109.377 32.0831 109.377 32.1641C109.463 32.0831 109.377 32.0831 109.377 32.1641ZM110.324 32.7313L110.238 32.6503L110.324 32.5692C110.497 32.6503 110.497 32.7313 110.324 32.7313ZM111.445 32.2451L111.358 32.1641L111.445 32.0831C111.617 32.1641 111.617 32.1641 111.445 32.2451ZM111.703 32.5692L111.617 32.4882C111.617 32.4882 111.703 32.4882 111.703 32.4072L111.789 32.4072C111.789 32.4882 111.789 32.5692 111.703 32.5692ZM113.599 32.0831C113.599 32.0831 113.513 32.0831 113.513 32.0021C113.513 32.0021 113.599 32.0021 113.599 31.9211L113.685 31.9211C113.599 32.0021 113.599 32.0021 113.599 32.0831ZM120.664 32.7313C120.578 32.8123 120.406 32.8123 120.233 32.8123C120.061 32.7313 119.975 32.7313 119.803 32.6503C119.889 32.6503 119.975 32.5692 120.061 32.5692C120.147 32.5692 120.233 32.5692 120.406 32.4882C120.492 32.4882 120.492 32.4882 120.578 32.4882C120.664 32.4882 120.75 32.4882 120.837 32.5692C120.837 32.6503 120.75 32.7313 120.664 32.7313ZM122.215 31.678C122.129 31.678 122.129 31.678 122.043 31.678C122.043 31.678 122.043 31.678 122.043 31.597C122.129 31.678 122.215 31.678 122.215 31.678ZM124.455 33.5415C124.455 33.5415 124.369 33.5415 124.369 33.4605C124.369 33.4605 124.455 33.4605 124.455 33.3795L124.542 33.3795C124.542 33.5415 124.455 33.5415 124.455 33.5415ZM125.92 32.8933L125.834 32.8123L125.92 32.7313C126.093 32.8123 126.093 32.8933 125.92 32.8933ZM128.678 32.5692C128.591 32.6503 128.591 32.6503 128.678 32.5692C128.591 32.7313 128.419 32.7313 128.161 32.7313C128.074 32.7313 128.074 32.7313 128.074 32.6503C127.988 32.6503 128.074 32.5692 128.161 32.5692C128.333 32.5692 128.419 32.6503 128.678 32.5692C128.591 32.6503 128.591 32.5692 128.678 32.5692L128.764 32.4882L128.85 32.4882C128.936 32.5692 128.764 32.5692 128.678 32.5692ZM133.158 33.4605C132.813 33.4605 132.383 33.3795 132.21 33.5415C131.866 33.7036 131.607 33.3795 131.349 33.5415C131.09 33.6225 130.659 33.6225 130.401 33.7036C130.056 33.7846 129.711 33.7846 129.367 33.7846C129.194 33.7846 129.022 33.7036 129.022 33.6225C128.936 33.4605 129.022 33.3795 129.194 33.3795C129.453 33.3795 129.798 33.3795 130.056 33.3795C130.142 33.3795 130.142 33.2984 130.142 33.2984L130.056 33.2174C129.884 33.2174 129.711 33.2174 129.539 33.2174C129.453 33.2174 129.453 33.2174 129.367 33.1364C129.281 33.1364 129.367 33.0554 129.539 33.0554C129.97 33.0554 130.487 33.0554 130.918 32.8933C131.176 32.8123 131.693 32.8123 131.952 32.8933C132.383 33.0554 133.072 33.0554 133.158 33.4605ZM167.452 25.034C167.452 25.034 167.538 25.034 167.538 25.1151C167.452 25.1151 167.452 25.1151 167.365 25.1961L167.279 25.1151C167.365 25.034 167.452 25.034 167.452 25.034ZM167.882 21.7121C167.882 21.7931 167.796 21.7931 167.796 21.8741C167.71 21.8741 167.624 21.8741 167.452 21.8741L167.365 21.7931L167.279 21.7931C167.452 21.7121 167.624 21.6311 167.796 21.55C167.796 21.6311 167.882 21.7121 167.882 21.7121ZM168.916 18.7952C168.83 18.8763 168.744 19.0383 168.658 19.0383C168.572 19.1193 168.399 19.2814 168.227 19.2814C168.055 19.3624 167.968 19.2814 167.882 19.2004C167.968 19.0383 168.055 18.9573 168.141 18.7952C168.141 18.7142 168.227 18.6332 168.313 18.5522C168.399 18.5522 168.485 18.5522 168.485 18.5522C168.658 18.7142 168.83 18.7142 168.916 18.7952ZM165.125 13.3667C165.211 13.3667 165.211 13.4477 165.211 13.4477C165.125 13.4477 165.125 13.5287 165.039 13.5287C164.953 13.5287 164.953 13.4477 164.867 13.4477C164.953 13.4477 165.039 13.3667 165.125 13.3667ZM163.057 8.01912C163.143 8.10014 163.229 8.10014 163.316 8.18116C163.229 8.26219 163.143 8.34321 162.971 8.34321C162.885 8.34321 162.799 8.26219 162.712 8.18116C162.885 8.10014 162.971 8.10014 163.057 8.01912ZM162.195 8.42423L162.282 8.50526C162.195 8.50526 162.109 8.50526 162.109 8.50526C162.023 8.50526 162.109 8.50526 162.195 8.42423ZM152.545 3.07668L152.631 3.15771C152.631 3.15771 152.631 3.23873 152.545 3.23873L152.459 3.23873C152.373 3.23873 152.459 3.15771 152.545 3.07668ZM151.77 1.69929C151.856 1.61826 151.942 1.61826 152.028 1.78031L151.942 1.86133C151.942 1.86133 151.856 1.86133 151.856 1.78031C151.683 1.78031 151.683 1.69929 151.77 1.69929ZM150.132 9.96368C150.219 9.96368 150.305 9.96368 150.391 10.0447C150.219 10.0447 150.132 9.96368 149.96 9.96368C150.046 9.96368 150.046 9.96368 150.132 9.96368ZM149.529 1.29417C149.615 1.29417 149.615 1.37519 149.702 1.37519L149.615 1.45621L149.529 1.37519L149.529 1.29417ZM146.686 8.42423L146.772 8.50526L146.686 8.58628C146.6 8.58628 146.6 8.50526 146.6 8.50526C146.6 8.50526 146.6 8.50526 146.686 8.42423ZM142.55 8.50526C142.636 8.50526 142.636 8.42424 142.722 8.42424C143.153 8.34321 143.584 8.42423 143.756 8.91037C143.756 8.91037 143.756 8.9914 143.756 9.07242C143.756 9.15345 143.67 9.15345 143.584 9.15345C143.325 9.07242 143.067 8.91038 142.895 8.82935C142.895 8.74833 142.808 8.66731 142.808 8.58628C142.722 8.58628 142.636 8.66731 142.55 8.66731C142.55 8.66731 142.55 8.66731 142.464 8.66731C142.55 8.58628 142.55 8.58628 142.55 8.50526ZM141.516 8.42424L141.602 8.50526C141.602 8.50526 141.602 8.58628 141.516 8.58628L141.43 8.58628C141.344 8.58628 141.344 8.50526 141.516 8.42424ZM24.4967 13.2857L24.5829 13.3667C24.5829 13.4477 24.5829 13.5287 24.5829 13.6097C24.4106 13.6097 24.2383 13.6097 24.0659 13.6097L24.0659 13.5287C24.1521 13.4477 24.3244 13.3667 24.4967 13.2857Z" fill="#155B11"/>
</svg>
