<svg width="162" height="35" viewBox="0 0 162 35" fill="none" xmlns="http://www.w3.org/2000/svg">
<path d="M7.80469 6.56071C7.29115 7.53299 4.28326 6.8848 4.57672 7.85709C4.65008 8.18118 4.79681 8.50527 5.0169 8.74834C4.87018 9.15346 5.8239 9.55858 6.99771 9.80165C6.85098 10.0447 6.92433 10.2878 7.65796 10.5309C8.17149 10.5309 8.46496 10.4498 8.68506 10.3688C8.90515 10.2878 9.05186 10.2068 9.12523 10.1257C9.63876 10.2068 10.0789 10.2068 10.3724 10.2068C9.85887 11.179 6.92434 10.6929 7.2178 11.5842C7.36453 11.9893 7.51123 12.3944 7.80469 12.6375L9.27196 12.0703C13.0135 12.3944 7.73132 13.2857 10.2257 14.1769C10.7392 14.0959 11.0327 14.0959 11.2527 13.9338C12.4999 13.4477 12.1331 13.2046 11.3995 12.7185C14.8475 12.5564 13.7471 15.0682 15.3611 15.2302C15.3611 15.3112 15.141 15.3112 14.9209 15.3112C14.9943 15.3923 14.7008 15.3923 14.6274 15.3923C14.6274 15.4733 14.5541 15.4733 14.4074 15.4733C14.2606 15.3923 14.4807 15.3923 14.4807 15.3112C14.334 15.3112 14.1139 15.3112 14.1139 15.3923C14.334 15.3923 13.8938 15.4733 14.1139 15.5543C14.1873 15.5543 14.1139 15.4733 14.2606 15.4733C14.2606 15.5543 14.1873 15.5543 14.1139 15.6353C13.9672 15.6353 13.9672 15.4733 13.8938 15.4733C13.8204 15.4733 13.6004 15.4733 13.4536 15.5543C13.6737 15.4733 13.9672 15.5543 13.8205 15.6353C13.6737 15.6353 13.7471 15.5543 13.6737 15.5543C13.6004 15.5543 13.3069 15.6353 13.3803 15.4733C13.2335 15.5543 13.2335 15.5543 13.3069 15.6353C13.0868 15.6353 13.1602 15.5543 13.2335 15.5543C13.0868 15.5543 13.1602 15.5543 13.0868 15.5543C13.0135 15.6353 13.1602 15.7164 13.0868 15.7164C13.0135 15.7164 13.0135 15.6353 12.9401 15.6353C12.7934 15.6353 12.72 15.7164 12.4999 15.7164C12.4265 15.5543 12.2065 15.7164 12.0597 15.6353C12.0597 15.7164 12.1331 15.7164 12.0597 15.7164C11.9864 15.7164 11.9864 15.6353 11.913 15.6353C11.913 15.7164 11.913 15.7164 11.8397 15.7164C11.8397 15.7164 11.8397 15.7164 11.7663 15.7164C11.7663 15.7164 11.8397 15.7164 11.8397 15.6353C11.3261 15.7164 11.2528 15.7164 10.8859 15.5543C10.8126 15.6353 10.5925 15.6353 10.4458 15.6353C10.5191 15.7164 10.3724 15.7164 10.3724 15.7164C10.5925 15.7164 10.4458 15.7974 10.4458 15.7974C10.5925 15.7974 10.6658 15.7974 10.8126 15.7974C10.8126 15.7164 10.9593 15.7164 11.0327 15.7164C11.0327 15.7974 11.1794 15.7974 11.2527 15.7974C11.2527 15.7164 11.5462 15.7164 11.5462 15.7164C11.5462 15.7974 11.2527 15.7164 11.3261 15.7974C11.5462 15.7164 11.4728 15.7974 11.3995 15.8784C11.913 15.8784 11.913 15.8784 12.3532 15.7974C12.3532 15.8784 12.2798 15.8784 12.3532 15.9594C12.4266 15.7974 12.72 15.9594 12.9401 15.9594C12.8667 15.9594 12.7934 15.9594 12.7934 15.9594C12.8667 16.0405 12.9401 15.9594 12.9401 16.0405C12.8667 16.0405 12.9401 16.0405 13.0135 16.1215C13.0868 16.0405 13.0135 16.0405 13.0868 15.9594C13.4536 15.9594 14.0405 15.9594 14.1873 16.2025C13.9672 16.1215 13.8205 16.2835 13.6004 16.2025C13.6004 16.2835 13.527 16.2835 13.6004 16.2835C13.8938 16.2835 14.0405 16.2835 14.334 16.3645C14.2606 16.3645 14.334 16.4456 14.4074 16.4456C14.4074 16.4456 14.4073 16.3645 14.4807 16.3645C14.4073 16.3645 14.4073 16.4456 14.5541 16.4456C14.5541 16.3645 14.7008 16.3645 14.7742 16.4456C14.5541 16.4456 14.7742 16.6076 14.6274 16.6076C14.4073 16.6076 14.4807 16.4456 14.4074 16.5266C14.4807 16.5266 14.4073 16.6076 14.4807 16.6076C14.4073 16.6076 14.2606 16.6886 14.1873 16.6076C14.2606 16.5266 14.1873 16.4456 14.1139 16.4456C14.1873 16.5266 14.1873 16.6076 14.1139 16.6076C13.8938 16.6076 13.6737 16.6886 13.6737 16.5266C13.7471 16.5266 13.7471 16.4456 13.7471 16.4456C13.6004 16.4456 13.7471 16.5266 13.6004 16.5266C13.527 16.5266 13.4536 16.5266 13.4536 16.5266C13.527 16.6076 13.6004 16.4456 13.6737 16.5266C13.527 16.5266 13.527 16.6076 13.3803 16.5266C13.3803 16.4456 13.3069 16.4456 13.3069 16.3645C13.4536 16.3645 13.3069 16.2835 13.3069 16.2835C13.3069 16.2835 13.0135 16.2835 13.1602 16.3645L13.2335 16.3645C13.1602 16.3645 13.2335 16.4456 13.1602 16.4456C13.0868 16.4456 13.0135 16.4456 12.9401 16.3645C12.9401 16.3645 13.0868 16.3645 13.0868 16.2835C12.9401 16.2025 12.72 16.4456 12.6466 16.2835C12.72 16.2835 12.8667 16.2835 12.8667 16.2835C12.72 16.2025 12.5733 16.2835 12.4265 16.2025C12.4265 16.2835 12.4266 16.2835 12.3532 16.2835C12.3532 16.2025 12.2065 16.2025 12.0597 16.2835C11.9864 16.2025 12.0598 16.2025 11.9864 16.2025C11.9864 16.2835 11.7663 16.2835 11.7663 16.2835C11.8397 16.2835 11.8397 16.2835 11.8397 16.3645C11.7663 16.4456 11.7663 16.3645 11.6196 16.3645C11.6196 16.4456 11.8397 16.3645 11.8397 16.4456C11.6196 16.4456 11.8397 16.5266 11.8397 16.5266C11.7663 16.6076 11.6196 16.5266 11.5462 16.4456C11.6196 16.5266 11.4728 16.6076 11.6196 16.6076C11.6929 16.5266 11.7663 16.6076 11.913 16.5266C11.913 16.6076 11.913 16.6076 11.9864 16.6076C12.0598 16.5266 11.913 16.5266 12.0597 16.5266C12.4266 16.5266 12.2065 16.7697 11.913 16.7697C12.0597 16.8507 11.9864 16.7697 12.1331 16.7697C11.9864 16.8507 12.2065 16.8507 12.2798 16.8507C12.2065 16.9317 11.8397 16.8507 11.8397 16.9317C12.1331 16.9317 12.3532 16.9317 12.4999 16.9317C12.4265 16.9317 12.4266 17.0127 12.3532 17.0127C11.9864 17.0127 11.5462 17.0127 11.0327 17.0127C10.9593 17.0127 10.9593 17.0127 10.9593 17.0127C10.8859 17.0127 10.7392 17.0938 10.7392 17.0127C10.9593 17.0127 10.6659 17.0127 10.7392 16.9317C10.6659 16.9317 10.5925 16.9317 10.5925 16.9317C10.8859 16.9317 10.3724 17.0127 10.5925 17.0127C10.5925 16.9317 10.7392 17.0127 10.7392 17.0127C10.5191 17.0127 10.4458 16.9317 10.2257 16.9317C10.2257 17.0127 10.2257 17.0127 10.1523 17.0127C9.93222 17.0127 9.63876 17.0127 9.41867 16.9317C9.41867 16.9317 9.41867 16.9317 9.3453 16.9317C8.97848 16.9317 8.53833 16.8507 8.17151 16.8507C8.24487 16.8507 8.31824 16.8507 8.24487 16.7697C8.17151 16.7697 8.09814 16.7697 8.02478 16.8507C7.87805 16.8507 7.73132 16.8507 7.65796 16.7697C7.43786 16.7697 7.2178 16.8507 6.99771 16.8507C6.99771 16.7697 6.99769 16.7697 6.92433 16.7697C6.85097 16.7697 6.77762 16.7697 6.77762 16.7697C6.85098 16.7697 6.85097 16.8507 6.92433 16.8507C6.63087 16.9317 6.33743 16.9317 6.11734 17.0127C6.04397 17.0127 6.04399 17.0127 5.97063 17.0127C5.45709 17.1748 5.237 17.3368 5.16363 17.4989C5.09027 17.4989 5.09027 17.4989 5.01691 17.4989L4.94354 17.5799C5.01691 17.5799 5.09025 17.5799 5.09025 17.5799C5.01689 17.7419 5.16362 17.904 5.45708 18.066C5.09025 18.066 4.72345 18.066 4.42999 18.066C4.42999 17.985 4.35663 17.985 4.42999 17.985C4.28326 18.066 4.06319 18.066 3.91646 18.066C3.91646 18.1471 3.84309 18.1471 3.69636 18.1471C3.69636 18.1471 3.76973 18.1471 3.69636 18.066C3.623 18.066 3.62301 18.066 3.54965 18.066C3.54965 18.066 3.54965 18.066 3.54965 17.985C3.40292 17.985 3.32956 17.904 3.32956 17.985C3.40292 17.904 3.18281 17.985 3.25618 17.904C3.10945 17.985 3.03612 17.985 2.81602 17.985C2.81602 18.066 2.81602 18.066 2.74266 18.066C2.81602 17.985 2.4492 17.985 2.37584 18.066L2.37584 17.985C2.08238 17.985 1.8623 17.985 1.64221 17.985C1.71557 18.066 1.42213 18.066 1.2754 18.066C1.2754 18.066 1.27539 17.985 1.34875 17.985C1.27539 18.066 1.56885 18.066 1.49548 17.985C1.27539 17.985 1.34877 17.904 1.2754 17.904C1.20204 18.066 1.12868 17.985 1.20204 18.1471C1.34877 18.1471 1.71557 18.066 1.64221 18.1471C1.64221 18.066 1.56885 18.1471 1.49548 18.1471C1.34875 18.1471 1.34877 18.1471 1.12868 18.1471C1.12868 18.2281 1.05531 18.2281 1.05531 18.2281C1.12868 18.2281 1.12868 18.3091 1.20204 18.3091C1.20204 18.1471 1.56883 18.3091 1.78892 18.2281C1.78892 18.1471 2.37584 18.066 2.59593 18.1471C2.4492 18.1471 2.30247 18.1471 2.22911 18.1471C2.30247 18.1471 2.22912 18.2281 2.30249 18.2281C2.37585 18.2281 2.59593 18.2281 2.52257 18.1471C2.59593 18.2281 2.74266 18.1471 2.81602 18.1471C2.74266 18.066 2.96274 17.985 2.96274 18.066L2.88939 18.066C3.32956 18.2281 3.84311 17.985 4.28328 18.1471C4.35664 18.1471 4.20991 18.066 4.28328 18.066C4.50337 18.1471 4.87018 17.985 5.16363 18.1471L5.16363 18.066C5.16363 18.066 5.31035 18.066 5.45708 18.066C5.53044 18.1471 5.6038 18.1471 5.67717 18.2281C5.53044 18.2281 5.38371 18.1471 5.31035 18.2281C5.31035 18.3091 5.6038 18.3091 5.67717 18.2281C6.85098 18.7952 9.12523 19.3624 10.299 19.4434L10.2257 19.5245C10.1523 19.5245 10.0789 19.5245 10.0056 19.5245C10.0056 19.6055 10.1523 19.5245 10.1523 19.6055C10.1523 19.6055 10.1523 19.6055 10.0789 19.6865C10.0056 19.6865 9.93222 19.6865 9.85885 19.6865C9.85885 19.6055 9.85885 19.6055 9.78549 19.6055C9.85885 19.8486 9.05186 19.6865 8.83177 19.8486L8.90515 19.7675C8.83179 19.7675 8.83177 19.7675 8.75841 19.7675C8.68504 19.7675 8.83177 19.8486 8.75841 19.8486C8.61168 19.8486 8.68506 19.8486 8.68506 19.7675C8.53833 19.7675 8.61169 19.8486 8.46496 19.8486C8.46496 19.6865 8.24487 19.8486 8.17151 19.7675C8.09814 19.8486 7.95141 19.7675 7.80469 19.7675C7.73132 19.8486 8.02478 19.7675 8.02478 19.8486C7.95141 19.8486 8.02478 19.9296 7.95141 19.9296C8.02478 20.0106 8.02478 20.0916 8.17151 20.0916C8.17151 19.9296 8.31822 20.0916 8.39159 20.0106C8.39159 20.0106 8.39159 20.0106 8.39159 20.0916C7.58459 20.0916 6.85097 20.0916 6.92433 20.6588C6.92433 20.6588 6.92433 20.6588 6.92433 20.7398C6.85097 20.7398 6.85098 20.7398 6.77762 20.7398C6.77762 20.8208 6.85098 20.8208 6.77762 20.8208C6.85098 20.8208 6.85097 20.8208 6.92433 20.8208L6.92433 20.9019C6.85097 20.9019 6.77762 20.9019 6.77762 20.9829C6.85098 20.9829 6.85097 20.9829 6.92433 20.9829C6.99769 21.1449 7.07106 21.307 7.14442 21.469C7.14442 21.469 7.07107 21.469 7.07107 21.388C6.99771 21.388 6.92435 21.388 6.85098 21.469C6.99771 21.469 6.99769 21.55 7.14442 21.55C7.21779 21.6311 7.29115 21.7121 7.36452 21.7931C6.99769 21.7931 6.55752 21.8741 6.1907 21.7931C6.26407 21.7931 6.1907 21.8741 6.26407 21.8741C6.4108 21.7931 6.63089 21.7931 6.77762 21.8741C7.07107 21.7931 7.51123 21.7931 7.80469 21.7931C7.80469 21.9552 8.24487 21.9552 8.17151 22.0362C8.31824 22.0362 8.46496 21.9552 8.53833 22.0362C8.3916 22.0362 8.46496 22.1172 8.31824 22.1172C8.3916 22.1172 8.53833 22.1982 8.68506 22.1172C8.68506 22.1982 8.61168 22.1982 8.75841 22.1982C9.05186 22.1982 9.49203 22.1172 9.78549 22.2793C9.71213 22.2793 9.63876 22.3603 9.63876 22.3603C9.5654 22.3603 9.41867 22.3603 9.34531 22.3603C9.49203 22.3603 9.12523 22.3603 9.19859 22.4413C9.34532 22.4413 9.34532 22.6034 9.19859 22.6034C9.12523 22.6034 9.05186 22.5223 9.05186 22.4413C8.9785 22.4413 8.83177 22.4413 8.83177 22.5223C9.05186 22.4413 8.90514 22.6034 8.9785 22.6034C8.9785 22.6034 9.05186 22.5223 9.12523 22.5223C9.12523 22.6034 9.19859 22.6034 9.19859 22.6034C9.12523 22.6844 9.05186 22.6844 9.05186 22.7654C8.9785 22.8464 8.83177 22.8464 8.75841 22.8464C8.75841 22.8464 8.75841 22.9274 8.83177 22.9274C8.46495 23.0085 8.09814 23.0895 7.87805 23.0085C7.73132 23.0085 7.51124 23.0085 7.43788 23.0895C7.58461 23.0895 7.58459 23.1705 7.73132 23.1705C7.58459 23.1705 7.51124 23.2515 7.43788 23.3326C7.36452 23.2515 7.14444 23.3326 7.07107 23.2515C6.99771 23.1705 7.29117 23.2515 7.2178 23.1705C6.77763 23.0085 6.04397 23.1705 5.53044 23.0895C5.6038 23.0085 5.89726 23.1705 5.97063 23.0085C5.8239 22.9274 5.60382 23.0085 5.38373 22.9274C5.31036 22.8464 5.45709 22.8464 5.60382 22.8464C5.60382 23.0085 6.1907 22.8464 6.04397 23.0895C6.26407 23.0085 6.48416 23.0085 6.63089 23.0895C6.70425 23.0895 6.63089 23.0085 6.77762 23.0085C6.77762 23.0895 6.70425 23.0895 6.70425 23.0895C6.92435 23.0085 7.73132 23.0085 7.95142 22.9274C7.95142 23.0085 8.02478 23.0085 8.02478 23.0085C8.02478 22.9274 8.17151 22.9274 8.17151 22.9274C8.02478 22.9274 8.02478 22.8464 7.95142 22.8464C7.95142 22.8464 7.73132 22.9274 7.73132 22.8464C7.73132 22.7654 7.87805 22.8464 7.87805 22.7654C7.65796 22.7654 7.43788 22.9274 7.36452 22.8464C7.51124 22.8464 7.43787 22.7654 7.51123 22.7654C7.73132 22.8464 8.02478 22.6844 8.09814 22.6844C7.80469 22.6844 7.87805 22.6034 7.73132 22.5223C7.87805 22.5223 7.80469 22.6034 7.95142 22.5223C7.95141 22.3603 7.80469 22.3603 7.73132 22.2793C7.87805 22.2793 7.80469 22.1982 7.87805 22.1982C7.73132 22.1982 7.51123 22.1982 7.65796 22.1172C7.51123 22.1172 7.36452 22.1982 7.29115 22.1172C7.36452 22.0362 7.65796 22.1172 7.58459 22.0362C6.92433 22.3603 6.48416 21.7121 5.8239 21.9552C5.89726 21.8741 5.75055 21.8741 5.60382 21.7931C5.67718 21.7121 5.75053 21.6311 5.89726 21.55C5.97063 21.55 5.97061 21.55 6.11734 21.55C6.26407 21.55 6.11734 21.6311 6.26407 21.6311C6.26407 21.6311 6.26407 21.55 6.1907 21.55C6.4108 21.55 6.4108 21.55 6.77762 21.55C6.85098 21.469 6.92435 21.469 6.85098 21.388C6.55752 21.469 6.4108 21.388 6.1907 21.469C6.26407 21.388 6.04399 21.226 5.97063 21.388C6.04399 21.388 6.11734 21.388 6.11734 21.388L6.11734 21.469C5.97061 21.469 5.8239 21.55 5.8239 21.469C5.89726 21.469 5.97063 21.469 5.97063 21.469C5.8239 21.469 5.97063 21.388 5.8239 21.388C5.75053 21.469 5.38371 21.469 5.31035 21.388L5.31035 21.307C5.53044 21.307 5.6038 21.1449 5.53044 21.226C5.23698 21.1449 5.09025 21.388 5.09025 21.469C4.94353 21.469 5.01691 21.388 4.94354 21.388C4.94354 21.469 4.72345 21.469 4.65008 21.55C4.72345 21.55 4.79681 21.6311 4.72345 21.6311C4.42999 21.6311 3.98984 21.6311 3.76974 21.55C3.76974 21.469 3.91647 21.469 3.76974 21.469C3.76974 21.6311 3.40292 21.469 3.32956 21.55C3.32956 21.6311 3.47627 21.55 3.47627 21.6311C3.25618 21.6311 3.32956 21.7121 3.18283 21.7931C2.96274 21.7121 2.44922 21.7931 2.30249 21.7931C2.37585 21.8741 2.52257 21.7931 2.59593 21.8741C2.52257 21.9552 2.59593 22.0362 2.52257 22.0362C2.4492 22.0362 2.22911 22.0362 2.15575 22.1172C2.30247 22.1172 2.37584 22.1982 2.22911 22.1982C2.59593 22.1982 2.74266 22.1172 3.18283 22.1172C3.18283 22.0362 3.18281 22.0362 3.25618 22.0362L3.47627 22.0362C3.47627 22.1172 3.25618 22.0362 3.25618 22.1982C3.40291 22.1982 3.76973 22.1172 3.69636 22.1982C3.76973 22.1982 3.84309 22.1982 3.91646 22.1982C3.84309 22.0362 4.43001 22.1172 4.28328 22.1982C4.50337 22.1982 4.79681 22.1982 4.79681 22.2793C4.50336 22.2793 4.35664 22.2793 4.13655 22.3603C4.20991 22.3603 4.20991 22.4413 4.35664 22.3603C4.28328 22.2793 4.42999 22.2793 4.50336 22.2793C4.50336 22.3603 4.72345 22.2793 4.72345 22.3603C4.72345 22.4413 4.79681 22.4413 4.79681 22.4413C4.57672 22.5223 4.35664 22.4413 4.20991 22.4413C4.20991 22.5223 4.42999 22.4413 4.50336 22.5223C4.50336 22.5223 4.35664 22.5223 4.35664 22.6034C4.43001 22.6844 4.65008 22.6034 4.72345 22.6034C4.65008 22.6034 4.42999 22.6034 4.42999 22.6844C4.28326 22.6844 4.13655 22.6034 4.06319 22.6034C4.13655 22.6844 3.84309 22.6844 3.84309 22.8464C4.06319 22.7654 4.28326 22.6034 4.50336 22.7654C4.72345 22.7654 5.01691 22.6844 5.16363 22.7654C5.09027 22.7654 4.94354 22.8464 4.94354 22.9274C5.01691 23.0085 5.237 22.8464 5.38373 22.9274C5.31036 22.9274 5.31035 22.9274 5.31035 23.0085C5.45708 23.0085 5.45708 22.9274 5.53044 22.9274C5.6038 22.9274 5.75055 23.0085 5.60382 23.0895C5.09029 23.0085 4.65008 23.0895 4.06319 23.0085C4.35664 22.9274 4.79681 23.0895 4.87018 22.9274C4.65008 23.0085 4.57672 22.8464 4.50336 23.0085C4.35663 23.0085 4.28328 22.8464 4.13655 22.9274C4.28328 22.9274 4.20991 23.0085 4.13655 23.0085C3.98982 23.0085 3.98982 23.0085 3.84309 23.0085C3.84309 23.0895 3.47627 23.0895 3.47627 23.1705C3.84309 23.0085 4.35663 23.1705 4.65008 23.2515C4.79681 23.2515 4.57672 23.1705 4.65008 23.1705C4.72345 23.1705 4.72345 23.1705 4.79681 23.2515C4.72345 23.3326 4.87018 23.3326 4.94354 23.4136C4.72345 23.4946 4.79681 23.3326 4.65008 23.3326C4.57672 23.3326 4.43001 23.4136 4.35664 23.4136C4.35664 23.4136 4.42999 23.4136 4.42999 23.3326C4.35663 23.3326 4.28328 23.3326 4.28328 23.3326C4.28328 23.4136 4.28328 23.4136 4.20991 23.4136C4.13655 23.3326 4.06319 23.2515 3.84309 23.2515C3.84309 23.2515 3.91646 23.3326 3.84309 23.3326C3.69636 23.2515 3.47629 23.3326 3.32956 23.2515C3.25619 23.3326 3.10947 23.2515 3.0361 23.3326C3.0361 23.2515 2.6693 23.3326 2.6693 23.2515C2.6693 23.2515 2.6693 23.2515 2.59593 23.2515C2.59593 23.4946 3.18283 23.3326 3.32956 23.4136C3.10947 23.4136 3.18283 23.4946 3.32956 23.4946C3.0361 23.6567 2.59593 23.3326 2.59593 23.4946C2.52257 23.4946 2.22911 23.4136 2.22911 23.4136C2.4492 23.4136 2.30249 23.4136 2.30249 23.4946C2.37585 23.5756 2.52257 23.4136 2.6693 23.4946C2.6693 23.4946 2.37584 23.4946 2.52257 23.5756C2.6693 23.5756 2.6693 23.5756 2.81602 23.4946C2.88939 23.4946 2.88937 23.5756 2.96274 23.5756C3.0361 23.5756 2.96274 23.4946 3.10947 23.4946C3.18283 23.7377 3.69636 23.5756 3.98982 23.6567C3.40292 23.7377 2.81602 23.7377 2.4492 23.7377C2.52257 23.7377 2.52257 23.7377 2.4492 23.8187C2.37584 23.8187 2.37585 23.8187 2.30249 23.8187C2.30249 23.7377 2.30247 23.7377 2.22911 23.7377C2.08238 23.8187 2.00903 23.6567 1.8623 23.6567C1.56885 23.7377 0.76187 23.7377 0.468413 23.6567C0.248321 23.6567 -0.485307 23.7377 -0.705399 23.5756L-0.705399 23.6567C-0.925492 23.6567 -1.58576 23.5756 -1.58576 23.5756C-1.58576 23.5756 -1.51239 23.6567 -1.58576 23.6567C-1.65912 23.6567 -1.6591 23.5756 -1.80583 23.5756C-2.02593 23.7377 -2.31938 23.4946 -2.53948 23.5756C-2.46611 23.6567 -2.31938 23.5756 -2.39275 23.5756C-2.31938 23.5756 -2.24602 23.5756 -2.17265 23.5756C-2.31938 23.5756 -2.17265 23.5756 -2.17265 23.6567C-2.24602 23.6567 -2.24602 23.6567 -2.31938 23.6567C-2.31938 23.8187 -1.87921 23.6567 -1.65912 23.6567C-1.43903 23.6567 -1.51241 23.8187 -1.29231 23.8187C-1.29231 23.7377 -1.36566 23.7377 -1.36566 23.7377C-1.21893 23.7377 -0.925492 23.6567 -0.852128 23.7377C-0.998856 23.7377 -0.852128 23.8187 -0.778764 23.8187C-0.705399 23.7377 -0.632035 23.8187 -0.485307 23.7377C-0.558671 23.8187 -0.265229 23.7377 -0.411958 23.8997C-0.191865 23.8997 -0.338593 23.8187 -0.191865 23.8187C-0.0451364 23.8997 -0.19188 23.8187 -0.0451517 23.8187C-0.0451516 23.8997 0.101592 23.8187 0.0282279 23.8997C0.248321 23.8997 0.395034 23.8187 0.541762 23.8997C0.615127 23.8997 0.615127 23.8187 0.688491 23.8187C0.835219 23.8187 1.05531 23.8997 1.2754 23.8187C1.27541 23.9808 1.93567 23.9808 2.0824 24.0618L2.0824 23.9808C2.22913 23.9808 2.15576 24.1428 2.30249 24.0618C2.30249 23.9808 2.15575 24.0618 2.15575 23.9808C2.37584 23.9808 2.74264 23.8997 2.96274 23.8997C2.81601 23.8997 2.74266 23.9808 2.81602 23.9808C2.88939 23.9808 2.96274 23.8997 3.10947 23.8997C3.0361 23.8997 3.10947 23.9808 3.0361 23.9808C3.25619 23.9808 3.47627 23.8997 3.69636 23.9808C3.69636 23.9808 3.623 23.9808 3.623 24.0618C3.32954 24.0618 2.81602 23.9808 2.74266 24.1428C3.03612 24.0618 3.40292 24.2238 3.76974 24.1428C3.76974 24.3048 4.35663 24.0618 4.42999 24.2238C4.87016 24.1428 5.6038 24.1428 5.97063 24.2238C5.97063 24.2238 5.89726 24.2238 5.97063 24.3048C6.04399 24.3048 6.1907 24.3048 6.1907 24.2238C6.11734 24.2238 6.11734 24.2238 6.11734 24.1428C6.4108 24.1428 6.48416 24.1428 6.63089 24.1428L6.55752 24.2238C6.77762 24.1428 6.85098 24.3048 7.07107 24.2238C7.07107 24.1428 6.92435 24.1428 7.07107 24.1428C7.07107 24.2238 7.2178 24.2238 7.2178 24.2238C7.29117 24.2238 7.14442 24.1428 7.29115 24.1428C7.58461 24.1428 7.58459 24.1428 7.80469 24.0618C7.80469 24.1428 8.09814 24.1428 7.95142 24.2238C8.24487 24.2238 8.24486 24.3048 8.39159 24.1428C8.31822 24.2238 8.46495 24.2238 8.39159 24.3048C8.46495 24.3048 8.46496 24.3048 8.53833 24.3048C8.53833 24.2238 8.3916 24.2238 8.53833 24.1428C8.9785 24.1428 9.5654 24.2238 9.85886 24.0618L9.85886 24.1428C9.93222 24.1428 10.0056 24.1428 10.0789 24.1428C10.0789 24.0618 10.0789 24.0618 10.2257 24.0618C10.1523 24.1428 10.299 24.0618 10.299 24.2238C10.1523 24.3048 9.93222 24.2238 9.71213 24.2238C9.63876 24.3859 9.05186 24.3048 8.9785 24.2238C9.19859 24.3859 9.78549 24.3048 9.93222 24.3048C10.2257 24.3859 10.4458 24.3859 10.7392 24.3859C10.6659 24.3048 10.8126 24.3048 10.8859 24.3048C10.8859 24.2238 10.8126 24.2238 10.8126 24.1428C10.6658 24.1428 10.7392 24.2238 10.5925 24.2238C10.6658 24.1428 10.3724 24.1428 10.4458 24.0618C10.6658 24.0618 10.9593 24.1428 10.9593 24.0618C11.0327 24.0618 11.106 24.0618 11.1794 24.0618C11.106 24.0618 11.1794 24.1428 11.106 24.1428C11.3261 24.1428 11.0327 24.0618 11.3261 23.9808C11.3995 23.9808 11.3995 24.0618 11.4728 23.9808C11.6196 24.0618 11.3995 24.1428 11.4728 24.1428C11.4728 24.1428 11.7663 24.0618 11.7663 24.1428C11.7663 24.2238 11.7663 24.2238 11.6929 24.2238C11.7663 24.1428 11.4728 24.2238 11.3261 24.2238C11.2527 24.2238 11.2527 24.1428 11.1794 24.1428C11.1794 24.2238 10.9593 24.1428 10.8859 24.1428C10.9593 24.3048 11.1794 24.2238 11.2527 24.2238C11.2527 24.3048 11.106 24.2238 11.0327 24.3048C11.1794 24.3048 11.3995 24.2238 11.4728 24.3048C11.4728 24.2238 11.7663 24.3048 11.6929 24.2238C11.5462 24.2238 11.4728 24.3048 11.4728 24.2238C11.6196 24.1428 11.7663 24.2238 11.913 24.2238C11.9864 24.1428 11.7663 24.2238 11.8397 24.1428C11.913 24.1428 11.913 24.1428 11.913 24.1428C12.1331 24.1428 12.2065 24.1428 12.3532 24.2238C12.4999 24.2238 12.2798 24.2238 12.2798 24.1428C12.3532 24.1428 12.3532 24.1428 12.4265 24.1428C12.4999 24.1428 12.5733 24.1428 12.5733 24.2238C12.5733 24.3048 12.4265 24.2238 12.4265 24.3048C12.5733 24.3048 12.6466 24.3048 12.7934 24.3048C12.8667 24.3048 12.8667 24.2238 13.0135 24.2238C13.0868 24.2238 13.0868 24.3048 13.1602 24.3048C13.2336 24.3048 13.4536 24.2238 13.6737 24.3048C13.7471 24.2238 13.8204 24.2238 13.8938 24.2238C13.6737 24.2238 13.6004 24.3048 13.527 24.2238C13.6004 24.2238 13.6004 24.2238 13.6737 24.1428C13.6004 24.1428 13.527 24.2238 13.4536 24.2238C13.4536 24.0618 13.1602 24.2238 13.1602 24.1428C13.1602 24.1428 13.2336 24.0618 13.1602 24.0618C12.9401 24.1428 12.5733 24.1428 12.4265 24.0618C12.4999 24.2238 11.9864 24.1428 12.1331 23.9808C11.913 23.9808 12.0597 24.0618 11.913 24.0618C11.913 23.9808 11.8397 23.9808 11.8397 23.9808C12.2065 23.8187 12.4265 23.8997 12.7934 24.0618C13.0868 23.9808 13.1602 24.0618 13.3069 23.9808L13.3069 24.0618C13.3069 23.9808 13.7471 23.9808 13.6004 23.9808C13.527 24.0618 13.2336 23.9808 13.2336 23.9808C13.527 23.9808 13.6737 23.9808 13.8938 23.9808C13.8204 24.0618 13.8938 24.0618 13.9672 24.0618C13.9672 23.9808 14.0405 23.9808 14.1139 23.9808C14.334 24.5479 14.5541 25.0341 15.3611 25.0341C16.6082 24.953 16.9751 24.5479 16.9751 24.0618C17.1951 24.0618 17.4152 24.0618 17.4886 24.0618C17.562 24.0618 17.9288 23.9808 18.1489 23.9808C19.7628 25.0341 22.9908 25.9253 25.7052 26.1684C27.2459 26.0063 28.8598 26.1684 30.5472 26.4115C30.4005 26.4115 30.2537 26.4925 30.1804 26.5735C30.107 26.7355 29.8869 26.7355 29.7402 26.7355C29.6668 26.7355 29.5201 26.7355 29.4467 26.7355C29.0066 26.6545 28.8598 26.6545 28.7865 26.8166C28.6398 27.0596 28.4197 26.8976 28.1996 26.9786C27.9061 27.0596 27.3192 27.0596 27.4659 27.3837C27.4659 27.4648 27.3192 27.5458 27.2458 27.6268C27.1725 27.7078 27.1725 27.7889 27.2458 27.8699C27.4659 28.0319 27.7594 28.275 28.0528 28.437C28.1262 28.5181 28.2729 28.5181 28.4197 28.5181C28.7131 28.5181 29.0066 28.5181 29.3 28.5991C29.5201 28.8422 29.9603 28.5181 30.1804 28.7611C30.6939 28.6801 31.2075 28.8422 31.721 28.9232C32.0144 28.9232 32.2345 29.0852 32.528 29.0852C32.8214 29.0852 33.1149 29.1663 33.4083 29.0852C33.7018 29.0852 33.9219 29.2473 34.2153 29.2473C34.3621 29.2473 34.4354 29.1663 34.5088 29.2473C34.5822 29.3283 34.3621 29.4903 34.142 29.4903C33.7751 29.4903 33.4083 29.4903 33.1149 29.4903C33.0415 29.4903 32.8948 29.4903 32.8214 29.5714C32.6747 29.6524 32.8948 29.7334 32.8948 29.8144C32.9682 29.9765 32.9682 30.1385 33.0415 30.2196C33.1883 30.3816 33.2616 30.4626 33.0415 30.6247C32.8948 30.7057 32.8948 30.9488 32.6013 30.9488C32.4546 30.9488 32.1612 30.9488 32.0878 30.8677C32.0144 30.7867 32.2345 30.7867 32.3079 30.7867C32.3813 30.7867 32.3813 30.7057 32.4546 30.7057C32.1612 30.6247 31.8677 30.4626 31.5743 30.4626C31.2074 30.3816 30.7673 30.3816 30.4005 30.3816C30.3271 30.3816 30.3271 30.3816 30.2537 30.3006C30.3271 30.3006 30.4005 30.2196 30.4005 30.2196C30.6939 30.2196 30.9874 30.2196 31.2808 30.2196C31.4276 30.2196 31.5743 30.1385 31.6476 30.0575C31.721 29.9765 31.7944 29.7334 31.5743 29.7334C31.2808 29.6524 31.0607 29.4093 30.6939 29.4903C30.2537 29.4903 29.9603 29.3283 29.5935 29.3283C29.1533 29.2473 28.7131 29.3283 28.2729 29.1663L28.1996 29.1663C28.1996 29.2473 28.1262 29.3283 28.1262 29.3283C28.1996 29.4093 28.2729 29.4903 28.4197 29.5714C28.6398 29.6524 29.6668 29.7334 30.0336 29.7334C30.107 29.7334 30.1804 29.8144 30.1804 29.8144L30.1804 29.8955C30.107 30.0575 29.9603 30.1385 29.8136 30.3006C29.7402 30.3816 29.5935 30.3816 29.5935 30.3006C29.5201 30.0575 29.3734 29.9765 29.0066 29.9765C28.493 29.9765 28.0529 29.8955 27.9061 29.5714C27.3192 29.3283 26.8057 29.0852 26.1454 29.0042C26.0721 29.0042 25.9253 29.0042 25.852 29.0042C25.7786 29.0042 25.7786 29.0852 25.7052 29.1663C25.7052 29.2473 25.7052 29.3283 25.7786 29.3283C25.9987 29.4093 26.2188 29.5714 26.5122 29.6524C26.5122 29.8955 26.879 29.8955 27.0991 29.9765C27.2459 30.0575 27.5393 30.1385 27.686 30.2196C27.7594 30.3006 27.7594 30.4626 28.0528 30.3816C28.3463 30.2196 28.7131 30.3816 29.0799 30.2196C29.2267 30.1385 29.2267 30.3006 29.3 30.3816C29.3 30.3816 29.3 30.4626 29.3734 30.4626C29.5935 30.5437 29.8136 30.5437 30.0336 30.6247C30.2537 30.7057 30.107 30.9488 30.4738 30.9488C30.6206 30.9488 30.7673 30.9488 30.914 31.0298C30.9874 31.0298 30.9874 31.0298 31.0607 31.1108C30.9874 31.1108 30.9874 31.1918 30.914 31.1918C30.4005 31.1918 29.8136 31.2729 29.3 31.1108C29.0799 31.0298 28.8598 31.0298 28.5664 31.0298C27.9795 31.0298 27.3926 31.0298 26.8057 30.8677C26.5122 30.7867 26.1454 30.8677 25.7786 30.8677C25.7052 30.8677 25.6319 30.9488 25.6319 31.0298C25.6319 31.1108 25.7052 31.1918 25.7052 31.1918C26.0721 31.1918 26.4389 31.3539 26.7323 31.4349C26.8057 31.3539 26.879 31.2729 27.0991 31.2729C27.2459 31.2729 27.3192 31.3539 27.3192 31.4349C27.3192 31.5159 27.3192 31.5159 27.3192 31.597C27.5393 31.597 27.686 31.597 27.9061 31.597L27.9061 31.678C28.4197 31.84 28.7131 31.84 29.0799 31.597C29.1533 31.5159 29.2267 31.5159 29.3 31.5159C29.5935 31.678 29.9603 31.84 30.4738 31.84C30.5472 31.84 30.7673 31.9211 30.7673 32.0021C30.914 32.2451 31.2075 32.3262 31.6476 32.3262C32.0144 32.3262 32.4546 32.3262 32.8214 32.3262C33.0415 32.3262 33.1883 32.2451 33.2616 32.1641C33.5551 31.84 33.5551 31.9211 34.2153 32.0021C34.6555 32.0831 34.949 32.2451 35.3891 32.3262C35.6092 32.4072 35.756 32.4072 35.9027 32.3262C36.0494 32.2451 36.1228 32.2451 36.2695 32.3262C36.4162 32.4072 36.563 32.5692 36.783 32.5692C36.8564 32.4072 36.783 32.2451 37.1499 32.2451C37.8835 31.84 37.8835 31.759 37.9568 31.759C38.1036 31.759 38.1036 31.84 38.1769 31.9211C38.3237 31.9211 38.4704 31.84 38.4704 31.759C38.5437 31.678 38.397 31.597 38.2503 31.5159C38.0302 31.5159 37.7367 31.5159 37.5167 31.5159C37.4433 31.5159 37.3699 31.4349 37.3699 31.4349C37.4433 31.4349 37.4433 31.3539 37.5167 31.3539C38.0302 31.3539 38.6171 31.3539 39.1306 31.3539C39.7176 31.3539 40.3045 31.3539 40.818 31.1918C40.9647 31.1918 41.0381 31.0298 41.1848 31.1108C41.4782 31.2729 41.6983 31.1918 41.9918 31.1108C42.2119 31.2729 42.5787 31.2729 42.9455 31.2729C43.6058 31.2729 95.0931 31.2729 95.7533 31.3539C95.9734 31.3539 96.2669 31.3539 96.487 31.4349C96.7804 31.597 97.1472 31.597 97.514 31.597C99.2747 31.597 101.109 31.678 103.016 31.759C103.383 31.759 103.383 31.759 103.456 32.0831C103.456 32.1641 103.53 32.1641 103.53 32.2451C103.603 32.2451 103.677 32.1641 103.75 32.1641C104.043 32.0021 104.557 31.9211 104.85 32.0021L104.85 32.0831C104.85 32.0831 104.777 32.1641 104.704 32.1641C104.263 32.1641 103.897 32.1641 103.97 32.5692C103.97 32.7313 103.75 32.8123 103.677 32.9744C103.603 33.0554 103.456 33.0554 103.31 32.9744C103.236 32.8933 103.09 32.8933 103.09 32.9744C103.09 33.0554 103.09 33.1364 103.016 33.2174C103.75 33.2174 104.484 33.3795 105.144 33.1364C105.291 33.0554 105.657 33.1364 105.877 33.2174C106.171 33.3795 106.538 33.3795 106.831 33.4605C106.904 33.2985 106.978 33.3795 106.978 33.4605C107.198 33.4605 107.345 33.5415 107.565 33.4605C107.785 33.2985 108.152 33.2174 108.225 32.9744C108.225 32.8933 108.298 32.8933 108.372 32.8123C108.445 32.8933 108.445 32.9744 108.518 33.0554C108.665 33.1364 108.812 33.2174 109.032 33.1364C109.105 33.1364 109.252 33.0554 109.252 33.0554C109.472 33.1364 109.839 33.2174 109.912 33.3795C110.059 33.6225 110.132 33.5415 110.353 33.4605C110.573 33.3795 110.499 33.1364 110.866 33.0554C110.866 33.0554 110.866 32.9744 110.939 32.9744C111.233 32.7313 111.6 33.2174 111.967 32.9744C112.04 32.9744 112.113 33.0554 112.113 33.0554C112.187 33.1364 112.187 33.2174 112.187 33.2174C112.774 33.2984 113.287 33.5415 113.874 33.7036C113.874 33.7036 113.947 33.7036 114.021 33.7036C114.094 33.7036 114.094 33.6225 114.021 33.5415C113.947 33.5415 113.947 33.3795 113.947 33.3795C114.388 33.2984 114.828 33.2984 115.268 33.3795C115.488 33.3795 115.341 33.3795 115.268 33.4605C115.048 33.6225 115.121 33.7036 115.488 33.7036C115.708 33.7036 115.928 33.7036 116.075 33.7036C116.295 33.7036 116.515 33.4605 116.735 33.6225C117.029 33.8656 117.249 33.6225 117.542 33.6225C117.762 33.6225 117.909 33.7036 118.129 33.7036C118.202 33.7036 118.349 33.7846 118.349 33.7036C118.643 33.5415 118.863 33.6225 119.156 33.7036C119.229 33.7846 119.45 33.7846 119.596 33.7846C120.183 33.7846 120.77 33.9466 121.357 33.7036C121.43 33.7036 121.577 33.7036 121.65 33.7036C121.797 33.7846 122.017 33.7846 122.164 33.8656C122.678 34.1087 123.118 34.1087 123.705 33.9466C123.778 33.9466 123.925 33.8656 123.998 33.8656C124.732 33.9466 125.465 33.7846 126.199 33.7036C126.639 33.7036 127.079 33.6225 127.299 33.3795C127.519 33.3795 127.886 33.3795 128.033 33.4605C128.326 33.6225 128.62 33.4605 128.84 33.5415C129.133 33.7036 129.427 33.6225 129.72 33.6225C130.087 33.6225 130.307 33.7846 130.674 33.8656C130.747 33.8656 130.894 33.8656 130.968 33.8656C131.261 33.8656 131.481 33.7036 131.774 33.8656C132.068 33.7036 132.435 33.7846 132.728 33.7036C133.168 33.5415 133.829 33.6225 134.195 33.2984C134.122 33.2174 134.269 33.4605 134.489 33.3795C134.636 33.2984 134.782 33.0554 135.076 33.2174C135.369 33.3795 135.516 33.1364 135.736 33.1364C135.809 33.1364 135.956 33.1364 135.956 33.2174C135.956 33.2984 135.956 33.3795 135.956 33.3795C135.883 33.4605 135.809 33.4605 135.736 33.4605C135.663 33.4605 135.589 33.5415 135.443 33.5415C135.516 33.5415 135.589 33.6225 135.663 33.6225C135.883 33.6225 136.176 33.6225 136.396 33.6225C136.69 33.6225 136.983 33.6225 137.277 33.6225C137.497 33.6225 137.717 33.4605 137.937 33.4605C138.23 33.4605 138.524 33.4605 138.817 33.4605C138.891 33.4605 138.964 33.3795 139.037 33.3795C139.184 33.3795 139.258 33.2984 139.258 33.2984C139.258 33.2984 139.184 33.2984 139.111 33.2174C138.377 33.0554 137.717 33.2984 137.057 33.2984C136.91 33.2984 136.763 33.5415 136.616 33.3795C136.543 33.2984 136.763 33.2174 137.057 33.1364C137.35 33.0554 137.644 32.9744 137.937 32.9744C138.597 33.0554 139.184 32.8933 139.844 32.8123C139.918 32.8123 139.991 32.7313 139.991 32.6503C139.991 32.6503 139.918 32.5692 139.844 32.5692C139.844 32.5692 139.771 32.5692 139.698 32.5692C139.624 32.5692 139.551 32.4882 139.478 32.4882C139.551 32.4882 139.624 32.4072 139.698 32.4072C139.918 32.4072 140.138 32.4072 140.285 32.4072C140.651 32.4072 141.165 32.4882 141.385 32.6503C141.532 32.8123 141.752 32.8123 142.045 32.8123C142.706 32.8933 143.292 32.6503 143.879 32.5692C144.54 32.4882 145.127 32.2451 145.86 32.3262C146.594 32.4072 147.254 32.2451 147.768 32.0021C147.914 31.921 148.061 31.84 148.281 31.84C148.428 31.84 148.648 31.84 148.648 31.921C148.648 32.0021 148.501 32.0021 148.355 32.0021C148.281 32.0021 148.281 32.0831 148.208 32.0831C148.208 32.0831 149.235 32.2451 149.308 32.2451C149.382 32.1641 149.528 32.0831 149.602 32.0831C149.528 32.0831 149.455 32.0021 149.382 32.0021C149.308 32.0021 149.235 31.921 149.161 31.921C149.235 31.84 149.308 31.84 149.382 31.759C149.602 31.597 149.822 31.678 150.042 31.678C150.702 31.678 151.216 31.3539 151.803 31.2729C151.949 30.9488 152.463 30.7867 152.83 30.6247C153.05 30.4626 153.196 30.3006 153.196 30.0575C153.123 29.8144 153.196 29.5714 153.783 29.5714C154.37 29.3283 155.031 29.2473 155.544 28.9232C155.617 28.9232 155.617 28.8422 155.617 28.7611C155.617 28.7611 155.544 28.6801 155.471 28.6801C155.251 28.6801 154.957 28.6801 154.737 28.6801C154.517 28.5991 154.297 28.5181 154.224 28.356C154.15 28.275 154.444 28.1129 154.664 28.0319C154.884 27.9509 155.031 28.0319 155.177 28.1129C155.324 28.194 155.544 28.275 155.691 28.1129C155.838 28.0319 155.984 27.9509 156.131 27.9509C156.645 27.8699 156.571 27.7078 156.424 27.5458C156.351 27.4648 156.718 27.3027 156.645 27.2217C156.351 26.9786 156.498 26.7355 156.498 26.4114C156.498 26.2494 156.498 26.0874 156.351 26.0063C156.131 25.7633 156.131 25.6012 156.718 25.5202C156.791 25.5202 156.865 25.4392 156.865 25.3581C156.865 25.1961 156.865 25.0341 156.938 24.872C156.938 24.71 156.791 24.6289 156.498 24.5479C156.351 24.5479 156.351 24.4669 156.424 24.3859C156.498 24.3048 156.645 24.2238 156.571 24.1428C156.351 23.9807 156.571 23.8187 156.645 23.5756C156.718 23.5756 156.865 23.4136 156.865 23.3326C156.865 23.1705 156.718 23.0085 156.571 22.8464C156.351 22.6844 156.424 22.4413 156.498 22.1982L156.645 22.1172C156.938 22.2793 157.011 22.1982 157.085 22.0362C157.158 21.7121 157.011 21.469 157.305 21.1449C157.378 21.0639 157.085 20.7398 156.865 20.6588C156.424 20.5778 156.571 20.4157 156.718 20.2537L156.791 20.1726C156.571 20.0106 156.571 19.8485 156.571 19.7675C156.718 19.7675 156.791 19.7675 156.938 19.8485C157.085 19.9296 157.231 20.0916 157.378 20.0916C157.672 20.1726 157.672 19.7675 157.745 19.6055C157.892 19.3624 158.112 19.1193 158.258 18.8763C158.479 18.6332 158.625 18.6332 158.919 18.7952C159.359 18.9573 159.726 18.4711 160.239 18.6332C160.313 18.6332 160.386 18.5522 160.459 18.4711L160.459 18.3091C160.459 18.2281 160.386 17.985 160.313 17.985C159.799 17.904 159.286 17.7419 158.845 18.1471C158.625 18.3091 158.479 18.2281 158.258 18.066C158.112 17.985 157.892 17.904 157.818 17.904C157.672 18.1471 157.452 18.1471 157.231 18.2281C157.231 18.1471 157.231 18.066 157.085 17.985C156.645 17.7419 156.571 17.4178 156.718 17.1748C157.085 17.1748 157.452 17.1748 157.892 17.1748C158.112 17.1748 158.258 16.9317 158.405 16.7697C158.479 16.6886 158.552 16.5266 158.405 16.4456C158.258 16.2835 158.112 16.1215 157.892 16.0404C157.672 15.9594 157.452 16.0404 157.305 16.0404C157.158 16.0404 156.938 16.0404 156.865 15.9594C156.718 15.7974 156.498 15.6353 156.424 15.4733C156.424 15.3112 156.645 14.9871 156.791 14.9871C157.231 14.9061 157.598 14.9061 158.038 14.9061C158.332 14.9061 158.479 14.7441 158.552 14.3389C158.699 13.8528 159.139 13.6908 159.212 13.1236C159.286 12.7185 159.286 12.4754 158.992 12.3134C158.772 12.2323 158.552 12.1513 158.258 12.0703C158.332 11.3411 157.965 11.5031 157.598 11.4221C157.305 11.4221 157.158 11.6652 156.865 11.7462C156.645 11.9082 156.424 11.5031 156.204 11.5031C156.131 11.5031 155.984 11.5031 155.911 11.5842C155.691 11.7462 155.471 11.8272 155.177 11.8272C154.077 11.8272 152.976 11.6652 151.949 12.1513C151.876 12.1513 151.876 12.1513 151.803 12.1513C151.803 12.0703 151.876 12.0703 151.949 11.9893C151.949 11.9893 152.023 11.9893 152.023 11.9082C152.463 11.8272 152.83 11.7462 153.27 11.6652C153.343 11.6652 153.417 11.6652 153.563 11.5842L153.49 11.5842C153.783 11.5031 154.003 11.3411 154.224 11.179C154.15 10.8549 154.077 10.6119 153.93 10.4498C154.59 10.3688 155.177 10.1257 155.764 9.80164C155.838 9.80164 155.838 9.80164 155.911 9.80164C156.131 9.72061 156.278 9.55857 156.498 9.55857C156.718 9.47754 156.865 9.96368 157.158 9.63959C157.305 9.47754 157.451 9.88266 157.672 9.88266C157.818 9.88266 157.965 9.88266 158.112 9.88266C158.185 9.88266 158.185 9.80164 158.258 9.80164C158.552 9.55857 158.772 9.15345 159.139 9.07242C159.212 9.07242 159.212 8.91038 159.065 8.82935C158.919 8.74833 158.699 8.82936 158.772 8.58628C158.772 8.42424 159.065 8.18117 159.065 8.18117C159.432 8.42424 159.799 7.9381 160.019 8.10014C160.459 8.50526 160.679 8.18117 160.826 7.77605C160.9 7.37093 161.12 7.28991 161.413 7.28991C161.56 7.28991 161.707 7.28991 161.853 7.28991C161.927 7.28991 162 7.12786 162 7.04684L161.927 6.88479C161.707 6.72274 161.486 6.5607 161.266 6.39865C160.826 6.07456 160.239 5.99353 160.166 5.1833C160.166 5.10227 159.946 5.02125 159.799 4.94023C159.652 4.8592 159.432 4.85921 159.359 4.77818C159.286 4.61613 159.212 4.29204 159.286 4.04897C159.286 3.8059 159.432 3.64385 159.506 3.40078C159.212 3.31976 159.065 2.91464 158.845 2.75259C158.552 2.50952 158.112 2.67157 157.818 2.34748C157.672 2.18543 157.378 2.26645 157.378 2.59055C157.305 2.91464 157.158 2.99566 156.938 2.99566C156.498 2.99566 156.131 3.56283 155.617 3.4818C155.617 3.4818 155.471 3.64385 155.471 3.8059C155.471 3.88692 155.544 4.04897 155.617 4.12999C155.764 4.29204 155.984 4.37306 156.131 4.45409C156.278 4.61613 156.351 4.8592 156.424 5.10227C156.424 5.34534 156.351 5.66944 156.131 5.66944C155.838 5.66944 155.471 5.66944 155.177 5.66944C154.884 5.66944 154.737 5.42637 154.884 5.02125C155.104 4.45409 155.031 4.45409 154.664 4.12999C154.517 4.04897 154.444 3.88692 154.297 3.72488C154.15 3.56283 154.077 3.40078 153.783 3.64385C153.343 3.96795 152.83 3.96795 152.463 3.72488C151.949 3.31976 151.289 3.64385 150.849 3.31976C150.262 2.91464 149.748 3.23873 149.161 3.07669C149.015 3.07669 148.868 3.07669 148.721 3.07669C148.575 3.07669 148.355 2.99567 148.281 2.91464C147.914 2.4285 147.401 2.26645 146.887 2.34748C146.3 1.78031 145.64 1.78031 144.98 2.18543C144.906 2.18543 144.76 2.02339 144.613 1.94236C144.466 1.78031 144.54 1.61826 144.686 1.61826C144.98 1.53724 145.273 1.13212 145.64 1.61826L145.787 1.61826C146.08 1.29417 146.3 1.29417 146.594 1.61826C146.667 1.69929 146.814 1.61826 146.887 1.53724C146.887 1.53724 146.887 1.45622 146.887 1.3752C146.667 0.483938 146.52 0.402913 145.787 0.645982C145.127 0.889051 144.466 0.970075 143.513 0.645982C143.292 0.564958 143.072 0.970075 142.852 0.645983C142.706 0.483934 142.559 0.727007 142.485 0.808031C142.339 0.889055 142.192 0.889055 142.045 0.727007C141.825 0.483938 141.605 0.483938 141.385 0.727007C141.165 0.970076 140.871 0.970079 140.651 0.889055C140.064 0.727007 139.551 0.240866 138.964 0.889055C138.891 0.97008 138.671 0.808031 138.524 0.727007C138.23 0.483938 137.864 0.483935 137.644 0.645983C137.057 1.0511 136.47 0.889056 135.809 0.97008C134.782 0.97008 133.755 1.0511 132.655 0.97008C132.361 0.97008 132.068 1.0511 131.774 1.21315C131.408 0.808032 131.114 0.97008 130.821 1.29417C130.161 1.0511 129.647 1.78031 128.987 1.69929C128.62 1.69929 128.253 1.78031 127.886 1.69929C127.446 1.61827 127.153 2.10441 126.712 2.10441C126.492 2.10441 126.199 2.10441 125.979 2.26645C125.465 2.59055 124.952 2.59055 124.512 2.34748C124.145 2.10441 123.851 2.10441 123.484 2.26645C122.971 2.50952 122.531 2.91464 121.944 2.50953C121.871 2.50953 121.724 2.59055 121.65 2.59055C121.284 2.91464 120.99 2.91464 120.623 2.59055C120.403 2.34748 120.11 2.26645 119.89 2.4285C119.45 2.83362 119.009 2.7526 118.569 2.7526C118.129 2.7526 117.762 2.7526 117.395 2.99567C116.955 3.23874 116.368 3.23874 115.928 2.91464C115.561 2.67157 115.121 2.67157 114.754 2.91464C114.534 3.07669 114.387 3.07669 114.167 3.07669C113.874 3.15771 113.801 2.59055 113.507 2.91464C113.214 3.15772 112.92 3.07669 112.627 3.07669C111.673 3.07669 110.719 3.07669 109.839 3.07669C106.464 3.07669 103.163 3.07669 99.7883 3.07669C99.4948 3.07669 99.128 2.99567 98.9079 3.23874C98.6145 3.48181 98.2477 2.91464 97.9542 3.40079C97.5874 3.40079 97.2206 3.40079 96.8538 3.40079C96.0468 3.40079 95.1664 3.40079 94.3594 3.40079C94.066 3.40079 42.9455 3.31977 42.7988 3.48181C42.432 3.80591 41.9918 3.72489 41.625 3.72489C41.3315 3.72489 40.9647 3.64386 40.6713 3.80591C40.1577 4.13 39.6442 4.04898 39.1306 4.04898C38.6171 4.04898 38.0302 4.04898 37.5167 4.04898C37.0031 3.88693 36.4896 3.64386 35.976 3.23874L36.4896 3.56284C36.5629 3.72489 36.1961 3.80591 35.9027 3.88693C35.976 3.88693 35.976 3.96796 36.0494 3.96796C34.8756 3.96796 33.7752 3.96796 32.6013 3.96796C32.1612 3.96796 31.721 3.96796 31.2075 4.21103C30.7673 4.4541 30.1804 4.29205 29.6668 4.29205C28.7865 3.64386 27.8328 4.04898 26.879 4.04898C26.2921 4.53512 25.7052 4.37308 25.045 4.37308C24.6048 4.37308 24.0179 4.29205 23.6511 4.53512C23.5777 4.61615 23.5043 4.61614 23.3576 4.69717C22.7707 4.53512 21.8904 4.29205 20.4231 4.13001C17.782 4.53512 14.6274 5.10229 11.4728 4.94024C10.3724 4.85922 9.3453 4.29205 9.49203 3.96796C8.09814 4.04898 6.1907 4.04898 4.79681 3.96796C-1.21895 5.26433 5.53044 6.39866 7.80469 6.56071ZM11.106 15.6353C11.106 15.7164 10.9593 15.6353 10.9593 15.6353C10.9593 15.6353 11.106 15.6353 10.9593 15.5543C10.9593 15.5543 11.106 15.5543 11.1794 15.4733C11.3261 15.5543 10.9593 15.5543 11.106 15.6353ZM12.1331 15.7164C12.0597 15.7164 11.9864 15.7164 11.913 15.7164C11.9864 15.6353 12.0597 15.6353 12.1331 15.5543C12.2798 15.6353 12.1331 15.7164 12.1331 15.7164ZM12.5733 15.7164C12.6467 15.6353 12.4266 15.7164 12.3532 15.7164C12.2798 15.7164 12.4266 15.6353 12.2798 15.6353C12.2798 15.5543 12.4999 15.6353 12.4999 15.5543C12.6466 15.5543 12.5733 15.6353 12.6466 15.5543C12.72 15.5543 12.5733 15.5543 12.6466 15.4733C12.6466 15.4733 12.72 15.4733 12.7934 15.4733C12.7934 15.4733 12.72 15.5543 12.7934 15.5543C12.9401 15.4733 12.8667 15.4733 13.0868 15.5543C13.0868 15.6353 12.9401 15.6353 12.8667 15.6353C12.8667 15.6353 12.9401 15.6353 13.0135 15.6353C12.8667 15.7974 12.7934 15.7164 12.5733 15.7164ZM13.2335 15.7974C13.1602 15.7974 13.0868 15.7974 13.0868 15.7974C13.0868 15.7164 13.1602 15.7164 13.2335 15.7974C13.2335 15.7164 13.1602 15.6353 13.3069 15.7164L13.3069 15.7974C13.3069 15.7164 13.2335 15.7164 13.2335 15.7974ZM12.4999 16.6886C12.3532 16.6076 12.2065 16.6886 12.1331 16.6076C12.3532 16.6076 12.4999 16.5266 12.5733 16.6076C12.5733 16.6076 12.4265 16.6076 12.4999 16.6886ZM8.24487 22.5223C8.09814 22.5223 8.46496 22.6034 8.24487 22.5223C8.17151 22.6034 8.02478 22.5223 7.87805 22.5223C7.87805 22.5223 7.95142 22.5223 8.02478 22.5223C8.09814 22.5223 8.02478 22.4413 8.09814 22.4413C8.17151 22.4413 8.09814 22.5223 8.24487 22.5223ZM8.02478 22.2793C8.17151 22.1982 8.02478 22.3603 7.80469 22.2793C7.80469 22.2793 8.02478 22.3603 8.02478 22.2793ZM7.65796 22.1982C7.73132 22.1172 7.73132 22.1982 7.65796 22.1982C7.80469 22.1172 7.73132 22.1982 7.80469 22.1982C7.73132 22.1982 7.58459 22.1982 7.51123 22.1982C7.58459 22.1982 7.65796 22.1982 7.65796 22.1982ZM7.51123 22.5223C7.51123 22.6034 7.36452 22.5223 7.14442 22.5223C7.14442 22.4413 7.43787 22.5223 7.51123 22.5223ZM7.36452 22.6034C7.58461 22.6034 7.58459 22.6034 7.73132 22.6844C7.73132 22.7654 7.58459 22.6844 7.51123 22.6844C7.29114 22.8464 7.07107 22.6844 6.77762 22.7654C6.70425 22.6844 6.63089 22.7654 6.48416 22.6844C6.70425 22.6034 7.21779 22.6844 7.36452 22.6034ZM6.4108 22.6844C6.4108 22.7654 6.33743 22.7654 6.26407 22.7654C6.1907 22.7654 6.1907 22.6844 6.1907 22.6844C6.33743 22.6844 6.4108 22.6844 6.4108 22.6844ZM3.54965 23.3326C3.47629 23.2515 3.54965 23.2515 3.54965 23.1705C3.76974 23.1705 3.69636 23.2515 3.91646 23.1705C3.98982 23.2515 3.76974 23.1705 3.76974 23.2515C3.76974 23.3326 4.06319 23.2515 3.98982 23.3326C3.76973 23.3326 3.69638 23.3326 3.54965 23.3326ZM0.174941 23.8187C0.174941 23.7377 0.32167 23.7377 0.395034 23.7377C0.468398 23.8187 0.32167 23.8187 0.174941 23.8187ZM1.78892 23.8187C1.93565 23.7377 2.00902 23.8187 2.15575 23.8187L2.15575 23.8997C2.00902 23.8997 1.86229 23.8997 1.78892 23.8187ZM4.06319 23.2515C4.13655 23.2515 4.20991 23.2515 4.28328 23.2515C4.35664 23.3326 4.06319 23.4136 4.06319 23.2515ZM4.42999 23.7377C4.35663 23.6567 4.72345 23.6567 4.65008 23.6567C4.72345 23.7377 4.50336 23.6567 4.42999 23.7377ZM5.16363 23.8997C5.237 23.8187 5.45708 23.8997 5.53044 23.8997C5.53044 23.9808 5.237 23.8997 5.16363 23.8997ZM5.09025 22.6844C5.16362 22.6844 5.38371 22.6844 5.45708 22.7654C5.31035 22.6844 5.16362 22.7654 5.09025 22.6844ZM5.45708 21.7121C5.53044 21.6311 5.53044 21.6311 5.45708 21.55C5.67717 21.55 5.75053 21.6311 5.8239 21.55C5.97063 21.55 6.19072 21.7931 5.89726 21.7931C5.97063 21.6311 5.53044 21.7931 5.45708 21.7121ZM5.67717 21.8741C5.67717 21.7931 5.89726 21.8741 5.8239 21.7931C5.89726 21.7931 5.97061 21.7931 6.04397 21.7931C6.04397 21.9552 5.75053 21.9552 5.67717 21.8741ZM5.8239 22.6844C5.8239 22.6034 6.04397 22.6844 6.11734 22.6844C6.11734 22.7654 5.89726 22.7654 5.8239 22.6844ZM7.07107 23.2515C6.85098 23.2515 6.70425 23.2515 6.48416 23.2515C6.48416 23.1705 6.33743 23.1705 6.1907 23.1705C6.11734 23.1705 6.4108 23.1705 6.26407 23.0895C6.4108 23.0895 6.48416 23.1705 6.63089 23.0895L6.63089 23.1705C6.77762 23.2515 6.85098 23.2515 7.07107 23.2515C7.07107 23.1705 7.07107 23.1705 7.07107 23.1705C7.14444 23.1705 6.99771 23.2515 7.07107 23.2515ZM7.29115 23.2515C7.21779 23.3326 7.21779 23.1705 7.14442 23.2515C7.14442 23.1705 7.36452 23.1705 7.43788 23.1705C7.58461 23.2515 7.14442 23.1705 7.29115 23.2515ZM8.31824 23.3326C8.24487 23.2515 8.31822 23.2515 8.39159 23.1705C8.53831 23.1705 8.61168 23.1705 8.61168 23.3326C8.46495 23.2515 8.3916 23.3326 8.31824 23.3326ZM8.68506 23.2515C8.75842 23.1705 8.53833 23.1705 8.53833 23.0895C8.83179 23.1705 9.12521 23.2515 9.41867 23.2515C9.27194 23.3326 8.90515 23.1705 8.68506 23.2515ZM28.9332 31.1108C28.7865 31.1108 28.6398 31.1108 28.5664 31.1108L28.5664 31.0298C28.6398 30.9488 28.7131 30.9488 28.8598 30.9488C28.9332 30.9488 28.9332 30.9488 28.9332 31.0298C29.0066 31.0298 28.9332 31.1108 28.9332 31.1108ZM32.2345 30.9488C32.4546 30.9488 32.6013 30.8677 32.6747 30.8677C33.0415 30.8677 33.1882 30.8677 33.335 31.0298L33.335 31.1108C33.2616 31.1918 33.1882 31.1918 33.1882 31.1918C33.0415 31.1918 32.9682 31.1108 32.8214 31.0298C32.6013 30.9488 32.3079 31.1108 32.2345 30.9488ZM33.5551 31.5159C33.5551 31.5159 33.4083 31.5159 33.335 31.597C33.335 31.678 33.2616 31.678 33.2616 31.678C33.1883 31.678 33.1149 31.678 33.1882 31.597C33.2616 31.597 33.335 31.597 33.4083 31.5159C33.4083 31.5159 33.4083 31.5159 33.4083 31.4349C33.4083 31.4349 33.4083 31.3539 33.4817 31.3539C33.4817 31.4349 33.5551 31.5159 33.5551 31.5159ZM156.938 5.02125C156.938 5.02125 157.011 5.10227 157.011 5.1833C157.011 5.1833 157.011 5.1833 157.011 5.26432L157.011 5.34535C157.011 5.34535 157.011 5.34535 156.938 5.34535C156.938 5.34535 156.938 5.34535 156.865 5.34535C156.791 5.1833 156.791 5.10227 156.938 5.02125ZM15.6545 15.2302C15.5812 15.1492 15.5812 15.2302 15.6545 15.2302C15.6545 15.1492 15.6545 15.1492 15.6545 15.2302C16.8283 15.0682 17.1951 14.6631 17.2685 14.2579C17.4886 14.2579 17.782 14.2579 17.9288 14.339C18.0755 14.339 18.2956 14.1769 18.369 14.339C18.5157 14.339 18.4423 14.2579 18.589 14.2579C18.6624 14.2579 18.589 14.42 18.6624 14.42C18.6624 14.339 18.8091 14.42 18.8825 14.339C18.9559 14.42 19.1759 14.42 19.2493 14.501C19.1026 14.501 18.8091 14.582 18.9559 14.6631C19.1026 14.501 19.3227 14.501 19.6161 14.501C19.6895 14.501 19.8362 14.582 19.9096 14.582C19.9096 14.582 19.9829 14.582 19.9829 14.6631C20.0563 14.6631 20.0563 14.6631 20.0563 14.6631C20.1297 14.6631 20.203 14.7441 20.2764 14.7441C20.2764 14.7441 20.2764 14.7441 20.2764 14.8251C20.203 14.8251 20.1297 14.8251 20.1297 14.8251C20.1297 14.9871 20.3497 14.9871 20.5698 14.9871C20.4965 14.9871 20.4965 15.0682 20.4231 15.0682C20.2764 15.0682 20.0563 15.0682 19.7628 15.0682C19.6895 15.1492 19.7628 15.1492 19.8362 15.1492C19.7628 15.2302 19.6161 15.2302 19.4694 15.1492C19.4694 15.0682 19.4694 15.0682 19.5428 14.9871C19.6161 14.9871 19.6895 14.9871 19.6895 14.9871C19.6895 14.9871 19.6895 14.9061 19.6161 14.9061L19.5428 14.9061C19.5428 14.9872 19.5428 14.9871 19.4694 14.9871C19.4694 14.9061 19.4694 14.9061 19.5428 14.8251L19.6161 14.8251C19.7628 14.8251 19.8362 14.7441 19.9829 14.7441C20.0563 14.6631 19.9096 14.6631 20.0563 14.6631C19.9096 14.6631 19.7628 14.6631 19.9096 14.7441C19.8362 14.7441 19.6895 14.7441 19.5428 14.7441C19.5428 14.7441 19.396 14.6631 19.3227 14.582C19.3227 14.6631 19.3227 14.6631 19.2493 14.7441C19.1026 14.7441 18.9559 14.7441 18.8825 14.8251C18.9559 14.8251 18.9559 14.8251 19.0292 14.8251C19.0292 14.8251 19.1026 14.7441 19.2493 14.7441C19.2493 14.8251 19.2493 14.8251 19.1759 14.9061C19.1026 14.9061 19.0292 14.9061 19.0292 14.9061C19.1026 14.9061 19.1759 14.9061 19.1759 14.9061L19.2493 14.9871C19.0292 14.9871 18.8825 14.9871 18.7358 15.0682C18.8091 15.0682 18.9559 15.0682 19.1026 15.1492C18.369 15.1492 18.0021 15.1492 17.2685 15.1492L17.3419 15.0682C17.1951 15.0682 17.1218 15.1492 16.9017 15.1492C16.9017 15.1492 16.9017 15.0682 16.8283 15.0682C16.8283 15.0682 16.755 15.0682 16.6816 15.0682C16.6816 15.1492 16.8283 15.0682 16.8283 15.1492C16.6082 15.2302 16.2414 15.1492 15.948 15.2302C15.8746 15.1492 15.6545 15.1492 15.5811 15.1492C15.5078 15.2302 15.6545 15.3112 15.5078 15.3112C15.5812 15.3923 15.3611 15.3112 15.6545 15.2302ZM12.9401 17.4989C12.9401 17.4179 13.0868 17.4989 13.0868 17.4989C13.0868 17.4989 12.9401 17.5799 12.9401 17.4989ZM13.0135 17.5799C13.1602 17.6609 13.4536 17.5799 13.6004 17.4989C13.6737 17.5799 13.7471 17.5799 13.8938 17.6609C13.8938 17.6609 13.8204 17.5799 13.8938 17.5799C14.0405 17.5799 14.0405 17.6609 14.1873 17.6609C14.1873 17.5799 14.1873 17.5799 14.2606 17.5799C14.4073 17.823 14.5541 17.904 14.7008 18.066C14.4807 18.1471 14.2606 18.066 14.1139 18.066C13.9672 18.066 14.1873 18.1471 14.1139 18.1471C13.6737 18.066 13.2335 17.904 12.9401 17.6609L13.0135 17.5799ZM18.8091 17.904L18.7358 17.904C18.7358 17.904 18.7358 17.904 18.8091 17.904ZM18.2956 17.0938C18.1489 17.0938 18.1489 17.0938 18.0755 17.0938C18.0755 17.0938 18.0755 17.0938 18.0755 17.0127C18.1489 17.0127 18.2956 17.0127 18.2956 17.0938ZM15.3611 15.3923C15.4344 15.3923 15.4344 15.4733 15.5078 15.4733C15.5078 15.4733 15.2877 15.3923 15.3611 15.3923ZM14.7742 15.5543C14.7742 15.4733 14.8475 15.4733 14.7742 15.3923C14.9209 15.3923 15.141 15.3923 15.141 15.4733C14.8475 15.3923 14.9209 15.4733 14.7742 15.5543ZM13.3803 16.6886C13.4536 16.6886 13.527 16.6076 13.6004 16.6886C13.6004 16.7697 13.4536 16.6886 13.4536 16.7697C13.6004 16.7697 13.6004 16.8507 13.7471 16.7697C13.8204 16.6076 14.4073 16.6076 14.334 16.7697C14.4807 16.6886 14.6275 16.6886 14.4074 16.6886C14.5541 16.6886 14.8475 16.6886 14.7742 16.6076C14.7742 16.6886 14.9209 16.6076 14.9209 16.6886C14.9209 16.7697 14.7008 16.6886 14.7008 16.7697C14.7008 16.8507 14.9942 16.7697 14.9942 16.7697C14.8475 16.7697 14.9943 16.8507 14.8475 16.8507C14.9209 16.7697 14.7742 16.7697 14.7008 16.8507C14.7742 16.7697 14.7008 16.7697 14.5541 16.7697C14.7008 16.8507 14.6274 16.8507 14.4807 16.9317C14.7008 16.9317 14.9943 16.9317 15.2144 16.9317C15.141 16.9317 15.3611 16.8507 15.3611 16.8507C15.6545 16.7697 15.8012 16.9317 16.0947 16.8507C16.0213 16.8507 16.0947 16.9317 16.0947 16.9317L16.0213 16.9317C15.948 16.9317 15.7279 16.9317 15.7279 16.9317C15.8012 16.9317 15.7279 16.9317 15.7279 17.0127C15.8012 17.0127 15.8746 17.0127 15.948 17.0127C15.948 17.0127 15.8746 17.0938 15.8746 17.1748C15.8746 17.1748 15.8746 17.1748 15.8012 17.1748C15.8012 17.1748 15.8012 17.0938 15.7279 17.0938C15.6545 17.0938 15.4344 17.0938 15.5078 17.1748C15.8013 17.0938 15.6545 17.2558 15.8012 17.3368L15.8012 17.4179C15.7279 17.4179 15.5812 17.4179 15.5078 17.4179C15.5812 17.4179 15.5812 17.4179 15.5078 17.4179C15.3611 17.4179 15.2877 17.4179 15.2144 17.3368C15.2144 17.4179 15.2144 17.4179 15.0676 17.4179C15.0676 17.4989 15.141 17.4989 15.141 17.4989C14.9943 17.4989 14.8475 17.4989 14.7742 17.4989C14.7008 17.4989 14.6274 17.4179 14.6274 17.3368C14.6274 17.3368 14.6274 17.3368 14.5541 17.2558C14.8475 17.1748 15.2143 17.2558 15.3611 17.2558C15.2877 17.1748 15.0676 17.2558 14.9942 17.1748C15.2877 17.1748 15.4344 17.2558 15.5811 17.2558C15.5811 17.1748 15.3611 17.0938 15.2144 17.0938C15.141 16.9317 15.5812 17.0127 15.6545 16.9317C15.4344 16.9317 15.2144 17.0127 15.0676 17.0938C14.9209 17.0127 14.7742 17.0127 14.4807 17.0127C14.6274 17.0938 14.5541 17.0127 14.5541 17.1748C14.6274 17.1748 14.7008 17.0938 14.7008 17.1748C14.7008 17.2558 14.4807 17.2558 14.4807 17.2558C14.4073 17.2558 14.334 17.1748 14.2606 17.2558L14.1873 17.2558C14.1139 17.2558 14.1139 17.1748 14.1139 17.1748C14.2606 17.1748 14.334 17.1748 14.4807 17.1748C14.4073 17.0938 14.4807 17.0127 14.334 17.0127C14.334 17.0938 14.4074 17.0938 14.4074 17.0938C14.2606 17.0938 14.0405 17.0938 14.0405 17.0127C14.0405 17.0938 13.527 17.0127 13.7471 17.0938C13.6737 17.0938 13.6004 17.0938 13.6004 17.0938C13.6004 17.0127 13.6004 17.0127 13.6004 16.9317C13.4536 16.8507 13.3803 16.7697 13.3803 16.6886C13.3069 16.6886 13.3803 16.7697 13.3803 16.6886ZM13.3803 16.7697C13.3069 16.8507 13.2335 16.7697 13.2335 16.8507C13.0135 16.8507 13.0135 16.8507 12.8667 16.8507C12.9401 16.7697 13.1602 16.7697 13.3803 16.7697ZM13.0868 16.7697C12.8667 16.7697 13.1602 16.6886 13.2335 16.6886C13.2335 16.7697 13.1602 16.7697 13.0868 16.7697C13.0135 16.7697 12.8667 16.7697 12.7934 16.7697C12.7934 16.6886 12.9401 16.7697 13.0868 16.7697ZM13.3803 17.1748C13.3069 17.0938 13.3803 17.0938 13.3803 17.1748C13.4536 17.1748 13.6004 17.0938 13.7471 17.0938C13.7471 17.1748 13.7471 17.1748 13.8938 17.1748C13.8204 17.0938 14.1139 17.0938 14.1139 17.1748L14.1139 17.0938C14.1873 17.1748 13.8938 17.1748 14.0405 17.1748C14.0405 17.1748 14.1139 17.1748 14.1873 17.1748C14.1139 17.2558 14.1139 17.2558 14.1139 17.2558C14.0405 17.2558 14.1139 17.1748 13.9672 17.1748C13.9672 17.2558 13.7471 17.3368 13.6737 17.2558C13.6737 17.1748 13.8205 17.2558 13.6737 17.1748C13.6004 17.2558 13.3803 17.1748 13.3803 17.3368C13.1602 17.2558 13.1602 17.3368 12.9401 17.3368C12.8667 17.4179 12.9401 17.4179 12.9401 17.4179C12.8667 17.4179 12.7934 17.4179 12.7934 17.4179C12.72 17.3368 12.6467 17.2558 12.5733 17.1748C12.72 17.0938 13.1602 17.0938 13.3803 17.1748ZM10.1523 19.8486C10.1523 20.0106 9.93222 19.9296 9.71213 19.9296C9.78549 19.8486 10.0789 19.8486 10.1523 19.8486ZM8.90515 19.9296C8.90515 19.9296 8.83177 19.9296 8.75841 19.9296L8.75841 19.8486L8.68506 19.8486C8.75842 19.7675 8.97851 19.8486 8.90515 19.9296C9.19861 19.8486 9.49203 19.9296 9.78549 20.0106C9.5654 20.0106 9.27196 20.0916 8.9785 20.0916C8.9785 20.0916 9.12523 20.0916 9.05186 20.0106C8.9785 20.0106 8.90515 20.0106 8.90515 19.9296ZM8.31824 21.6311C8.24487 21.6311 8.17151 21.6311 8.09814 21.6311L8.31824 21.6311C8.3916 21.6311 8.3916 21.6311 8.31824 21.6311ZM8.39159 21.55L8.61168 21.469C8.68504 21.469 8.68506 21.469 8.68506 21.55C8.61169 21.55 8.46495 21.6311 8.39159 21.55ZM10.1523 21.8741C10.0789 21.7931 10.0056 21.7931 10.0789 21.8741C9.93222 21.7931 9.5654 21.8741 9.49203 21.7931C9.49203 21.7121 9.5654 21.7121 9.49203 21.6311C9.71213 21.55 10.0789 21.55 10.3724 21.55C10.3724 21.469 10.299 21.469 10.299 21.469C10.299 21.55 10.299 21.55 10.1523 21.55C10.0789 21.469 10.0789 21.469 10.1523 21.469C10.0789 21.469 9.93222 21.469 9.93222 21.469C10.0056 21.469 10.0789 21.469 10.0789 21.469C10.0789 21.388 9.71213 21.307 9.63876 21.388C9.71213 21.388 9.71213 21.388 9.78549 21.469C9.71213 21.469 9.71213 21.469 9.63876 21.55C9.49203 21.55 9.5654 21.469 9.49203 21.469C9.41867 21.55 9.41867 21.388 9.41867 21.388C9.41867 21.388 9.34532 21.469 9.27196 21.469C9.27196 21.469 9.27196 21.469 9.27196 21.388L9.5654 21.307C9.5654 21.307 9.5654 21.388 9.63876 21.307C10.0789 21.388 10.3724 21.469 10.5925 21.55C10.5191 21.55 10.4458 21.6311 10.3724 21.6311C10.5191 21.6311 10.7392 21.7121 10.8859 21.7931C10.8859 21.8741 10.8859 21.8741 10.8859 21.9552C10.8859 21.9552 10.8859 21.9552 10.8126 21.9552C10.8126 21.9552 10.8859 21.9552 10.8126 21.8741C10.4458 21.8741 10.6659 21.7121 10.299 21.7121C10.2257 21.7121 10.2257 21.7931 10.0789 21.8741C10.299 21.7931 10.2257 21.8741 10.1523 21.8741ZM9.71213 22.8464C9.63876 22.9274 9.63876 22.9274 9.5654 22.9274C9.5654 22.8464 9.63876 22.8464 9.71213 22.8464ZM9.5654 23.1705C9.71213 23.1705 9.63876 23.2515 9.78549 23.1705C9.85886 23.2515 9.49203 23.2515 9.5654 23.1705ZM12.0597 23.9808C11.9864 24.0618 11.8397 23.9808 11.8397 23.8997C12.0598 23.8997 11.9864 23.9808 12.0597 23.9808ZM17.3419 22.6844C17.3419 22.6034 17.4152 22.6034 17.4886 22.5223C17.4886 22.6034 17.4886 22.6034 17.4886 22.6844C17.4152 22.6844 17.4152 22.6844 17.3419 22.6844ZM97.6608 28.1129C97.6608 28.0319 97.8075 27.9509 97.8809 27.9509C98.1743 27.9509 98.4678 27.9509 98.7612 28.0319C98.8346 28.0319 98.8346 28.1129 98.8346 28.194C98.9079 28.194 98.9813 28.194 98.9813 28.275C99.0547 28.356 98.9813 28.356 98.9079 28.356C98.9079 28.275 98.9079 28.275 98.9079 28.194C98.8346 28.194 98.7612 28.194 98.6878 28.275C98.3944 28.437 98.1743 28.437 97.9542 28.275C97.8809 28.194 97.8075 28.194 97.6608 28.1129C97.6608 28.194 97.6608 28.194 97.6608 28.1129C97.5874 28.194 97.5874 28.194 97.514 28.275C97.4407 28.275 97.3673 28.275 97.4407 28.194C97.514 28.194 97.5874 28.194 97.6608 28.1129ZM99.2014 29.8955L99.2747 29.8955C99.3481 29.8955 99.4215 29.9765 99.4948 29.9765C99.5682 29.9765 99.5682 30.0575 99.5682 30.1385C99.4948 30.1385 99.4215 30.1385 99.3481 30.1385C99.2014 30.1385 99.0547 30.0575 99.128 29.9765C99.128 29.9765 99.128 29.8955 99.2014 29.8955ZM30.9874 26.3304C31.1341 26.3304 31.2074 26.3304 31.3542 26.4115L31.3542 26.4925C31.2808 26.4925 31.2075 26.4925 31.1341 26.4115C31.0607 26.3304 30.9874 26.3304 30.9874 26.3304ZM34.8022 31.2729C34.4354 31.3539 34.2153 31.1108 33.8485 31.0298C33.7752 31.0298 33.7751 30.9488 33.7751 30.9488C33.8485 30.9488 33.9219 30.9488 34.0686 30.8677C34.2153 30.8677 34.2887 30.7867 34.2887 30.7057C34.142 30.7057 34.0686 30.7057 33.9219 30.7057C33.8485 30.7057 33.8485 30.7057 33.8485 30.6247C33.8485 30.6247 33.9219 30.5437 33.9952 30.5437C34.142 30.5437 34.2887 30.5437 34.3621 30.5437C34.2887 30.4626 34.2153 30.3816 34.2153 30.3006C34.142 30.2196 34.142 30.1385 34.142 30.1385C34.3621 29.8955 34.6555 29.7334 35.0957 29.6524C35.1691 29.6524 35.2424 29.7334 35.3158 29.7334C35.0957 29.8955 34.949 29.9765 35.1691 30.2196C35.3891 30.3816 35.6092 30.4626 35.976 30.4626C36.0494 30.4626 36.0494 30.4626 36.1228 30.5437C36.1228 30.5437 36.1228 30.5437 36.1961 30.5437L36.1228 30.5437L36.0494 30.5437C35.5359 30.5437 34.949 30.5437 34.4354 30.5437C34.4354 30.6247 34.4354 30.6247 34.4354 30.7057C34.8022 30.7867 34.949 30.9488 35.1691 31.1108L35.2424 31.1918C35.0223 31.1918 34.8756 31.2729 34.8022 31.2729ZM36.9298 31.3539L36.8564 31.4349L36.783 31.4349C36.6363 31.2729 36.5629 31.1918 36.4162 31.1108C36.1961 30.9488 36.1228 31.1108 36.1228 31.1918L35.976 31.2729C35.976 31.1918 35.9027 31.1918 35.9027 31.1108C35.9027 30.7867 35.976 30.7867 36.6363 30.7867C37.0031 30.7867 37.0765 30.8677 37.0765 31.0298C37.0031 31.1108 36.9298 31.2729 36.9298 31.3539ZM39.2774 31.1918L39.204 31.1918C39.1306 31.1108 39.1306 31.1108 39.2774 31.1918C39.2774 31.1108 39.3507 31.1108 39.3507 31.1108L39.2774 31.1918ZM39.7909 30.1385C39.7175 30.2196 39.6442 30.3006 39.4241 30.3006C39.204 30.3006 38.9839 30.3006 38.8372 30.3006C38.3237 30.1385 37.8101 30.1385 37.2966 30.0575C37.2232 30.0575 37.1499 29.9765 37.1499 29.9765C37.1499 29.8955 37.1498 29.8144 37.3699 29.7334C37.59 29.7334 37.7368 29.6524 37.7368 29.5714C37.4433 29.4903 37.1498 29.2473 36.7097 29.4903C36.4896 29.5714 36.1228 29.4903 35.8293 29.4903C35.756 29.4903 35.6826 29.4093 35.6826 29.3283C35.6092 29.2473 35.756 29.1663 35.9027 29.1663C37.0031 29.1663 38.1036 29.2473 39.204 29.2473C39.4241 29.2473 39.5708 29.3283 39.5708 29.4903C39.5708 29.5714 39.7175 29.6524 39.7909 29.7334C39.8643 29.7334 40.011 29.8144 40.011 29.8955C40.011 29.9765 39.8643 30.0575 39.7909 30.1385ZM100.302 31.1108C100.155 31.1108 99.935 31.0298 99.7883 30.9488C99.5682 30.8677 99.3481 30.8677 99.0547 30.9488C98.9813 30.9488 98.8346 31.0298 98.8346 31.0298C98.1743 30.7057 97.3673 30.9488 96.6337 30.8677C96.1935 30.7867 95.68 30.8677 95.1664 30.7057C94.873 30.6247 94.3594 30.6247 93.9926 30.6247C93.1856 30.6247 41.5516 30.6247 40.8914 30.3816C40.6713 30.3006 40.3044 30.4626 40.1577 30.2196C40.4512 30.0575 40.7446 30.2196 41.0381 30.1385C41.2582 30.1385 41.5516 30.1385 41.7717 30.1385C42.1385 30.1385 42.5787 30.1385 42.9455 30.1385C43.239 30.1385 94.3594 30.1385 94.6529 30.0575C94.873 29.9765 95.1664 29.9765 95.3131 30.0575C95.5332 30.2196 95.7533 30.0575 95.9001 30.0575C96.1201 30.1385 96.3402 30.2196 96.5603 30.3006C96.7804 30.3816 97.0005 30.3816 97.294 30.3816C97.5874 30.4626 97.8809 30.2196 98.1009 30.3006C98.3944 30.4626 98.7612 30.3816 99.128 30.3816C99.4215 30.3816 99.7149 30.3816 100.008 30.3816C100.302 30.3816 100.522 30.4626 100.669 30.5437C100.742 30.6247 100.815 30.7057 100.815 30.7867C100.815 31.1108 100.522 31.1108 100.302 31.1108ZM105.437 32.6503C105.291 32.7313 105.144 32.8933 104.924 32.7313C104.777 32.6503 104.704 32.8123 104.557 32.7313C104.484 32.7313 104.337 32.6503 104.41 32.6503C104.41 32.5692 104.484 32.4882 104.557 32.4072C104.63 32.4072 104.85 32.4072 104.924 32.4072C105.07 32.4072 105.217 32.4072 105.364 32.4072C105.511 32.5692 105.511 32.5692 105.437 32.6503ZM106.978 32.1641L106.904 32.1641C106.831 32.1641 106.831 32.0831 106.978 32.0831C106.978 32.0021 106.978 32.0831 106.978 32.1641C106.978 32.0831 107.051 32.0831 106.978 32.1641ZM107.785 32.7313L107.711 32.6503L107.785 32.5692C107.932 32.6503 107.932 32.7313 107.785 32.7313ZM108.739 32.2451L108.665 32.1641L108.739 32.0831C108.885 32.1641 108.885 32.1641 108.739 32.2451ZM108.959 32.5692L108.885 32.4882C108.885 32.4882 108.959 32.4882 108.959 32.4072L109.032 32.4072C109.032 32.4882 109.032 32.5692 108.959 32.5692ZM110.573 32.0831C110.573 32.0831 110.499 32.0831 110.499 32.0021C110.499 32.0021 110.573 32.0021 110.573 31.9211L110.646 31.9211C110.573 32.0021 110.573 32.0021 110.573 32.0831ZM116.588 32.7313C116.515 32.8123 116.368 32.8123 116.222 32.8123C116.075 32.7313 116.001 32.7313 115.855 32.6503C115.928 32.6503 116.001 32.5692 116.075 32.5692C116.148 32.5692 116.222 32.5692 116.368 32.4882C116.442 32.4882 116.442 32.4882 116.515 32.4882C116.588 32.4882 116.662 32.4882 116.735 32.5692C116.735 32.6503 116.662 32.7313 116.588 32.7313ZM117.909 31.678C117.836 31.678 117.836 31.678 117.762 31.678C117.762 31.678 117.762 31.678 117.762 31.597C117.836 31.678 117.909 31.678 117.909 31.678ZM119.816 33.5415C119.816 33.5415 119.743 33.5415 119.743 33.4605C119.743 33.4605 119.816 33.4605 119.816 33.3795L119.89 33.3795C119.89 33.5415 119.816 33.5415 119.816 33.5415ZM121.064 32.8933L120.99 32.8123L121.064 32.7313C121.21 32.8123 121.21 32.8933 121.064 32.8933ZM123.411 32.5692C123.338 32.6503 123.338 32.6503 123.411 32.5692C123.338 32.7313 123.191 32.7313 122.971 32.7313C122.898 32.7313 122.898 32.7313 122.898 32.6503C122.824 32.6503 122.898 32.5692 122.971 32.5692C123.118 32.5692 123.191 32.6503 123.411 32.5692C123.338 32.5692 123.338 32.6503 123.411 32.5692L123.484 32.4882L123.558 32.4882C123.631 32.5692 123.484 32.5692 123.411 32.5692ZM127.226 33.4605C126.933 33.4605 126.566 33.3795 126.419 33.5415C126.126 33.7036 125.905 33.3795 125.685 33.5415C125.465 33.6225 125.098 33.6225 124.878 33.7036C124.585 33.7846 124.291 33.7846 123.998 33.7846C123.851 33.7846 123.705 33.7036 123.705 33.6225C123.631 33.4605 123.705 33.3795 123.851 33.3795C124.071 33.3795 124.365 33.3795 124.585 33.3795C124.658 33.3795 124.658 33.2984 124.658 33.2984L124.585 33.2174C124.438 33.2174 124.291 33.2174 124.145 33.2174C124.071 33.2174 124.071 33.2174 123.998 33.1364C123.925 33.1364 123.998 33.0554 124.145 33.0554C124.512 33.0554 124.952 33.0554 125.319 32.8933C125.539 32.8123 125.979 32.8123 126.199 32.8933C126.566 33.0554 127.153 33.0554 127.226 33.4605ZM156.424 25.0341C156.424 25.0341 156.498 25.0341 156.498 25.1151C156.424 25.1151 156.424 25.1151 156.351 25.1961L156.278 25.1151C156.351 25.0341 156.424 25.0341 156.424 25.0341ZM156.791 21.7121C156.791 21.7931 156.718 21.7931 156.718 21.8741C156.645 21.8741 156.571 21.8741 156.424 21.8741L156.351 21.7931L156.278 21.7931C156.424 21.7121 156.571 21.6311 156.718 21.55C156.718 21.6311 156.791 21.7121 156.791 21.7121ZM157.672 18.7952C157.598 18.8763 157.525 19.0383 157.452 19.0383C157.378 19.1193 157.231 19.2814 157.085 19.2814C156.938 19.3624 156.865 19.2814 156.791 19.2004C156.865 19.0383 156.938 18.9573 157.011 18.7952C157.011 18.7142 157.085 18.6332 157.158 18.5522C157.231 18.5522 157.305 18.5522 157.305 18.5522C157.452 18.7142 157.598 18.7142 157.672 18.7952ZM154.444 13.3667C154.517 13.3667 154.517 13.4477 154.517 13.4477C154.444 13.4477 154.444 13.5287 154.37 13.5287C154.297 13.5287 154.297 13.4477 154.224 13.4477C154.297 13.4477 154.37 13.3667 154.444 13.3667ZM152.683 8.01912C152.756 8.10015 152.83 8.10014 152.903 8.18117C152.83 8.26219 152.756 8.34321 152.61 8.34321C152.536 8.34321 152.463 8.26219 152.389 8.18117C152.536 8.10014 152.61 8.10015 152.683 8.01912ZM151.949 8.42424L152.023 8.50526C151.949 8.50526 151.876 8.50526 151.876 8.50526C151.803 8.50526 151.876 8.50526 151.949 8.42424ZM143.733 3.07669L143.806 3.15771C143.806 3.15771 143.806 3.23873 143.733 3.23873L143.659 3.23873C143.586 3.23873 143.659 3.15771 143.733 3.07669ZM143.072 1.69929C143.146 1.61826 143.219 1.61826 143.292 1.78031L143.219 1.86133C143.219 1.86133 143.146 1.86134 143.146 1.78031C142.999 1.78031 142.999 1.69929 143.072 1.69929ZM141.678 9.96368C141.752 9.96368 141.825 9.96368 141.899 10.0447C141.752 10.0447 141.678 9.96368 141.532 9.96368C141.605 9.96368 141.605 9.96368 141.678 9.96368ZM141.165 1.29417C141.238 1.29417 141.238 1.3752 141.312 1.3752L141.238 1.45622L141.165 1.3752L141.165 1.29417ZM138.744 8.42424L138.817 8.50526L138.744 8.58629C138.671 8.58629 138.671 8.50526 138.671 8.50526C138.671 8.50526 138.671 8.50526 138.744 8.42424ZM135.223 8.50526C135.296 8.50526 135.296 8.42424 135.369 8.42424C135.736 8.34321 136.103 8.42424 136.25 8.91038C136.25 8.91038 136.25 8.9914 136.25 9.07243C136.25 9.15345 136.176 9.15345 136.103 9.15345C135.883 9.07243 135.663 8.91038 135.516 8.82936C135.516 8.74833 135.443 8.66731 135.443 8.58629C135.369 8.58629 135.296 8.66731 135.223 8.66731C135.223 8.66731 135.223 8.66731 135.149 8.66731C135.223 8.58629 135.223 8.58629 135.223 8.50526ZM134.342 8.42424L134.416 8.50526C134.416 8.50526 134.416 8.58629 134.342 8.58629L134.269 8.58629C134.195 8.58629 134.195 8.50526 134.342 8.42424ZM17.7087 13.2857L17.782 13.3667C17.782 13.4477 17.782 13.5287 17.782 13.6098C17.6353 13.6098 17.4886 13.6098 17.3419 13.6098L17.3419 13.5287C17.4152 13.4477 17.5619 13.3667 17.7087 13.2857Z" fill="#155B11"/>
</svg>
