<svg width="148" height="35" viewBox="0 0 148 35" fill="none" xmlns="http://www.w3.org/2000/svg">
<path d="M10.8047 6.56071C10.2912 7.53299 7.28326 6.8848 7.57672 7.85709C7.65008 8.18118 7.79681 8.50527 8.0169 8.74834C7.87018 9.15346 8.8239 9.55858 9.99771 9.80165C9.85098 10.0447 9.92433 10.2878 10.658 10.5309C11.1715 10.5309 11.465 10.4498 11.6851 10.3688C11.9051 10.2878 12.0519 10.2068 12.1252 10.1257C12.6388 10.2068 13.0789 10.2068 13.3724 10.2068C12.8589 11.179 9.92434 10.6929 10.2178 11.5842C10.3645 11.9893 10.5112 12.3944 10.8047 12.6375L12.272 12.0703C16.0135 12.3944 10.7313 13.2857 13.2257 14.1769C13.7392 14.0959 14.0327 14.0959 14.2527 13.9338C15.4999 13.4477 15.1331 13.2046 14.3995 12.7185C17.8475 12.5564 16.7471 15.0682 18.3611 15.2302C18.3611 15.3112 18.141 15.3112 17.9209 15.3112C17.9943 15.3923 17.7008 15.3923 17.6274 15.3923C17.6274 15.4733 17.5541 15.4733 17.4074 15.4733C17.2606 15.3923 17.4807 15.3923 17.4807 15.3112C17.334 15.3112 17.1139 15.3112 17.1139 15.3923C17.334 15.3923 16.8938 15.4733 17.1139 15.5543C17.1873 15.5543 17.1139 15.4733 17.2606 15.4733C17.2606 15.5543 17.1873 15.5543 17.1139 15.6353C16.9672 15.6353 16.9672 15.4733 16.8938 15.4733C16.8204 15.4733 16.6004 15.4733 16.4536 15.5543C16.6737 15.4733 16.9672 15.5543 16.8205 15.6353C16.6737 15.6353 16.7471 15.5543 16.6737 15.5543C16.6004 15.5543 16.3069 15.6353 16.3803 15.4733C16.2335 15.5543 16.2335 15.5543 16.3069 15.6353C16.0868 15.6353 16.1602 15.5543 16.2335 15.5543C16.0868 15.5543 16.1602 15.5543 16.0868 15.5543C16.0135 15.6353 16.1602 15.7164 16.0868 15.7164C16.0135 15.7164 16.0135 15.6353 15.9401 15.6353C15.7934 15.6353 15.72 15.7164 15.4999 15.7164C15.4265 15.5543 15.2065 15.7164 15.0597 15.6353C15.0597 15.7164 15.1331 15.7164 15.0597 15.7164C14.9864 15.7164 14.9864 15.6353 14.913 15.6353C14.913 15.7164 14.913 15.7164 14.8397 15.7164C14.8397 15.7164 14.8397 15.7164 14.7663 15.7164C14.7663 15.7164 14.8397 15.7164 14.8397 15.6353C14.3261 15.7164 14.2527 15.7164 13.8859 15.5543C13.8126 15.6353 13.5925 15.6353 13.4458 15.6353C13.5191 15.7164 13.3724 15.7164 13.3724 15.7164C13.5925 15.7164 13.4458 15.7974 13.4458 15.7974C13.5925 15.7974 13.6658 15.7974 13.8126 15.7974C13.8126 15.7164 13.9593 15.7164 14.0327 15.7164C14.0327 15.7974 14.1794 15.7974 14.2527 15.7974C14.2527 15.7164 14.5462 15.7164 14.5462 15.7164C14.5462 15.7974 14.2527 15.7164 14.3261 15.7974C14.5462 15.7164 14.4728 15.7974 14.3995 15.8784C14.913 15.8784 14.913 15.8784 15.3532 15.7974C15.3532 15.8784 15.2798 15.8784 15.3532 15.9594C15.4266 15.7974 15.72 15.9594 15.9401 15.9594C15.8667 15.9594 15.7934 15.9594 15.7934 15.9594C15.8667 16.0405 15.9401 15.9594 15.9401 16.0405C15.8667 16.0405 15.9401 16.0405 16.0135 16.1215C16.0868 16.0405 16.0135 16.0405 16.0868 15.9594C16.4536 15.9594 17.0405 15.9594 17.1873 16.2025C16.9672 16.1215 16.8204 16.2835 16.6004 16.2025C16.6004 16.2835 16.527 16.2835 16.6004 16.2835C16.8938 16.2835 17.0405 16.2835 17.334 16.3645C17.2606 16.3645 17.334 16.4456 17.4074 16.4456C17.4074 16.4456 17.4073 16.3645 17.4807 16.3645C17.4073 16.3645 17.4073 16.4456 17.5541 16.4456C17.5541 16.3645 17.7008 16.3645 17.7742 16.4456C17.5541 16.4456 17.7742 16.6076 17.6274 16.6076C17.4073 16.6076 17.4807 16.4456 17.4074 16.5266C17.4807 16.5266 17.4073 16.6076 17.4807 16.6076C17.4073 16.6076 17.2606 16.6886 17.1873 16.6076C17.2606 16.5266 17.1873 16.4456 17.1139 16.4456C17.1873 16.5266 17.1873 16.6076 17.1139 16.6076C16.8938 16.6076 16.6737 16.6886 16.6737 16.5266C16.7471 16.5266 16.7471 16.4456 16.7471 16.4456C16.6004 16.4456 16.7471 16.5266 16.6004 16.5266C16.527 16.5266 16.4536 16.5266 16.4536 16.5266C16.527 16.6076 16.6004 16.4456 16.6737 16.5266C16.527 16.5266 16.527 16.6076 16.3803 16.5266C16.3803 16.4456 16.3069 16.4456 16.3069 16.3645C16.4536 16.3645 16.3069 16.2835 16.3069 16.2835C16.3069 16.2835 16.0135 16.2835 16.1602 16.3645L16.2335 16.3645C16.1602 16.3645 16.2335 16.4456 16.1602 16.4456C16.0868 16.4456 16.0135 16.4456 15.9401 16.3645C15.9401 16.3645 16.0868 16.3645 16.0868 16.2835C15.9401 16.2025 15.72 16.4456 15.6466 16.2835C15.72 16.2835 15.8667 16.2835 15.8667 16.2835C15.72 16.2025 15.5733 16.2835 15.4265 16.2025C15.4265 16.2835 15.4266 16.2835 15.3532 16.2835C15.3532 16.2025 15.2065 16.2025 15.0597 16.2835C14.9864 16.2025 15.0598 16.2025 14.9864 16.2025C14.9864 16.2835 14.7663 16.2835 14.7663 16.2835C14.8397 16.2835 14.8397 16.2835 14.8397 16.3645C14.7663 16.4456 14.7663 16.3645 14.6196 16.3645C14.6196 16.4456 14.8397 16.3645 14.8397 16.4456C14.6196 16.4456 14.8397 16.5266 14.8397 16.5266C14.7663 16.6076 14.6196 16.5266 14.5462 16.4456C14.6196 16.5266 14.4728 16.6076 14.6196 16.6076C14.6929 16.5266 14.7663 16.6076 14.913 16.5266C14.913 16.6076 14.913 16.6076 14.9864 16.6076C15.0598 16.5266 14.913 16.5266 15.0597 16.5266C15.4266 16.5266 15.2065 16.7697 14.913 16.7697C15.0597 16.8507 14.9864 16.7697 15.1331 16.7697C14.9864 16.8507 15.2065 16.8507 15.2798 16.8507C15.2065 16.9317 14.8397 16.8507 14.8397 16.9317C15.1331 16.9317 15.3532 16.9317 15.4999 16.9317C15.4265 16.9317 15.4266 17.0127 15.3532 17.0127C14.9864 17.0127 14.5462 17.0127 14.0327 17.0127C13.9593 17.0127 13.9593 17.0127 13.9593 17.0127C13.8859 17.0127 13.7392 17.0938 13.7392 17.0127C13.9593 17.0127 13.6659 17.0127 13.7392 16.9317C13.6659 16.9317 13.5925 16.9317 13.5925 16.9317C13.8859 16.9317 13.3724 17.0127 13.5925 17.0127C13.5925 16.9317 13.7392 17.0127 13.7392 17.0127C13.5191 17.0127 13.4458 16.9317 13.2257 16.9317C13.2257 17.0127 13.2257 17.0127 13.1523 17.0127C12.9322 17.0127 12.6388 17.0127 12.4187 16.9317C12.4187 16.9317 12.4187 16.9317 12.3453 16.9317C11.9785 16.9317 11.5383 16.8507 11.1715 16.8507C11.2449 16.8507 11.3182 16.8507 11.2449 16.7697C11.1715 16.7697 11.0981 16.7697 11.0248 16.8507C10.8781 16.8507 10.7313 16.8507 10.658 16.7697C10.4379 16.7697 10.2178 16.8507 9.99771 16.8507C9.99771 16.7697 9.99769 16.7697 9.92433 16.7697C9.85097 16.7697 9.77762 16.7697 9.77762 16.7697C9.85097 16.7697 9.85097 16.8507 9.92433 16.8507C9.63089 16.9317 9.33743 16.9317 9.11734 17.0127C9.04397 17.0127 9.04397 17.0127 8.97063 17.0127C8.45708 17.1748 8.237 17.3368 8.16363 17.4989C8.09027 17.4989 8.09027 17.4989 8.01691 17.4989L7.94354 17.5799C8.01691 17.5799 8.09025 17.5799 8.09025 17.5799C8.01689 17.7419 8.16362 17.904 8.45708 18.066C8.09027 18.066 7.72345 18.066 7.42999 18.066C7.42999 17.985 7.35663 17.985 7.42999 17.985C7.28326 18.066 7.06319 18.066 6.91646 18.066C6.91646 18.1471 6.84309 18.1471 6.69636 18.1471C6.69636 18.1471 6.76973 18.1471 6.69636 18.066C6.62301 18.066 6.62301 18.066 6.54965 18.066C6.54965 18.066 6.54965 18.066 6.54965 17.985C6.40292 17.985 6.32956 17.904 6.32956 17.985C6.40292 17.904 6.18283 17.985 6.25618 17.904C6.10947 17.985 6.03612 17.985 5.81602 17.985C5.81602 18.066 5.81602 18.066 5.74266 18.066C5.81602 17.985 5.4492 17.985 5.37584 18.066L5.37584 17.985C5.08238 17.985 4.86229 17.985 4.64221 17.985C4.71556 18.066 4.42212 18.066 4.2754 18.066C4.2754 18.066 4.27539 17.985 4.34875 17.985C4.27539 18.066 4.56885 18.066 4.49548 17.985C4.27539 17.985 4.34877 17.904 4.2754 17.904C4.20204 18.066 4.12868 17.985 4.20204 18.1471C4.34877 18.1471 4.71556 18.066 4.64221 18.1471C4.64221 18.066 4.56885 18.1471 4.49548 18.1471C4.34875 18.1471 4.34877 18.1471 4.12868 18.1471C4.12868 18.2281 4.05531 18.2281 4.05531 18.2281C4.12868 18.2281 4.12868 18.3091 4.20204 18.3091C4.20204 18.1471 4.56885 18.3091 4.78892 18.2281C4.78892 18.1471 5.37584 18.066 5.59593 18.1471C5.4492 18.1471 5.30247 18.1471 5.22911 18.1471C5.30247 18.1471 5.22912 18.2281 5.30249 18.2281C5.37584 18.2281 5.59593 18.2281 5.52257 18.1471C5.59593 18.2281 5.74266 18.1471 5.81602 18.1471C5.74266 18.066 5.96274 17.985 5.96274 18.066L5.88939 18.066C6.32956 18.2281 6.84311 17.985 7.28328 18.1471C7.35664 18.1471 7.20991 18.066 7.28328 18.066C7.50337 18.1471 7.87018 17.985 8.16363 18.1471L8.16363 18.066C8.16363 18.066 8.31035 18.066 8.45708 18.066C8.53044 18.1471 8.6038 18.1471 8.67717 18.2281C8.53044 18.2281 8.38371 18.1471 8.31035 18.2281C8.31035 18.3091 8.6038 18.3091 8.67717 18.2281C9.85098 18.7952 12.1252 19.3624 13.299 19.4434L13.2257 19.5245C13.1523 19.5245 13.0789 19.5245 13.0056 19.5245C13.0056 19.6055 13.1523 19.5245 13.1523 19.6055C13.1523 19.6055 13.1523 19.6055 13.0789 19.6865C13.0056 19.6865 12.9322 19.6865 12.8589 19.6865C12.8589 19.6055 12.8589 19.6055 12.7855 19.6055C12.8589 19.8486 12.0519 19.6865 11.8318 19.8486L11.9052 19.7675C11.8318 19.7675 11.8318 19.7675 11.7584 19.7675C11.685 19.7675 11.8318 19.8486 11.7584 19.8486C11.6117 19.8486 11.6851 19.8486 11.6851 19.7675C11.5383 19.7675 11.6117 19.8486 11.465 19.8486C11.465 19.6865 11.2449 19.8486 11.1715 19.7675C11.0981 19.8486 10.9514 19.7675 10.8047 19.7675C10.7313 19.8486 11.0248 19.7675 11.0248 19.8486C10.9514 19.8486 11.0248 19.9296 10.9514 19.9296C11.0248 20.0106 11.0248 20.0916 11.1715 20.0916C11.1715 19.9296 11.3182 20.0916 11.3916 20.0106C11.3916 20.0106 11.3916 20.0106 11.3916 20.0916C10.5846 20.0916 9.85097 20.0916 9.92433 20.6588C9.92433 20.6588 9.92433 20.6588 9.92433 20.7398C9.85097 20.7398 9.85097 20.7398 9.77762 20.7398C9.77762 20.8208 9.85097 20.8208 9.77762 20.8208C9.85097 20.8208 9.85097 20.8208 9.92433 20.8208L9.92433 20.9019C9.85097 20.9019 9.77762 20.9019 9.77762 20.9829C9.85097 20.9829 9.85097 20.9829 9.92433 20.9829C9.99769 21.1449 10.0711 21.307 10.1444 21.469C10.1444 21.469 10.0711 21.469 10.0711 21.388C9.99771 21.388 9.92435 21.388 9.85098 21.469C9.99771 21.469 9.99769 21.55 10.1444 21.55C10.2178 21.6311 10.2912 21.7121 10.3645 21.7931C9.99771 21.7931 9.55751 21.8741 9.1907 21.7931C9.26407 21.7931 9.1907 21.8741 9.26407 21.8741C9.4108 21.7931 9.63089 21.7931 9.77762 21.8741C10.0711 21.7931 10.5112 21.7931 10.8047 21.7931C10.8047 21.9552 11.2449 21.9552 11.1715 22.0362C11.3182 22.0362 11.465 21.9552 11.5383 22.0362C11.3916 22.0362 11.465 22.1172 11.3182 22.1172C11.3916 22.1172 11.5383 22.1982 11.6851 22.1172C11.6851 22.1982 11.6117 22.1982 11.7584 22.1982C12.0519 22.1982 12.492 22.1172 12.7855 22.2793C12.7121 22.2793 12.6388 22.3603 12.6388 22.3603C12.5654 22.3603 12.4187 22.3603 12.3453 22.3603C12.492 22.3603 12.1252 22.3603 12.1986 22.4413C12.3453 22.4413 12.3453 22.6034 12.1986 22.6034C12.1252 22.6034 12.0519 22.5223 12.0519 22.4413C11.9785 22.4413 11.8318 22.4413 11.8318 22.5223C12.0519 22.4413 11.9051 22.6034 11.9785 22.6034C11.9785 22.6034 12.0519 22.5223 12.1252 22.5223C12.1252 22.6034 12.1986 22.6034 12.1986 22.6034C12.1252 22.6844 12.0519 22.6844 12.0519 22.7654C11.9785 22.8464 11.8318 22.8464 11.7584 22.8464C11.7584 22.8464 11.7584 22.9274 11.8318 22.9274C11.465 23.0085 11.0981 23.0895 10.8781 23.0085C10.7313 23.0085 10.5112 23.0085 10.4379 23.0895C10.5846 23.0895 10.5846 23.1705 10.7313 23.1705C10.5846 23.1705 10.5112 23.2515 10.4379 23.3326C10.3645 23.2515 10.1444 23.3326 10.0711 23.2515C9.99771 23.1705 10.2912 23.2515 10.2178 23.1705C9.77762 23.0085 9.04399 23.1705 8.53044 23.0895C8.6038 23.0085 8.89726 23.1705 8.97063 23.0085C8.8239 22.9274 8.6038 23.0085 8.38373 22.9274C8.31036 22.8464 8.45709 22.8464 8.60382 22.8464C8.60382 23.0085 9.1907 22.8464 9.04397 23.0895C9.26407 23.0085 9.48416 23.0085 9.63089 23.0895C9.70425 23.0895 9.63089 23.0085 9.77762 23.0085C9.77762 23.0895 9.70425 23.0895 9.70425 23.0895C9.92435 23.0085 10.7313 23.0085 10.9514 22.9274C10.9514 23.0085 11.0248 23.0085 11.0248 23.0085C11.0248 22.9274 11.1715 22.9274 11.1715 22.9274C11.0248 22.9274 11.0248 22.8464 10.9514 22.8464C10.9514 22.8464 10.7313 22.9274 10.7313 22.8464C10.7313 22.7654 10.8781 22.8464 10.8781 22.7654C10.658 22.7654 10.4379 22.9274 10.3645 22.8464C10.5112 22.8464 10.4379 22.7654 10.5112 22.7654C10.7313 22.8464 11.0248 22.6844 11.0981 22.6844C10.8047 22.6844 10.8781 22.6034 10.7313 22.5223C10.8781 22.5223 10.8047 22.6034 10.9514 22.5223C10.9514 22.3603 10.8047 22.3603 10.7313 22.2793C10.8781 22.2793 10.8047 22.1982 10.8781 22.1982C10.7313 22.1982 10.5112 22.1982 10.658 22.1172C10.5112 22.1172 10.3645 22.1982 10.2912 22.1172C10.3645 22.0362 10.658 22.1172 10.5846 22.0362C9.92433 22.3603 9.48416 21.7121 8.8239 21.9552C8.89726 21.8741 8.75053 21.8741 8.60382 21.7931C8.67718 21.7121 8.75053 21.6311 8.89726 21.55C8.97063 21.55 8.97061 21.55 9.11734 21.55C9.26407 21.55 9.11734 21.6311 9.26407 21.6311C9.26407 21.6311 9.26407 21.55 9.1907 21.55C9.41078 21.55 9.4108 21.55 9.77762 21.55C9.85097 21.469 9.92435 21.469 9.85098 21.388C9.55752 21.469 9.41078 21.388 9.1907 21.469C9.26407 21.388 9.04397 21.226 8.97063 21.388C9.04397 21.388 9.11734 21.388 9.11734 21.388L9.11734 21.469C8.97061 21.469 8.8239 21.55 8.8239 21.469C8.89726 21.469 8.97063 21.469 8.97063 21.469C8.8239 21.469 8.97063 21.388 8.8239 21.388C8.75053 21.469 8.38371 21.469 8.31035 21.388L8.31035 21.307C8.53044 21.307 8.6038 21.1449 8.53044 21.226C8.237 21.1449 8.09025 21.388 8.09025 21.469C7.94354 21.469 8.01691 21.388 7.94354 21.388C7.94354 21.469 7.72345 21.469 7.65008 21.55C7.72345 21.55 7.79681 21.6311 7.72345 21.6311C7.42999 21.6311 6.98982 21.6311 6.76974 21.55C6.76974 21.469 6.91647 21.469 6.76974 21.469C6.76974 21.6311 6.40292 21.469 6.32956 21.55C6.32956 21.6311 6.47627 21.55 6.47627 21.6311C6.25619 21.6311 6.32956 21.7121 6.18283 21.7931C5.96274 21.7121 5.4492 21.7931 5.30249 21.7931C5.37584 21.8741 5.52257 21.7931 5.59593 21.8741C5.52257 21.9552 5.59593 22.0362 5.52257 22.0362C5.4492 22.0362 5.22911 22.0362 5.15575 22.1172C5.30247 22.1172 5.37584 22.1982 5.22911 22.1982C5.59593 22.1982 5.74266 22.1172 6.18283 22.1172C6.18283 22.0362 6.18283 22.0362 6.25618 22.0362L6.47627 22.0362C6.47627 22.1172 6.25618 22.0362 6.25618 22.1982C6.40291 22.1982 6.76973 22.1172 6.69636 22.1982C6.76973 22.1982 6.84311 22.1982 6.91646 22.1982C6.84311 22.0362 7.43001 22.1172 7.28328 22.1982C7.50337 22.1982 7.79681 22.1982 7.79681 22.2793C7.50336 22.2793 7.35664 22.2793 7.13655 22.3603C7.20991 22.3603 7.20991 22.4413 7.35664 22.3603C7.28328 22.2793 7.43001 22.2793 7.50336 22.2793C7.50336 22.3603 7.72345 22.2793 7.72345 22.3603C7.72345 22.4413 7.79681 22.4413 7.79681 22.4413C7.57672 22.5223 7.35664 22.4413 7.20991 22.4413C7.20991 22.5223 7.43001 22.4413 7.50336 22.5223C7.50336 22.5223 7.35664 22.5223 7.35664 22.6034C7.43001 22.6844 7.65008 22.6034 7.72345 22.6034C7.65008 22.6034 7.42999 22.6034 7.42999 22.6844C7.28326 22.6844 7.13655 22.6034 7.06319 22.6034C7.13655 22.6844 6.84309 22.6844 6.84309 22.8464C7.06319 22.7654 7.28328 22.6034 7.50336 22.7654C7.72345 22.7654 8.01691 22.6844 8.16363 22.7654C8.09027 22.7654 7.94354 22.8464 7.94354 22.9274C8.01691 23.0085 8.237 22.8464 8.38373 22.9274C8.31036 22.9274 8.31035 22.9274 8.31035 23.0085C8.45708 23.0085 8.45708 22.9274 8.53044 22.9274C8.6038 22.9274 8.75053 23.0085 8.60382 23.0895C8.09027 23.0085 7.65008 23.0895 7.06319 23.0085C7.35664 22.9274 7.79681 23.0895 7.87018 22.9274C7.65008 23.0085 7.57672 22.8464 7.50336 23.0085C7.35664 23.0085 7.28328 22.8464 7.13655 22.9274C7.28328 22.9274 7.20991 23.0085 7.13655 23.0085C6.98984 23.0085 6.98982 23.0085 6.84309 23.0085C6.84309 23.0895 6.47627 23.0895 6.47627 23.1705C6.84309 23.0085 7.35664 23.1705 7.65008 23.2515C7.79681 23.2515 7.57672 23.1705 7.65008 23.1705C7.72345 23.1705 7.72345 23.1705 7.79681 23.2515C7.72345 23.3326 7.87018 23.3326 7.94354 23.4136C7.72345 23.4946 7.79681 23.3326 7.65008 23.3326C7.57672 23.3326 7.43001 23.4136 7.35664 23.4136C7.35664 23.4136 7.42999 23.4136 7.42999 23.3326C7.35663 23.3326 7.28328 23.3326 7.28328 23.3326C7.28328 23.4136 7.28328 23.4136 7.20991 23.4136C7.13655 23.3326 7.06319 23.2515 6.84309 23.2515C6.84309 23.2515 6.91646 23.3326 6.84309 23.3326C6.69636 23.2515 6.47629 23.3326 6.32956 23.2515C6.25619 23.3326 6.10947 23.2515 6.0361 23.3326C6.0361 23.2515 5.6693 23.3326 5.6693 23.2515C5.6693 23.2515 5.6693 23.2515 5.59593 23.2515C5.59593 23.4946 6.18283 23.3326 6.32956 23.4136C6.10947 23.4136 6.18283 23.4946 6.32956 23.4946C6.0361 23.6567 5.59593 23.3326 5.59593 23.4946C5.52257 23.4946 5.22911 23.4136 5.22911 23.4136C5.4492 23.4136 5.30249 23.4136 5.30249 23.4946C5.37584 23.5756 5.52258 23.4136 5.6693 23.4946C5.6693 23.4946 5.37584 23.4946 5.52257 23.5756C5.6693 23.5756 5.6693 23.5756 5.81602 23.4946C5.88939 23.4946 5.88937 23.5756 5.96274 23.5756C6.0361 23.5756 5.96274 23.4946 6.10947 23.4946C6.18283 23.7377 6.69636 23.5756 6.98982 23.6567C6.40292 23.7377 5.81602 23.7377 5.4492 23.7377C5.52257 23.7377 5.52257 23.7377 5.4492 23.8187C5.37584 23.8187 5.37584 23.8187 5.30249 23.8187C5.30249 23.7377 5.30247 23.7377 5.22911 23.7377C5.0824 23.8187 5.00902 23.6567 4.8623 23.6567C4.56885 23.7377 3.76186 23.7377 3.46841 23.6567C3.24832 23.6567 2.51469 23.7377 2.2946 23.5756L2.2946 23.6567C2.07451 23.6567 1.41424 23.5756 1.41424 23.5756C1.41424 23.5756 1.48761 23.6567 1.41424 23.6567C1.34088 23.6567 1.34088 23.5756 1.19417 23.5756C0.974074 23.7377 0.680617 23.4946 0.460525 23.5756C0.533889 23.6567 0.680617 23.5756 0.607253 23.5756C0.680617 23.5756 0.753982 23.5756 0.827346 23.5756C0.680617 23.5756 0.827346 23.5756 0.827346 23.6567C0.753982 23.6567 0.753982 23.6567 0.680617 23.6567C0.680617 23.8187 1.1208 23.6567 1.34088 23.6567C1.56097 23.6567 1.48761 23.8187 1.70769 23.8187C1.70769 23.7377 1.63434 23.7377 1.63434 23.7377C1.78107 23.7377 2.07451 23.6567 2.14787 23.7377C2.00114 23.7377 2.14787 23.8187 2.22124 23.8187C2.2946 23.7377 2.36796 23.8187 2.51469 23.7377C2.44133 23.8187 2.73477 23.7377 2.58804 23.8997C2.80814 23.8997 2.66142 23.8187 2.80814 23.8187C2.95486 23.8997 2.80814 23.8187 2.95485 23.8187C2.95485 23.8997 3.10159 23.8187 3.02823 23.8997C3.24831 23.8997 3.39503 23.8187 3.54176 23.8997C3.61513 23.8997 3.61513 23.8187 3.68849 23.8187C3.83522 23.8187 4.05531 23.8997 4.2754 23.8187C4.27541 23.9808 4.93567 23.9808 5.0824 24.0618L5.0824 23.9808C5.22911 23.9808 5.15576 24.1428 5.30249 24.0618C5.30249 23.9808 5.15575 24.0618 5.15575 23.9808C5.37584 23.9808 5.74264 23.8997 5.96274 23.8997C5.81601 23.8997 5.74266 23.9808 5.81602 23.9808C5.88939 23.9808 5.96274 23.8997 6.10947 23.8997C6.0361 23.8997 6.10947 23.9808 6.0361 23.9808C6.25619 23.9808 6.47629 23.8997 6.69636 23.9808C6.69636 23.9808 6.623 23.9808 6.623 24.0618C6.32956 24.0618 5.81602 23.9808 5.74266 24.1428C6.0361 24.0618 6.40292 24.2238 6.76974 24.1428C6.76974 24.3048 7.35663 24.0618 7.42999 24.2238C7.87018 24.1428 8.6038 24.1428 8.97063 24.2238C8.97063 24.2238 8.89726 24.2238 8.97063 24.3048C9.04397 24.3048 9.1907 24.3048 9.1907 24.2238C9.11734 24.2238 9.11734 24.2238 9.11734 24.1428C9.4108 24.1428 9.48416 24.1428 9.63089 24.1428L9.55752 24.2238C9.7776 24.1428 9.85098 24.3048 10.0711 24.2238C10.0711 24.1428 9.92435 24.1428 10.0711 24.1428C10.0711 24.2238 10.2178 24.2238 10.2178 24.2238C10.2912 24.2238 10.1444 24.1428 10.2912 24.1428C10.5846 24.1428 10.5846 24.1428 10.8047 24.0618C10.8047 24.1428 11.0981 24.1428 10.9514 24.2238C11.2449 24.2238 11.2449 24.3048 11.3916 24.1428C11.3182 24.2238 11.4649 24.2238 11.3916 24.3048C11.4649 24.3048 11.465 24.3048 11.5383 24.3048C11.5383 24.2238 11.3916 24.2238 11.5383 24.1428C11.9785 24.1428 12.5654 24.2238 12.8589 24.0618L12.8589 24.1428C12.9322 24.1428 13.0056 24.1428 13.0789 24.1428C13.0789 24.0618 13.0789 24.0618 13.2257 24.0618C13.1523 24.1428 13.299 24.0618 13.299 24.2238C13.1523 24.3048 12.9322 24.2238 12.7121 24.2238C12.6388 24.3859 12.0519 24.3048 11.9785 24.2238C12.1986 24.3859 12.7855 24.3048 12.9322 24.3048C13.2257 24.3859 13.4458 24.3859 13.7392 24.3859C13.6659 24.3048 13.8126 24.3048 13.8859 24.3048C13.8859 24.2238 13.8126 24.2238 13.8126 24.1428C13.6658 24.1428 13.7392 24.2238 13.5925 24.2238C13.6658 24.1428 13.3724 24.1428 13.4458 24.0618C13.6658 24.0618 13.9593 24.1428 13.9593 24.0618C14.0327 24.0618 14.106 24.0618 14.1794 24.0618C14.106 24.0618 14.1794 24.1428 14.106 24.1428C14.3261 24.1428 14.0327 24.0618 14.3261 23.9808C14.3995 23.9808 14.3995 24.0618 14.4728 23.9808C14.6196 24.0618 14.3995 24.1428 14.4728 24.1428C14.4728 24.1428 14.7663 24.0618 14.7663 24.1428C14.7663 24.2238 14.7663 24.2238 14.6929 24.2238C14.7663 24.1428 14.4728 24.2238 14.3261 24.2238C14.2527 24.2238 14.2527 24.1428 14.1794 24.1428C14.1794 24.2238 13.9593 24.1428 13.8859 24.1428C13.9593 24.3048 14.1794 24.2238 14.2527 24.2238C14.2527 24.3048 14.106 24.2238 14.0327 24.3048C14.1794 24.3048 14.3995 24.2238 14.4728 24.3048C14.4728 24.2238 14.7663 24.3048 14.6929 24.2238C14.5462 24.2238 14.4728 24.3048 14.4728 24.2238C14.6196 24.1428 14.7663 24.2238 14.913 24.2238C14.9864 24.1428 14.7663 24.2238 14.8397 24.1428C14.913 24.1428 14.913 24.1428 14.913 24.1428C15.1331 24.1428 15.2065 24.1428 15.3532 24.2238C15.4999 24.2238 15.2798 24.2238 15.2798 24.1428C15.3532 24.1428 15.3532 24.1428 15.4265 24.1428C15.4999 24.1428 15.5733 24.1428 15.5733 24.2238C15.5733 24.3048 15.4265 24.2238 15.4265 24.3048C15.5733 24.3048 15.6466 24.3048 15.7934 24.3048C15.8667 24.3048 15.8667 24.2238 16.0135 24.2238C16.0868 24.2238 16.0868 24.3048 16.1602 24.3048C16.2336 24.3048 16.4536 24.2238 16.6737 24.3048C16.7471 24.2238 16.8204 24.2238 16.8938 24.2238C16.6737 24.2238 16.6004 24.3048 16.527 24.2238C16.6004 24.2238 16.6004 24.2238 16.6737 24.1428C16.6004 24.1428 16.527 24.2238 16.4536 24.2238C16.4536 24.0618 16.1602 24.2238 16.1602 24.1428C16.1602 24.1428 16.2336 24.0618 16.1602 24.0618C15.9401 24.1428 15.5733 24.1428 15.4265 24.0618C15.4999 24.2238 14.9864 24.1428 15.1331 23.9808C14.913 23.9808 15.0597 24.0618 14.913 24.0618C14.913 23.9808 14.8397 23.9808 14.8397 23.9808C15.2065 23.8187 15.4265 23.8997 15.7934 24.0618C16.0868 23.9808 16.1602 24.0618 16.3069 23.9808L16.3069 24.0618C16.3069 23.9808 16.7471 23.9808 16.6004 23.9808C16.527 24.0618 16.2336 23.9808 16.2336 23.9808C16.527 23.9808 16.6737 23.9808 16.8938 23.9808C16.8204 24.0618 16.8938 24.0618 16.9672 24.0618C16.9672 23.9808 17.0405 23.9808 17.1139 23.9808C17.334 24.5479 17.5541 25.0341 18.3611 25.0341C19.6082 24.953 19.9751 24.5479 19.9751 24.0618C20.1951 24.0618 20.4152 24.0618 20.4886 24.0618C20.562 24.0618 20.9288 23.9808 21.1489 23.9808C22.7628 25.0341 25.9908 25.9253 28.7052 26.1684C30.2459 26.0063 31.8598 26.1684 33.5472 26.4115C33.4005 26.4115 33.2537 26.4925 33.1804 26.5735C33.107 26.7355 32.8869 26.7355 32.7402 26.7355C32.6668 26.7355 32.5201 26.7355 32.4467 26.7355C32.0066 26.6545 31.8598 26.6545 31.7865 26.8166C31.6398 27.0596 31.4197 26.8976 31.1996 26.9786C30.9061 27.0596 30.3192 27.0596 30.4659 27.3837C30.4659 27.4648 30.3192 27.5458 30.2458 27.6268C30.1725 27.7078 30.1725 27.7889 30.2458 27.8699C30.4659 28.0319 30.7594 28.275 31.0528 28.437C31.1262 28.5181 31.2729 28.5181 31.4197 28.5181C31.7131 28.5181 32.0066 28.5181 32.3 28.5991C32.5201 28.8422 32.9603 28.5181 33.1804 28.7611C33.6939 28.6801 34.2075 28.8422 34.721 28.9232C35.0144 28.9232 35.2345 29.0852 35.528 29.0852C35.8214 29.0852 36.1149 29.1663 36.4083 29.0852C36.7018 29.0852 36.9219 29.2473 37.2153 29.2473C37.3621 29.2473 37.4354 29.1663 37.5088 29.2473C37.5821 29.3283 37.3621 29.4903 37.142 29.4903C36.7751 29.4903 36.4083 29.4903 36.1149 29.4903C36.0415 29.4903 35.8948 29.4903 35.8214 29.5714C35.6747 29.6524 35.8948 29.7334 35.8948 29.8144C35.9682 29.9765 35.9682 30.1385 36.0415 30.2196C36.1882 30.3816 36.2616 30.4626 36.0415 30.6247C35.8948 30.7057 35.8948 30.9488 35.6013 30.9488C35.4546 30.9488 35.1612 30.9488 35.0878 30.8677C35.0144 30.7867 35.2345 30.7867 35.3079 30.7867C35.3813 30.7867 35.3812 30.7057 35.4546 30.7057C35.1612 30.6247 34.8677 30.4626 34.5743 30.4626C34.2075 30.3816 33.7673 30.3816 33.4005 30.3816C33.3271 30.3816 33.3271 30.3816 33.2537 30.3006C33.3271 30.3006 33.4005 30.2196 33.4005 30.2196C33.6939 30.2196 33.9874 30.2196 34.2808 30.2196C34.4275 30.2196 34.5743 30.1385 34.6476 30.0575C34.721 29.9765 34.7944 29.7334 34.5743 29.7334C34.2808 29.6524 34.0607 29.4093 33.6939 29.4903C33.2537 29.4903 32.9603 29.3283 32.5935 29.3283C32.1533 29.2473 31.7131 29.3283 31.2729 29.1663L31.1996 29.1663C31.1996 29.2473 31.1262 29.3283 31.1262 29.3283C31.1996 29.4093 31.2729 29.4903 31.4197 29.5714C31.6397 29.6524 32.6668 29.7334 33.0336 29.7334C33.107 29.7334 33.1804 29.8144 33.1804 29.8144L33.1804 29.8955C33.107 30.0575 32.9603 30.1385 32.8136 30.3006C32.7402 30.3816 32.5935 30.3816 32.5935 30.3006C32.5201 30.0575 32.3734 29.9765 32.0066 29.9765C31.493 29.9765 31.0528 29.8955 30.9061 29.5714C30.3192 29.3283 29.8057 29.0852 29.1454 29.0042C29.0721 29.0042 28.9253 29.0042 28.852 29.0042C28.7786 29.0042 28.7786 29.0852 28.7052 29.1663C28.7052 29.2473 28.7052 29.3283 28.7786 29.3283C28.9987 29.4093 29.2188 29.5714 29.5122 29.6524C29.5122 29.8955 29.879 29.8955 30.0991 29.9765C30.2459 30.0575 30.5393 30.1385 30.686 30.2196C30.7594 30.3006 30.7594 30.4626 31.0528 30.3816C31.3463 30.2196 31.7131 30.3816 32.0799 30.2196C32.2267 30.1385 32.2267 30.3006 32.3 30.3816C32.3 30.3816 32.3 30.4626 32.3734 30.4626C32.5935 30.5437 32.8136 30.5437 33.0336 30.6247C33.2537 30.7057 33.107 30.9488 33.4738 30.9488C33.6206 30.9488 33.7673 30.9488 33.914 31.0298C33.9874 31.0298 33.9874 31.0298 34.0607 31.1108C33.9874 31.1108 33.9874 31.1918 33.914 31.1918C33.4005 31.1918 32.8136 31.2729 32.3 31.1108C32.0799 31.0298 31.8598 31.0298 31.5664 31.0298C30.9795 31.0298 30.3926 31.0298 29.8057 30.8677C29.5122 30.7867 29.1454 30.8677 28.7786 30.8677C28.7052 30.8677 28.6319 30.9488 28.6319 31.0298C28.6319 31.1108 28.7052 31.1918 28.7052 31.1918C29.0721 31.1918 29.4389 31.3539 29.7323 31.4349C29.8057 31.3539 29.879 31.2729 30.0991 31.2729C30.2459 31.2729 30.3192 31.3539 30.3192 31.4349C30.3192 31.5159 30.3192 31.5159 30.3192 31.597C30.5393 31.597 30.686 31.597 30.9061 31.597L30.9061 31.678C31.4197 31.84 31.7131 31.84 32.0799 31.597C32.1533 31.5159 32.2267 31.5159 32.3 31.5159C32.5935 31.678 32.9603 31.84 33.4738 31.84C33.5472 31.84 33.7673 31.9211 33.7673 32.0021C33.914 32.2451 34.2074 32.3262 34.6476 32.3262C35.0144 32.3262 35.4546 32.3262 35.8214 32.3262C36.0415 32.3262 36.1883 32.2451 36.2616 32.1641C36.5551 31.84 36.5551 31.9211 37.2153 32.0021C37.6555 32.0831 37.949 32.2451 38.3891 32.3262C38.6092 32.4072 38.7559 32.4072 38.9027 32.3262C39.0494 32.2451 39.1228 32.2451 39.2695 32.3262C39.4162 32.4072 39.5629 32.5692 39.783 32.5692C39.8564 32.4072 39.783 32.2451 40.1498 32.2451C40.8835 31.84 40.8835 31.759 40.9568 31.759C41.1036 31.759 41.1036 31.84 41.1769 31.9211C41.3236 31.9211 41.4704 31.84 41.4704 31.759C41.5437 31.678 41.397 31.597 41.2503 31.5159C41.0302 31.5159 40.7367 31.5159 40.5167 31.5159C40.4433 31.5159 40.3699 31.4349 40.3699 31.4349C40.4433 31.4349 40.4433 31.3539 40.5167 31.3539C41.0302 31.3539 41.6171 31.3539 42.1306 31.3539C42.7175 31.3539 43.3044 31.3539 43.818 31.1918C43.9647 31.1918 44.0381 31.0298 44.1848 31.1108C44.4782 31.2729 44.6983 31.1918 44.9918 31.1108C45.2119 31.2729 45.5787 31.2729 45.9455 31.2729C46.6058 31.2729 81.0931 31.2729 81.7533 31.3539C81.9734 31.3539 82.2669 31.3539 82.487 31.4349C82.7804 31.597 83.1472 31.597 83.514 31.597C85.2747 31.597 87.1088 31.678 89.0163 31.759C89.3831 31.759 89.3831 31.759 89.4564 32.0831C89.4564 32.1641 89.5298 32.1641 89.5298 32.2451C89.6032 32.2451 89.6765 32.1641 89.7499 32.1641C90.0433 32.0021 90.5569 31.9211 90.8503 32.0021L90.8503 32.0831C90.8503 32.0831 90.777 32.1641 90.7036 32.1641C90.2634 32.1641 89.8966 32.1641 89.97 32.5692C89.97 32.7313 89.7499 32.8123 89.6765 32.9744C89.6032 33.0554 89.4564 33.0554 89.3097 32.9744C89.2363 32.8933 89.0896 32.8933 89.0896 32.9744C89.0896 33.0554 89.0896 33.1364 89.0163 33.2174C89.7499 33.2174 90.4835 33.3795 91.1438 33.1364C91.2905 33.0554 91.6573 33.1364 91.8774 33.2174C92.1709 33.3795 92.5377 33.3795 92.8311 33.4605C92.9045 33.2985 92.9779 33.3795 92.9779 33.4605C93.1979 33.4605 93.3447 33.5415 93.5648 33.4605C93.7848 33.2985 94.1517 33.2174 94.225 32.9744C94.225 32.8933 94.2984 32.8933 94.3717 32.8123C94.4451 32.8933 94.4451 32.9744 94.5185 33.0554C94.6652 33.1364 94.8119 33.2174 95.032 33.1364C95.1054 33.1364 95.2521 33.0554 95.2521 33.0554C95.4722 33.1364 95.839 33.2174 95.9124 33.3795C96.0591 33.6225 96.1325 33.5415 96.3525 33.4605C96.5726 33.3795 96.4993 33.1364 96.8661 33.0554C96.8661 33.0554 96.8661 32.9744 96.9394 32.9744C97.2329 32.7313 97.5997 33.2174 97.9665 32.9744C98.0399 32.9744 98.1133 33.0554 98.1133 33.0554C98.1866 33.1364 98.1866 33.2174 98.1866 33.2174C98.7735 33.2984 99.2871 33.5415 99.874 33.7036C99.874 33.7036 99.9473 33.7036 100.021 33.7036C100.094 33.7036 100.094 33.6225 100.021 33.5415C99.9473 33.5415 99.9473 33.3795 99.9473 33.3795C100.387 33.2984 100.828 33.2984 101.268 33.3795C101.488 33.3795 101.341 33.3795 101.268 33.4605C101.048 33.6225 101.121 33.7036 101.488 33.7036C101.708 33.7036 101.928 33.7036 102.075 33.7036C102.295 33.7036 102.515 33.4605 102.735 33.6225C103.029 33.8656 103.249 33.6225 103.542 33.6225C103.762 33.6225 103.909 33.7036 104.129 33.7036C104.202 33.7036 104.349 33.7846 104.349 33.7036C104.643 33.5415 104.863 33.6225 105.156 33.7036C105.229 33.7846 105.45 33.7846 105.596 33.7846C106.183 33.7846 106.77 33.9466 107.357 33.7036C107.43 33.7036 107.577 33.7036 107.65 33.7036C107.797 33.7846 108.017 33.7846 108.164 33.8656C108.678 34.1087 109.118 34.1087 109.705 33.9466C109.778 33.9466 109.925 33.8656 109.998 33.8656C110.732 33.9466 111.465 33.7846 112.199 33.7036C112.639 33.7036 113.079 33.6225 113.299 33.3795C113.519 33.3795 113.886 33.3795 114.033 33.4605C114.326 33.6225 114.62 33.4605 114.84 33.5415C115.133 33.7036 115.427 33.6225 115.72 33.6225C116.087 33.6225 116.307 33.7846 116.674 33.8656C116.747 33.8656 116.894 33.8656 116.968 33.8656C117.261 33.8656 117.481 33.7036 117.774 33.8656C118.068 33.7036 118.435 33.7846 118.728 33.7036C119.168 33.5415 119.829 33.6225 120.195 33.2984C120.122 33.2174 120.269 33.4605 120.489 33.3795C120.636 33.2984 120.782 33.0554 121.076 33.2174C121.369 33.3795 121.516 33.1364 121.736 33.1364C121.809 33.1364 121.956 33.1364 121.956 33.2174C121.956 33.2984 121.956 33.3795 121.956 33.3795C121.883 33.4605 121.809 33.4605 121.736 33.4605C121.663 33.4605 121.589 33.5415 121.443 33.5415C121.516 33.5415 121.589 33.6225 121.663 33.6225C121.883 33.6225 122.176 33.6225 122.396 33.6225C122.69 33.6225 122.983 33.6225 123.277 33.6225C123.497 33.6225 123.717 33.4605 123.937 33.4605C124.23 33.4605 124.524 33.4605 124.817 33.4605C124.891 33.4605 124.964 33.3795 125.037 33.3795C125.184 33.3795 125.258 33.2984 125.258 33.2984C125.258 33.2984 125.184 33.2984 125.111 33.2174C124.377 33.0554 123.717 33.2984 123.057 33.2984C122.91 33.2984 122.763 33.5415 122.616 33.3795C122.543 33.2984 122.763 33.2174 123.057 33.1364C123.35 33.0554 123.644 32.9744 123.937 32.9744C124.597 33.0554 125.184 32.8933 125.844 32.8123C125.918 32.8123 125.991 32.7313 125.991 32.6503C125.991 32.6503 125.918 32.5692 125.844 32.5692C125.844 32.5692 125.771 32.5692 125.698 32.5692C125.624 32.5692 125.551 32.4882 125.478 32.4882C125.551 32.4882 125.624 32.4072 125.698 32.4072C125.918 32.4072 126.138 32.4072 126.285 32.4072C126.651 32.4072 127.165 32.4882 127.385 32.6503C127.532 32.8123 127.752 32.8123 128.045 32.8123C128.706 32.8933 129.292 32.6503 129.879 32.5692C130.54 32.4882 131.127 32.2451 131.86 32.3262C132.594 32.4072 133.254 32.2451 133.768 32.0021C133.914 31.921 134.061 31.84 134.281 31.84C134.428 31.84 134.648 31.84 134.648 31.921C134.648 32.0021 134.501 32.0021 134.355 32.0021C134.281 32.0021 134.281 32.0831 134.208 32.0831C134.208 32.0831 135.235 32.2451 135.308 32.2451C135.382 32.1641 135.528 32.0831 135.602 32.0831C135.528 32.0831 135.455 32.0021 135.382 32.0021C135.308 32.0021 135.235 31.921 135.161 31.921C135.235 31.84 135.308 31.84 135.382 31.759C135.602 31.597 135.822 31.678 136.042 31.678C136.702 31.678 137.216 31.3539 137.803 31.2729C137.949 30.9488 138.463 30.7867 138.83 30.6247C139.05 30.4626 139.196 30.3006 139.196 30.0575C139.123 29.8144 139.196 29.5714 139.783 29.5714C140.37 29.3283 141.031 29.2473 141.544 28.9232C141.617 28.9232 141.617 28.8422 141.617 28.7611C141.617 28.7611 141.544 28.6801 141.471 28.6801C141.251 28.6801 140.957 28.6801 140.737 28.6801C140.517 28.5991 140.297 28.5181 140.224 28.356C140.15 28.275 140.444 28.1129 140.664 28.0319C140.884 27.9509 141.031 28.0319 141.177 28.1129C141.324 28.194 141.544 28.275 141.691 28.1129C141.838 28.0319 141.984 27.9509 142.131 27.9509C142.645 27.8699 142.571 27.7078 142.424 27.5458C142.351 27.4648 142.718 27.3027 142.645 27.2217C142.351 26.9786 142.498 26.7355 142.498 26.4114C142.498 26.2494 142.498 26.0874 142.351 26.0063C142.131 25.7633 142.131 25.6012 142.718 25.5202C142.791 25.5202 142.865 25.4392 142.865 25.3581C142.865 25.1961 142.865 25.0341 142.938 24.872C142.938 24.71 142.791 24.6289 142.498 24.5479C142.351 24.5479 142.351 24.4669 142.424 24.3859C142.498 24.3048 142.645 24.2238 142.571 24.1428C142.351 23.9807 142.571 23.8187 142.645 23.5756C142.718 23.5756 142.865 23.4136 142.865 23.3326C142.865 23.1705 142.718 23.0085 142.571 22.8464C142.351 22.6844 142.424 22.4413 142.498 22.1982L142.645 22.1172C142.938 22.2793 143.011 22.1982 143.085 22.0362C143.158 21.7121 143.011 21.469 143.305 21.1449C143.378 21.0639 143.085 20.7398 142.865 20.6588C142.424 20.5778 142.571 20.4157 142.718 20.2537L142.791 20.1726C142.571 20.0106 142.571 19.8485 142.571 19.7675C142.718 19.7675 142.791 19.7675 142.938 19.8485C143.085 19.9296 143.231 20.0916 143.378 20.0916C143.672 20.1726 143.672 19.7675 143.745 19.6055C143.892 19.3624 144.112 19.1193 144.258 18.8763C144.479 18.6332 144.625 18.6332 144.919 18.7952C145.359 18.9573 145.726 18.4711 146.239 18.6332C146.313 18.6332 146.386 18.5522 146.459 18.4711L146.459 18.3091C146.459 18.2281 146.386 17.985 146.313 17.985C145.799 17.904 145.286 17.7419 144.845 18.1471C144.625 18.3091 144.479 18.2281 144.258 18.066C144.112 17.985 143.892 17.904 143.818 17.904C143.672 18.1471 143.452 18.1471 143.231 18.2281C143.231 18.1471 143.231 18.066 143.085 17.985C142.645 17.7419 142.571 17.4178 142.718 17.1748C143.085 17.1748 143.452 17.1748 143.892 17.1748C144.112 17.1748 144.258 16.9317 144.405 16.7697C144.479 16.6886 144.552 16.5266 144.405 16.4456C144.258 16.2835 144.112 16.1215 143.892 16.0404C143.672 15.9594 143.452 16.0404 143.305 16.0404C143.158 16.0404 142.938 16.0404 142.865 15.9594C142.718 15.7974 142.498 15.6353 142.424 15.4733C142.424 15.3112 142.645 14.9871 142.791 14.9871C143.231 14.9061 143.598 14.9061 144.038 14.9061C144.332 14.9061 144.479 14.7441 144.552 14.3389C144.699 13.8528 145.139 13.6908 145.212 13.1236C145.286 12.7185 145.286 12.4754 144.992 12.3134C144.772 12.2323 144.552 12.1513 144.258 12.0703C144.332 11.3411 143.965 11.5031 143.598 11.4221C143.305 11.4221 143.158 11.6652 142.865 11.7462C142.645 11.9082 142.424 11.5031 142.204 11.5031C142.131 11.5031 141.984 11.5031 141.911 11.5842C141.691 11.7462 141.471 11.8272 141.177 11.8272C140.077 11.8272 138.976 11.6652 137.949 12.1513C137.876 12.1513 137.876 12.1513 137.803 12.1513C137.803 12.0703 137.876 12.0703 137.949 11.9893C137.949 11.9893 138.023 11.9893 138.023 11.9082C138.463 11.8272 138.83 11.7462 139.27 11.6652C139.343 11.6652 139.417 11.6652 139.563 11.5842L139.49 11.5842C139.783 11.5031 140.003 11.3411 140.224 11.179C140.15 10.8549 140.077 10.6119 139.93 10.4498C140.59 10.3688 141.177 10.1257 141.764 9.80164C141.838 9.80164 141.838 9.80164 141.911 9.80164C142.131 9.72061 142.278 9.55857 142.498 9.55857C142.718 9.47754 142.865 9.96368 143.158 9.63959C143.305 9.47754 143.451 9.88266 143.672 9.88266C143.818 9.88266 143.965 9.88266 144.112 9.88266C144.185 9.88266 144.185 9.80164 144.258 9.80164C144.552 9.55857 144.772 9.15345 145.139 9.07242C145.212 9.07242 145.212 8.91038 145.065 8.82935C144.919 8.74833 144.699 8.82936 144.772 8.58628C144.772 8.42424 145.065 8.18117 145.065 8.18117C145.432 8.42424 145.799 7.9381 146.019 8.10014C146.459 8.50526 146.679 8.18117 146.826 7.77605C146.9 7.37093 147.12 7.28991 147.413 7.28991C147.56 7.28991 147.707 7.28991 147.853 7.28991C147.927 7.28991 148 7.12786 148 7.04684L147.927 6.88479C147.707 6.72274 147.486 6.5607 147.266 6.39865C146.826 6.07456 146.239 5.99353 146.166 5.1833C146.166 5.10227 145.946 5.02125 145.799 4.94023C145.652 4.8592 145.432 4.8592 145.359 4.77818C145.286 4.61613 145.212 4.29204 145.286 4.04897C145.286 3.8059 145.432 3.64385 145.506 3.40078C145.212 3.31976 145.065 2.91464 144.845 2.75259C144.552 2.50952 144.112 2.67157 143.818 2.34748C143.672 2.18543 143.378 2.26645 143.378 2.59055C143.305 2.91464 143.158 2.99566 142.938 2.99566C142.498 2.99566 142.131 3.56283 141.617 3.4818C141.617 3.4818 141.471 3.64385 141.471 3.8059C141.471 3.88692 141.544 4.04897 141.617 4.12999C141.764 4.29204 141.984 4.37306 142.131 4.45409C142.278 4.61613 142.351 4.8592 142.424 5.10227C142.424 5.34534 142.351 5.66944 142.131 5.66944C141.838 5.66944 141.471 5.66944 141.177 5.66944C140.884 5.66944 140.737 5.42637 140.884 5.02125C141.104 4.45408 141.031 4.45409 140.664 4.12999C140.517 4.04897 140.444 3.88692 140.297 3.72488C140.15 3.56283 140.077 3.40078 139.783 3.64385C139.343 3.96794 138.83 3.96795 138.463 3.72488C137.949 3.31976 137.289 3.64385 136.849 3.31976C136.262 2.91464 135.748 3.23873 135.161 3.07669C135.015 3.07669 134.868 3.07669 134.721 3.07669C134.575 3.07669 134.355 2.99567 134.281 2.91464C133.914 2.4285 133.401 2.26645 132.887 2.34748C132.3 1.78031 131.64 1.78031 130.98 2.18543C130.906 2.18543 130.76 2.02339 130.613 1.94236C130.466 1.78031 130.54 1.61826 130.686 1.61826C130.98 1.53724 131.273 1.13212 131.64 1.61826L131.787 1.61826C132.08 1.29417 132.3 1.29417 132.594 1.61826C132.667 1.69929 132.814 1.61826 132.887 1.53724C132.887 1.53724 132.887 1.45622 132.887 1.3752C132.667 0.483938 132.52 0.402913 131.787 0.645982C131.127 0.889055 130.466 0.970075 129.513 0.645982C129.292 0.564958 129.072 0.970075 128.852 0.645983C128.706 0.483934 128.559 0.727007 128.485 0.808031C128.339 0.889055 128.192 0.889055 128.045 0.727007C127.825 0.483938 127.605 0.483938 127.385 0.727007C127.165 0.970079 126.871 0.970079 126.651 0.889055C126.064 0.727007 125.551 0.240866 124.964 0.889055C124.891 0.97008 124.671 0.808031 124.524 0.727007C124.23 0.483938 123.864 0.483935 123.644 0.645983C123.057 1.0511 122.47 0.889056 121.809 0.97008C120.782 0.97008 119.755 1.0511 118.655 0.97008C118.361 0.97008 118.068 1.0511 117.774 1.21315C117.408 0.808032 117.114 0.97008 116.821 1.29417C116.161 1.0511 115.647 1.78031 114.987 1.69929C114.62 1.69929 114.253 1.78031 113.886 1.69929C113.446 1.61827 113.153 2.10441 112.712 2.10441C112.492 2.10441 112.199 2.10441 111.979 2.26645C111.465 2.59055 110.952 2.59055 110.512 2.34748C110.145 2.10441 109.851 2.10441 109.484 2.26645C108.971 2.50952 108.531 2.91464 107.944 2.50953C107.871 2.50953 107.724 2.59055 107.65 2.59055C107.284 2.91464 106.99 2.91464 106.623 2.59055C106.403 2.34748 106.11 2.26645 105.89 2.4285C105.45 2.83362 105.009 2.7526 104.569 2.7526C104.129 2.7526 103.762 2.7526 103.395 2.99567C102.955 3.23874 102.368 3.23874 101.928 2.91464C101.561 2.67157 101.121 2.67157 100.754 2.91464C100.534 3.07669 100.387 3.07669 100.167 3.07669C99.874 3.15771 99.8006 2.59055 99.5071 2.91464C99.2137 3.15772 98.9202 3.07669 98.6268 3.07669C97.6731 3.07669 96.7194 3.07669 95.839 3.07669C92.4643 3.07669 89.163 3.07669 85.7883 3.07669C85.4948 3.07669 85.128 2.99567 84.9079 3.23874C84.6145 3.48181 84.2477 2.91464 83.9542 3.40079C83.5874 3.40079 83.2206 3.40079 82.8538 3.40079C82.0468 3.40079 81.1664 3.40079 80.3594 3.40079C80.066 3.40079 45.9455 3.31976 45.7988 3.48181C45.432 3.8059 44.9918 3.72489 44.625 3.72489C44.3315 3.72489 43.9647 3.64386 43.6713 3.80591C43.1577 4.13 42.6442 4.04898 42.1306 4.04898C41.6171 4.04898 41.0302 4.04898 40.5167 4.04898C40.0031 3.88693 39.4896 3.64386 38.976 3.23874L39.4896 3.56284C39.5629 3.72488 39.1961 3.80591 38.9027 3.88693C38.976 3.88693 38.976 3.96795 39.0494 3.96795C37.8756 3.96795 36.7752 3.96795 35.6013 3.96795C35.1612 3.96795 34.721 3.96796 34.2074 4.21103C33.7673 4.4541 33.1804 4.29205 32.6668 4.29205C31.7865 3.64386 30.8328 4.04898 29.879 4.04898C29.2921 4.53512 28.7052 4.37307 28.045 4.37307C27.6048 4.37307 27.0179 4.29205 26.6511 4.53512C26.5777 4.61614 26.5043 4.61614 26.3576 4.69717C25.7707 4.53512 24.8904 4.29205 23.4231 4.13C20.782 4.53512 17.6274 5.10229 14.4728 4.94024C13.3724 4.85922 12.3453 4.29205 12.492 3.96796C11.0981 4.04898 9.1907 4.04898 7.79681 3.96796C1.78105 5.26433 8.53044 6.39866 10.8047 6.56071ZM14.106 15.6353C14.106 15.7164 13.9593 15.6353 13.9593 15.6353C13.9593 15.6353 14.106 15.6353 13.9593 15.5543C13.9593 15.5543 14.106 15.5543 14.1794 15.4733C14.3261 15.5543 13.9593 15.5543 14.106 15.6353ZM15.1331 15.7164C15.0598 15.7164 14.9864 15.7164 14.913 15.7164C14.9864 15.6353 15.0598 15.6353 15.1331 15.5543C15.2798 15.6353 15.1331 15.7164 15.1331 15.7164ZM15.5733 15.7164C15.6467 15.6353 15.4266 15.7164 15.3532 15.7164C15.2798 15.7164 15.4266 15.6353 15.2798 15.6353C15.2798 15.5543 15.4999 15.6353 15.4999 15.5543C15.6466 15.5543 15.5733 15.6353 15.6466 15.5543C15.72 15.5543 15.5733 15.5543 15.6466 15.4733C15.6466 15.4733 15.72 15.4733 15.7934 15.4733C15.7934 15.4733 15.72 15.5543 15.7934 15.5543C15.9401 15.4733 15.8667 15.4733 16.0868 15.5543C16.0868 15.6353 15.9401 15.6353 15.8667 15.6353C15.8667 15.6353 15.9401 15.6353 16.0135 15.6353C15.8667 15.7974 15.7934 15.7164 15.5733 15.7164ZM16.2335 15.7974C16.1602 15.7974 16.0868 15.7974 16.0868 15.7974C16.0868 15.7164 16.1602 15.7164 16.2335 15.7974C16.2335 15.7164 16.1602 15.6353 16.3069 15.7164L16.3069 15.7974C16.3069 15.7164 16.2335 15.7164 16.2335 15.7974ZM15.4999 16.6886C15.3532 16.6076 15.2065 16.6886 15.1331 16.6076C15.3532 16.6076 15.4999 16.5266 15.5733 16.6076C15.5733 16.6076 15.4265 16.6076 15.4999 16.6886ZM11.2449 22.5223C11.0981 22.5223 11.4649 22.6034 11.2449 22.5223C11.1715 22.6034 11.0248 22.5223 10.8781 22.5223C10.8781 22.5223 10.9514 22.5223 11.0248 22.5223C11.0981 22.5223 11.0248 22.4413 11.0981 22.4413C11.1715 22.4413 11.0981 22.5223 11.2449 22.5223ZM11.0248 22.2793C11.1715 22.1982 11.0248 22.3603 10.8047 22.2793C10.8047 22.2793 11.0248 22.3603 11.0248 22.2793ZM10.658 22.1982C10.7313 22.1172 10.7313 22.1982 10.658 22.1982C10.8047 22.1172 10.7313 22.1982 10.8047 22.1982C10.7313 22.1982 10.5846 22.1982 10.5112 22.1982C10.5846 22.1982 10.658 22.1982 10.658 22.1982ZM10.5112 22.5223C10.5112 22.6034 10.3645 22.5223 10.1444 22.5223C10.1444 22.4413 10.4379 22.5223 10.5112 22.5223ZM10.3645 22.6034C10.5846 22.6034 10.5846 22.6034 10.7313 22.6844C10.7313 22.7654 10.5846 22.6844 10.5112 22.6844C10.2911 22.8464 10.0711 22.6844 9.77762 22.7654C9.70425 22.6844 9.63089 22.7654 9.48416 22.6844C9.70425 22.6034 10.2178 22.6844 10.3645 22.6034ZM9.4108 22.6844C9.4108 22.7654 9.33743 22.7654 9.26407 22.7654C9.1907 22.7654 9.1907 22.6844 9.1907 22.6844C9.33743 22.6844 9.4108 22.6844 9.4108 22.6844ZM6.54965 23.3326C6.47629 23.2515 6.54965 23.2515 6.54965 23.1705C6.76973 23.1705 6.69638 23.2515 6.91646 23.1705C6.98982 23.2515 6.76974 23.1705 6.76974 23.2515C6.76974 23.3326 7.06319 23.2515 6.98982 23.3326C6.76973 23.3326 6.69638 23.3326 6.54965 23.3326ZM3.17494 23.8187C3.17494 23.7377 3.32168 23.7377 3.39503 23.7377C3.4684 23.8187 3.32167 23.8187 3.17494 23.8187ZM4.78892 23.8187C4.93565 23.7377 5.00902 23.8187 5.15575 23.8187L5.15575 23.8997C5.00902 23.8997 4.86229 23.8997 4.78892 23.8187ZM7.06319 23.2515C7.13655 23.2515 7.20991 23.2515 7.28328 23.2515C7.35664 23.3326 7.06319 23.4136 7.06319 23.2515ZM7.42999 23.7377C7.35663 23.6567 7.72345 23.6567 7.65008 23.6567C7.72345 23.7377 7.50336 23.6567 7.42999 23.7377ZM8.16363 23.8997C8.237 23.8187 8.45708 23.8997 8.53044 23.8997C8.53044 23.9808 8.237 23.8997 8.16363 23.8997ZM8.09025 22.6844C8.16362 22.6844 8.38371 22.6844 8.45708 22.7654C8.31035 22.6844 8.16362 22.7654 8.09025 22.6844ZM8.45708 21.7121C8.53044 21.6311 8.53044 21.6311 8.45708 21.55C8.67717 21.55 8.75053 21.6311 8.8239 21.55C8.97063 21.55 9.19072 21.7931 8.89726 21.7931C8.97063 21.6311 8.53044 21.7931 8.45708 21.7121ZM8.67717 21.8741C8.67717 21.7931 8.89726 21.8741 8.8239 21.7931C8.89726 21.7931 8.97061 21.7931 9.04397 21.7931C9.04397 21.9552 8.75053 21.9552 8.67717 21.8741ZM8.8239 22.6844C8.8239 22.6034 9.04397 22.6844 9.11734 22.6844C9.11734 22.7654 8.89726 22.7654 8.8239 22.6844ZM10.0711 23.2515C9.85098 23.2515 9.70425 23.2515 9.48416 23.2515C9.48416 23.1705 9.33743 23.1705 9.1907 23.1705C9.11734 23.1705 9.4108 23.1705 9.26407 23.0895C9.4108 23.0895 9.48416 23.1705 9.63089 23.0895L9.63089 23.1705C9.77762 23.2515 9.85098 23.2515 10.0711 23.2515C10.0711 23.1705 10.0711 23.1705 10.0711 23.1705C10.1444 23.1705 9.99771 23.2515 10.0711 23.2515ZM10.2912 23.2515C10.2178 23.3326 10.2178 23.1705 10.1444 23.2515C10.1444 23.1705 10.3645 23.1705 10.4379 23.1705C10.5846 23.2515 10.1444 23.1705 10.2912 23.2515ZM11.3182 23.3326C11.2449 23.2515 11.3182 23.2515 11.3916 23.1705C11.5383 23.1705 11.6117 23.1705 11.6117 23.3326C11.465 23.2515 11.3916 23.3326 11.3182 23.3326ZM11.6851 23.2515C11.7584 23.1705 11.5383 23.1705 11.5383 23.0895C11.8318 23.1705 12.1252 23.2515 12.4187 23.2515C12.272 23.3326 11.9051 23.1705 11.6851 23.2515ZM31.9332 31.1108C31.7865 31.1108 31.6397 31.1108 31.5664 31.1108L31.5664 31.0298C31.6397 30.9488 31.7131 30.9488 31.8598 30.9488C31.9332 30.9488 31.9332 30.9488 31.9332 31.0298C32.0066 31.0298 31.9332 31.1108 31.9332 31.1108ZM35.2345 30.9488C35.4546 30.9488 35.6013 30.8677 35.6747 30.8677C36.0415 30.8677 36.1882 30.8677 36.335 31.0298L36.335 31.1108C36.2616 31.1918 36.1882 31.1918 36.1882 31.1918C36.0415 31.1918 35.9682 31.1108 35.8214 31.0298C35.6013 30.9488 35.3079 31.1108 35.2345 30.9488ZM36.5551 31.5159C36.5551 31.5159 36.4083 31.5159 36.335 31.597C36.335 31.678 36.2616 31.678 36.2616 31.678C36.1883 31.678 36.1149 31.678 36.1882 31.597C36.2616 31.597 36.335 31.597 36.4083 31.5159C36.4083 31.5159 36.4083 31.5159 36.4083 31.4349C36.4083 31.4349 36.4083 31.3539 36.4817 31.3539C36.4817 31.4349 36.5551 31.5159 36.5551 31.5159ZM142.938 5.02125C142.938 5.02125 143.011 5.10227 143.011 5.1833C143.011 5.1833 143.011 5.1833 143.011 5.26432L143.011 5.34535C143.011 5.34535 143.011 5.34535 142.938 5.34535C142.938 5.34535 142.938 5.34535 142.865 5.34535C142.791 5.1833 142.791 5.10227 142.938 5.02125ZM18.6545 15.2302C18.5812 15.1492 18.5812 15.2302 18.6545 15.2302C18.6545 15.1492 18.6545 15.1492 18.6545 15.2302C19.8283 15.0682 20.1951 14.6631 20.2685 14.2579C20.4886 14.2579 20.782 14.2579 20.9288 14.339C21.0755 14.339 21.2956 14.1769 21.369 14.339C21.5157 14.339 21.4423 14.2579 21.589 14.2579C21.6624 14.2579 21.589 14.42 21.6624 14.42C21.6624 14.339 21.8091 14.42 21.8825 14.339C21.9558 14.42 22.1759 14.42 22.2493 14.501C22.1026 14.501 21.8091 14.582 21.9559 14.6631C22.1026 14.501 22.3227 14.501 22.6161 14.501C22.6895 14.501 22.8362 14.582 22.9096 14.582C22.9096 14.582 22.9829 14.582 22.9829 14.6631C23.0563 14.6631 23.0563 14.6631 23.0563 14.6631C23.1297 14.6631 23.203 14.7441 23.2764 14.7441C23.2764 14.7441 23.2764 14.7441 23.2764 14.8251C23.203 14.8251 23.1297 14.8251 23.1297 14.8251C23.1297 14.9871 23.3497 14.9871 23.5698 14.9871C23.4965 14.9871 23.4965 15.0682 23.4231 15.0682C23.2764 15.0682 23.0563 15.0682 22.7628 15.0682C22.6895 15.1492 22.7628 15.1492 22.8362 15.1492C22.7628 15.2302 22.6161 15.2302 22.4694 15.1492C22.4694 15.0682 22.4694 15.0682 22.5427 14.9871C22.6161 14.9871 22.6895 14.9871 22.6895 14.9871C22.6895 14.9871 22.6895 14.9061 22.6161 14.9061L22.5427 14.9061C22.5427 14.9871 22.5428 14.9871 22.4694 14.9871C22.4694 14.9061 22.4694 14.9061 22.5427 14.8251L22.6161 14.8251C22.7628 14.8251 22.8362 14.7441 22.9829 14.7441C23.0563 14.6631 22.9096 14.6631 23.0563 14.6631C22.9096 14.6631 22.7628 14.6631 22.9096 14.7441C22.8362 14.7441 22.6895 14.7441 22.5427 14.7441C22.5427 14.7441 22.396 14.6631 22.3227 14.582C22.3227 14.6631 22.3227 14.6631 22.2493 14.7441C22.1026 14.7441 21.9558 14.7441 21.8825 14.8251C21.9558 14.8251 21.9559 14.8251 22.0292 14.8251C22.0292 14.8251 22.1026 14.7441 22.2493 14.7441C22.2493 14.8251 22.2493 14.8251 22.1759 14.9061C22.1026 14.9061 22.0292 14.9061 22.0292 14.9061C22.1026 14.9061 22.1759 14.9061 22.1759 14.9061L22.2493 14.9871C22.0292 14.9871 21.8825 14.9871 21.7358 15.0682C21.8091 15.0682 21.9558 15.0682 22.1026 15.1492C21.3689 15.1492 21.0021 15.1492 20.2685 15.1492L20.3419 15.0682C20.1951 15.0682 20.1218 15.1492 19.9017 15.1492C19.9017 15.1492 19.9017 15.0682 19.8283 15.0682C19.8283 15.0682 19.755 15.0682 19.6816 15.0682C19.6816 15.1492 19.8283 15.0682 19.8283 15.1492C19.6082 15.2302 19.2414 15.1492 18.948 15.2302C18.8746 15.1492 18.6545 15.1492 18.5811 15.1492C18.5078 15.2302 18.6545 15.3112 18.5078 15.3112C18.5812 15.3923 18.3611 15.3112 18.6545 15.2302ZM15.9401 17.4989C15.9401 17.4179 16.0868 17.4989 16.0868 17.4989C16.0868 17.4989 15.9401 17.5799 15.9401 17.4989ZM16.0135 17.5799C16.1602 17.6609 16.4536 17.5799 16.6004 17.4989C16.6737 17.5799 16.7471 17.5799 16.8938 17.6609C16.8938 17.6609 16.8204 17.5799 16.8938 17.5799C17.0405 17.5799 17.0405 17.6609 17.1873 17.6609C17.1873 17.5799 17.1873 17.5799 17.2606 17.5799C17.4073 17.823 17.5541 17.904 17.7008 18.066C17.4807 18.1471 17.2606 18.066 17.1139 18.066C16.9672 18.066 17.1873 18.1471 17.1139 18.1471C16.6737 18.066 16.2335 17.904 15.9401 17.6609L16.0135 17.5799ZM21.8091 17.904L21.7358 17.904C21.7358 17.904 21.7358 17.904 21.8091 17.904ZM21.2956 17.0938C21.1489 17.0938 21.1489 17.0938 21.0755 17.0938C21.0755 17.0938 21.0755 17.0938 21.0755 17.0127C21.1489 17.0127 21.2956 17.0127 21.2956 17.0938ZM18.3611 15.3923C18.4344 15.3923 18.4344 15.4733 18.5078 15.4733C18.5078 15.4733 18.2877 15.3923 18.3611 15.3923ZM17.7742 15.5543C17.7742 15.4733 17.8475 15.4733 17.7742 15.3923C17.9209 15.3923 18.141 15.3923 18.141 15.4733C17.8475 15.3923 17.9209 15.4733 17.7742 15.5543ZM16.3803 16.6886C16.4536 16.6886 16.527 16.6076 16.6004 16.6886C16.6004 16.7697 16.4536 16.6886 16.4536 16.7697C16.6004 16.7697 16.6004 16.8507 16.7471 16.7697C16.8204 16.6076 17.4073 16.6076 17.334 16.7697C17.4807 16.6886 17.6274 16.6886 17.4074 16.6886C17.5541 16.6886 17.8475 16.6886 17.7742 16.6076C17.7742 16.6886 17.9209 16.6076 17.9209 16.6886C17.9209 16.7697 17.7008 16.6886 17.7008 16.7697C17.7008 16.8507 17.9942 16.7697 17.9942 16.7697C17.8475 16.7697 17.9943 16.8507 17.8475 16.8507C17.9209 16.7697 17.7742 16.7697 17.7008 16.8507C17.7742 16.7697 17.7008 16.7697 17.5541 16.7697C17.7008 16.8507 17.6274 16.8507 17.4807 16.9317C17.7008 16.9317 17.9943 16.9317 18.2144 16.9317C18.141 16.9317 18.3611 16.8507 18.3611 16.8507C18.6545 16.7697 18.8012 16.9317 19.0947 16.8507C19.0213 16.8507 19.0947 16.9317 19.0947 16.9317L19.0213 16.9317C18.948 16.9317 18.7279 16.9317 18.7279 16.9317C18.8012 16.9317 18.7279 16.9317 18.7279 17.0127C18.8012 17.0127 18.8746 17.0127 18.948 17.0127C18.948 17.0127 18.8746 17.0938 18.8746 17.1748C18.8746 17.1748 18.8746 17.1748 18.8012 17.1748C18.8012 17.1748 18.8012 17.0938 18.7279 17.0938C18.6545 17.0938 18.4344 17.0938 18.5078 17.1748C18.8013 17.0938 18.6545 17.2558 18.8012 17.3368L18.8012 17.4179C18.7279 17.4179 18.5812 17.4179 18.5078 17.4179C18.5812 17.4179 18.5812 17.4179 18.5078 17.4179C18.3611 17.4179 18.2877 17.4179 18.2144 17.3368C18.2144 17.4179 18.2144 17.4179 18.0676 17.4179C18.0676 17.4989 18.141 17.4989 18.141 17.4989C17.9943 17.4989 17.8475 17.4989 17.7742 17.4989C17.7008 17.4989 17.6274 17.4179 17.6274 17.3368C17.6274 17.3368 17.6274 17.3368 17.5541 17.2558C17.8475 17.1748 18.2143 17.2558 18.3611 17.2558C18.2877 17.1748 18.0676 17.2558 17.9942 17.1748C18.2877 17.1748 18.4344 17.2558 18.5811 17.2558C18.5811 17.1748 18.3611 17.0938 18.2144 17.0938C18.141 16.9317 18.5812 17.0127 18.6545 16.9317C18.4344 16.9317 18.2144 17.0127 18.0676 17.0938C17.9209 17.0127 17.7742 17.0127 17.4807 17.0127C17.6274 17.0938 17.5541 17.0127 17.5541 17.1748C17.6274 17.1748 17.7008 17.0938 17.7008 17.1748C17.7008 17.2558 17.4807 17.2558 17.4807 17.2558C17.4073 17.2558 17.334 17.1748 17.2606 17.2558L17.1873 17.2558C17.1139 17.2558 17.1139 17.1748 17.1139 17.1748C17.2606 17.1748 17.334 17.1748 17.4807 17.1748C17.4073 17.0938 17.4807 17.0127 17.334 17.0127C17.334 17.0938 17.4074 17.0938 17.4074 17.0938C17.2606 17.0938 17.0405 17.0938 17.0405 17.0127C17.0405 17.0938 16.527 17.0127 16.7471 17.0938C16.6737 17.0938 16.6004 17.0938 16.6004 17.0938C16.6004 17.0127 16.6004 17.0127 16.6004 16.9317C16.4536 16.8507 16.3803 16.7697 16.3803 16.6886C16.3803 16.7697 16.3069 16.6886 16.3803 16.6886ZM16.3803 16.7697C16.3069 16.8507 16.2335 16.7697 16.2335 16.8507C16.0135 16.8507 16.0135 16.8507 15.8667 16.8507C15.9401 16.7697 16.1602 16.7697 16.3803 16.7697ZM16.0868 16.7697C15.8667 16.7697 16.1602 16.6886 16.2335 16.6886C16.2335 16.7697 16.1602 16.7697 16.0868 16.7697C16.0135 16.7697 15.8667 16.7697 15.7934 16.7697C15.7934 16.6886 15.9401 16.7697 16.0868 16.7697ZM16.3803 17.1748C16.3069 17.0938 16.3803 17.0938 16.3803 17.1748C16.4536 17.1748 16.6004 17.0938 16.7471 17.0938C16.7471 17.1748 16.7471 17.1748 16.8938 17.1748C16.8204 17.0938 17.1139 17.0938 17.1139 17.1748L17.1139 17.0938C17.1873 17.1748 16.8938 17.1748 17.0405 17.1748C17.0405 17.1748 17.1139 17.1748 17.1873 17.1748C17.1139 17.2558 17.1139 17.2558 17.1139 17.2558C17.0405 17.2558 17.1139 17.1748 16.9672 17.1748C16.9672 17.2558 16.7471 17.3368 16.6737 17.2558C16.6737 17.1748 16.8205 17.2558 16.6737 17.1748C16.6004 17.2558 16.3803 17.1748 16.3803 17.3368C16.1602 17.2558 16.1602 17.3368 15.9401 17.3368C15.8667 17.4179 15.9401 17.4179 15.9401 17.4179C15.8667 17.4179 15.7934 17.4179 15.7934 17.4179C15.72 17.3368 15.6467 17.2558 15.5733 17.1748C15.72 17.0938 16.1602 17.0938 16.3803 17.1748ZM13.1523 19.8486C13.1523 20.0106 12.9322 19.9296 12.7121 19.9296C12.7855 19.8486 13.0789 19.8486 13.1523 19.8486ZM11.9052 19.9296C11.9052 19.9296 11.8318 19.9296 11.7584 19.9296L11.7584 19.8486L11.6851 19.8486C11.7584 19.7675 11.9785 19.8486 11.9052 19.9296C12.1986 19.8486 12.492 19.9296 12.7855 20.0106C12.5654 20.0106 12.272 20.0916 11.9785 20.0916C11.9785 20.0916 12.1252 20.0916 12.0519 20.0106C11.9785 20.0106 11.9052 20.0106 11.9052 19.9296ZM11.3182 21.6311C11.2449 21.6311 11.1715 21.6311 11.0981 21.6311L11.3182 21.6311C11.3916 21.6311 11.3916 21.6311 11.3182 21.6311ZM11.3916 21.55L11.6117 21.469C11.685 21.469 11.6851 21.469 11.6851 21.55C11.6117 21.55 11.4649 21.6311 11.3916 21.55ZM13.1523 21.8741C13.0789 21.7931 13.0056 21.7931 13.0789 21.8741C12.9322 21.7931 12.5654 21.8741 12.492 21.7931C12.492 21.7121 12.5654 21.7121 12.492 21.6311C12.7121 21.55 13.0789 21.55 13.3724 21.55C13.3724 21.469 13.299 21.469 13.299 21.469C13.299 21.55 13.299 21.55 13.1523 21.55C13.0789 21.469 13.0789 21.469 13.1523 21.469C13.0789 21.469 12.9322 21.469 12.9322 21.469C13.0056 21.469 13.0789 21.469 13.0789 21.469C13.0789 21.388 12.7121 21.307 12.6388 21.388C12.7121 21.388 12.7121 21.388 12.7855 21.469C12.7121 21.469 12.7121 21.469 12.6388 21.55C12.492 21.55 12.5654 21.469 12.492 21.469C12.4187 21.55 12.4187 21.388 12.4187 21.388C12.4187 21.388 12.3453 21.469 12.272 21.469C12.272 21.469 12.272 21.469 12.272 21.388L12.5654 21.307C12.5654 21.307 12.5654 21.388 12.6388 21.307C13.0789 21.388 13.3724 21.469 13.5925 21.55C13.5191 21.55 13.4458 21.6311 13.3724 21.6311C13.5191 21.6311 13.7392 21.7121 13.8859 21.7931C13.8859 21.8741 13.8859 21.8741 13.8859 21.9552C13.8859 21.9552 13.8859 21.9552 13.8126 21.9552C13.8126 21.9552 13.8859 21.9552 13.8126 21.8741C13.4458 21.8741 13.6658 21.7121 13.299 21.7121C13.2257 21.7121 13.2257 21.7931 13.0789 21.8741C13.299 21.7931 13.2257 21.8741 13.1523 21.8741ZM12.7121 22.8464C12.6388 22.9274 12.6388 22.9274 12.5654 22.9274C12.5654 22.8464 12.6388 22.8464 12.7121 22.8464ZM12.5654 23.1705C12.7121 23.1705 12.6388 23.2515 12.7855 23.1705C12.8589 23.2515 12.492 23.2515 12.5654 23.1705ZM15.0597 23.9808C14.9864 24.0618 14.8397 23.9808 14.8397 23.8997C15.0598 23.8997 14.9864 23.9808 15.0597 23.9808ZM20.3419 22.6844C20.3419 22.6034 20.4152 22.6034 20.4886 22.5223C20.4886 22.6034 20.4886 22.6034 20.4886 22.6844C20.4152 22.6844 20.4152 22.6844 20.3419 22.6844ZM83.6608 28.1129C83.6608 28.0319 83.8075 27.9509 83.8809 27.9509C84.1743 27.9509 84.4678 27.9509 84.7612 28.0319C84.8346 28.0319 84.8346 28.1129 84.8346 28.194C84.9079 28.194 84.9813 28.194 84.9813 28.275C85.0547 28.356 84.9813 28.356 84.9079 28.356C84.9079 28.275 84.9079 28.275 84.9079 28.194C84.8346 28.194 84.7612 28.194 84.6878 28.275C84.3944 28.437 84.1743 28.437 83.9542 28.275C83.8809 28.194 83.8075 28.194 83.6608 28.1129C83.6608 28.194 83.6608 28.194 83.6608 28.1129C83.5874 28.194 83.5874 28.194 83.514 28.275C83.4407 28.275 83.3673 28.275 83.4407 28.194C83.514 28.194 83.5874 28.194 83.6608 28.1129ZM85.2014 29.8955L85.2747 29.8955C85.3481 29.8955 85.4215 29.9765 85.4948 29.9765C85.5682 29.9765 85.5682 30.0575 85.5682 30.1385C85.4948 30.1385 85.4215 30.1385 85.3481 30.1385C85.2014 30.1385 85.0547 30.0575 85.128 29.9765C85.128 29.9765 85.128 29.8955 85.2014 29.8955ZM33.9874 26.3304C34.1341 26.3304 34.2075 26.3304 34.3542 26.4115L34.3542 26.4925C34.2808 26.4925 34.2075 26.4925 34.1341 26.4115C34.0607 26.3304 33.9874 26.3304 33.9874 26.3304ZM37.8022 31.2729C37.4354 31.3539 37.2153 31.1108 36.8485 31.0298C36.7752 31.0298 36.7751 30.9488 36.7751 30.9488C36.8485 30.9488 36.9219 30.9488 37.0686 30.8677C37.2153 30.8677 37.2887 30.7867 37.2887 30.7057C37.142 30.7057 37.0686 30.7057 36.9219 30.7057C36.8485 30.7057 36.8485 30.7057 36.8485 30.6247C36.8485 30.6247 36.9219 30.5437 36.9952 30.5437C37.142 30.5437 37.2887 30.5437 37.3621 30.5437C37.2887 30.4626 37.2153 30.3816 37.2153 30.3006C37.142 30.2196 37.142 30.1385 37.142 30.1385C37.3621 29.8955 37.6555 29.7334 38.0957 29.6524C38.169 29.6524 38.2424 29.7334 38.3158 29.7334C38.0957 29.8955 37.949 29.9765 38.169 30.2196C38.3891 30.3816 38.6092 30.4626 38.976 30.4626C39.0494 30.4626 39.0494 30.4626 39.1228 30.5437C39.1228 30.5437 39.1228 30.5437 39.1961 30.5437L39.1228 30.5437L39.0494 30.5437C38.5359 30.5437 37.949 30.5437 37.4354 30.5437C37.4354 30.6247 37.4354 30.6247 37.4354 30.7057C37.8022 30.7867 37.949 30.9488 38.169 31.1108L38.2424 31.1918C38.0223 31.1918 37.8756 31.2729 37.8022 31.2729ZM39.9298 31.3539L39.8564 31.4349L39.783 31.4349C39.6363 31.2729 39.5629 31.1918 39.4162 31.1108C39.1961 30.9488 39.1228 31.1108 39.1228 31.1918L38.976 31.2729C38.976 31.1918 38.9027 31.1918 38.9027 31.1108C38.9027 30.7867 38.976 30.7867 39.6363 30.7867C40.0031 30.7867 40.0765 30.8677 40.0765 31.0298C40.0031 31.1108 39.9298 31.2729 39.9298 31.3539ZM42.2774 31.1918L42.204 31.1918C42.1306 31.1108 42.1306 31.1108 42.2774 31.1918C42.2774 31.1108 42.3507 31.1108 42.3507 31.1108L42.2774 31.1918ZM42.7909 30.1385C42.7175 30.2196 42.6442 30.3006 42.4241 30.3006C42.204 30.3006 41.9839 30.3006 41.8372 30.3006C41.3237 30.1385 40.8101 30.1385 40.2966 30.0575C40.2232 30.0575 40.1498 29.9765 40.1498 29.9765C40.1498 29.8955 40.1498 29.8144 40.3699 29.7334C40.59 29.7334 40.7367 29.6524 40.7367 29.5714C40.4433 29.4903 40.1498 29.2473 39.7097 29.4903C39.4896 29.5714 39.1228 29.4903 38.8293 29.4903C38.756 29.4903 38.6826 29.4093 38.6826 29.3283C38.6092 29.2473 38.7559 29.1663 38.9027 29.1663C40.0031 29.1663 41.1036 29.2473 42.204 29.2473C42.4241 29.2473 42.5708 29.3283 42.5708 29.4903C42.5708 29.5714 42.7175 29.6524 42.7909 29.7334C42.8643 29.7334 43.011 29.8144 43.011 29.8955C43.011 29.9765 42.8643 30.0575 42.7909 30.1385ZM86.3018 31.1108C86.1551 31.1108 85.935 31.0298 85.7883 30.9488C85.5682 30.8677 85.3481 30.8677 85.0547 30.9488C84.9813 30.9488 84.8346 31.0298 84.8346 31.0298C84.1743 30.7057 83.3673 30.9488 82.6337 30.8677C82.1935 30.7867 81.68 30.8677 81.1664 30.7057C80.873 30.6247 80.3594 30.6247 79.9926 30.6247C79.1856 30.6247 44.5516 30.6247 43.8913 30.3816C43.6713 30.3006 43.3044 30.4626 43.1577 30.2196C43.4512 30.0575 43.7446 30.2196 44.0381 30.1385C44.2582 30.1385 44.5516 30.1385 44.7717 30.1385C45.1385 30.1385 45.5787 30.1385 45.9455 30.1385C46.239 30.1385 80.3594 30.1385 80.6529 30.0575C80.873 29.9765 81.1664 29.9765 81.3131 30.0575C81.5332 30.2196 81.7533 30.0575 81.9001 30.0575C82.1201 30.1385 82.3402 30.2196 82.5603 30.3006C82.7804 30.3816 83.0005 30.3816 83.294 30.3816C83.5874 30.4626 83.8809 30.2196 84.1009 30.3006C84.3944 30.4626 84.7612 30.3816 85.128 30.3816C85.4215 30.3816 85.7149 30.3816 86.0084 30.3816C86.3018 30.3816 86.5219 30.4626 86.6686 30.5437C86.742 30.6247 86.8154 30.7057 86.8154 30.7867C86.8154 31.1108 86.5219 31.1108 86.3018 31.1108ZM91.4372 32.6503C91.2905 32.7313 91.1438 32.8933 90.9237 32.7313C90.777 32.6503 90.7036 32.8123 90.5569 32.7313C90.4835 32.7313 90.3368 32.6503 90.4101 32.6503C90.4101 32.5692 90.4835 32.4882 90.5569 32.4072C90.6302 32.4072 90.8503 32.4072 90.9237 32.4072C91.0704 32.4072 91.2171 32.4072 91.3639 32.4072C91.5106 32.5692 91.5106 32.5692 91.4372 32.6503ZM92.9779 32.1641L92.9045 32.1641C92.8311 32.1641 92.8311 32.0831 92.9779 32.0831C92.9779 32.0021 92.9779 32.0831 92.9779 32.1641C93.0512 32.0831 92.9779 32.0831 92.9779 32.1641ZM93.7848 32.7313L93.7115 32.6503L93.7848 32.5692C93.9316 32.6503 93.9316 32.7313 93.7848 32.7313ZM94.7386 32.2451L94.6652 32.1641L94.7386 32.0831C94.8853 32.1641 94.8853 32.1641 94.7386 32.2451ZM94.9586 32.5692L94.8853 32.4882C94.8853 32.4882 94.9586 32.4882 94.9586 32.4072L95.032 32.4072C95.032 32.4882 95.032 32.5692 94.9586 32.5692ZM96.5726 32.0831C96.5726 32.0831 96.4993 32.0831 96.4993 32.0021C96.4993 32.0021 96.5726 32.0021 96.5726 31.9211L96.646 31.9211C96.5726 32.0021 96.5726 32.0021 96.5726 32.0831ZM102.588 32.7313C102.515 32.8123 102.368 32.8123 102.222 32.8123C102.075 32.7313 102.001 32.7313 101.855 32.6503C101.928 32.6503 102.001 32.5692 102.075 32.5692C102.148 32.5692 102.222 32.5692 102.368 32.4882C102.442 32.4882 102.442 32.4882 102.515 32.4882C102.588 32.4882 102.662 32.4882 102.735 32.5692C102.735 32.6503 102.662 32.7313 102.588 32.7313ZM103.909 31.678C103.836 31.678 103.836 31.678 103.762 31.678C103.762 31.678 103.762 31.678 103.762 31.597C103.836 31.678 103.909 31.678 103.909 31.678ZM105.816 33.5415C105.816 33.5415 105.743 33.5415 105.743 33.4605C105.743 33.4605 105.816 33.4605 105.816 33.3795L105.89 33.3795C105.89 33.5415 105.816 33.5415 105.816 33.5415ZM107.064 32.8933L106.99 32.8123L107.064 32.7313C107.21 32.8123 107.21 32.8933 107.064 32.8933ZM109.411 32.5692C109.338 32.6503 109.338 32.6503 109.411 32.5692C109.338 32.7313 109.191 32.7313 108.971 32.7313C108.898 32.7313 108.898 32.7313 108.898 32.6503C108.824 32.6503 108.898 32.5692 108.971 32.5692C109.118 32.5692 109.191 32.6503 109.411 32.5692C109.338 32.6503 109.338 32.5692 109.411 32.5692L109.484 32.4882L109.558 32.4882C109.631 32.5692 109.484 32.5692 109.411 32.5692ZM113.226 33.4605C112.933 33.4605 112.566 33.3795 112.419 33.5415C112.126 33.7036 111.905 33.3795 111.685 33.5415C111.465 33.6225 111.098 33.6225 110.878 33.7036C110.585 33.7846 110.291 33.7846 109.998 33.7846C109.851 33.7846 109.705 33.7036 109.705 33.6225C109.631 33.4605 109.705 33.3795 109.851 33.3795C110.071 33.3795 110.365 33.3795 110.585 33.3795C110.658 33.3795 110.658 33.2984 110.658 33.2984L110.585 33.2174C110.438 33.2174 110.291 33.2174 110.145 33.2174C110.071 33.2174 110.071 33.2174 109.998 33.1364C109.925 33.1364 109.998 33.0554 110.145 33.0554C110.512 33.0554 110.952 33.0554 111.319 32.8933C111.539 32.8123 111.979 32.8123 112.199 32.8933C112.566 33.0554 113.153 33.0554 113.226 33.4605ZM142.424 25.0341C142.424 25.0341 142.498 25.0341 142.498 25.1151C142.424 25.1151 142.424 25.1151 142.351 25.1961L142.278 25.1151C142.351 25.0341 142.424 25.0341 142.424 25.0341ZM142.791 21.7121C142.791 21.7931 142.718 21.7931 142.718 21.8741C142.645 21.8741 142.571 21.8741 142.424 21.8741L142.351 21.7931L142.278 21.7931C142.424 21.7121 142.571 21.6311 142.718 21.55C142.718 21.6311 142.791 21.7121 142.791 21.7121ZM143.672 18.7952C143.598 18.8763 143.525 19.0383 143.452 19.0383C143.378 19.1193 143.231 19.2814 143.085 19.2814C142.938 19.3624 142.865 19.2814 142.791 19.2004C142.865 19.0383 142.938 18.9573 143.011 18.7952C143.011 18.7142 143.085 18.6332 143.158 18.5522C143.231 18.5522 143.305 18.5522 143.305 18.5522C143.452 18.7142 143.598 18.7142 143.672 18.7952ZM140.444 13.3667C140.517 13.3667 140.517 13.4477 140.517 13.4477C140.444 13.4477 140.444 13.5287 140.37 13.5287C140.297 13.5287 140.297 13.4477 140.224 13.4477C140.297 13.4477 140.37 13.3667 140.444 13.3667ZM138.683 8.01912C138.756 8.10014 138.83 8.10014 138.903 8.18117C138.83 8.26219 138.756 8.34321 138.61 8.34321C138.536 8.34321 138.463 8.26219 138.389 8.18117C138.536 8.10014 138.61 8.10014 138.683 8.01912ZM137.949 8.42424L138.023 8.50526C137.949 8.50526 137.876 8.50526 137.876 8.50526C137.803 8.50526 137.876 8.50526 137.949 8.42424ZM129.733 3.07669L129.806 3.15771C129.806 3.15771 129.806 3.23873 129.733 3.23873L129.659 3.23873C129.586 3.23873 129.659 3.15771 129.733 3.07669ZM129.072 1.69929C129.146 1.61826 129.219 1.61826 129.292 1.78031L129.219 1.86133C129.219 1.86133 129.146 1.86134 129.146 1.78031C128.999 1.78031 128.999 1.69929 129.072 1.69929ZM127.678 9.96368C127.752 9.96368 127.825 9.96368 127.899 10.0447C127.752 10.0447 127.678 9.96368 127.532 9.96368C127.605 9.96368 127.605 9.96368 127.678 9.96368ZM127.165 1.29417C127.238 1.29417 127.238 1.3752 127.312 1.3752L127.238 1.45622L127.165 1.3752L127.165 1.29417ZM124.744 8.42424L124.817 8.50526L124.744 8.58629C124.671 8.58629 124.671 8.50526 124.671 8.50526C124.671 8.50526 124.671 8.50526 124.744 8.42424ZM121.223 8.50526C121.296 8.50526 121.296 8.42424 121.369 8.42424C121.736 8.34321 122.103 8.42424 122.25 8.91038C122.25 8.91038 122.25 8.9914 122.25 9.07243C122.25 9.15345 122.176 9.15345 122.103 9.15345C121.883 9.07243 121.663 8.91038 121.516 8.82936C121.516 8.74833 121.443 8.66731 121.443 8.58629C121.369 8.58629 121.296 8.66731 121.223 8.66731C121.223 8.66731 121.223 8.66731 121.149 8.66731C121.223 8.58629 121.223 8.58628 121.223 8.50526ZM120.342 8.42424L120.416 8.50526C120.416 8.50526 120.416 8.58629 120.342 8.58629L120.269 8.58629C120.195 8.58629 120.195 8.50526 120.342 8.42424ZM20.7087 13.2857L20.782 13.3667C20.782 13.4477 20.782 13.5287 20.782 13.6097C20.6353 13.6097 20.4886 13.6097 20.3419 13.6097L20.3419 13.5287C20.4152 13.4477 20.5619 13.3667 20.7087 13.2857Z" fill="#155B11"/>
</svg>
