<svg width="150" height="34" viewBox="0 0 150 34" fill="none" xmlns="http://www.w3.org/2000/svg">
<rect x="0.796875" y="0.441895" width="148.406" height="33.1731" rx="15" fill="white"/>
<g clip-path="url(#clip0)">
<path d="M17.1938 13.2887L15.2439 15.3414L13.2941 13.2887C12.2183 12.1562 12.2183 10.3159 13.2941 9.14797C14.3698 8.01546 16.118 8.01546 17.1938 9.14797C18.2695 10.2805 18.2695 12.1562 17.1938 13.2887Z" fill="#59B224"/>
<path d="M13.2941 19.0927L15.2439 17.04L17.1938 19.0927C18.2695 20.2252 18.2695 22.0655 17.1938 23.2334C16.118 24.366 14.3698 24.366 13.2941 23.2334C12.2183 22.0655 12.2183 20.2252 13.2941 19.0927Z" fill="#113A13"/>
<path d="M17.9669 18.2433L16.0171 16.1906L17.9669 14.138C19.0427 13.0054 20.7908 13.0054 21.8666 14.138C22.9424 15.2705 22.9424 17.1108 21.8666 18.2787C20.7908 19.3758 19.0427 19.3758 17.9669 18.2433Z" fill="#257524"/>
<path d="M12.4872 14.1028L14.4371 16.1555L12.4872 18.2435C11.4114 19.376 9.66331 19.376 8.58753 18.2435C7.51176 17.111 7.51176 15.2707 8.58753 14.1028C9.66331 12.9703 11.4114 12.9703 12.4872 14.1028Z" fill="#99D255"/>
<path d="M121.746 13.1472H113.677V15.5538H116.535V22.7735H118.888V15.5538H121.746V13.1472Z" fill="#113A13"/>
<path d="M44.0209 20.7916C44.9285 20.7916 45.6681 20.4023 46.0716 19.836L47.9542 21.0039C47.1137 22.3134 45.7354 23.0566 43.9872 23.0566C40.928 23.0566 39.0118 20.827 39.0118 17.9603C39.0118 15.0936 40.9616 12.864 43.8191 12.864C46.5086 12.864 48.4248 15.129 48.4248 17.9603C48.4248 18.3142 48.3912 18.6681 48.324 18.9866H41.4659C41.8021 20.2607 42.777 20.7916 44.0209 20.7916ZM46.0716 17.0755C45.769 15.6953 44.7941 15.129 43.8191 15.129C42.5753 15.129 41.7012 15.8368 41.4323 17.0755H46.0716Z" fill="#113A13"/>
<path d="M59.7877 17.9603C59.7877 20.827 57.7706 23.0566 55.3501 23.0566C54.0054 23.0566 53.0641 22.5257 52.3917 21.641V26.6311H50.0385V13.1471H52.3917V14.2796C53.0305 13.3949 54.0054 12.864 55.3501 12.864C57.8042 12.8994 59.7877 15.0936 59.7877 17.9603ZM57.4344 17.9603C57.4344 16.3323 56.3586 15.2352 54.9131 15.2352C53.4675 15.2352 52.3917 16.3323 52.3917 17.9603C52.3917 19.5883 53.4675 20.6854 54.9131 20.6854C56.3586 20.6854 57.4344 19.5883 57.4344 17.9603Z" fill="#113A13"/>
<path d="M66.007 20.7916C66.9147 20.7916 67.6543 20.4023 68.0577 19.836L69.9403 21.0039C69.0999 22.3134 67.7215 23.0566 65.9734 23.0566C62.9142 23.0566 60.9979 20.827 60.9979 17.9603C60.9979 15.0936 62.9478 12.864 65.8053 12.864C68.4947 12.864 70.411 15.129 70.411 17.9603C70.411 18.3142 70.3773 18.6681 70.3101 18.9866H63.452C63.7546 20.2607 64.7631 20.7916 66.007 20.7916ZM68.0577 17.0755C67.7551 15.6953 66.7802 15.129 65.8053 15.129C64.5614 15.129 63.6874 15.8368 63.4184 17.0755H68.0577Z" fill="#113A13"/>
<path d="M92.0273 17.9603C92.0273 20.827 90.0102 23.0566 87.5897 23.0566C86.245 23.0566 85.3037 22.5257 84.6313 21.641V26.6311H82.2781V13.1471H84.6313V14.2796C85.2701 13.3949 86.245 12.864 87.5897 12.864C90.0102 12.8994 92.0273 15.0936 92.0273 17.9603ZM89.674 17.9603C89.674 16.3323 88.5983 15.2352 87.1527 15.2352C85.7071 15.2352 84.6313 16.3323 84.6313 17.9603C84.6313 19.5883 85.7071 20.6854 87.1527 20.6854C88.5983 20.6854 89.674 19.5883 89.674 17.9603Z" fill="#113A13"/>
<path d="M98.213 20.7917C99.1207 20.7917 99.8603 20.4024 100.264 19.8361L102.146 21.004C101.306 22.3135 99.9275 23.0567 98.1794 23.0567C95.1201 23.0567 93.2039 20.827 93.2039 17.9604C93.2039 15.0937 95.1538 12.8641 98.0113 12.8641C100.701 12.8641 102.617 15.1291 102.617 17.9604C102.617 18.3143 102.583 18.6682 102.516 18.9867H95.658C95.9942 20.2608 97.0027 20.7917 98.213 20.7917ZM94.9184 10.8468C94.9184 10.139 95.4899 9.53735 96.1623 9.53735C96.8347 9.53735 97.3725 10.139 97.3725 10.8468C97.3725 11.5546 96.8347 12.1209 96.1623 12.1209C95.4899 12.1209 94.9184 11.5546 94.9184 10.8468ZM100.264 17.0756C99.9611 15.6954 98.9862 15.1291 98.0113 15.1291C96.7674 15.1291 95.8934 15.8369 95.6244 17.0756H100.264ZM98.3811 10.8468C98.3811 10.139 98.9526 9.53735 99.625 9.53735C100.297 9.53735 100.835 10.139 100.835 10.8468C100.835 11.5546 100.297 12.1209 99.625 12.1209C98.9526 12.1209 98.3811 11.5546 98.3811 10.8468Z" fill="#113A13"/>
<path d="M103.726 17.9603C103.726 15.0936 105.777 12.864 108.534 12.864C110.315 12.864 111.862 13.855 112.601 15.3414L110.584 16.5801C110.215 15.8015 109.441 15.306 108.5 15.306C107.088 15.306 106.046 16.4031 106.046 17.9603C106.046 19.4821 107.088 20.5792 108.5 20.5792C109.441 20.5792 110.215 20.0838 110.584 19.3052L112.635 20.5438C111.862 22.0303 110.315 23.0566 108.534 23.0566C105.743 23.0566 103.726 20.827 103.726 17.9603Z" fill="#113A13"/>
<path d="M122.519 17.9603C122.519 15.0936 124.637 12.864 127.326 12.864C130.016 12.864 132.167 15.0936 132.167 17.9603C132.167 20.827 130.016 23.0566 127.326 23.0566C124.637 23.0566 122.519 20.827 122.519 17.9603ZM129.78 17.9603C129.78 16.4031 128.704 15.306 127.292 15.306C125.914 15.306 124.838 16.4031 124.838 17.9603C124.838 19.5175 125.914 20.6146 127.292 20.6146C128.704 20.6146 129.78 19.5175 129.78 17.9603Z" fill="#113A13"/>
<path d="M78.0086 22.7735H80.7317L77.2354 17.925L80.6308 13.1472H77.8069L75.1847 17.0756H74.3779V13.1472H72.0246V22.7735H74.3779V18.9867H75.3864L78.0086 22.7735Z" fill="#113A13"/>
<path d="M139.496 22.7735H142.219L138.756 17.925L142.118 13.1472H139.328L136.672 17.0756H135.899V13.1472H133.545V22.7735H135.899V18.9867H136.874L139.496 22.7735Z" fill="#113A13"/>
<path d="M37.4654 22.7735H34.944V12.0147H30.4392V22.7735H27.9515V9.53735H37.4654V22.7735Z" fill="#113A13"/>
</g>
<defs>
<clipPath id="clip0">
<rect width="134.438" height="18.3325" fill="white" transform="translate(7.7807 8.29858)"/>
</clipPath>
</defs>
</svg>
