<svg width="128" height="110" viewBox="0 0 128 110" fill="none" xmlns="http://www.w3.org/2000/svg">
<path d="M85.427 37.5133L84.4764 37.8237L85.427 37.5133ZM63.998 61.7635L63.0928 62.1883L63.998 61.7635ZM96.4902 54.5941L95.7181 55.2296L96.4902 54.5941ZM91.2223 105.373C91.3182 105.917 91.8369 106.28 92.3808 106.185L101.244 104.621C101.788 104.525 102.151 104.007 102.055 103.463C101.959 102.919 101.44 102.556 100.897 102.652L93.0182 104.041L91.6286 96.1628C91.5327 95.6189 91.014 95.2558 90.4701 95.3517C89.9262 95.4476 89.5631 95.9663 89.659 96.5102L91.2223 105.373ZM23.4229 15.1878C23.8932 15.0727 24.3791 14.9599 24.8795 14.85L24.4505 12.8966C23.935 13.0098 23.4336 13.1262 22.9476 13.2451L23.4229 15.1878ZM27.8212 14.2699C28.778 14.1016 29.7722 13.9455 30.7986 13.805L30.5272 11.8235C29.4758 11.9675 28.4565 12.1274 27.4747 12.3002L27.8212 14.2699ZM33.7861 13.4511C34.7674 13.3527 35.7705 13.2696 36.7913 13.2041L36.6632 11.2082C35.6181 11.2753 34.5912 11.3603 33.5866 11.461L33.7861 13.4511ZM39.7954 13.0656C40.7882 13.0379 41.7932 13.0279 42.8068 13.0377L42.826 11.0378C41.7866 11.0278 40.7567 11.038 39.7397 11.0664L39.7954 13.0656ZM45.8136 13.125C46.8088 13.1737 47.8089 13.2427 48.8106 13.3336L48.9915 11.3418C47.961 11.2483 46.9333 11.1774 45.9113 11.1274L45.8136 13.125ZM51.7942 13.6712C52.7837 13.8059 53.7716 13.9637 54.7551 14.1464L55.1203 12.1801C54.1038 11.9912 53.084 11.8283 52.0639 11.6895L51.7942 13.6712ZM57.6836 14.7693C58.6539 15.0029 59.6166 15.2628 60.5687 15.5508L61.1477 13.6364C60.1573 13.3369 59.1576 13.067 58.1517 12.8248L57.6836 14.7693ZM63.396 16.5023C64.3286 16.8497 65.2474 17.227 66.1495 17.6357L66.9748 15.8139C66.0292 15.3855 65.0679 14.9908 64.0941 14.6281L63.396 16.5023ZM68.8084 18.961C69.6765 19.4357 70.5247 19.9436 71.3504 20.4865L72.4491 18.8153C71.5766 18.2417 70.6818 17.7059 69.7681 17.2062L68.8084 18.961ZM73.7506 22.2166C74.5203 22.8244 75.2653 23.4682 75.9827 24.1495L77.36 22.6993C76.5973 21.9751 75.8063 21.2915 74.99 20.647L73.7506 22.2166ZM78.0249 26.2798C78.6651 27.0139 79.2771 27.7853 79.8584 28.5955L81.4834 27.4296C80.865 26.5676 80.2136 25.7467 79.5323 24.9653L78.0249 26.2798ZM81.4642 31.0702C81.9521 31.9043 82.4109 32.7746 82.8383 33.6825L84.6478 32.8306C84.1953 31.8693 83.7087 30.9463 83.1905 30.0604L81.4642 31.0702ZM83.9835 36.4106C84.1553 36.8729 84.3197 37.3439 84.4764 37.8237L86.3776 37.2028C86.2126 36.6977 86.0394 36.2015 85.8582 35.7138L83.9835 36.4106ZM84.4764 37.8237C84.6384 38.3199 84.793 38.8095 84.9404 39.2928L86.8534 38.7095C86.7022 38.2135 86.5436 37.7113 86.3776 37.2028L84.4764 37.8237ZM85.7589 42.1945C86.0195 43.2024 86.2462 44.1792 86.441 45.1254L88.3999 44.7221C88.1982 43.742 87.9638 42.7328 87.6953 41.694L85.7589 42.1945ZM86.9622 48.0817C87.1121 49.1131 87.2207 50.1028 87.2911 51.0514L89.2856 50.9034C89.2116 49.9058 89.0977 48.8695 88.9415 47.7941L86.9622 48.0817ZM87.3888 54.0118C87.3772 55.0561 87.314 56.0404 87.2048 56.9662L89.1911 57.2005C89.3091 56.2001 89.3764 55.1448 89.3887 54.034L87.3888 54.0118ZM86.6782 59.8362C86.4219 60.8355 86.1032 61.7452 85.7331 62.5691L87.5576 63.3886C87.9773 62.4541 88.3327 61.4359 88.6155 60.3331L86.6782 59.8362ZM84.3091 65.0241C83.7226 65.8159 83.0734 66.4854 82.3797 67.0397L83.6282 68.6021C84.4609 67.9367 85.2298 67.1413 85.9162 66.2145L84.3091 65.0241ZM79.9972 68.4433C79.1351 68.796 78.233 69.0179 77.3127 69.1134L77.5191 71.1027C78.6231 70.9882 79.7111 70.7212 80.7544 70.2944L79.9972 68.4433ZM74.5256 69.0258C73.6161 68.8771 72.7099 68.6124 71.8287 68.2349L71.0412 70.0734C72.0673 70.5129 73.1294 70.8241 74.203 70.9996L74.5256 69.0258ZM69.3694 66.8319C68.6202 66.2863 67.911 65.648 67.2593 64.9204L65.7695 66.2548C66.5146 67.0866 67.3284 67.8196 68.1921 68.4486L69.3694 66.8319ZM65.5736 62.6096C65.3344 62.2038 65.1104 61.78 64.9033 61.3386L63.0928 62.1883C63.3263 62.686 63.5795 63.165 63.8504 63.6249L65.5736 62.6096ZM64.9033 61.3386C64.6906 60.8853 64.5072 60.4363 64.3518 59.9924L62.4642 60.6536C62.6427 61.1633 62.852 61.6752 63.0928 62.1883L64.9033 61.3386ZM63.7187 57.1903C63.6205 56.2096 63.6575 55.2628 63.814 54.3602L61.8434 54.0185C61.6556 55.1021 61.6126 56.2308 61.7286 57.3896L63.7187 57.1903ZM64.6819 51.6776C65.0938 50.8323 65.6237 50.0418 66.2579 49.3199L64.7553 47.9999C64.0077 48.851 63.377 49.7899 62.884 50.8015L64.6819 51.6776ZM68.3989 47.4166C69.1697 46.8799 70.0196 46.4158 70.9363 46.037L70.1725 44.1886C69.1264 44.6209 68.1489 45.1536 67.2561 45.7752L68.3989 47.4166ZM73.7248 45.198C74.6552 45.0132 75.6298 44.9076 76.6389 44.8903L76.6046 42.8906C75.478 42.9099 74.3845 43.0279 73.3352 43.2363L73.7248 45.198ZM79.5772 45.0846C80.5208 45.224 81.4847 45.4395 82.462 45.7376L83.0455 43.8246C81.9744 43.4979 80.9132 43.2602 79.8694 43.1061L79.5772 45.0846ZM85.239 46.7987C86.1141 47.2016 86.995 47.673 87.8767 48.2177L88.9277 46.5161C87.9784 45.9297 87.0259 45.4195 86.0754 44.9819L85.239 46.7987ZM90.333 49.9288C91.1009 50.5265 91.8662 51.1833 92.6257 51.9022L94.0006 50.4497C93.1956 49.6877 92.3815 48.9888 91.5615 48.3505L90.333 49.9288ZM94.7226 54.0669C95.0563 54.4414 95.3883 54.8289 95.7181 55.2296L97.2623 53.9586C96.9161 53.5379 96.5671 53.1305 96.2157 52.7362L94.7226 54.0669ZM95.7181 55.2296C96.0307 55.6093 96.3296 55.9932 96.6152 56.3811L98.2255 55.1949C97.9186 54.7782 97.5976 54.366 97.2623 53.9586L95.7181 55.2296ZM98.2081 58.8121C98.6994 59.6605 99.136 60.5244 99.5214 61.4011L101.352 60.5962C100.938 59.653 100.468 58.7232 99.9389 57.8099L98.2081 58.8121ZM100.546 64.1249C100.84 65.0544 101.084 65.9953 101.28 66.945L103.239 66.5395C103.029 65.5257 102.768 64.5187 102.453 63.5219L100.546 64.1249ZM101.735 69.8317C101.842 70.8018 101.905 71.7777 101.928 72.7565L103.927 72.7093C103.903 71.676 103.836 70.6427 103.723 69.6128L101.735 69.8317ZM101.881 75.6959C101.828 76.676 101.739 77.6556 101.617 78.6316L103.601 78.8792C103.729 77.8594 103.822 76.8332 103.878 75.8041L101.881 75.6959ZM101.157 81.5506C100.973 82.5229 100.76 83.488 100.521 84.4427L102.462 84.927C102.709 83.9371 102.93 82.9347 103.122 81.923L101.157 81.5506ZM99.7271 87.2991C99.4347 88.2542 99.1203 89.1944 98.7881 90.1164L100.67 90.7943C101.012 89.8431 101.337 88.872 101.64 87.8845L99.7271 87.2991ZM97.7155 92.8901C97.3295 93.8243 96.9287 94.7334 96.5184 95.6133L98.3311 96.4585C98.7535 95.5525 99.1662 94.6163 99.5639 93.6539L97.7155 92.8901ZM95.2022 98.2807C94.7263 99.1935 94.2456 100.063 93.7678 100.885L95.4964 101.891C95.9898 101.043 96.4854 100.146 96.9757 99.2054L95.2022 98.2807ZM92.2121 103.408C91.9325 103.835 91.6572 104.242 91.3879 104.626L93.0263 105.773C93.308 105.371 93.5949 104.947 93.8855 104.503L92.2121 103.408Z" fill="white"/>
</svg>
