<svg width="348" height="304" viewBox="0 0 348 304" fill="none" xmlns="http://www.w3.org/2000/svg">
<path d="M241.824 105.895L240.874 106.206L240.874 106.206L241.824 105.895ZM180.55 175.236L179.645 175.661L180.55 175.236ZM273.459 154.736L272.687 155.372L273.459 154.736ZM260.227 299.612C260.323 300.156 260.841 300.519 261.385 300.423L270.248 298.86C270.792 298.764 271.156 298.245 271.06 297.701C270.964 297.157 270.445 296.794 269.901 296.89L262.023 298.28L260.633 290.401C260.537 289.857 260.019 289.494 259.475 289.59C258.931 289.686 258.568 290.205 258.664 290.749L260.227 299.612ZM64.0877 40.2513C64.5537 40.1373 65.025 40.024 65.5014 39.9116L65.0422 37.9651C64.5604 38.0787 64.0838 38.1933 63.6123 38.3087L64.0877 40.2513ZM68.4197 39.2483C69.3638 39.0416 70.3255 38.8385 71.3038 38.6396L70.9053 36.6797C69.9173 36.8806 68.946 37.0857 67.992 37.2945L68.4197 39.2483ZM74.2415 38.0646C75.1978 37.8845 76.1683 37.7085 77.1523 37.5371L76.809 35.5668C75.8161 35.7397 74.8367 35.9173 73.8714 36.0991L74.2415 38.0646ZM80.0926 37.0452C81.0604 36.8899 82.04 36.7391 83.0306 36.5932L82.7393 34.6145C81.7401 34.7617 80.752 34.9138 79.7756 35.0705L80.0926 37.0452ZM85.9756 36.1787C86.9509 36.0478 87.936 35.9217 88.9302 35.8008L88.6889 33.8154C87.6863 33.9373 86.693 34.0645 85.7094 34.1965L85.9756 36.1787ZM91.8819 35.4605C92.862 35.3536 93.8502 35.252 94.8461 35.1557L94.6538 33.165C93.6497 33.262 92.6533 33.3645 91.6651 33.4723L91.8819 35.4605ZM97.8055 34.8881C98.7887 34.8053 99.7786 34.7279 100.775 34.6563L100.631 32.6614C99.6269 32.7337 98.6288 32.8117 97.6376 32.8952L97.8055 34.8881ZM103.742 34.4612C104.727 34.4025 105.717 34.3495 106.713 34.3026L106.619 32.3048C105.615 32.3522 104.616 32.4055 103.623 32.4647L103.742 34.4612ZM109.687 34.1808C110.673 34.1466 111.664 34.1184 112.658 34.0964L112.614 32.0969C111.611 32.1191 110.612 32.1475 109.618 32.182L109.687 34.1808ZM115.638 34.0496C116.624 34.0404 117.614 34.0375 118.607 34.041L118.614 32.041C117.612 32.0375 116.614 32.0404 115.619 32.0497L115.638 34.0496ZM121.588 34.0713C122.574 34.0878 123.563 34.1108 124.554 34.1406L124.614 32.1416C123.614 32.1115 122.617 32.0882 121.622 32.0716L121.588 34.0713ZM127.534 34.2506C128.52 34.2937 129.508 34.3436 130.497 34.4007L130.612 32.404C129.613 32.3464 128.616 32.296 127.621 32.2525L127.534 34.2506ZM133.467 34.593C134.453 34.6639 135.44 34.7419 136.428 34.8274L136.601 32.8348C135.603 32.7485 134.606 32.6697 133.611 32.5981L133.467 34.593ZM139.389 35.1055C140.373 35.2054 141.358 35.3129 142.344 35.428L142.576 33.4416C141.58 33.3252 140.585 33.2166 139.59 33.1157L139.389 35.1055ZM145.291 35.7959C146.273 35.9262 147.254 36.0644 148.235 36.2107L148.53 34.2326C147.539 34.0847 146.547 33.945 145.555 33.8133L145.291 35.7959ZM151.168 36.6728C152.145 36.835 153.121 37.0054 154.096 37.1842L154.457 35.2171C153.471 35.0362 152.484 34.8638 151.496 34.6998L151.168 36.6728ZM157.011 37.7455C157.981 37.9411 158.95 38.1453 159.916 38.3583L160.347 36.4052C159.368 36.1896 158.388 35.9829 157.406 35.7849L157.011 37.7455ZM162.81 39.024C163.772 39.2549 164.732 39.4947 165.689 39.7438L166.192 37.8082C165.223 37.5559 164.251 37.313 163.276 37.0792L162.81 39.024ZM168.553 40.5191C169.506 40.7871 170.455 41.0644 171.401 41.3514L171.982 39.4376C171.023 39.1466 170.06 38.8654 169.095 38.5938L168.553 40.5191ZM174.23 42.2418C175.17 42.5488 176.107 42.8656 177.04 43.1925L177.701 41.3051C176.755 40.9734 175.804 40.6519 174.85 40.3405L174.23 42.2418ZM179.825 44.2035C180.751 44.5514 181.672 44.9096 182.589 45.2782L183.335 43.4227C182.404 43.0482 181.468 42.6845 180.528 42.3313L179.825 44.2035ZM185.324 46.416C186.232 46.8064 187.134 47.2075 188.031 47.6195L188.866 45.802C187.954 45.3831 187.036 44.9754 186.114 44.5786L185.324 46.416ZM190.707 48.8892C191.593 49.3237 192.474 49.7694 193.348 50.2263L194.275 48.4539C193.385 47.9888 192.489 47.5353 191.587 47.0933L190.707 48.8892ZM195.953 51.6323C196.815 52.1125 197.67 52.6041 198.518 53.1075L199.539 51.3876C198.675 50.8748 197.804 50.3741 196.927 49.8852L195.953 51.6323ZM201.041 54.6528C201.875 55.1798 202.701 55.7187 203.519 56.2697L204.636 54.6106C203.802 54.0487 202.959 53.4994 202.11 52.9623L201.041 54.6528ZM205.946 57.9555C206.747 58.5296 207.54 59.116 208.325 59.7148L209.538 58.125C208.737 57.5138 207.928 56.9155 207.111 56.3299L205.946 57.9555ZM210.645 61.5421C211.409 62.1628 212.164 62.7961 212.91 63.4422L214.219 61.9301C213.457 61.2704 212.686 60.6237 211.906 59.99L210.645 61.5421ZM215.113 65.4107C215.835 66.0766 216.548 66.7553 217.251 67.447L218.653 66.0209C217.935 65.3142 217.206 64.6209 216.469 63.9406L215.113 65.4107ZM219.328 69.5555C220.003 70.2642 220.67 70.9856 221.326 71.7202L222.817 70.3874C222.146 69.6368 221.466 68.8995 220.775 68.1753L219.328 69.5555ZM223.266 73.9629C223.892 74.712 224.509 75.474 225.116 76.2489L226.691 75.0158C226.071 74.2238 225.44 73.4451 224.8 72.6795L223.266 73.9629ZM226.903 78.6086C227.481 79.3987 228.049 80.2016 228.607 81.0175L230.258 79.8889C229.688 79.0552 229.108 78.2347 228.517 77.4273L226.903 78.6086ZM230.233 83.4794C230.762 84.3095 231.281 85.1525 231.789 86.0085L233.509 84.9875C232.99 84.1132 232.46 83.2522 231.919 82.4041L230.233 83.4794ZM233.248 88.5554C233.724 89.4169 234.19 90.2911 234.644 91.178L236.424 90.2654C235.96 89.3602 235.485 88.4679 234.999 87.5883L233.248 88.5554ZM235.948 93.8177C236.368 94.7008 236.777 95.5962 237.176 96.5038L239.007 95.699C238.6 94.7734 238.182 93.8601 237.754 92.9591L235.948 93.8177ZM238.335 99.2492C238.699 100.148 239.053 101.057 239.397 101.979L241.271 101.28C240.921 100.341 240.56 99.4139 240.189 98.4982L238.335 99.2492ZM240.397 104.779C240.559 105.252 240.718 105.727 240.874 106.206L242.775 105.585C242.616 105.098 242.454 104.613 242.29 104.132L240.397 104.779ZM240.874 106.206C241.036 106.701 241.195 107.193 241.351 107.684L243.257 107.076C243.099 106.581 242.938 106.084 242.775 105.585L240.874 106.206ZM242.261 110.602C242.554 111.566 242.837 112.521 243.11 113.467L245.031 112.913C244.756 111.957 244.47 110.993 244.174 110.02L242.261 110.602ZM243.917 116.342C244.189 117.339 244.45 118.327 244.7 119.305L246.637 118.81C246.385 117.821 246.121 116.823 245.846 115.816L243.917 116.342ZM245.417 122.209C245.65 123.189 245.873 124.159 246.084 125.119L248.037 124.689C247.823 123.718 247.599 122.737 247.362 121.745L245.417 122.209ZM246.713 128.111C246.91 129.097 247.096 130.071 247.27 131.035L249.238 130.68C249.062 129.703 248.874 128.716 248.674 127.718L246.713 128.111ZM247.774 134.006C247.935 135.018 248.083 136.017 248.217 137.003L250.199 136.733C250.062 135.732 249.913 134.719 249.749 133.692L247.774 134.006ZM248.582 139.923C248.699 140.954 248.801 141.971 248.888 142.972L250.881 142.798C250.792 141.779 250.688 140.746 250.569 139.698L248.582 139.923ZM249.109 145.943C249.171 146.961 249.217 147.963 249.249 148.949L251.248 148.885C251.215 147.879 251.168 146.858 251.105 145.821L249.109 145.943ZM249.299 151.951C249.3 152.962 249.285 153.954 249.254 154.929L251.253 154.992C251.285 153.995 251.3 152.981 251.299 151.949L249.299 151.951ZM249.105 157.939C249.037 158.945 248.952 159.93 248.849 160.895L250.838 161.106C250.943 160.115 251.031 159.105 251.101 158.074L249.105 157.939ZM248.469 163.878C248.32 164.877 248.152 165.853 247.966 166.805L249.928 167.19C250.121 166.207 250.294 165.201 250.447 164.173L248.469 163.878ZM247.322 169.717C247.078 170.703 246.813 171.661 246.529 172.592L248.441 173.177C248.737 172.211 249.011 171.218 249.263 170.198L247.322 169.717ZM245.59 175.377C245.236 176.335 244.86 177.26 244.463 178.153L246.29 178.966C246.705 178.032 247.098 177.068 247.466 176.071L245.59 175.377ZM243.173 180.807C242.705 181.69 242.214 182.538 241.703 183.35L243.396 184.415C243.934 183.56 244.449 182.67 244.94 181.744L243.173 180.807ZM240.025 185.797C239.427 186.597 238.806 187.357 238.165 188.077L239.658 189.407C240.338 188.644 240.995 187.84 241.627 186.995L240.025 185.797ZM236.121 190.174C235.398 190.852 234.654 191.485 233.892 192.074L235.116 193.656C235.928 193.028 236.72 192.354 237.488 191.634L236.121 190.174ZM231.483 193.756C230.648 194.28 229.795 194.757 228.927 195.188L229.816 196.98C230.744 196.519 231.655 196.01 232.546 195.45L231.483 193.756ZM226.243 196.356C225.327 196.701 224.397 196.999 223.456 197.25L223.971 199.183C224.976 198.915 225.969 198.597 226.949 198.227L226.243 196.356ZM220.591 197.865C219.626 198.023 218.654 198.134 217.676 198.199L217.809 200.195C218.849 200.125 219.886 200.007 220.914 199.839L220.591 197.865ZM214.742 198.256C213.766 198.229 212.789 198.158 211.812 198.043L211.577 200.029C212.613 200.151 213.651 200.227 214.687 200.255L214.742 198.256ZM208.91 197.569C207.954 197.37 207.002 197.128 206.055 196.845L205.482 198.762C206.482 199.061 207.49 199.316 208.502 199.527L208.91 197.569ZM203.267 195.884C202.357 195.527 201.455 195.132 200.565 194.697L199.688 196.495C200.627 196.953 201.577 197.37 202.538 197.746L203.267 195.884ZM197.969 193.303C197.127 192.807 196.299 192.276 195.485 191.709L194.342 193.351C195.197 193.946 196.069 194.505 196.954 195.026L197.969 193.303ZM193.125 189.93C192.365 189.312 191.622 188.66 190.898 187.976L189.525 189.43C190.284 190.148 191.064 190.832 191.862 191.481L193.125 189.93ZM188.825 185.872C188.165 185.153 187.525 184.405 186.905 183.627L185.341 184.872C185.989 185.687 186.66 186.471 187.351 187.224L188.825 185.872ZM185.141 181.246C184.585 180.438 184.05 179.604 183.538 178.743L181.819 179.764C182.353 180.664 182.913 181.536 183.495 182.381L185.141 181.246ZM182.114 176.158C181.889 175.715 181.669 175.266 181.456 174.811L179.645 175.661C179.868 176.136 180.097 176.604 180.332 177.066L182.114 176.158ZM181.456 174.811C181.244 174.361 181.043 173.912 180.85 173.464L179.013 174.253C179.214 174.722 179.424 175.191 179.645 175.661L181.456 174.811ZM179.807 170.787C179.48 169.854 179.194 168.928 178.947 168.008L177.016 168.527C177.276 169.495 177.577 170.469 177.919 171.448L179.807 170.787ZM178.308 165.191C178.13 164.233 177.995 163.284 177.901 162.345L175.911 162.544C176.011 163.54 176.154 164.544 176.341 165.555L178.308 165.191ZM177.74 159.482C177.727 158.509 177.759 157.549 177.834 156.601L175.84 156.444C175.761 157.453 175.727 158.474 175.74 159.507L177.74 159.482ZM178.192 153.75C178.357 152.801 178.565 151.866 178.815 150.948L176.885 150.423C176.619 151.401 176.397 152.397 176.222 153.408L178.192 153.75ZM179.698 148.219C180.036 147.321 180.415 146.442 180.834 145.582L179.037 144.706C178.59 145.621 178.186 146.558 177.826 147.514L179.698 148.219ZM182.211 143.059C182.707 142.241 183.241 141.444 183.811 140.669L182.2 139.484C181.595 140.306 181.028 141.152 180.501 142.022L182.211 143.059ZM185.615 138.428C186.246 137.71 186.91 137.015 187.606 136.345L186.219 134.904C185.483 135.613 184.78 136.348 184.113 137.108L185.615 138.428ZM189.764 134.429C190.505 133.823 191.275 133.242 192.072 132.687L190.929 131.045C190.09 131.63 189.279 132.242 188.497 132.882L189.764 134.429ZM194.505 131.125C195.327 130.639 196.174 130.179 197.044 129.747L196.153 127.956C195.241 128.41 194.352 128.893 193.488 129.403L194.505 131.125ZM199.68 128.55C200.566 128.183 201.472 127.844 202.398 127.533L201.76 125.637C200.793 125.963 199.844 126.318 198.916 126.701L199.68 128.55ZM205.181 126.698C206.105 126.453 207.046 126.235 208.001 126.045L207.611 124.083C206.615 124.281 205.634 124.508 204.668 124.764L205.181 126.698ZM210.865 125.568C211.818 125.438 212.785 125.337 213.763 125.263L213.613 123.269C212.595 123.345 211.589 123.451 210.596 123.586L210.865 125.568ZM216.664 125.13C217.622 125.113 218.59 125.124 219.568 125.162L219.645 123.163C218.631 123.124 217.625 123.113 216.629 123.13L216.664 125.13ZM222.481 125.356C223.436 125.446 224.399 125.562 225.369 125.705L225.661 123.727C224.657 123.578 223.659 123.458 222.668 123.365L222.481 125.356ZM228.234 126.204C229.182 126.394 230.135 126.61 231.093 126.853L231.584 124.914C230.594 124.663 229.608 124.44 228.627 124.243L228.234 126.204ZM233.889 127.633C234.81 127.914 235.735 128.22 236.662 128.551L237.334 126.667C236.378 126.326 235.423 126.01 234.472 125.72L233.889 127.633ZM239.395 129.597C240.283 129.96 241.173 130.346 242.065 130.757L242.901 128.94C241.983 128.518 241.067 128.12 240.152 127.746L239.395 129.597ZM244.715 132.046C245.565 132.482 246.416 132.94 247.268 133.421L248.251 131.679C247.376 131.186 246.502 130.715 245.627 130.266L244.715 132.046ZM249.806 134.921C250.621 135.424 251.435 135.949 252.249 136.494L253.363 134.833C252.528 134.274 251.693 133.736 250.857 133.22L249.806 134.921ZM254.669 138.181C255.445 138.744 256.221 139.326 256.995 139.929L258.223 138.351C257.431 137.734 256.637 137.138 255.842 136.561L254.669 138.181ZM259.296 141.783C260.032 142.397 260.767 143.03 261.5 143.681L262.829 142.187C262.08 141.521 261.329 140.875 260.577 140.247L259.296 141.783ZM263.687 145.688C264.381 146.346 265.073 147.021 265.764 147.713L267.18 146.301C266.477 145.595 265.77 144.907 265.062 144.236L263.687 145.688ZM267.827 149.845C268.485 150.544 269.14 151.259 269.792 151.991L271.286 150.661C270.621 149.915 269.954 149.186 269.284 148.474L267.827 149.845ZM271.726 154.22C272.047 154.6 272.367 154.984 272.687 155.372L274.231 154.101C273.906 153.706 273.58 153.315 273.254 152.929L271.726 154.22ZM272.687 155.372C273.003 155.756 273.315 156.143 273.622 156.53L275.19 155.288C274.875 154.891 274.555 154.495 274.231 154.101L272.687 155.372ZM275.41 158.874C275.995 159.673 276.562 160.477 277.11 161.287L278.766 160.166C278.204 159.335 277.623 158.51 277.022 157.691L275.41 158.874ZM278.712 163.754C279.236 164.595 279.74 165.441 280.226 166.292L281.963 165.301C281.464 164.428 280.947 163.56 280.41 162.697L278.712 163.754ZM281.632 168.872C282.089 169.75 282.528 170.633 282.948 171.521L284.756 170.666C284.325 169.755 283.875 168.849 283.406 167.948L281.632 168.872ZM284.155 174.205C284.543 175.113 284.912 176.025 285.263 176.942L287.131 176.226C286.77 175.286 286.392 174.351 285.994 173.42L284.155 174.205ZM286.266 179.714C286.584 180.647 286.885 181.583 287.167 182.523L289.083 181.947C288.793 180.984 288.485 180.024 288.159 179.069L286.266 179.714ZM287.967 185.365C288.216 186.317 288.449 187.272 288.664 188.231L290.615 187.792C290.395 186.811 290.157 185.833 289.901 184.858L287.967 185.365ZM289.263 191.124C289.447 192.092 289.614 193.062 289.765 194.034L291.741 193.727C291.587 192.733 291.416 191.741 291.229 190.752L289.263 191.124ZM290.171 196.962C290.291 197.94 290.395 198.919 290.485 199.901L292.476 199.719C292.385 198.718 292.279 197.717 292.156 196.718L290.171 196.962ZM290.708 202.849C290.768 203.833 290.813 204.818 290.844 205.804L292.843 205.741C292.811 204.736 292.765 203.732 292.704 202.728L290.708 202.849ZM290.895 208.763C290.899 209.75 290.888 210.736 290.865 211.723L292.864 211.771C292.888 210.766 292.899 209.761 292.895 208.756L290.895 208.763ZM290.756 214.682C290.706 215.668 290.645 216.654 290.571 217.639L292.565 217.789C292.64 216.788 292.703 215.785 292.753 214.782L290.756 214.682ZM290.312 220.591C290.214 221.574 290.104 222.556 289.983 223.536L291.968 223.781C292.091 222.786 292.203 221.788 292.302 220.789L290.312 220.591ZM289.586 226.475C289.443 227.453 289.289 228.43 289.124 229.404L291.096 229.737C291.263 228.749 291.42 227.758 291.565 226.765L289.586 226.475ZM288.599 232.324C288.414 233.296 288.218 234.266 288.014 235.233L289.97 235.648C290.178 234.668 290.376 233.685 290.564 232.699L288.599 232.324ZM287.37 238.129C287.145 239.095 286.911 240.057 286.669 241.016L288.608 241.506C288.853 240.535 289.09 239.561 289.318 238.582L287.37 238.129ZM285.915 243.884C285.653 244.842 285.384 245.796 285.107 246.745L287.026 247.306C287.307 246.346 287.58 245.381 287.844 244.411L285.915 243.884ZM284.248 249.588C283.953 250.536 283.651 251.478 283.341 252.414L285.24 253.042C285.553 252.094 285.859 251.141 286.158 250.183L284.248 249.588ZM282.384 255.231C282.057 256.169 281.724 257.099 281.384 258.023L283.262 258.713C283.605 257.779 283.942 256.838 284.273 255.891L282.384 255.231ZM280.335 260.809C279.977 261.738 279.612 262.66 279.243 263.574L281.098 264.323C281.471 263.4 281.839 262.468 282.201 261.529L280.335 260.809ZM278.111 266.314C277.722 267.236 277.328 268.148 276.93 269.052L278.76 269.858C279.162 268.945 279.56 268.023 279.953 267.092L278.111 266.314ZM275.712 271.759C275.296 272.666 274.876 273.563 274.453 274.448L276.258 275.31C276.685 274.416 277.109 273.51 277.53 272.594L275.712 271.759ZM273.147 277.128C272.703 278.024 272.256 278.906 271.807 279.776L273.585 280.693C274.038 279.814 274.49 278.922 274.939 278.018L273.147 277.128ZM270.427 282.401C269.951 283.29 269.474 284.163 268.997 285.02L270.745 285.993C271.227 285.126 271.709 284.244 272.19 283.346L270.427 282.401ZM267.531 287.605C267.029 288.473 266.528 289.323 266.028 290.154L267.742 291.184C268.248 290.344 268.755 289.484 269.262 288.606L267.531 287.605ZM264.475 292.686C263.936 293.547 263.401 294.385 262.871 295.197L264.545 296.29C265.083 295.467 265.625 294.619 266.171 293.747L264.475 292.686ZM261.22 297.668C260.942 298.074 260.666 298.473 260.392 298.865L262.031 300.012C262.309 299.614 262.589 299.209 262.871 298.797L261.22 297.668Z" fill="white"/>
</svg>
