<svg width="20" height="20" viewBox="0 0 20 20" fill="none" xmlns="http://www.w3.org/2000/svg">
<path fill-rule="evenodd" clip-rule="evenodd" d="M6.66699 0H5.33366V4H6.66699V0ZM20 5.33341C20 3.12428 18.2091 1.33341 16 1.33341V2.66675C17.4728 2.66675 18.6667 3.86066 18.6667 5.33341H1.33333C1.33333 3.86066 2.52724 2.66675 4 2.66675V1.33341C1.79086 1.33341 0 3.12428 0 5.33341V16.0001C0 18.2092 1.79086 20.0001 4 20.0001H16C18.2091 20.0001 20 18.2092 20 16.0001V5.33341ZM7.99967 2.66675H11.9997V1.33341H7.99967V2.66675ZM1.33301 6.66667V16C1.33301 17.4728 2.52692 18.6667 3.99967 18.6667H15.9997C17.4724 18.6667 18.6663 17.4728 18.6663 16V6.66667H1.33301ZM13.3333 0H14.6667V4H13.3333V0ZM6.6671 8.00008H2.6671V12.0001H6.6671V8.00008ZM7.99967 8.00008H11.9997V12.0001H7.99967V8.00008ZM6.6671 13.3333H2.6671V17.3333H6.6671V13.3333ZM7.99967 13.3333H11.9997V17.3333H7.99967V13.3333ZM17.3333 8.00008H13.3333V12.0001H17.3333V8.00008Z" fill="#155B11"/>
</svg>
