<svg width="12" height="15" viewBox="0 0 12 15" fill="none" xmlns="http://www.w3.org/2000/svg">
<path fill-rule="evenodd" clip-rule="evenodd" d="M2.31055 3.24078C2.31055 5.00716 3.86227 6.43908 5.7764 6.43908C7.69054 6.43908 9.24225 5.00716 9.24225 3.24078C9.24225 1.47441 7.69054 0.0424805 5.7764 0.0424805C3.86227 0.0424805 2.31055 1.47441 2.31055 3.24078ZM4.05121 13.9576C4.59602 13.9305 5.1755 13.9017 5.77642 13.9017C6.37733 13.9017 6.95682 13.9305 7.50162 13.9576C9.84916 14.0742 11.5528 14.1589 11.5528 11.7695C11.5528 8.82554 8.96665 7.50509 5.77642 7.50509C2.58619 7.50509 0 8.82554 0 11.7695C0 14.1589 1.70367 14.0742 4.05121 13.9576Z" fill="white"/>
</svg>
