<svg width="24" height="30" viewBox="0 0 24 30" fill="none" xmlns="http://www.w3.org/2000/svg">
<path fill-rule="evenodd" clip-rule="evenodd" d="M4.8 6.64419C4.8 10.3137 8.02355 13.2884 12 13.2884C15.9764 13.2884 19.2 10.3137 19.2 6.64419C19.2 2.97471 15.9764 0 12 0C8.02355 0 4.8 2.97471 4.8 6.64419ZM8.41604 28.9073C9.54783 28.8511 10.7517 28.7913 12 28.7913C13.2483 28.7913 14.4522 28.8511 15.584 28.9073C20.4608 29.1497 24 29.3256 24 24.3618C24 18.246 18.6274 15.5029 12 15.5029C5.37258 15.5029 0 18.246 0 24.3618C0 29.3256 3.53923 29.1497 8.41604 28.9073Z" fill="white"/>
</svg>
