<svg width="21" height="20" viewBox="0 0 21 20" fill="none" xmlns="http://www.w3.org/2000/svg">
<path fill-rule="evenodd" clip-rule="evenodd" d="M5.20711 7.5C5.20711 9.02862 5.66442 10.4504 6.4497 11.6361L0.43934 16.6464C-0.146447 17.2322 -0.146447 18.182 0.43934 18.7678C1.02513 19.3536 1.97487 19.3536 2.56066 18.7678L8.57102 13.7574C9.75667 14.5427 11.1785 15 12.7071 15C16.8492 15 20.2071 11.6421 20.2071 7.5C20.2071 3.35786 16.8492 0 12.7071 0C8.56497 0 5.20711 3.35786 5.20711 7.5ZM17.2071 7.5C17.2071 9.98528 15.1924 12 12.7071 12C10.2218 12 8.20711 9.98528 8.20711 7.5C8.20711 5.01472 10.2218 3 12.7071 3C15.1924 3 17.2071 5.01472 17.2071 7.5Z" fill="#155B11"/>
</svg>
